DBRep_DrawableShape

CASCADE Topology V3, (c) Open Cascade
Locations 1
1
-5.80994286407041e-13 0.301352063570725 0.953512943688582 14.2277434937913 
              1 2.12199430823272e-13 5.42255407713461e-13 16.9250000000002 
-3.89251178365037e-14 0.953512943688582 -0.301352063570725 -9.27774349559695 
Curve2ds 32
1 0 19.074999999999999 1 0 
1 6.2831853071795862 0 0 1 
1 0 0 0 1 
7 0 0  3 113 111  0 6.6500000000000004  0.0048471012842234984 6.6499989341252208  0.014539884941430437 6.6502099865113236  0.02906377958014783 6.6511620370446431  0.043561381380794906 6.6527450986739165  0.05802163592400067 6.6549560419597817  0.072433472703146151 6.6577919036440711  0.086785827411247851 6.6612498164538536  0.1010671204303728 6.6653231535583943  0.11526567583641523 6.6700050429452222  0.1293695111954829 6.6752888735575899  0.14336747737793143 6.6811671499602561  0.15725018749296993 6.6876305353252778  0.17100776852999111 6.6946700028338553  0.18463029530045816 6.7022764431853883  0.19810771283433493 6.7104407669972765  0.21143185140015941 6.7191525871029993  0.22459432385580502 6.7284015191230706  0.2375865981679457 6.7381771816369644  0.25039986430486394 6.7484691786012148  0.26302561137120772 6.7592671720199844  0.27545694285000977 6.770561060132116  0.28768653005557354 6.7823407142488197  0.29970690615819962 6.7945960037561681  0.31151044034160424 6.8073168326684126  0.32308922103339466 6.8204929684122089  0.33443575607057863 6.8341148505838811  0.34554284718956119 6.8481734925821049  0.3564029904108228 6.8626597816173165  0.36700852451258381 6.8775646391946701  0.37735160939724466 6.8928789758286619  0.38742422330127102 6.9085937117017222  0.3972182507157358 6.9246997393152201  0.40672509187539596 6.9411880911238546  0.41593574407377876 6.9580498997300833  0.42484109550217397 6.9752762709834712  0.43343187104927239 6.9928583324763318  0.44169864009259463 7.0107871515829112  0.44963188591697989 7.0290540148069622  0.45722175438339718 7.0476493552084305  0.4644574279767717 7.0665601260982154  0.4713280830475064 7.0857737119605879  0.47782275239345129 7.1052773943702823  0.48393040042136892 7.1250584353668431  0.4896397915783588 7.14510427804007  0.49494077682791282 7.1654001046993159  0.499823312722528 7.1859307219392354  0.50427717888825452 7.2066813043567022  0.50829237621539747 7.2276358883795062  0.51186015492773596 7.2487729555137488  0.5149717048805762 7.2700715555170108  0.51761776928671566 7.291510765334567  0.51979225693678899 7.3130683282451923  0.5214902243289643 7.3347214617668399  0.52270596708082007 7.3564477659414864  0.52343635334307415 7.3782234404001263  0.5236801953442809 7.400023687104615  0.52343551827385504 7.4218239332446867  0.52270325101530091 7.4435995490138698  0.52148673978740323 7.4653260186337258  0.51978859903547114 7.4869785662294959  0.51761268561172535 7.5085334240637236  0.51496594846629939 7.5299696041419688  0.51185473100534651 7.551265641953  0.50828595487985861 7.5724004039857347  0.5042694614704164 7.5933539999173671  0.49981479415753771 7.6141065848284262  0.49493143240106541 7.6346377323480397  0.48962965341672859 7.6549325177606322  0.48391986294739908 7.6749771541705201  0.47781227060042752 7.6947574474514022  0.47131732240448532 7.7142597645234616  0.46444621805970598 7.7334718463606107  0.45720993512784869 7.7523811989637785  0.44961934106669776 7.7709755087470782  0.4416853078322287 7.7892419754448365  0.43341794914428178 7.8071701439650427  0.42482672509456876 7.8247514727576233  0.41592107290194757 7.8419769960024981  0.40671025815739448 7.8588378626547399  0.39720338654904896 7.8753251868388761  0.38740945954525952 7.8914301072263999  0.37733688614943617 7.9071436428895483  0.36699379098711482 7.9224567780541904  0.35638817050048299 7.9373605046501732  0.34552783836720291 7.9518458165714394  0.33442044277695615 7.9659036921515245  0.32307339543997138 7.9795251700015548  0.3114940862252622 7.9927010523974324  0.29969044935917033 8.0054212104108302  0.28767016779335197 8.0176756335886274  0.27544077281238 8.0294542798559494  0.26300960577368393 8.0407471151496992  0.25038380125093962 8.0515441049814509  0.23757031820571939 8.061835208547258  0.22457801520824194 8.0716100311595085  0.21141557727925075 8.0808581884227522  0.19809151245118439 8.0895692805975337  0.18461423486524442 8.0977329590281801  0.17099163808830209 8.1053386860679684  0.15723357448448905 8.1123771896806804  0.14335054992636476 8.1188396397295701  0.1293527659983722 8.1247171056954866  0.1152503068167956 8.1300006474300996  0.10105316818148236 8.1346814642046379  0.086773238007403997 8.1387534362571046  0.072422243254294472 8.1422104554622887  0.058011884930671442 8.1450459731552467  0.043553443448419493 8.1472560478749187  0.02905801212237602 8.1488381983655973  0.014536703658965422 8.14978965639623  0.0048459769140620779 8.1500008169133658  0 8.1500000000000004 
 0 4 0.0090909090909090905 1 0.018181818181818181 1 0.027272727272727271 1 0.036363636363636362 1 0.045454545454545456 1 0.054545454545454543 1 0.06363636363636363 1 0.072727272727272724 1 0.081818181818181818 1 0.090909090909090912 1 0.099999999999999992 1 0.10909090909090909 1 0.11818181818181818 1 0.12727272727272726 1 0.13636363636363635 1 0.14545454545454545 1 0.15454545454545454 1 0.16363636363636364 1 0.17272727272727273 1 0.18181818181818182 1 0.19090909090909089 1 0.19999999999999998 1 0.20909090909090908 1 0.21818181818181817 1 0.22727272727272727 1 0.23636363636363636 1 0.24545454545454545 1 0.25454545454545452 1 0.26363636363636361 1 0.27272727272727271 1 0.2818181818181818 1 0.29090909090909089 1 0.29999999999999999 1 0.30909090909090908 1 0.31818181818181818 1 0.32727272727272727 1 0.33636363636363636 1 0.34545454545454546 1 0.35454545454545455 1 0.36363636363636365 1 0.37272727272727268 1 0.38181818181818178 1 0.39090909090909087 1 0.39999999999999997 1 0.40909090909090906 1 0.41818181818181815 1 0.42727272727272725 1 0.43636363636363634 1 0.44545454545454544 1 0.45454545454545453 1 0.46363636363636362 1 0.47272727272727272 1 0.48181818181818181 1 0.49090909090909091 1 0.5 1 0.50909090909090904 1 0.51818181818181819 1 0.52727272727272723 1 0.53636363636363638 1 0.54545454545454541 1 0.55454545454545456 1 0.5636363636363636 1 0.57272727272727275 1 0.58181818181818179 1 0.59090909090909083 1 0.59999999999999998 1 0.60909090909090902 1 0.61818181818181817 1 0.6272727272727272 1 0.63636363636363635 1 0.64545454545454539 1 0.65454545454545454 1 0.66363636363636358 1 0.67272727272727273 1 0.68181818181818177 1 0.69090909090909092 1 0.69999999999999996 1 0.70909090909090911 1 0.71818181818181814 1 0.72727272727272729 1 0.73636363636363633 1 0.74545454545454537 1 0.75454545454545452 1 0.76363636363636356 1 0.77272727272727271 1 0.78181818181818175 1 0.79090909090909089 1 0.79999999999999993 1 0.80909090909090908 1 0.81818181818181812 1 0.82727272727272727 1 0.83636363636363631 1 0.84545454545454546 1 0.8545454545454545 1 0.86363636363636365 1 0.87272727272727268 1 0.88181818181818172 1 0.89090909090909087 1 0.89999999999999991 1 0.90909090909090906 1 0.9181818181818181 1 0.92727272727272725 1 0.93636363636363629 1 0.94545454545454544 1 0.95454545454545447 1 0.96363636363636362 1 0.97272727272727266 1 0.98181818181818181 1 0.99090909090909085 1 1 4
7 0 0  3 113 111  3.14159265358979 4  3.1512868404190848 4.0000012495942245  3.1706724029024445 3.9998959889721526  3.1997386382320987 3.9994192553579744  3.2287891534541773 3.9986285285410497  3.2578201158052145 3.9975272134522917  3.286827692499906 3.9961185344332364  3.3158081555355796 3.9944056127187628  3.3447564361488054 3.9923956448769098  3.3736671753280199 3.990096107985142  3.4025344629067824 3.9875141419330942  3.4313540078332871 3.9846580697208744  3.4601247181561683 3.9815386858601824  3.4888445550206915 3.9781663687403639  3.5175113958848825 3.9745516072354796  3.5461229611253708 3.9707048644031016  3.5746805597337712 3.966639215287953  3.6031850812813508 3.9623677212672854  3.6316371925088773 3.9579034715388755  3.6600370846176764 3.9532594576858568  3.6883857481574336 3.9484490503674499  3.7166877800948748 3.9434871678734558  3.7449470134105036 3.9383885389930771  3.7731671499937827 3.9331679304132048  3.8013517628341704 3.9278401467305915  3.8295039090527903 3.9224198030048467  3.8576283748553672 3.9169224606214788  3.8857313938550684 3.9113644899093729  3.91381874745323 3.9057620826322057  3.9418962280336403 3.9001314814937031  3.9699695456455535 3.8944889040026176  3.9980443845766533 3.888850617507543  4.0261264187464967 3.8832327151926846  4.0542213438186581 3.8776521856033672  4.0823349431461251 3.8721266501305203  4.1104731076333501 3.8666735864322175  4.1386418864809231 3.8613105093257398  4.1668474071716988 3.8560549287243964  4.1950962825022717 3.8509243369981832  4.2233941427833441 3.845936305056723  4.2517419249110349 3.8411087293567721  4.2801413442712173 3.8364594624665971  4.30859421342047 3.8320063801539099  4.3371026320823374 3.8277673092771223  4.3656692608171808 3.8237602491324156  4.3942947119469835 3.8200011663179909  4.4229793939632671 3.8165057231109847  4.4517244470322703 3.8132897945662103  4.4805299871224014 3.8103686865558504  4.5093894516005495 3.8077550613275588  4.5382971789208471 3.8054617095862362  4.5672478281305162 3.8035019786783084  4.5962352752923517 3.8018847085190823  4.6252529362193018 3.8006170919710329  4.6542948233298649 3.7997074065580625  4.6833535662661623 3.7991601470542529  4.7124205621479565 3.7989769636666422  4.7414875635344966 3.7991606320712745  4.7705463583781302 3.7997098281114008  4.7995886098386391 3.8006198458899654  4.8286055548794931 3.8018870219179521  4.8575896830355285 3.8035058453223036  4.8865365415331787 3.8054661667025651  4.9154408704273544 3.8077587043347321  4.9442976371551479 3.8103733169896818  4.9731024180906944 3.8132956647668612  5.00185052888133 3.8165117428735327  5.030536336955314 3.8200076742233455  5.0591608905683323 3.8237674971646198  5.0877262852092286 3.8277747847093817  5.1162338521114368 3.8320133468266655  5.1446852648235213 3.8364664624512126  5.1730832020422852 3.8411159944762847  5.2014297713052038 3.8459440115044412  5.2297270484425393 3.8509325431184598  5.2579762226340812 3.85606356927092  5.286181636101289 3.8613193867398565  5.3143501364668166 3.8666825548931247  5.3424877904193631 3.8721355773674837  5.3706006646388973 3.8776609635022563  5.3986946514765721 3.8832412555576248  5.4267755226285592 3.8888588584077506  5.4548490932455094 3.8944971693569674  5.4829212044587097 3.9001398877447446  5.510997693273028 3.9057706381738559  5.5390844432832775 3.9113730596404443  5.5671873518945789 3.916930808303877  5.5953125518488118 3.9224274572772551  5.6234656692552898 3.9278469097742903  5.6516500215618057 3.9331743709709612  5.6798693527435997 3.9383948805291817  5.708127492168904 3.9434935217697245  5.7364284913873735 3.9484553688919615  5.7647766627028671 3.9532654889220296  5.7931765261939017 3.9579089867273538  5.8216282951801617 3.962372839478852  5.8501324017038421 3.9666439962850744  5.8786895363446083 3.9707093890352185  5.9073005304842665 3.9745560465582588  5.9359672047205985 3.9781706271434047  5.964687689660332 3.9815422768724398  5.9934587716162548 3.984661012861006  6.0222777649637962 3.9875166471626464  6.0511422104712675 3.9900990014914508  6.0800499119005558 3.9923980646315638  6.1089952641483398 3.9944071818802884  6.1379728926939174 3.9961196929500309  6.1669774626648426 3.997528460811298  6.1960047286216708 3.9986291976073796  6.2250508594175642 3.9994192122937253  6.2541119142402204 3.9998954999777938  6.2734933668708832 4.0000009546434141  6.2831853071795853 4 
 0 4 0.0090909090909090905 1 0.018181818181818181 1 0.027272727272727271 1 0.036363636363636362 1 0.045454545454545456 1 0.054545454545454543 1 0.06363636363636363 1 0.072727272727272724 1 0.081818181818181818 1 0.090909090909090912 1 0.099999999999999992 1 0.10909090909090909 1 0.11818181818181818 1 0.12727272727272726 1 0.13636363636363635 1 0.14545454545454545 1 0.15454545454545454 1 0.16363636363636364 1 0.17272727272727273 1 0.18181818181818182 1 0.19090909090909089 1 0.19999999999999998 1 0.20909090909090908 1 0.21818181818181817 1 0.22727272727272727 1 0.23636363636363636 1 0.24545454545454545 1 0.25454545454545452 1 0.26363636363636361 1 0.27272727272727271 1 0.2818181818181818 1 0.29090909090909089 1 0.29999999999999999 1 0.30909090909090908 1 0.31818181818181818 1 0.32727272727272727 1 0.33636363636363636 1 0.34545454545454546 1 0.35454545454545455 1 0.36363636363636365 1 0.37272727272727268 1 0.38181818181818178 1 0.39090909090909087 1 0.39999999999999997 1 0.40909090909090906 1 0.41818181818181815 1 0.42727272727272725 1 0.43636363636363634 1 0.44545454545454544 1 0.45454545454545453 1 0.46363636363636362 1 0.47272727272727272 1 0.48181818181818181 1 0.49090909090909091 1 0.5 1 0.50909090909090904 1 0.51818181818181819 1 0.52727272727272723 1 0.53636363636363638 1 0.54545454545454541 1 0.55454545454545456 1 0.5636363636363636 1 0.57272727272727275 1 0.58181818181818179 1 0.59090909090909083 1 0.59999999999999998 1 0.60909090909090902 1 0.61818181818181817 1 0.6272727272727272 1 0.63636363636363635 1 0.64545454545454539 1 0.65454545454545454 1 0.66363636363636358 1 0.67272727272727273 1 0.68181818181818177 1 0.69090909090909092 1 0.69999999999999996 1 0.70909090909090911 1 0.71818181818181814 1 0.72727272727272729 1 0.73636363636363633 1 0.74545454545454537 1 0.75454545454545452 1 0.76363636363636356 1 0.77272727272727271 1 0.78181818181818175 1 0.79090909090909089 1 0.79999999999999993 1 0.80909090909090908 1 0.81818181818181812 1 0.82727272727272727 1 0.83636363636363631 1 0.84545454545454546 1 0.8545454545454545 1 0.86363636363636365 1 0.87272727272727268 1 0.88181818181818172 1 0.89090909090909087 1 0.89999999999999991 1 0.90909090909090906 1 0.9181818181818181 1 0.92727272727272725 1 0.93636363636363629 1 0.94545454545454544 1 0.95454545454545447 1 0.96363636363636362 1 0.97272727272727266 1 0.98181818181818181 1 0.99090909090909085 1 1 4
1 6.2831853071795862 0 0 1 
1 0 0 0 1 
1 0 2 1 0 
7 0 0  3 113 111  6.2831853071795862 8.1500000000000004  6.2783382058953663 8.1500010658747772  6.2686454222381691 8.1497900134886798  6.2541215275994704 8.1488379629553656  6.2396239257988402 8.1472549013260966  6.2251636712556495 8.145043958040235  6.2107518344765236 8.1422080963559473  6.1963994797684405 8.1387501835461773  6.1821181867493342 8.1346768464416428  6.1679196313433069 8.1299949570548229  6.1538157959842588 8.1247111264424756  6.1398178298018262 8.1188328500398246  6.1259351196868046 8.112369464674817  6.1121775386498003 8.1053299971662618  6.0985550118793475 8.0977235568147421  6.0850775943454884 8.0895592330028805  6.0717534557796782 8.080847412897171  6.058590983324045 8.0715984808771264  6.0455987090119203 8.0618228183632556  6.0327854428750127 8.0515308213990266  6.0201596958086823 8.040732827980289  6.0077283643298944 8.0294389398681822  5.9954987771243395 8.0176592857515079  5.9834784010217223 8.0054039962441852  5.9716748668383275 7.9926831673319763  5.9600960861465433 7.9795070315882057  5.9487495511093673 7.9658851494165672  5.9376424599903945 7.9518265074183736  5.9267823167691356 7.9373402183831967  5.9161767826673808 7.9224353608058742  5.9058336977827226 7.9071210241719134  5.8957610838787025 7.8914062882988913  5.8859670564642368 7.8753002606854281  5.8764602153045784 7.85881190887683  5.8672495631061938 7.8419501002706378  5.8583442116777986 7.8247237290172942  5.8497534361306984 7.8071416675244691  5.84148666708737 7.7892128484179297  5.833553421262982 7.7709459851939187  5.8259635527965559 7.752350644792493  5.8187278792031716 7.7334398739027455  5.8118572241324289 7.7142262880404147  5.8053625547864716 7.6947226056307567  5.7992549067585388 7.6749415646342349  5.7935455156015356 7.6548957219610498  5.7882445303519683 7.6345998953018421  5.7833619944573318 7.6140692780619679  5.7789081282915848 7.5933186956445375  5.7748929309644224 7.5723641116217841  5.7713251522520617 7.5512270444875815  5.7682136022991921 7.5299284444843595  5.7655675378930287 7.5084892346668406  5.7633930502429287 7.4869316717562491  5.7616950828507223 7.4652785382346307  5.7604793400988354 7.443552234060026  5.7597489538365458 7.4217765596014136  5.759505111835308 7.3999763128969551  5.7597497889056974 7.3781760667568959  5.7604820561642152 7.3564004509877474  5.7616985673920746 7.3346739813679127  5.7633967081439685 7.3130214337721737  5.7655726215676735 7.2914665759379664  5.7682193587130612 7.2700303958597363  5.7713305761739679 7.248734358048722  5.7748993522994168 7.2275995960159936  5.7789158457088163 7.2066460000843735  5.7833705130216506 7.1858934151733198  5.7882538747780812 7.1653622676537205  5.7935556537623762 7.1450674822411289  5.7992654442316631 7.1250228458312508  5.8053730365785894 7.1052425525503704  5.8118679847744952 7.0857402354783128  5.8187390891192257 7.0665281536411628  5.825975372051043 7.0476188010379923  5.8335659661121513 7.0290244912546811  5.8414999993465759 7.0107580245569201  5.8497673580344802 6.9928298560367024  5.8583585820841515 6.9752485272441129  5.8672642342767247 6.9580230039992186  5.8764750490212414 6.941162137346967  5.885981920629539 6.9246748131628095  5.8957758476332902 6.9085698927752661  5.9058484210290692 6.8928563571120973  5.916191516191347 6.8775432219474277  5.9267971366779406 6.8626394953514209  5.9376574688111754 6.8481541834301245  5.9487648644013849 6.8340963078500119  5.9601119117383226 6.8204748299999522  5.9716912209529944 6.8072989476040382  5.9834948578190437 6.7945787895906022  5.9955151393848212 6.7823243664127739  6.0077445343657541 6.7705457201454085  6.0201757014044111 6.7592528848516178  6.0328015059271136 6.748455895019819  6.0456149889722974 6.738164791453964  6.0586072919697349 6.7283899688416549  6.0717697298986888 6.7191418115783614  6.0850937947267161 6.7104307194035222  6.0985710723126214 6.7022670409728216  6.1121936690895291 6.6946613139329711  6.125951732693304 6.6876228103201907  6.139834757251398 6.6811603602712433  6.1538325411793569 6.6752828943052442  6.1679350003608997 6.6699993525705699  6.182132138996181 6.6653185357959375  6.1964120691702345 6.6612465637434006  6.2107630639233049 6.6577895445381348  6.2251734222469199 6.6549540268451262  6.2396318637291115 6.6527439521253866  6.2541272950552615 6.6511618016346015  6.2686486035181685 6.6502103436037814  6.2783393302642514 6.6499991830864564  6.2831853071795862 6.6499999999997002 
 0 4 0.0090909090909090905 1 0.018181818181818181 1 0.027272727272727271 1 0.036363636363636362 1 0.045454545454545456 1 0.054545454545454543 1 0.06363636363636363 1 0.072727272727272724 1 0.081818181818181818 1 0.090909090909090912 1 0.099999999999999992 1 0.10909090909090909 1 0.11818181818181818 1 0.12727272727272726 1 0.13636363636363635 1 0.14545454545454545 1 0.15454545454545454 1 0.16363636363636364 1 0.17272727272727273 1 0.18181818181818182 1 0.19090909090909089 1 0.19999999999999998 1 0.20909090909090908 1 0.21818181818181817 1 0.22727272727272727 1 0.23636363636363636 1 0.24545454545454545 1 0.25454545454545452 1 0.26363636363636361 1 0.27272727272727271 1 0.2818181818181818 1 0.29090909090909089 1 0.29999999999999999 1 0.30909090909090908 1 0.31818181818181818 1 0.32727272727272727 1 0.33636363636363636 1 0.34545454545454546 1 0.35454545454545455 1 0.36363636363636365 1 0.37272727272727268 1 0.38181818181818178 1 0.39090909090909087 1 0.39999999999999997 1 0.40909090909090906 1 0.41818181818181815 1 0.42727272727272725 1 0.43636363636363634 1 0.44545454545454544 1 0.45454545454545453 1 0.46363636363636362 1 0.47272727272727272 1 0.48181818181818181 1 0.49090909090909091 1 0.5 1 0.50909090909090904 1 0.51818181818181819 1 0.52727272727272723 1 0.53636363636363638 1 0.54545454545454541 1 0.55454545454545456 1 0.5636363636363636 1 0.57272727272727275 1 0.58181818181818179 1 0.59090909090909083 1 0.59999999999999998 1 0.60909090909090902 1 0.61818181818181817 1 0.6272727272727272 1 0.63636363636363635 1 0.64545454545454539 1 0.65454545454545454 1 0.66363636363636358 1 0.67272727272727273 1 0.68181818181818177 1 0.69090909090909092 1 0.69999999999999996 1 0.70909090909090911 1 0.71818181818181814 1 0.72727272727272729 1 0.73636363636363633 1 0.74545454545454537 1 0.75454545454545452 1 0.76363636363636356 1 0.77272727272727271 1 0.78181818181818175 1 0.79090909090909089 1 0.79999999999999993 1 0.80909090909090908 1 0.81818181818181812 1 0.82727272727272727 1 0.83636363636363631 1 0.84545454545454546 1 0.8545454545454545 1 0.86363636363636365 1 0.87272727272727268 1 0.88181818181818172 1 0.89090909090909087 1 0.89999999999999991 1 0.90909090909090906 1 0.9181818181818181 1 0.92727272727272725 1 0.93636363636363629 1 0.94545454545454544 1 0.95454545454545447 1 0.96363636363636362 1 0.97272727272727266 1 0.98181818181818181 1 0.99090909090909085 1 1 4
7 0 0  3 113 111  0 4  0.0096941868292859112 4.0000012495942245  0.029079749312626468 3.999895988972153  0.058145984642247406 3.9994192553579762  0.087196499864292676 3.9986285285410514  0.1162274622152939 3.9975272134522979  0.14523503890995038 3.9961185344332448  0.17421550194558399 3.994405612718777  0.20316378255877243 3.9923956448769284  0.23207452173795051 3.9900961079851647  0.26094180931667221 3.9875141419331261  0.28976135424314009 3.9846580697209109  0.31853206456598393 3.9815386858602269  0.3472519014304698 3.9781663687404167  0.37591874229462441 3.9745516072355396  0.40453030753507324 3.9707048644031713  0.43308790614343984 3.9666392152880325  0.46159242769098086 3.9623677212673729  0.49004453891847088 3.957903471538974  0.51844443102723492 3.9532594576859634  0.54679309456695258 3.9484490503675693  0.57509512650436001 3.9434871678735841  0.60335435981995111 3.9383885389932138  0.63157449640319463 3.9331679304133527  0.65975910924354242 3.92784014673075  0.68791125546213028 3.9224198030050155  0.71603572126466908 3.9169224606216573  0.74413874026433824 3.911364489909559  0.77222609386246344 3.9057620826324011  0.80030357444283773 3.9001314814939061  0.82837689205471676 3.8944889040028281  0.85645173098577576 3.8888506175077615  0.88453376515558535 3.8832327151929089  0.91262869022770854 3.8776521856035973  0.9407422895551365 3.8721266501307552  0.96888045404232059 3.8666735864324568  0.99704923288985725 3.8613105093259814  1.025254753580592 3.8560549287246393  1.0535036289111268 3.8509243369984256  1.0818014891921575 3.845936305056965  1.1101492713198118 3.8411087293570128  1.138548690679956 3.8364594624668347  1.1670015598291688 3.8320063801541417  1.1955099784909979 3.827767309277347  1.2240766072258005 3.8237602491326328  1.252702058355565 3.8200011663181987  1.2813867403718024 3.8165057231111823  1.3101317934407639 3.8132897945663946  1.3389373335308434 3.8103686865560205  1.3677967980089445 3.8077550613277129  1.3967045253291985 3.8054617095863721  1.4256551745388277 3.8035019786784252  1.4546426217006223 3.8018847085191774  1.4836602826275405 3.8006170919711084  1.512702169738052 3.7997074065581127  1.5417609126743166 3.79916014705428  1.5708279085560726 3.7989769636666422  1.5998949099425932 3.7991606320712479  1.6289537047861797 3.7997098281113475  1.6579959562466504 3.8006198458898819  1.6870129012874626 3.8018870219178416  1.7159970294434572 3.8035058453221628  1.7449438879410755 3.805466166702395  1.7738482168352183 3.8077587043345336  1.8027049835629896 3.810373316989454  1.8315097644984988 3.8132956647666032  1.8602578752891059 3.8165117428732467  1.8889436833630544 3.820007674223032  1.9175682369760381 3.8237674971642788  1.9461336316168998 3.827774784709014  1.9746411985190724 3.8320133468262734  2.0030926112311285 3.8364664624507969  2.0314905484498507 3.8411159944758477  2.0598371177127426 3.8459440115039829  2.0881343948500426 3.8509325431179824  2.1163835690415533 3.8560635692704213  2.1445889825087256 3.8613193867393405  2.1727574828742213 3.8666825548925914  2.2008951368267375 3.8721355773669339  2.2290080110462318 3.877660963501691  2.2571019978838756 3.8832412555570466  2.2851828690358285 3.8888588584071617  2.3132564396527369 3.8944971693563688  2.3413285508659083 3.900139887744138  2.3694050396801871 3.905770638173244  2.3974917896903998 3.9113730596398288  2.4255946983016634 3.9169308083032601  2.4537198982558532 3.9224274572766387  2.481873015662293 3.9278469097736752  2.5100573679687663 3.9331743709703528  2.5382766991505181 3.9383948805285791  2.5665348385757794 3.9434935217691298  2.5948358377942053 3.948455368891377  2.623184009109655 3.9532654889214571  2.6515838726006455 3.957908986726796  2.6800356415868651 3.9623728394783089  2.7085397481105007 3.966643996284553  2.7370968827512234 3.9707093890347154  2.765707876890835 3.9745560465577792  2.7943745511271239 3.9781706271429518  2.823095036066813 3.9815422768720161  2.8518661180226892 3.9846610128606135  2.880685111370191 3.9875166471622863  2.9095495568776144 3.9900990014911253  2.9384572583068613 3.9923980646312702  2.9674026105545996 3.9944071818800322  2.9963802391001333 3.9961196929498124  3.0253848090710131 3.9975284608111195  3.054412075027805 3.9986291976072446  3.0834582058236628 3.9994192122936343  3.1125192606462844 3.9998954999777485  3.1319007132769148 4.000000954643399  3.1415926535855969 4 
 0 4 0.0090909090909090905 1 0.018181818181818181 1 0.027272727272727271 1 0.036363636363636362 1 0.045454545454545456 1 0.054545454545454543 1 0.06363636363636363 1 0.072727272727272724 1 0.081818181818181818 1 0.090909090909090912 1 0.099999999999999992 1 0.10909090909090909 1 0.11818181818181818 1 0.12727272727272726 1 0.13636363636363635 1 0.14545454545454545 1 0.15454545454545454 1 0.16363636363636364 1 0.17272727272727273 1 0.18181818181818182 1 0.19090909090909089 1 0.19999999999999998 1 0.20909090909090908 1 0.21818181818181817 1 0.22727272727272727 1 0.23636363636363636 1 0.24545454545454545 1 0.25454545454545452 1 0.26363636363636361 1 0.27272727272727271 1 0.2818181818181818 1 0.29090909090909089 1 0.29999999999999999 1 0.30909090909090908 1 0.31818181818181818 1 0.32727272727272727 1 0.33636363636363636 1 0.34545454545454546 1 0.35454545454545455 1 0.36363636363636365 1 0.37272727272727268 1 0.38181818181818178 1 0.39090909090909087 1 0.39999999999999997 1 0.40909090909090906 1 0.41818181818181815 1 0.42727272727272725 1 0.43636363636363634 1 0.44545454545454544 1 0.45454545454545453 1 0.46363636363636362 1 0.47272727272727272 1 0.48181818181818181 1 0.49090909090909091 1 0.5 1 0.50909090909090904 1 0.51818181818181819 1 0.52727272727272723 1 0.53636363636363638 1 0.54545454545454541 1 0.55454545454545456 1 0.5636363636363636 1 0.57272727272727275 1 0.58181818181818179 1 0.59090909090909083 1 0.59999999999999998 1 0.60909090909090902 1 0.61818181818181817 1 0.6272727272727272 1 0.63636363636363635 1 0.64545454545454539 1 0.65454545454545454 1 0.66363636363636358 1 0.67272727272727273 1 0.68181818181818177 1 0.69090909090909092 1 0.69999999999999996 1 0.70909090909090911 1 0.71818181818181814 1 0.72727272727272729 1 0.73636363636363633 1 0.74545454545454537 1 0.75454545454545452 1 0.76363636363636356 1 0.77272727272727271 1 0.78181818181818175 1 0.79090909090909089 1 0.79999999999999993 1 0.80909090909090908 1 0.81818181818181812 1 0.82727272727272727 1 0.83636363636363631 1 0.84545454545454546 1 0.8545454545454545 1 0.86363636363636365 1 0.87272727272727268 1 0.88181818181818172 1 0.89090909090909087 1 0.89999999999999991 1 0.90909090909090906 1 0.9181818181818181 1 0.92727272727272725 1 0.93636363636363629 1 0.94545454545454544 1 0.95454545454545447 1 0.96363636363636362 1 0.97272727272727266 1 0.98181818181818181 1 0.99090909090909085 1 1 4
7 0 0  3 245 243  3.1415926536421965 8.1500000000000004  3.1371892647338999 8.1499998839235843  3.1283813643086811 8.1498249101317377  3.115176422624478 8.1490393608632399  3.1019886100864253 8.1477319452174051  3.0888283449414562 8.1459035848628645  3.0757052394829403 8.1435565501729243  3.0626279353048256 8.1406948527137466  3.0496054360944567 8.1373219729013027  3.0366462084272934 8.1334424017650839  3.0237583030803474 8.1290615080894177  3.0109500131203828 8.1241843613327092  2.9982293928503276 8.1188165530757566  2.9856038371192128 8.1129650423260902  2.9730809366416131 8.106636600820055  2.9606684275066213 8.0998380055051928  2.9483737986818213 8.0925762066497331  2.936203136349139 8.084859026725141  2.9241628372555883 8.0766941856602745  2.9122593835020338 8.0680894316532772  2.900499331766468 8.0590525023678481  2.888889519221606 8.0495911493360826  2.8774355068194453 8.0397130352361739  2.8661426114182462 8.0294257983588775  2.855016384337091 8.0187370816688599  2.8440624847682092 8.0076545325092212  2.833286679865914 7.996185776035392  2.8226949249758748 7.984338521775098  2.8122929582134732 7.9721201181860772  2.8020861114450373 7.9595373111481695  2.7920799543766273 7.9465969572020398  2.7822801592935291 7.9333058833390178  2.7726925302862102 7.9196709240869527  2.7633229836150486 7.9056989133769671  2.7541775612550929 7.8913966799905158  2.7452623628872006 7.8767710739045187  2.7365838562420839 7.8618288292616425  2.7281487844324697 7.8465766108541599  2.7199639641815381 7.8310210978575618  2.712036329807904 7.8151689723422386  2.7043729073883402 7.7990268904158331  2.6969808446554793 7.7826016091419827  2.6898672896902811 7.7658995077231694  2.6830399266423601 7.7489288138335555  2.6765069068174419 7.731699344178665  2.670276371295401 7.7142205714159946  2.6643565663379722 7.6965020440630267  2.658755768788478 7.6785533512452657  2.6534824494508871 7.6603838437961818  2.6485444153979509 7.6420042893531717  2.6439491726936408 7.623426110657654  2.6397043192321803 7.6046607265584703  2.6358176213766393 7.5857189886231602  2.632296108411214 7.5666149954950246  2.6291463543039955 7.5473649295351626  2.6263749968815366 7.5279845212128267  2.6239889499916398 7.5084895090948809  2.6219925759313298 7.4888967076569557  2.620389661461024 7.4692231985344684  2.6191843832640118 7.4494858691523032  2.6183798681064356 7.4297021763586848  2.6179770110010905 7.4098907750314842  2.6179771311207576 7.3900701210116777  2.618381137165287 7.3702587213721404  2.619187039154649 7.3504750567563795  2.6203925188748953 7.3307375347744292  2.6219956284929142 7.3110648329103638  2.6239930847781849 7.2914744535899443  2.6263796716759766 7.2719821620303531  2.6291505421732961 7.252604050149813  2.632300820159811 7.2333561402203781  2.635823328123077 7.2142534692052793  2.6397108284894437 7.1953109407159195  2.6439561914011578 7.1765438319441568  2.648552076335684 7.1579659412651706  2.6534906041260009 7.1395873629019686  2.658764016206693 7.1214187396301796  2.6643646617120211 7.1034706894414832  2.670284597970181 7.0857533019119208  2.6765154080420865 7.0682757767313911  2.6830488459792758 7.0510474921913939  2.6898767232781222 7.0340777432494042  2.6969908980373609 7.0173759795973734  2.7043834588646467 7.0009510937585766  2.7120472508881099 6.9848095236074537  2.719975131057109 6.968958000013517  2.728160074608204 6.9534031755160086  2.7365951491607396 6.9381517229801561  2.7452735393001504 6.9232103122975337  2.7541885035004214 6.9085856049283256  2.7633337597321548 6.8942843543619023  2.7727031956152444 6.8803133317287015  2.782290792527832 6.8666793030665518  2.7920906502034009 6.8533890376679318  2.8020969944606775 6.8404492968993615  2.8123041561754114 6.8278668705765346  2.8227066843709054 6.8156484426444441  2.8332987919282497 6.8038012961203904  2.8440745470836126 6.792333034764118  2.8550281923430942 6.7812511859277631  2.8661540717335536 6.7705632978809982  2.8774466725018506 6.7602769116310064  2.8889005751809163 6.7503995763173297  2.9005106581312075 6.7409388158126387  2.912270528967027 6.7319023864430907  2.9241736290040876 6.7232980880058077  2.9362135741543649 6.715133708391547  2.9483840845524032 6.707417040938993  2.9606789918571046 6.7001558691014633  2.9730923421010322 6.6933580104258477  2.9856160781974874 6.6870302239626547  2.9982421241849369 6.6811792237976739  3.0109625070781774 6.6758117545262383  3.0237693563244545 6.6709344835842668  3.0366548677445988 6.6665543565357943  3.049611724544425 6.6626761224415274  3.0626326972621079 6.6593039703114627  3.0757107706061748 6.6564422631727771  3.0888383199032914 6.6540951990700794  3.1020037445409896 6.6522659856546955  3.1151959570482339 6.6509583175337657  3.1284032785545626 6.6501737128996901  3.1416123329495989 6.6499128075542862  3.1548157989839942 6.6501750599917724  3.1680130486279259 6.6509603413386849  3.1811985567079279 6.6522681868670892  3.1943600246615773 6.6540969474872034  3.2074864014575244 6.6564448552507907  3.2205673391215379 6.6593076163272711  3.233592065710297 6.6626813053743943  3.246551344242198 6.6665613816336577  3.259438195110711 6.6709425240485984  3.2722451215274848 6.675819492245644  3.2849646469854417 6.6811872666630494  3.297589413971421 6.6870393260381924  3.3101120628745986 6.6933683847685854  3.3225250868170884 6.7001673439682996  3.3348209250575178 6.7074290424874015  3.3469918009771242 6.7151463815154635  3.3590316636752124 6.7233115936527765  3.3709345161993349 6.7319168429499943  3.3826941714719716 6.7409543088835706  3.3943043853541095 6.7504161768828315  3.4057586247827212 6.7602945931397596  3.417051236751266 6.7705819276071324  3.4281769886360705 6.7812706781977985  3.4391303790096965 6.7923533141789632  3.4499058088301204 6.8038223069408064  3.4604975636444886 6.8156701480272792  3.4708997575889367 6.827889246244248  3.4811066502548207 6.8404723687572178  3.4911127738393413 6.8534128554819151  3.5009124493734518 6.8667039395870884  3.5104998914050047 6.8803388829039198  3.5198691865529277 6.8943109393609001  3.5290143114426225 6.9086133658347899  3.5379291170223315 6.9232394153119898  3.5466074056908874 6.9381823533920555  3.5550424643478622 6.9534353535843794  3.5632273489985598 6.9689915624902099  3.5711550392557081 6.9848441350286574  3.5788184037752901 7.0009862183340603  3.5862102205113642 7.0174109823619482  3.593323158480052 7.0341115135678285  3.6001498568790216 7.0510812095861635  3.6066823453459826 7.0683106844165637  3.6129124731706437 7.0857899933532185  3.6188320444575268 7.1035093374615208  3.6244327890309171 7.1214588749413394  3.6297063656355615 7.1396287896833996  3.6346443966270732 7.1580092056212932  3.639239457414376 7.1765882825780682  3.6434840767720011 7.1953541569865402  3.6473706779077468 7.2142952144272208  3.6508919211457007 7.2333988061732573  3.6540413179273639 7.2526489464378079  3.6568122766733304 7.2720300895572123  3.6591980481859374 7.2915266770119675  3.6611943251849457 7.3111215156884173  3.6627971223302156 7.3307971810543693  3.6640020658136798 7.3505365119314821  3.6648061609026699 7.3703213923851152  3.6652085828799597 7.3901323351978858  3.6652078287509084 7.4099499853713056  3.6648037678491954 7.4297554461465731  3.6639983621489902 7.4495318006682423  3.6627930164682923 7.4692617220853235  3.6611901272055163 7.488928589808042  3.6591933996634309 7.5085169602548723  3.6568066181034968 7.5280107640478811  3.65403534617881 7.5473922276242389  3.6508846880588077 7.5666434059984562  3.6473615204794672 7.5857490891102275  3.6434731514401073 7.6046948282558144  3.6392267716357694 7.623466092313544  3.6346294517150426 7.6420479588926691  3.6296892758384423 7.6604293683386322  3.6244144994314351 7.6786000847988625  3.618813264456664 7.6965496467243106  3.6128936684382964 7.7142677004402245  3.6066637499184191 7.7317436864711446  3.600131462151277 7.7489678019920998  3.5933046023674295 7.7659328153992533  3.5861908976791632 7.7826311434546946  3.5787979874732199 7.7990552973885885  3.5711334239151591 7.8151977621928248  3.5632046633869625 7.8310510333443855  3.5550190746321513 7.8466075906181256  3.5465838872538678 7.8618599663345412  3.5379055712537184 7.876801642216865  3.5289905248339131 7.8914260576164752  3.5198450315788952 7.9057266633005785  3.5104752657004425 7.9196969067450116  3.5008872833328035 7.9333302371751921  3.491087019366836 7.9466201001095982  3.4810802738888871 7.9595599541449369  3.4708729194612999 7.9721425605167004  3.4604707223898314 7.9843606667209537  3.4498793325281372 7.9962070226632811  3.4391042666520928 8.0076743823408112  3.4281509466078752 8.0187554809749546  3.4170245224268774 8.0294431247984619  3.4057308875692054 8.0397296473073201  3.3942761462223601 8.0496072133140224  3.3826661950974422 8.0590680281122005  3.3709068734846439 8.0681042918130359  3.3590037085298152 8.07670818477634  3.3469628335587549 8.0848719851679913  3.3347914447577698 8.0925881290942918  3.3224964128392913 8.0998490108259524  3.3100845938957648 8.1066470799985044  3.297562564734843 8.1129746066238209  3.2849375127644005 8.118824791443096  3.2722170216151856 8.1241914486705102  3.2594085493843274 8.1290682877192832  3.246519229133555 8.1334489128511738  3.233557923168322 8.1373279630060225  3.2205340222532612 8.1407004720722238  3.2074566434894516 8.1435611379669304  3.1943353625763029 8.1459066488231571  3.1811799447040761 8.1477341129628318  3.1679997116793035 8.1490407802228297  3.1548017150499006 8.1498256055753995  3.1459960427067482 8.1500001160764182  3.1415926536421965 8.1500000000000004 
 0 4 0.0041322314049586778 1 0.0082644628099173556 1 0.012396694214876033 1 0.016528925619834711 1 0.020661157024793389 1 0.024793388429752067 1 0.028925619834710745 1 0.033057851239669422 1 0.0371900826446281 1 0.041322314049586778 1 0.045454545454545456 1 0.049586776859504134 1 0.053719008264462811 1 0.057851239669421489 1 0.061983471074380167 1 0.066115702479338845 1 0.070247933884297523 1 0.0743801652892562 1 0.078512396694214878 1 0.082644628099173556 1 0.086776859504132234 1 0.090909090909090912 1 0.095041322314049589 1 0.099173553719008267 1 0.10330578512396695 1 0.10743801652892562 1 0.1115702479338843 1 0.11570247933884298 1 0.11983471074380166 1 0.12396694214876033 1 0.12809917355371903 1 0.13223140495867769 1 0.13636363636363635 1 0.14049586776859505 1 0.14462809917355374 1 0.1487603305785124 1 0.15289256198347106 1 0.15702479338842976 1 0.16115702479338845 1 0.16528925619834711 1 0.16942148760330578 1 0.17355371900826447 1 0.17768595041322316 1 0.18181818181818182 1 0.18595041322314049 1 0.19008264462809918 1 0.19421487603305787 1 0.19834710743801653 1 0.2024793388429752 1 0.20661157024793389 1 0.21074380165289258 1 0.21487603305785125 1 0.21900826446280991 1 0.2231404958677686 1 0.22727272727272729 1 0.23140495867768596 1 0.23553719008264462 1 0.23966942148760331 1 0.243801652892562 1 0.24793388429752067 1 0.25206611570247933 1 0.25619834710743805 1 0.26033057851239672 1 0.26446280991735538 1 0.26859504132231404 1 0.27272727272727271 1 0.27685950413223143 1 0.28099173553719009 1 0.28512396694214875 1 0.28925619834710747 1 0.29338842975206614 1 0.2975206611570248 1 0.30165289256198347 1 0.30578512396694213 1 0.30991735537190085 1 0.31404958677685951 1 0.31818181818181818 1 0.3223140495867769 1 0.32644628099173556 1 0.33057851239669422 1 0.33471074380165289 1 0.33884297520661155 1 0.34297520661157027 1 0.34710743801652894 1 0.3512396694214876 1 0.35537190082644632 1 0.35950413223140498 1 0.36363636363636365 1 0.36776859504132231 1 0.37190082644628097 1 0.37603305785123969 1 0.38016528925619836 1 0.38429752066115702 1 0.38842975206611574 1 0.3925619834710744 1 0.39669421487603307 1 0.40082644628099173 1 0.4049586776859504 1 0.40909090909090912 1 0.41322314049586778 1 0.41735537190082644 1 0.42148760330578516 1 0.42561983471074383 1 0.42975206611570249 1 0.43388429752066116 1 0.43801652892561982 1 0.44214876033057854 1 0.4462809917355372 1 0.45041322314049587 1 0.45454545454545459 1 0.45867768595041325 1 0.46280991735537191 1 0.46694214876033058 1 0.47107438016528924 1 0.47520661157024796 1 0.47933884297520662 1 0.48347107438016529 1 0.48760330578512401 1 0.49173553719008267 1 0.49586776859504134 1 0.5 1 0.50413223140495866 1 0.50826446280991733 1 0.5123966942148761 1 0.51652892561983477 1 0.52066115702479343 1 0.52479338842975209 1 0.52892561983471076 1 0.53305785123966942 1 0.53719008264462809 1 0.54132231404958675 1 0.54545454545454541 1 0.54958677685950419 1 0.55371900826446285 1 0.55785123966942152 1 0.56198347107438018 1 0.56611570247933884 1 0.57024793388429751 1 0.57438016528925617 1 0.57851239669421495 1 0.58264462809917361 1 0.58677685950413228 1 0.59090909090909094 1 0.5950413223140496 1 0.59917355371900827 1 0.60330578512396693 1 0.6074380165289256 1 0.61157024793388426 1 0.61570247933884303 1 0.6198347107438017 1 0.62396694214876036 1 0.62809917355371903 1 0.63223140495867769 1 0.63636363636363635 1 0.64049586776859502 1 0.64462809917355379 1 0.64876033057851246 1 0.65289256198347112 1 0.65702479338842978 1 0.66115702479338845 1 0.66528925619834711 1 0.66942148760330578 1 0.67355371900826444 1 0.6776859504132231 1 0.68181818181818188 1 0.68595041322314054 1 0.69008264462809921 1 0.69421487603305787 1 0.69834710743801653 1 0.7024793388429752 1 0.70661157024793386 1 0.71074380165289264 1 0.7148760330578513 1 0.71900826446280997 1 0.72314049586776863 1 0.72727272727272729 1 0.73140495867768596 1 0.73553719008264462 1 0.73966942148760328 1 0.74380165289256195 1 0.74793388429752072 1 0.75206611570247939 1 0.75619834710743805 1 0.76033057851239672 1 0.76446280991735538 1 0.76859504132231404 1 0.77272727272727271 1 0.77685950413223148 1 0.78099173553719015 1 0.78512396694214881 1 0.78925619834710747 1 0.79338842975206614 1 0.7975206611570248 1 0.80165289256198347 1 0.80578512396694213 1 0.80991735537190079 1 0.81404958677685957 1 0.81818181818181823 1 0.8223140495867769 1 0.82644628099173556 1 0.83057851239669422 1 0.83471074380165289 1 0.83884297520661155 1 0.84297520661157033 1 0.84710743801652899 1 0.85123966942148765 1 0.85537190082644632 1 0.85950413223140498 1 0.86363636363636365 1 0.86776859504132231 1 0.87190082644628097 1 0.87603305785123964 1 0.88016528925619841 1 0.88429752066115708 1 0.88842975206611574 1 0.8925619834710744 1 0.89669421487603307 1 0.90082644628099173 1 0.9049586776859504 1 0.90909090909090917 1 0.91322314049586784 1 0.9173553719008265 1 0.92148760330578516 1 0.92561983471074383 1 0.92975206611570249 1 0.93388429752066116 1 0.93801652892561982 1 0.94214876033057848 1 0.94628099173553726 1 0.95041322314049592 1 0.95454545454545459 1 0.95867768595041325 1 0.96280991735537191 1 0.96694214876033058 1 0.97107438016528924 1 0.97520661157024802 1 0.97933884297520668 1 0.98347107438016534 1 0.98760330578512401 1 0.99173553719008267 1 0.99586776859504134 1 1 4
7 0 0  3 245 243  6.2831853072843948 0.99999999999940004  6.2743785311558593 1.0000000739030654  6.2567627202760274 1.0000877314009453  6.2303389760538508 1.0004804471398032  6.2039218505087526 1.0011330056631143  6.177518345072432 1.0020443252112079  6.1511338569908638 1.0032119548984904  6.1247719975504857 1.0046316614167468  6.0984370779665475 1.0062997930317801  6.0721324099695835 1.0082114720335591  6.0458605904006539 1.0103607325987047  6.0196246590722851 1.0127419824471524  5.9934272070819699 1.0153489727348355  5.9672697324005881 1.0181737371352799  5.9411541054610346 1.0212085351449727  5.915082456588582 1.0244456561782145  5.8890563851879811 1.0278770303013018  5.8630748306864753 1.0314928388164781  5.8371373249648144 1.0352834646079714  5.8112435395587774 1.0392392477582144  5.7853932294655088 1.0433504979748403  5.7595866436296408 1.0476076892664778  5.7338212295283135 1.0520000464753401  5.708093826508879 1.0565164409796872  5.6824016635041694 1.0611458318036799  5.6567420898373584 1.0658771622395653  5.631112538857753 1.0706993508613367  5.6055107795431631 1.0756014308479214  5.5799336528192178 1.0805719386624577  5.5543764097519315 1.0855985810605442  5.5288346910175008 1.0906692170422938  5.5033041196125598 1.0957716654543284  5.4777803908757257 1.1008937535127101  5.4522592292021503 1.106023315109248  5.4267363792809427 1.1111481490633108  5.4012075916369007 1.1162561878082773  5.3756685924282692 1.1213346370524071  5.3501150455265361 1.1263702637240227  5.3245425393078119 1.1313499374777238  5.2989465833750167 1.1362604998109405  5.2733225463786688 1.1410888021234995  5.2476658215262546 1.1458216843628179  5.2219711431892186 1.1504460223835486  5.1962356868846289 1.1549485187621502  5.170458745594793 1.1593157257559767  5.1446389994571771 1.163534232519206  5.1187750702610941 1.1675906038454205  5.0928654098263912 1.1714714650737548  5.0669079735186671 1.1751632237217451  5.0409019612946651 1.1786535476875202  5.0148471164642316 1.1819307063625153  4.9887430290240662 1.1849828993466136  4.9625883460127973 1.187798068340822  4.9363854981162483 1.1903657277005231  4.9101394064395905 1.1926763767236686  4.88385426271687 1.194720387210102  4.857534052665379 1.196487793533948  4.8311834529547664 1.1979722580934689  4.8048073775726721 1.199168272082993  4.7784104217110333 1.2000697740782142  4.7519976473425878 1.2006722506452272  4.7255755253654996 1.2009744622444298  4.6991502998496273 1.2009745481537986  4.6727281469475521 1.2006712474207641  4.6463152781124091 1.2000673595799893  4.6199179895058542 1.1991661497480259  4.5935429361727316 1.1979703411420279  4.5671953446239293 1.1964846518408145  4.5408785675168275 1.1947167023748699  4.5145965238487289 1.1926735806884521  4.4883530969752634 1.1903624409596025  4.4621516064003846 1.1877937394803564  4.4359954999716109 1.1849780761441393  4.4098888705618879 1.1819258820708856  4.3838340686342008 1.1786481653009895  4.3578290205731953 1.1751573504193242  4.3318725851673143 1.1714656743137393  4.305963737034638 1.1675852982887234  4.2801011012271388 1.1635289549169709  4.2542826681969359 1.1593102814401159  4.2285068299970998 1.1549427453092365  4.2027720633738568 1.1504398546175014  4.1770772079371508 1.1458151246802772  4.1514204268838562 1.1410819983308003  4.1257965431914805 1.1362535813517194  4.1002009275891886 1.1313430203397832  4.0746289560990725 1.1263634494273791  4.0490761390312073 1.1213280117902418  4.0235380640903884 1.116249826895074  3.9980104086142312 1.1111421000013582  3.9724887918449596 1.106017241026154  3.9469688215448908 1.1008875101627837  3.9214461045319524 1.0957652072132666  3.8959162316639873 1.0906626187501134  3.8703747399142898 1.0855920446551832  3.8448171914961478 1.0805657448024473  3.8192388086315816 1.075596125788072  3.7936363030178555 1.0706947648603289  3.7680071581072418 1.065872795099825  3.7423485658741917 1.0611414559228483  3.7166576612339135 1.0565119556919755  3.690931398407427 1.0519955206489622  3.6651666586440399 1.0476033365725548  3.6393597942281399 1.0433467332143578  3.6135100570057599 1.0392357009436448  3.5876171762550548 1.0352799808746018  3.5616805887509138 1.0314893776748006  3.5356995729505716 1.0278736836001667  3.509673208860324 1.0244426769998172  3.4836001521273641 1.0212062042617536  3.4574830705070561 1.0181719566249634  3.4313247576972898 1.0153475383945165  3.4051278511723577 1.0127405984505069  3.3788947852405151 1.0103586941318894  3.3526278611685498 1.0082097043671645  3.326328103182993 1.0062989715096893  3.299996332501518 1.0046311842419071  3.2736329706406924 1.0032112567883018  3.2472396149268778 1.002043819116857  3.2208257491136258 1.0011319057636017  3.1943998455866272 1.0004790368446377  3.1679713967133072 1.0000868894354122  3.1415532978089011 0.99995638975635659  3.1151463579934031 1.0000875532185454  3.0887380126261963 1.0004800294450384  3.0623254776505071 1.0011330466723201  3.0359195387274163 1.0020446100448517  3.0095284351696083 1.0032126582306327  2.9831592060004475 1.0046328863568539  2.9568197403370693 1.0063014002502524  2.9305148861038788 1.0082133936550282  2.9042450905850199 1.0103628296344194  2.8780118402049091 1.0127438210198365  2.8518165180036892 1.015350744092687  2.8256604575405504 1.0181760979657577  2.7995451401971945 1.021211422164777  2.7734723103180379 1.0244484950238675  2.7474437951366966 1.0278789993529174  2.721461761629806 1.0314947612503491  2.6955250054756874 1.0352858843484158  2.6696322129076115 1.0392422886356472  2.6437824067818916 1.0433539535812246  2.617974654974855 1.0476108020650712  2.592208557526325 1.0520029238434956  2.5664816439451617 1.0565195043398763  2.5407903863607721 1.0611492124688386  2.5151317166426512 1.0658808367666619  2.4895026475378259 1.0707031412872434  2.4639002777874506 1.0756048683923536  2.4383220019300786 1.0805748716946464  2.4127643964705214 1.0856015166550534  2.3872226879269558 1.0906723878373843  2.3616924285873626 1.0957752151836559  2.3361691454117235 1.1008976902257264  2.3106484169996655 1.106027512757888  2.2851258305722553 1.1111523879348499  2.2595969899499657 1.1162599912072275  2.234057439129959 1.1213381114815821  2.2085030481496268 1.1263736994638474  2.1829297187775971 1.1313534649148591  2.1573332365391238 1.1362641787303813  2.1317092978483458 1.1410925952824944  2.1060534463554568 1.1458254739030875  2.0803612058039054 1.1504495706084972  2.0546275210447007 1.1549516497174654  2.0288509939298454 1.1593184041015416  2.0030308835209318 1.1635365126031663  1.977166101040762 1.1675926568300441  1.9512554274099685 1.1714735208844589  1.9252973913069411 1.1751657761251233  1.8992903120231315 1.1786561424426762  1.8732344052617442 1.1819330776215495  1.8471297871904309 1.1849850351731939  1.8209760654642189 1.1878003413169782  1.7947738731997127 1.1903678678094913  1.7685278225808769 1.1926782265039479  1.7422418355630231 1.1947218464872795  1.7159196154212015 1.1964889826479335  1.6895663434925146 1.1979734132819864  1.6631874344537652 1.1991693903640452  1.6367878647612724 1.2000706219095203  1.6103735469736096 1.200672800807447  1.5839520593244085 1.2009747170325926  1.5575308368201055 1.2009742203837515  1.5311165872020922 1.2006709695495428  1.504713496638395 1.200067727200812  1.4783263560759154 1.1991664396303849  1.4519590887810265 1.197970589538309  1.425614287949708 1.1964857448771706  1.3992954874330499 1.1947175289669354  1.3730089343538161 1.1926740003186884  1.3467611112927562 1.1903625837202596  1.3205554632879801 1.1877933425438461  1.2943948325866277 1.1849770180618151  1.2682823521978097 1.1819242391362565  1.2422217405487697 1.1786454435221005  1.2162122255252577 1.1751531309632866  1.190252345523783 1.1714602419845033  1.1643411544943802 1.1675796007374013  1.1384777797649903 1.1635240715413455  1.1126617788264017 1.1593064744178785  1.0868918550919808 1.1549397742453831  1.061163581451396 1.1504374229209706  1.0354731787045424 1.1458128058599819  1.0098169145149196 1.1410793260796559  0.98419124082654363 1.1362503826714117  0.95859272322181166 1.1313393728280516  0.93301805999442866 1.1263597052626591  0.90746394654413542 1.1213247443160022  0.88192555117862614 1.1162470433762774  0.85639816140892755 1.111139192015179  0.83087708153469997 1.1060137701947481  0.80535764435757429 1.1008833601321408  0.77983518964653431 1.0957605446337093  0.75430506073716419 1.0906579018939002  0.72876256159731145 1.0855880279655916  0.70320423920718067 1.0805625603334288  0.67762660668240038 1.0755931177561802  0.65202609826594848 1.0706913216764504  0.62639902785412538 1.0658688015138442  0.60074167770695297 1.0611371520961388  0.57504986557650195 1.0565080986414157  0.54932142068851952 1.0519924977543336  0.52355484751635739 1.0476008919594186  0.49774829544434951 1.0433439123638213  0.47189988719377851 1.0392321278577199  0.44600718080521684 1.0352762676165537  0.4200690031278036 1.0314863901393398  0.39408640059297628 1.0278715094081898  0.36805983929585917 1.0244408545339116  0.34198978724591811 1.021203528953335  0.315876194642847 1.0181689236705127  0.28972006730489408 1.015344992753294  0.26352315069096122 1.0127387453304619  0.23728698638738077 1.0103573533835986  0.21101246821755293 1.0082081451017064  0.18470378299926971 1.006296905887029  0.15836616322697949 1.0046288698637147  0.13200431178572192 1.0032096406872137  0.10562361750876903 1.0020428739865772  0.079229861263462098 1.0011318323591529  0.052827933998805143 1.0004795937078492  0.026418119471715684 1.0000872888424335  0.0088067763660228948 0.99999992609573618  1.0480949441671328e-10 0.99999999999940004 
 0 4 0.0041322314049586778 1 0.0082644628099173556 1 0.012396694214876033 1 0.016528925619834711 1 0.020661157024793389 1 0.024793388429752067 1 0.028925619834710745 1 0.033057851239669422 1 0.0371900826446281 1 0.041322314049586778 1 0.045454545454545456 1 0.049586776859504134 1 0.053719008264462811 1 0.057851239669421489 1 0.061983471074380167 1 0.066115702479338845 1 0.070247933884297523 1 0.0743801652892562 1 0.078512396694214878 1 0.082644628099173556 1 0.086776859504132234 1 0.090909090909090912 1 0.095041322314049589 1 0.099173553719008267 1 0.10330578512396695 1 0.10743801652892562 1 0.1115702479338843 1 0.11570247933884298 1 0.11983471074380166 1 0.12396694214876033 1 0.12809917355371903 1 0.13223140495867769 1 0.13636363636363635 1 0.14049586776859505 1 0.14462809917355374 1 0.1487603305785124 1 0.15289256198347106 1 0.15702479338842976 1 0.16115702479338845 1 0.16528925619834711 1 0.16942148760330578 1 0.17355371900826447 1 0.17768595041322316 1 0.18181818181818182 1 0.18595041322314049 1 0.19008264462809918 1 0.19421487603305787 1 0.19834710743801653 1 0.2024793388429752 1 0.20661157024793389 1 0.21074380165289258 1 0.21487603305785125 1 0.21900826446280991 1 0.2231404958677686 1 0.22727272727272729 1 0.23140495867768596 1 0.23553719008264462 1 0.23966942148760331 1 0.243801652892562 1 0.24793388429752067 1 0.25206611570247933 1 0.25619834710743805 1 0.26033057851239672 1 0.26446280991735538 1 0.26859504132231404 1 0.27272727272727271 1 0.27685950413223143 1 0.28099173553719009 1 0.28512396694214875 1 0.28925619834710747 1 0.29338842975206614 1 0.2975206611570248 1 0.30165289256198347 1 0.30578512396694213 1 0.30991735537190085 1 0.31404958677685951 1 0.31818181818181818 1 0.3223140495867769 1 0.32644628099173556 1 0.33057851239669422 1 0.33471074380165289 1 0.33884297520661155 1 0.34297520661157027 1 0.34710743801652894 1 0.3512396694214876 1 0.35537190082644632 1 0.35950413223140498 1 0.36363636363636365 1 0.36776859504132231 1 0.37190082644628097 1 0.37603305785123969 1 0.38016528925619836 1 0.38429752066115702 1 0.38842975206611574 1 0.3925619834710744 1 0.39669421487603307 1 0.40082644628099173 1 0.4049586776859504 1 0.40909090909090912 1 0.41322314049586778 1 0.41735537190082644 1 0.42148760330578516 1 0.42561983471074383 1 0.42975206611570249 1 0.43388429752066116 1 0.43801652892561982 1 0.44214876033057854 1 0.4462809917355372 1 0.45041322314049587 1 0.45454545454545459 1 0.45867768595041325 1 0.46280991735537191 1 0.46694214876033058 1 0.47107438016528924 1 0.47520661157024796 1 0.47933884297520662 1 0.48347107438016529 1 0.48760330578512401 1 0.49173553719008267 1 0.49586776859504134 1 0.5 1 0.50413223140495866 1 0.50826446280991733 1 0.5123966942148761 1 0.51652892561983477 1 0.52066115702479343 1 0.52479338842975209 1 0.52892561983471076 1 0.53305785123966942 1 0.53719008264462809 1 0.54132231404958675 1 0.54545454545454541 1 0.54958677685950419 1 0.55371900826446285 1 0.55785123966942152 1 0.56198347107438018 1 0.56611570247933884 1 0.57024793388429751 1 0.57438016528925617 1 0.57851239669421495 1 0.58264462809917361 1 0.58677685950413228 1 0.59090909090909094 1 0.5950413223140496 1 0.59917355371900827 1 0.60330578512396693 1 0.6074380165289256 1 0.61157024793388426 1 0.61570247933884303 1 0.6198347107438017 1 0.62396694214876036 1 0.62809917355371903 1 0.63223140495867769 1 0.63636363636363635 1 0.64049586776859502 1 0.64462809917355379 1 0.64876033057851246 1 0.65289256198347112 1 0.65702479338842978 1 0.66115702479338845 1 0.66528925619834711 1 0.66942148760330578 1 0.67355371900826444 1 0.6776859504132231 1 0.68181818181818188 1 0.68595041322314054 1 0.69008264462809921 1 0.69421487603305787 1 0.69834710743801653 1 0.7024793388429752 1 0.70661157024793386 1 0.71074380165289264 1 0.7148760330578513 1 0.71900826446280997 1 0.72314049586776863 1 0.72727272727272729 1 0.73140495867768596 1 0.73553719008264462 1 0.73966942148760328 1 0.74380165289256195 1 0.74793388429752072 1 0.75206611570247939 1 0.75619834710743805 1 0.76033057851239672 1 0.76446280991735538 1 0.76859504132231404 1 0.77272727272727271 1 0.77685950413223148 1 0.78099173553719015 1 0.78512396694214881 1 0.78925619834710747 1 0.79338842975206614 1 0.7975206611570248 1 0.80165289256198347 1 0.80578512396694213 1 0.80991735537190079 1 0.81404958677685957 1 0.81818181818181823 1 0.8223140495867769 1 0.82644628099173556 1 0.83057851239669422 1 0.83471074380165289 1 0.83884297520661155 1 0.84297520661157033 1 0.84710743801652899 1 0.85123966942148765 1 0.85537190082644632 1 0.85950413223140498 1 0.86363636363636365 1 0.86776859504132231 1 0.87190082644628097 1 0.87603305785123964 1 0.88016528925619841 1 0.88429752066115708 1 0.88842975206611574 1 0.8925619834710744 1 0.89669421487603307 1 0.90082644628099173 1 0.9049586776859504 1 0.90909090909090917 1 0.91322314049586784 1 0.9173553719008265 1 0.92148760330578516 1 0.92561983471074383 1 0.92975206611570249 1 0.93388429752066116 1 0.93801652892561982 1 0.94214876033057848 1 0.94628099173553726 1 0.95041322314049592 1 0.95454545454545459 1 0.95867768595041325 1 0.96280991735537191 1 0.96694214876033058 1 0.97107438016528924 1 0.97520661157024802 1 0.97933884297520668 1 0.98347107438016534 1 0.98760330578512401 1 0.99173553719008267 1 0.99586776859504134 1 1 4
1 0 0 1 0 
1 6.2831853071795862 0 0 1 
1 0 0 0 1 
1 0 2 1 0 
2 0 -0 0.30135206357072514 -0.95351294368858242 -0.95351294368858242 -0.30135206357072514 3.1500000000000004
1 0 2.7000000000000011 1 0 
1 6.2831853071795862 -0 0 1 
1 0 -0 0 1 
2 1.4640238488651844e-12 5.7261064478555691e-13 0.30135206357072514 -0.95351294368858242 -0.95351294368858242 -0.30135206357072514 3.1500000000000004
1 0 0 1 0 
1 6.2831853071795862 0 0 1 
1 0 0 0 1 
1 0 0 1 0 
1 0 0.5 1 0 
1 6.2831853071795862 0 0 1 
1 0 0 0 1 
1 0 19.574999999999999 1 0 
1 0 20.800000000000001 1 0 
1 6.2831853071795862 0 0 1 
1 0 0 0 1 
Curves 20
2 19.074999999999999 0 0 1 0 0 -0 1 6.1232339957367599e-17 0 -6.1232339957367599e-17 1 1.5
7 0 0  1 2 2  8.1500000000000004 1.5 -2.7554552980815453e-16  19.074999999999999 1.5 -2.7554552980815453e-16 
 8.1500000000000004 2 19.074999999999999 2
7 0 0  3 30 28  6.6500000000000004 1.5 -1.0315798183789799e-15  6.6499976586040503 1.5000027422845601 0.0157616246538262  6.6511606339045199 1.4994183505354699 0.052505059709759098  6.6577577702868904 1.4961285415524499 0.11511870688496199  6.6732955921969097 1.4884518941264999 0.19203639686733101  6.7016280003506896 1.47475326833971 0.27926254342213602  6.74710270896969 1.4536151626259599 0.374681123638405  6.8160925454835297 1.4235763498487499 0.47699322691285501  6.9093570734158698 1.3873944573246 0.57301992834869198  7.0170498138762101 1.3529785282204301 0.64885592742674603  7.1158172591845696 1.32876234897996 0.69634809027397804  7.2007459727596297 1.3135454760107601 0.72441157140260404  7.2734273543884704 1.3045526577639599 0.74040606237171802  7.3395943834817299 1.29994023595207 0.74843987226025799  7.3855816749971801 1.2989463339348599 0.75015894711175002  7.43127908546718 1.29917079420262 0.74977006459500595  7.4809910212379496 1.3009725685936699 0.74665354598658196  7.5497402752151102 1.3070439367884501 0.73601440724398803  7.6197100356866896 1.3168671847934199 0.71837175787025098  7.6978646594723497 1.3319452905290601 0.690220866082077  7.7872719201634597 1.35447421183717 0.64551587856668802  7.8857144088576501 1.3858121106413599 0.57638406770831097  7.9779810979041299 1.4211006089693099 0.484216916666321  8.0508202793502406 1.4526210587057 0.37940512082620498  8.1004710809083509 1.47573323204343 0.27510808905820899  8.1291472373073894 1.4896505943951599 0.18285587232844999  8.1434355036168 1.49672292607213 0.10619567815957399  8.1490366548397208 1.4995173964702599 0.047934366702738998  8.1500016562625301 1.50000193175025 0.0142937848403577  8.1500000000000004 1.5 7.7152748346283204e-16 
 0 4 0.019707610959141399 1 0.045957058314380399 1 0.078790930468197795 1 0.118161981217417 1 0.16169900165741199 1 0.21330370017570999 1 0.27655088260974597 1 0.33442301775897798 1 0.38300299482796302 1 0.41651742569253503 1 0.44778273280261 1 0.47662833068034 1 0.49999012230898598 1 0.50531418740577905 1 0.53379706864927101 1 0.56225763505447801 1 0.59257447034934396 1 0.62477156630896402 1 0.667760125625114 1 0.72044999214962901 1 0.77982702560725703 1 0.83614261683625402 1 0.88432093214846796 1 0.92674968117359102 1 0.95791698241797196 1 0.98212355306531496 1 1 4
7 0 0  1 2 2  2 1.5 -2.7554552980815453e-16  6.6499999999998503 1.5 -2.7554552980815453e-16 
 2 2 6.6499999999998503 2
2 2 0 0 1 0 -1.22464679914735e-16 7.4987989133092607e-33 1 6.1232339957367599e-17 1.22464679914735e-16 -6.1232339957367599e-17 1 1.5
7 0 0  3 30 28  8.1500000000000004 1.5 4.9598195365467796e-16  8.1500023413959504 1.5000027422845601 -0.0157616246538296  8.1488393660954905 1.4994183505354699 -0.052505059709767203  8.1422422297131103 1.4961285415524499 -0.11511870688497  8.1267044078030892 1.4884518941264999 -0.19203639686733101  8.09837199964932 1.47475326833971 -0.27926254342213602  8.0528972910303107 1.4536151626259599 -0.374681123638401  7.9839074545164799 1.4235763498487499 -0.47699322691285501  7.8906429265841203 1.3873944573246 -0.57301992834869198  7.7829501861237897 1.3529785282204301 -0.64885592742674303  7.6841827408154204 1.32876234897996 -0.69634809027397704  7.5992540272403604 1.3135454760107601 -0.72441157140260204  7.52657264561154 1.3045526577639599 -0.74040606237171602  7.4604056165182699 1.29994023595207 -0.74843987226025499  7.4144183250028304 1.2989463339348599 -0.75015894711174802  7.3687209145328101 1.29917079420262 -0.74977006459500295  7.31900897876206 1.3009725685936699 -0.74665354598657896  7.2502597247848897 1.3070439367884501 -0.73601440724398504  7.1802899643132996 1.3168671847934199 -0.71837175787024798  7.1021353405276502 1.3319452905290601 -0.69022086608207101  7.0127280798365401 1.35447421183718 -0.64551587856668102  6.9142855911423498 1.3858121106413599 -0.57638406770830497  6.8220189020958601 1.4211006089693099 -0.484216916666313  6.7491797206497601 1.4526210587057 -0.37940512082619998  6.6995289190916898 1.4757332320434 -0.27510808905830703  6.6708527626927498 1.4896505943950999 -0.18285587232888501  6.6565644963833597 1.4967229260720301 -0.10619567816072099  6.6509633451605303 1.49951739647018 -0.047934366704816801  6.6499983437374004 1.50000193175022 -0.014293784843145901  6.6499999999997002 1.5 -3.14586648293778e-12 
 0 4 0.019707610959164599 1 0.045957058314436097 1 0.078790930468294607 1 0.11816198121756399 1 0.161699001657617 1 0.21330370017598299 1 0.27655088261010402 1 0.33442301775941302 1 0.38300299482846101 1 0.41651742569307698 1 0.44778273280319397 1 0.476628330680963 1 0.49999012230963702 1 0.50531418740643796 1 0.53379706864996801 1 0.56225763505521398 1 0.59257447035012001 1 0.62477156630978303 1 0.66776012562598897 1 0.72044999215057504 1 0.77982702560827999 1 0.83614261683735003 1 0.88432093214962804 1 0.92674968117466106 1 0.95791698241879197 1 0.98212355306572996 1 1 4
7 0 1  3 59 58  8.1500000000000004 -1.5000000000006 -7.8605160575007105e-11  8.1499995879642402 -1.4999997376651999 0.0234460367238488  8.1479875044083094 -1.4989919804399801 0.066300216770973697  8.1394986508302605 -1.4947682767659001 0.12994718139281999  8.1251712414626702 -1.4877136782089899 0.195872179121756  8.0996967893735299 -1.4753999909750599 0.27537348558827701  8.0562647959948901 -1.45512583589203 0.369053692002555  7.9864470667403902 -1.4246052416908399 0.47409917565973902  7.8920367184913998 -1.38786026911217 0.57197715258859805  7.7834015421724496 -1.35308920556018 0.64863887178633794  7.68418279387231 -1.3287623580972701 0.69634807266228105  7.5992540139399498 -1.3135454738574599 0.72441157550864599  7.5265726406018301 -1.3045526574687101 0.74040606282170196  7.4604056184230201 -1.29994023604233 0.74843987211683005  7.4144183255763103 -1.2989463339326699 0.75015894711548903  7.3687209147501997 -1.29917079419995 0.74977006459908901  7.3190089779885401 -1.3009725686318001 0.746653545944999  7.2502597248737501 -1.30704393680938 0.73601440711510402  7.18028996479089 -1.3168671846447 0.71837175851019597  7.10213533914194 -1.3319452910656 0.69022086342598499  7.0127280832421599 -1.35447420975501 0.64551589173636004  6.91428557795766 -1.3858121198942399 0.57638400529980105  6.8220189659532702 -1.4211005671355601 0.48421718398499503  6.7490325253254104 -1.4526848046943499 0.37919271998986698  6.69920873265366 -1.4758841304475401 0.274396889672682  6.6708132735724996 -1.4896715768966799 0.182535643947462  6.6571423408571304 -1.49643643812938 0.10915074965089699  6.6515285987448003 -1.4992355819446499 0.054792392825441003  6.6501166526744502 -1.4999416791592499 0.020688366796414202  6.6499266637964203 -1.5000366687058599 -0.0075191279808266599  6.65055434970846 -1.49972275163666 -0.036349112726652297  6.6537187353015197 -1.49814222800653 -0.079795797850719094  6.6616181443215901 -1.49421519952737 -0.13665882415768801  6.6780270087047802 -1.48614336892321 -0.20882349528001601  6.7076858614906198 -1.4718816990224499 -0.29394019645068598  6.7550394754008698 -1.45004719627292 -0.38815484929666599  6.8259127129429196 -1.41954218066771 -0.48873055470440702  6.9206457115631403 -1.3834064062926399 -0.58244005977223701  7.0289383227227802 -1.34965531873106 -0.65564454296513197  7.1261095922963698 -1.3266514799360001 -0.700307744645291  7.2064923820811 -1.3127992788029199 -0.72573590395137799  7.2747068288343399 -1.3045033668263999 -0.740490276790988  7.3385685918875696 -1.29997627201424 -0.74837777926374105  7.3825816535994697 -1.2989991450760701 -0.75006747742199298  7.4223207820678301 -1.2990798600740701 -0.74992766393042798  7.4573515484179502 -1.2999853200056499 -0.74836175139941696  7.5063089795944098 -1.303120347633 -0.74289622234558705  7.5619284198135102 -1.3086029993943 -0.73322932897050996  7.6377070034234897 -1.3196227628264501 -0.71338925248158502  7.7385188499102302 -1.3409567298996601 -0.67307137476833601  7.8476948022842796 -1.3727070090757401 -0.606895138568185  7.9458334181310599 -1.40829462864688 -0.519639899434441  8.0205497754503003 -1.43928557966213 -0.42612475960760698  8.0736493988116909 -1.4631533478257699 -0.33456744562271501  8.1086160878419999 -1.4796785636810399 -0.25054131528775497  8.1297646029518305 -1.48996628789157 -0.17735416504283899  8.1416101271678496 -1.4958170572459 -0.11634925195835299  8.1484082384679493 -1.49920298397626 -0.058996517018211798  8.1500003660638694 -1.5000002330665601 -0.020830102168434901 
 0 3 0.0146681571461732 1 0.026798153906848799 1 0.040206729660912703 1 0.057047786573333599 1 0.079491220630768702 1 0.10585218344385 1 0.137956047958609 1 0.167212077847535 1 0.19150216286754099 1 0.20825943105446901 1 0.22389213718984499 1 0.23831498688157801 1 0.24999592322262401 1 0.25265796492885201 1 0.26689945441084401 1 0.28112978667442301 1 0.29628825656449298 1 0.31238685990459097 1 0.33388121382313002 1 0.36022623795744502 1 0.38991485657896002 1 0.41807274215318502 1 0.44232739377031399 1 0.46370688004182398 1 0.47865841629178302 1 0.48915664882960103 1 0.49788566568381998 1 0.49999413369837897 1 0.50680751243897304 1 0.51593293160158504 1 0.52724004872617403 1 0.54275247606942001 1 0.56243571220283195 1 0.58418973731304802 1 0.60994474343544103 1 0.64148545809566304 1 0.67018053384585297 1 0.69408673608401605 1 0.70970107185997 1 0.723562504820354 1 0.73799362611880204 1 0.74999143938440904 1 0.75109189098412799 1 0.76285537676793802 1 0.77192126386306703 1 0.78196325291381996 1 0.79830799694978705 1 0.82131191647498103 1 0.85098568949717401 1 0.88026509726643598 1 0.90610971971313503 1 0.92809918629092403 1 0.94797266225486898 1 0.96384184639390103 1 0.97611307293413396 1 0.98696840692528098 1 1 3
2 2 0 0 -1 0 1.22464679914735e-16 -7.498798913309273e-33 1 -6.1232339957367697e-17 -1.22464679914735e-16 -6.1232339957367697e-17 -1 2
7 0 0  1 2 2  2 2 -1.2246467991473539e-16  0 2 1.2246467991473461e-16 
 0 2 2 2
2 0 0 2.4492935982947099e-16 -1 0 0 0 1 -6.1232339957367697e-17 -0 -6.1232339957367697e-17 -1 2
2 14.2277434937913 16.9250000000002 -9.2777434955969493 0 1 0 0 -0 1 1 0 -0 3.1499999999999999
1 14.2277434937913 14.225 -6.127743495596949 0 1 0 
2 14.2277434937913 14.2250000000002 -9.2777434955969493 0 1 0 0 -0 1 1 0 -0 3.1499999999999999
7 0 0  1 2 2  8.1500000000000004 -1.5000000000005991 1.2675094371174739e-15  8.1500000000000004 1.5 1.4512064569896137e-15 
 0.99999999999940092 2 4 2
2 19.074999999999999 0 0 1 0 0 0 -1 6.1232339957367697e-17 0 -6.1232339957367697e-17 -1 1.3500000000000001
2 19.574999999999999 0 0 1 0 0 0 -1 6.1232339957367697e-17 0 -6.1232339957367697e-17 -1 1.3500000000000001
7 0 0  1 2 2  19.074999999999999 -1.3500000000000001 4.1331829471223177e-16  19.574999999999999 -1.3500000000000001 4.1331829471223177e-16 
 0 2 0.5 2
2 19.574999999999999 0 0 1 0 0 -0 1 6.1232339957367599e-17 0 -6.1232339957367599e-17 1 1.5
2 20.800000000000001 0 0 1 0 0 -0 1 6.1232339957367697e-17 0 -6.1232339957367697e-17 1 1.5
7 0 0  1 2 2  19.574999999999999 1.5 -2.7554552980815453e-16  20.800000000000001 1.5 -2.7554552980815453e-16 
 19.574999999999999 2 20.800000000000001 2
Polygon3D 0
PolygonOnTriangulations 0
Surfaces 13
10 0 6.2831853071795862 2 19.074999999999999
2 0 0 0 1 0 0 -0 1 6.1232339957367599e-17 0 -6.1232339957367599e-17 1 1.5
1 19.074999999999999 0 0 1 0 0 0 -1 6.1232339957367697e-17 0 -6.1232339957367697e-17 -1 
10 0 6.2831853071795862 0.99995638975635659 4.0000012495942245
2 7.4000000000000004 -2.5 1.0225800772880399e-15 0 1 6.1232339957367697e-17 1 0 -0 -0 6.1232339957367697e-17 -1 0.75
1 2 0 0 -1 0 1.22464679914735e-16 -7.498798913309273e-33 1 -6.1232339957367697e-17 -1.22464679914735e-16 -6.1232339957367697e-17 -1 
10 0 6.2831853071795862 0 2
2 2 0 0 -1 0 1.22464679914735e-16 -7.498798913309273e-33 1 -6.1232339957367697e-17 -1.22464679914735e-16 -6.1232339957367697e-17 -1 2
1 0 0 0 -1 0 0 0 0 -1 -0 -1 -0 
1 14.2277434937913 16.9250000000002 -9.2777434955969493 5.8099428640704105e-13 -1 3.8925117836503724e-14 -0.95351294368858242 -5.4225540771346095e-13 0.30135206357072514 -0.30135206357072514 -2.1219943082327229e-13 -0.95351294368858242 
2 14.2277434937913 14.225 -9.2777434955969493 0 1 0 0 -0 1 1 0 -0 3.1499999999999999
1 14.227743493792868 14.2250000000002 -9.2777434955968445 5.8099428640704105e-13 -1 3.8925117836503724e-14 -0.95351294368858242 -5.4225540771346095e-13 0.30135206357072514 -0.30135206357072514 -2.1219943082327229e-13 -0.95351294368858242 
10 0 6.2831853071795862 0 0.5
2 19.074999999999999 0 0 1 0 0 0 -1 6.1232339957367697e-17 0 -6.1232339957367697e-17 -1 1.3500000000000001
1 19.574999999999999 0 0 1 0 0 0 -1 6.1232339957367697e-17 0 -6.1232339957367697e-17 -1 
10 0 6.2831853071795862 19.574999999999999 20.800000000000001
2 0 0 0 1 0 0 -0 1 6.1232339957367599e-17 0 -6.1232339957367599e-17 1 1.5
1 20.800000000000001 0 0 1 0 0 -0 1 6.1232339957367697e-17 0 -6.1232339957367697e-17 1 
Triangulations 0

TShapes 64
Ve
1e-05
19.075 1.5 -9.18485099360515e-17
0 0

0101101
*
Ed
 1e-07 1 1 0
1  1 0 0 6.28318530717959
2  1 1 0 0 6.28318530717959
4 C0 1 0 2 0
0

0101000
-64 0 +64 0 *
Ve
1e-05
8.15 1.5 6.33754718558755e-16
0 0

0101101
*
Ed
 1e-05 1 1 0
1  2 0 8.15 19.075
3  2 3CN 1 0 8.15 19.075
0

0101000
-64 0 +62 0 *
Ve
1e-05
6.6499999999994 1.5 -9.18485099360515e-17
0 0

0101101
*
Ed
 1.3693451028425e-06 1 1 0
1  3 0 0 1
2  4 1 0 0 1
2  5 3 0 0 1
4 C0 1 0 3 0
0

0101000
-62 0 +60 0 *
Ve
1e-05
2 1.5 -9.18485099360515e-17
0 0

0101101
*
Ed
 1e-05 1 1 0
1  4 0 2 6.64999999999985
3  6 7CN 1 0 2 6.64999999999985
0

0101000
-60 0 +58 0 *
Ed
 1e-07 1 1 0
1  5 0 0 6.28318530717959
2  8 1 0 0 6.28318530717959
4 C0 1 0 4 0
0

0101000
+58 0 -58 0 *
Ed
 1.36934510582352e-06 1 1 0
1  6 0 0 1
2  9 1 0 0 1
2  10 3 0 0 1
4 C0 1 0 3 0
0

0101000
-60 0 +62 0 *
Wi

0101100
-63 0 -61 0 -59 0 -57 0 +56 0 +57 0 -55 0 +61 0 *
Ve
1e-05
8.15 -1.5000000000008 1.03643472635797e-15
0 0

0101101
*
Ed
 1.59179346236413e-06 1 1 0
1  7 0 0 1
2  11 1 0 0 1
2  12 3 0 0 1
4 C0 1 0 3 0
0

0101000
-53 0 +53 0 *
Wi

0101100
-52 0 *
Fa
0  1e-07 1 0

0111000
+54 0 +51 0 *
Ve
1e-05
2 2 1.22464679914735e-16
0 0

0101101
*
Ed
 1e-07 1 1 0
1  8 0 0 6.28318530717959
2  13 5 0 0 6.28318530717959
4 C0 4 0 5 0
0

0101000
+49 0 -49 0 *
Wi

0101100
-48 0 *
Wi

0101100
-56 0 *
Fa
0  1e-07 4 0

0111000
-47 0 -46 0 *
Ve
1e-05
0 2 3.67394039744206e-16
0 0

0101101
*
Ed
 1e-05 1 1 0
1  9 0 0 2
3  14 15CN 5 0 0 2
0

0101000
+49 0 -44 0 *
Ed
 1e-07 1 1 0
1  10 0 0 6.28318530717959
2  16 5 0 0 6.28318530717959
4 C0 5 0 6 0
0

0101000
-44 0 +44 0 *
Wi

0101100
+48 0 +43 0 -42 0 -43 0 *
Fa
0  1e-07 5 0

0111000
+41 0 *
Ve
1.00000099475983e-07
14.2277434937913 16.9250000000001 -6.12774349559695
0 0

0101101
*
Ed
 1e-07 1 1 0
1  11 0 0 6.28318530717959
2  17 7 0 0 6.28318530717959
2  18 8 0 0 6.28318530717959
4 C0 7 0 8 0
0

0101000
+39 0 -39 0 *
Wi

0101100
+38 0 *
Wi

0101100
-42 1 *
Fa
0  1e-07 7 0

0111000
-37 0 +36 0 *
Ve
1.00000100364161e-07
14.2277434937913 14.2250000000001 -6.12774349559695
0 0

0101101
*
Ed
 1e-07 1 1 0
1  12 0 0 2.7
3  19 20CN 8 0 0 2.7
0

0101000
-39 0 +34 0 *
Ed
 1e-07 1 1 0
1  13 0 0 6.28318530717959
2  21 9 0 0 6.28318530717959
2  22 8 0 0 6.28318530717959
4 C0 8 0 9 0
0

0101000
+34 0 -34 0 *
Wi

0101100
-38 0 +33 0 +32 0 -33 0 *
Fa
0  1e-07 8 0

0101000
+31 0 *
Wi

0101100
+32 0 *
Fa
0  1e-07 9 0

0111000
-29 0 *
Ed
 1e-05 1 1 0
1  14 0 0.999999999999401 4
3  23 24CN 3 0 0.999999999999401 4
0

0101000
-62 0 +53 0 *
Wi

0101100
-59 0 -55 0 -27 0 -52 0 +27 0 *
Fa
0  1e-07 3 0

0111000
+26 0 *
Wi

0101100
+63 0 *
Ve
1e-05
19.075 -1.35 2.47990976827339e-16
0 0

0101101
*
Ed
 1e-07 1 1 0
1  15 0 0 6.28318530717959
2  25 10 0 0 6.28318530717959
4 C0 2 0 10 0
0

0101000
+23 0 -23 0 *
Wi

0101100
-22 0 *
Fa
0  1e-07 2 0

0111000
+24 0 +21 0 *
Ve
1e-05
19.575 -1.35 2.47990976827339e-16
0 0

0101101
*
Ed
 1e-07 1 1 0
1  16 0 0 6.28318530717959
2  26 10 0 0 6.28318530717959
4 C0 10 0 11 0
0

0101000
-19 0 +19 0 *
Ed
 1e-05 1 1 0
1  17 0 0 0.5
3  27 28CN 10 0 0 0.5
0

0101000
-19 0 +23 0 *
Wi

0101100
-18 0 -17 0 +22 0 +17 0 *
Fa
0  1e-07 10 0

0111000
+16 0 *
Ve
1e-05
19.575 1.5 -9.18485099360515e-17
0 0

0101101
*
Ed
 1e-07 1 1 0
1  18 0 0 6.28318530717959
2  29 12 0 0 6.28318530717959
4 C0 11 0 12 0
0

0101000
+14 0 -14 0 *
Wi

0101100
-13 0 *
Wi

0101100
+18 0 *
Fa
0  1e-07 11 0

0111000
-12 0 -11 0 *
Ve
1e-05
20.8 1.5 -9.18485099360515e-17
0 0

0101101
*
Ed
 1e-07 1 1 0
1  19 0 0 6.28318530717959
2  30 12 0 0 6.28318530717959
4 C0 12 0 13 0
0

0101000
-9 0 +9 0 *
Ed
 1e-05 1 1 0
1  20 0 19.575 20.8
3  31 32CN 12 0 19.575 20.8
0

0101000
-9 0 +14 0 *
Wi

0101100
-8 0 -7 0 +13 0 +7 0 *
Fa
0  1e-07 12 0

0111000
+6 0 *
Wi

0101100
+8 0 *
Fa
0  1e-07 13 0

0111000
+4 0 *
Sh

0101100
+50 1 -45 1 +40 1 -35 0 +30 0 +28 0 -25 1 +20 1 +15 1 -10 1 
+5 1 +3 1 *
So

1100000
+2 0 *

+1 0 