DBRep_DrawableShape

CASCADE Topology V3, (c) Open Cascade
Locations 3
1
              1               0               0               0 
              0               1               0               0 
              0               0               1               0 
1
-3.15857636960165e-16 -0.992721194517699 0.120435169096708 -6.66750515776113 
              1 -3.17549236990521e-16 5.14616371114122e-18 13.3750000000008 
3.31353902669763e-17 0.120435169096708 0.992721194517699 -11.9365530061521 
2  1 1 2 1 0
Curve2ds 82
1 0 -0.070710678118655279 1 0 
1 0 4.7123889803846897 1 0 
1 0 3.1415926535897931 1 0 
1 0 0.19999999999999929 1 0 
1 6.2831853071795862 0 0 1 
1 0 0 0 1 
1 0 2.8000000000000007 1 0 
1 9.4247779607693793 0.14142135623730806 -1 0 
1 6.2831853071795862 0 0 1 
1 0 0 0 1 
1 9.4247779607693793 -0.14142135623731042 -1 0 
1 9.4247779607693793 0 0 1 
1 3.1415926535897931 0 0 1 
1 6.2831853071795862 0 0 1 
1 0 0 0 1 
1 0 3.1000000000000014 1 0 
1 0 0.070710678118655279 1 0 
1 6.2831853071795862 0 0 1 
1 0 0 0 1 
1 0 9.1999999999999993 1 0 
1 0 9.8250000000000011 1 0 
1 6.2831853071795862 0 0 1 
1 0 0 0 1 
1 0 1 1 0 
1 1.8965258140895278 5.4000000000000004 1.1925648276924097e-13 1 
7 0 0  3 157 155  1.2450668395029105 5.4000000000000004  1.2450667136698432 5.3945115823869614  1.245114317719259 5.3835383982026217  1.2453287218538189 5.3670959600380552  1.245685553277234 5.3506772436257206  1.2461842471167077 5.3342886373185348  1.2468242958857632 5.3179365769566953  1.2476051998747968 5.3016275044532923  1.2485264176212512 5.285367827459992  1.2495871777982384 5.2691637593780598  1.2507867432747617 5.2530215500553306  1.2521243376651545 5.2369473815545531  1.2535990673028541 5.2209472968947654  1.2552100874856147 5.2050272527741352  1.2569564192573666 5.189193655965922  1.2588367999845276 5.1734538502375029  1.2608500477115554 5.157815054847247  1.2629948354252525 5.1422843724755092  1.2652696458452366 5.1268686477404097  1.2676730076674412 5.1115748160465975  1.270203423299155 5.0964096367211491  1.2728592947889432 5.0813789722899907  1.2756390325369831 5.0664887687512863  1.2785410784206757 5.0517449852150822  1.2815637277843877 5.0371533869869864  1.2847051811463057 5.0227196124570845  1.2879636684387066 5.0084493052097159  1.2913374238139135 4.9943481963560812  1.2948246748056933 4.9804215840861072  1.2984236386119106 4.9666742515398816  1.3021325439408395 4.9531110849954976  1.305949630719196 4.9397369493051633  1.3098731351483177 4.9265566916418209  1.3139011570256263 4.9135748745186065  1.3180318157709963 4.9007960797315757  1.3222632381935455 4.8882248829797206  1.3265935635733532 4.8758658650673627  1.3310209375243947 4.8637235924745488  1.3355435335104384 4.8518026838731743  1.3401594301272468 4.8401074214426751  1.3448666766529984 4.8286419588272684  1.3496633436707339 4.8174104808833551  1.3545475127623592 4.806417166300581  1.3595172728113811 4.7956661872234916  1.3645707478440536 4.7851617481437634  1.3697059705573593 4.7749078986259716  1.3749208800093471 4.7649085323017202  1.3802134491534586 4.7551675751720364  1.3855816590405818 4.7456889470104997  1.391023499796691 4.7364765601309946  1.3965369960020204 4.7275343629137003  1.4021200904793583 4.7188661367257616  1.4077706245662831 4.7104754662871722  1.4134864766270387 4.7023659792993158  1.4192655235480993 4.6945412815344554  1.4251056871316572 4.6870050234998759  1.4310047660618945 4.6797606632269018  1.4369604142147183 4.6728114412403823  1.4429703274659762 4.666160641437572  1.4490322064399022 4.6598115409474214  1.4551437597929311 4.6537674005997651  1.4613027335602442 4.6480315531891234  1.4675066732144879 4.6426066942839954  1.4737530869359434 4.6374953873042335  1.4800395016457055 4.6327002276682476  1.4863634535689196 4.6282238103203825  1.4927224774085222 4.6240687001026162  1.4991141652115372 4.6202375827405664  1.5055359015815737 4.616732569007886  1.5119848593215079 4.6135552052747162  1.5184582611574831 4.6107071555272281  1.5249533214658844 4.608190061847071  1.5314672687044129 4.6060055363178884  1.5379973212300539 4.6041553329198841  1.5445407829792723 4.6026405475068808  1.551095046803824 4.60146151776474  1.5576574867717141 4.6006187343837945  1.5642254847353962 4.6001126557311149  1.5707964176264706 4.5999437164623416  1.577367688775186 4.6001124784021332  1.5839366099034662 4.6006190262773181  1.5905003283711516 4.6014625128059183  1.5970560162214571 4.6026422602923898  1.6036008333491352 4.6041575504700623  1.610131943519657 4.60600765777028  1.6166464947455783 4.6081919264035047  1.6231416921166502 4.6107094143053349  1.6296149385372769 4.6135581297695145  1.6360636003183293 4.6167362199128563  1.6424850433289977 4.6202417948817223  1.6488766251268456 4.6240729738812645  1.6552356971782394 4.628227876851887  1.6615596105844825 4.6327046117296566  1.667845957935256 4.6375003842084332  1.6740923153353062 4.6426124124986989  1.6802962494042806 4.6480379099383171  1.6864553136485745 4.653774096838954  1.6925670620150528 4.659818170489717  1.6986290041440986 4.6661674132960949  1.7046388367844167 4.6728186476738847  1.7105943621890773 4.6797684149344141  1.7164933416487393 4.6870133216839118  1.722333530678505 4.694549958060084  1.7281126742918129 4.7023749147798073  1.7338284955781504 4.7104847967118326  1.7394789361381235 4.7188759106907918  1.7450619385217618 4.7275445437024937  1.7505754277558145 4.7364869884932022  1.7560173181701113 4.7456995345016715  1.7613855085193524 4.7551784786362346  1.7666780116946212 4.7649198563903532  1.7718928292277272 4.7749196970925283  1.7770279536084486 4.7851740259445528  1.7820813466069991 4.7956788908085137  1.7870510552297882 4.8064302176299405  1.7919351786941904 4.8174238502815241  1.7967317879862192 4.8286556526439357  1.8014389477485149 4.8401214790362772  1.8060547027444656 4.8518172020160693  1.8105771858357795 4.8637384558779733  1.81500452773968 4.8758808513558503  1.8193348451198872 4.8882400050607533  1.8235662438989615 4.9008115333795805  1.827696820074231 4.9135910477168681  1.8317247405270256 4.9265737543913675  1.8356481600599226 4.9397548661890793  1.8394652267636693 4.9531295899416055  1.8431740680879982 4.9666931498308626  1.846772846024493 4.9804407017987193  1.8502598373837218 4.9943672089272129  1.8536332920007699 5.0084676660321179  1.8568914574342565 5.0227370492595638  1.8600325689307202 5.0371703777005603  1.8630549148022215 5.0517618490217657  1.8659567790391356 5.0665056114554794  1.8687364441295429 5.0813958203823884  1.8713921650009411 5.0964266517489945  1.8739224021697789 5.1115920363192249  1.8763256518932894 5.1268858352613673  1.8786003834760012 5.1423020153584487  1.8807451174652843 5.1578341445078966  1.8827584767377581 5.1734750428362943  1.8846390444885555 5.1892176894554449  1.8863854796757622 5.2050549171321423  1.8879966874347442 5.2209793075449689  1.889471491830732 5.2369833178316885  1.890808948640307 5.2530602233611132  1.892008291807959 5.2692039552980008  1.8930687029754036 5.2854083123294169  1.8939895001709426 5.3016669700978127  1.8947700003552173 5.3179735867671765  1.8954095704653553 5.3343217735273942  1.8959077860006184 5.3507049274311287  1.8962642031900976 5.3671164653524803  1.8964783427880358 5.3835498399257835  1.8965259111876867 5.3945156361725468  1.8965258140895271 5.4000000000000004 
 0 4 0.0064935064935064939 1 0.012987012987012988 1 0.01948051948051948 1 0.025974025974025976 1 0.032467532467532471 1 0.03896103896103896 1 0.045454545454545456 1 0.051948051948051951 1 0.058441558441558447 1 0.064935064935064943 1 0.071428571428571438 1 0.07792207792207792 1 0.084415584415584416 1 0.090909090909090912 1 0.097402597402597407 1 0.1038961038961039 1 0.1103896103896104 1 0.11688311688311689 1 0.12337662337662339 1 0.12987012987012989 1 0.13636363636363638 1 0.14285714285714288 1 0.14935064935064937 1 0.15584415584415584 1 0.16233766233766234 1 0.16883116883116883 1 0.17532467532467533 1 0.18181818181818182 1 0.18831168831168832 1 0.19480519480519481 1 0.20129870129870131 1 0.20779220779220781 1 0.2142857142857143 1 0.2207792207792208 1 0.22727272727272729 1 0.23376623376623379 1 0.24025974025974028 1 0.24675324675324678 1 0.25324675324675328 1 0.25974025974025977 1 0.26623376623376627 1 0.27272727272727276 1 0.27922077922077926 1 0.28571428571428575 1 0.29220779220779225 1 0.29870129870129875 1 0.30519480519480524 1 0.31168831168831168 1 0.31818181818181818 1 0.32467532467532467 1 0.33116883116883117 1 0.33766233766233766 1 0.34415584415584416 1 0.35064935064935066 1 0.35714285714285715 1 0.36363636363636365 1 0.37012987012987014 1 0.37662337662337664 1 0.38311688311688313 1 0.38961038961038963 1 0.39610389610389612 1 0.40259740259740262 1 0.40909090909090912 1 0.41558441558441561 1 0.42207792207792211 1 0.4285714285714286 1 0.4350649350649351 1 0.44155844155844159 1 0.44805194805194809 1 0.45454545454545459 1 0.46103896103896108 1 0.46753246753246758 1 0.47402597402597407 1 0.48051948051948057 1 0.48701298701298706 1 0.49350649350649356 1 0.5 1 0.50649350649350655 1 0.51298701298701299 1 0.51948051948051954 1 0.52597402597402598 1 0.53246753246753253 1 0.53896103896103897 1 0.54545454545454553 1 0.55194805194805197 1 0.55844155844155852 1 0.56493506493506496 1 0.57142857142857151 1 0.57792207792207795 1 0.5844155844155845 1 0.59090909090909094 1 0.59740259740259749 1 0.60389610389610393 1 0.61038961038961048 1 0.61688311688311692 1 0.62337662337662336 1 0.62987012987012991 1 0.63636363636363635 1 0.6428571428571429 1 0.64935064935064934 1 0.6558441558441559 1 0.66233766233766234 1 0.66883116883116889 1 0.67532467532467533 1 0.68181818181818188 1 0.68831168831168832 1 0.69480519480519487 1 0.70129870129870131 1 0.70779220779220786 1 0.7142857142857143 1 0.72077922077922085 1 0.72727272727272729 1 0.73376623376623384 1 0.74025974025974028 1 0.74675324675324684 1 0.75324675324675328 1 0.75974025974025983 1 0.76623376623376627 1 0.77272727272727282 1 0.77922077922077926 1 0.78571428571428581 1 0.79220779220779225 1 0.7987012987012988 1 0.80519480519480524 1 0.81168831168831179 1 0.81818181818181823 1 0.82467532467532478 1 0.83116883116883122 1 0.83766233766233766 1 0.84415584415584421 1 0.85064935064935066 1 0.85714285714285721 1 0.86363636363636365 1 0.8701298701298702 1 0.87662337662337664 1 0.88311688311688319 1 0.88961038961038963 1 0.89610389610389618 1 0.90259740259740262 1 0.90909090909090917 1 0.91558441558441561 1 0.92207792207792216 1 0.9285714285714286 1 0.93506493506493515 1 0.94155844155844159 1 0.94805194805194815 1 0.95454545454545459 1 0.96103896103896114 1 0.96753246753246758 1 0.97402597402597413 1 0.98051948051948057 1 0.98701298701298712 1 0.99350649350649356 1 1 4
7 0 0  3 157 155  0 0.81854385646751981  0.0068605163798483686 0.81854347829199547  0.020576996545967473 0.81858137059275504  0.041138743701891529 0.81875305864818182  0.061688227904067014 0.81903849506929649  0.082226070209903135 0.81943659572361749  0.10275280593371039 0.81994644831597219  0.12326894007237299 0.82056716308049293  0.14377500152270462 0.82129772417063085  0.16427167669893764 0.82213641969799423  0.18475958340389712 0.82308164193019961  0.20523939401490898 0.82413164620284662  0.22571188617853991 0.82528430000537423  0.24617794716591093 0.82653757905003977  0.2666378297993009 0.82788921376338775  0.28709044451043075 0.82933643334642015  0.30753488615584296 0.830876605646649  0.32797027760779252 0.83250682911280682  0.34839586518115806 0.83422384464306953  0.36881078727727312 0.83602447679222025  0.38921435687924988 0.83790546991132453  0.40960682648636926 0.83986323704988708  0.42998831180713787 0.84189421165150791  0.450358925194694 0.8439948699497819  0.47071881545434979 0.84616141703289061  0.49106811803668438 0.84838987737796401  0.51140695250048551 0.85067631167886615  0.53173531916289896 0.85301679078249015  0.5520536726318005 0.85540729138187788  0.5723629837337999 0.85784367468791267  0.59266408473755683 0.86032182453956685  0.61295781996084797 0.86283762208531656  0.63324502691842899 0.86538693647468157  0.65352657114427726 0.86796548307749088  0.67380328097631126 0.87056898738691912  0.6940759664726549 0.873193172262132  0.71434542667462297 0.87583376097499355  0.73461246369557076 0.87848647778057731  0.75487788130542877 0.88114704258841892  0.77514256664317516 0.88381120367359656  0.79540741324950648 0.88647472001405003  0.81567329656890242 0.88913334844093961  0.83594109551312767 0.89178284449974066  0.85621168872133291 0.89441897102545032  0.8764860082290622 0.89703746298066267  0.89676485561836305 0.89963418670625794  0.91704886695349674 0.90220514054919909  0.93733870833501765 0.90474629563802511  0.95763504930772514 0.9072536276545573  0.97793857160375353 0.90972312128589083  0.99825002651234329 0.91215072064477043  1.0185700298959015 0.91453255698234326  1.0388989961161028 0.91686498202113353  1.0592373969453168 0.91914429877385762  1.0795856983425349 0.92136683689135312  1.0999444739288511 0.92352886818178259  1.1203140270127705 0.92562691546731612  1.1406943078068252 0.92765778553365452  1.1610853488120363 0.92961822824695606  1.1814871923504835 0.93150500346184573  1.2018999104529045 0.93331488799861728  1.2223236810650187 0.9350445808264195  1.2427582884010591 0.93669147191233249  1.2632034148830251 0.93825309459448503  1.2836587728790807 0.93972694733956119  1.3041240998382451 0.94111052974851284  1.3245991417407152 0.94240137175667982  1.3450838165078842 0.94359688082758086  1.3655775501767131 0.94469504714669661  1.3860792019228565 0.94569443304626588  1.4065877329694503 0.94659348134939525  1.4271020750790258 0.94739065818528112  1.4476212104007118 0.94808445596786706  1.4681440968400674 0.94867323866602316  1.4886700542061377 0.94915596707109517  1.509198728188716 0.94953228973688053  1.529729667962014 0.94980171608775676  1.5502624433078673 0.9499637861767507  1.5707966116328733 0.95001805667170802  1.5913318310771427 0.94996398715255093  1.6118675021585178 0.94980163574211918  1.6324024769124159 0.94953177514145093  1.6529356590360971 0.94915504826211183  1.6734659063116779 0.94867212819977709  1.6939920927975749 0.94808369710314566  1.7145130734110527 0.94739037072472521  1.7350278860346928 0.94659303498781366  1.7555360401473947 0.94569356579647879  1.7760369182663733 0.94469370813338405  1.7965298858268921 0.94359524182791021  1.8170142846997173 0.94239993824397039  1.8374894519165197 0.9411095677606286  1.8579547541353336 0.93972591316644216  1.8784100880843142 0.93825168552600968  1.8988552743141633 0.93668958299234129  1.9192900926413694 0.93504230887292561  1.9397142855419109 0.9333125587689205  1.9601276001801204 0.93150305395233524  1.9805297083190607 0.92961642071810968  2.0009207031652081 0.92765579866628611  2.0213008760652134 0.92562464106235764  2.0416704123801672 0.92352632837961846  2.0620294787478102 0.9213642592060276  2.0823782238511357 0.91914183246309078  2.1027167678960987 0.9168624276234385  2.1230457350780534 0.91452982747026346  2.143365739156605 0.91214784157271811  2.1636773557920983 0.90972027188604698  2.1839811451541564 0.90725092418999231  2.2042776576422756 0.90474359658020009  2.2245676202480067 0.90220235226737167  2.2448517327688626 0.89963126097855284  2.2651306850532098 0.89703439561257503  2.2854051315817023 0.89441580987643587  2.3056758864956821 0.89177966117823038  2.3259438490045348 0.8891301765422267  2.3462098807794383 0.88647156666356963  2.3664748472623578 0.88380804780420641  2.3867396201699109 0.8811438302879927  2.4070050986030691 0.87848319225303106  2.4272721717879877 0.87583041850719889  2.4475417290822561 0.87318979206302016  2.4678146701330865 0.87056559652302279  2.4880919142275442 0.8679621149249227  2.5083741500983781 0.8653835923221328  2.5286620663753827 0.86283427531162404  2.5489563617777238 0.86031840638326307  2.5692577571996464 0.85784024291176597  2.5895670018319521 0.85540398265515594  2.6098848422371805 0.85301365544424435  2.6302120425431434 0.85067331710775362  2.6505493792016712 0.84838701355989021  2.6708977094941155 0.84615880437503899  2.691257061689881 0.84399251340879478  2.711627420226363 0.84189195288248786  2.732008808291444 0.83986092805756363  2.7524012941131479 0.83790328359070709  2.7728049130246744 0.836022467207169  2.7932196705960779 0.83422184667104426  2.8136457073086585 0.83250484564501548  2.834082774174286 0.83087472408520424  2.8545298256193803 0.82933443339165214  2.8749859990650628 0.8278870125913409  2.8954503532491298 0.82653534748920732  2.9159218224939498 0.82528186262989656  2.9363991516745025 0.82412912387423742  2.9568822438714797 0.82307928749040205  2.9773719070550966 0.8221341907001235  2.9978687801435018 0.82129577682938415  3.0183734149581518 0.82056556070332431  3.0388863581982895 0.81994504953072933  3.0594081411489116 0.81943560498946533  3.0799390875326789 0.81903797990813232  3.1004795530598441 0.81875298294173537  3.1210299575714164 0.81858152514455662  3.1347372037708077 0.81854357817723322  3.1415926535897931 0.81854385646540018 
 0 4 0.0064935064935064939 1 0.012987012987012988 1 0.01948051948051948 1 0.025974025974025976 1 0.032467532467532471 1 0.03896103896103896 1 0.045454545454545456 1 0.051948051948051951 1 0.058441558441558447 1 0.064935064935064943 1 0.071428571428571438 1 0.07792207792207792 1 0.084415584415584416 1 0.090909090909090912 1 0.097402597402597407 1 0.1038961038961039 1 0.1103896103896104 1 0.11688311688311689 1 0.12337662337662339 1 0.12987012987012989 1 0.13636363636363638 1 0.14285714285714288 1 0.14935064935064937 1 0.15584415584415584 1 0.16233766233766234 1 0.16883116883116883 1 0.17532467532467533 1 0.18181818181818182 1 0.18831168831168832 1 0.19480519480519481 1 0.20129870129870131 1 0.20779220779220781 1 0.2142857142857143 1 0.2207792207792208 1 0.22727272727272729 1 0.23376623376623379 1 0.24025974025974028 1 0.24675324675324678 1 0.25324675324675328 1 0.25974025974025977 1 0.26623376623376627 1 0.27272727272727276 1 0.27922077922077926 1 0.28571428571428575 1 0.29220779220779225 1 0.29870129870129875 1 0.30519480519480524 1 0.31168831168831168 1 0.31818181818181818 1 0.32467532467532467 1 0.33116883116883117 1 0.33766233766233766 1 0.34415584415584416 1 0.35064935064935066 1 0.35714285714285715 1 0.36363636363636365 1 0.37012987012987014 1 0.37662337662337664 1 0.38311688311688313 1 0.38961038961038963 1 0.39610389610389612 1 0.40259740259740262 1 0.40909090909090912 1 0.41558441558441561 1 0.42207792207792211 1 0.4285714285714286 1 0.4350649350649351 1 0.44155844155844159 1 0.44805194805194809 1 0.45454545454545459 1 0.46103896103896108 1 0.46753246753246758 1 0.47402597402597407 1 0.48051948051948057 1 0.48701298701298706 1 0.49350649350649356 1 0.5 1 0.50649350649350655 1 0.51298701298701299 1 0.51948051948051954 1 0.52597402597402598 1 0.53246753246753253 1 0.53896103896103897 1 0.54545454545454553 1 0.55194805194805197 1 0.55844155844155852 1 0.56493506493506496 1 0.57142857142857151 1 0.57792207792207795 1 0.5844155844155845 1 0.59090909090909094 1 0.59740259740259749 1 0.60389610389610393 1 0.61038961038961048 1 0.61688311688311692 1 0.62337662337662336 1 0.62987012987012991 1 0.63636363636363635 1 0.6428571428571429 1 0.64935064935064934 1 0.6558441558441559 1 0.66233766233766234 1 0.66883116883116889 1 0.67532467532467533 1 0.68181818181818188 1 0.68831168831168832 1 0.69480519480519487 1 0.70129870129870131 1 0.70779220779220786 1 0.7142857142857143 1 0.72077922077922085 1 0.72727272727272729 1 0.73376623376623384 1 0.74025974025974028 1 0.74675324675324684 1 0.75324675324675328 1 0.75974025974025983 1 0.76623376623376627 1 0.77272727272727282 1 0.77922077922077926 1 0.78571428571428581 1 0.79220779220779225 1 0.7987012987012988 1 0.80519480519480524 1 0.81168831168831179 1 0.81818181818181823 1 0.82467532467532478 1 0.83116883116883122 1 0.83766233766233766 1 0.84415584415584421 1 0.85064935064935066 1 0.85714285714285721 1 0.86363636363636365 1 0.8701298701298702 1 0.87662337662337664 1 0.88311688311688319 1 0.88961038961038963 1 0.89610389610389618 1 0.90259740259740262 1 0.90909090909090917 1 0.91558441558441561 1 0.92207792207792216 1 0.9285714285714286 1 0.93506493506493515 1 0.94155844155844159 1 0.94805194805194815 1 0.95454545454545459 1 0.96103896103896114 1 0.96753246753246758 1 0.97402597402597413 1 0.98051948051948057 1 0.98701298701298712 1 0.99350649350649356 1 1 4
1 1.2450668395002671 5.4000000000000004 0 1 
7 0 0  3 179 177  1.8965258139072958 7.8000000018157003  1.8965258389808797 7.804791269300857  1.8964894909962473 7.8143739075994523  1.8963259183872916 7.8287430576708088  1.8960534534843974 7.8431022715261607  1.8956722036142666 7.8574464604993493  1.8951823706176321 7.871770460603984  1.8945842385311915 7.8860690492536891  1.89387816002406 7.9003369931377563  1.8930645112083946 7.9145690868686849  1.8921438049166819 7.9287603205466226  1.8911165214318901 7.9429056319480154  1.8899832276560362 7.9570001131235371  1.8887445918173462 7.9710390357408265  1.8874012466439993 7.9850176188676496  1.8859538919424648 7.9989311639514309  1.8844033354694094 8.0127750979214145  1.8827503481422001 8.0265448085786755  1.8809957921877305 8.0402357804768343  1.8791405755477197 8.0538435335515324  1.8771856070770916 8.0673636374521305  1.8751318628492351 8.0807919260047854  1.872980296221975 8.0941241800572836  1.8707319406174496 8.1073563291999662  1.8683878554265076 8.1204843551007784  1.8659490804724597 8.1335042008347127  1.8634167189384814 8.1464119894011002  1.8607918966877952 8.1592039159612426  1.8580757241563721 8.1718761439343215  1.855269331614579 8.1844248992204367  1.8523739399572989 8.1968466583262636  1.8493907542346006 8.2091378682359828  1.8463209777420588 8.2212949818919867  1.8431658090492915 8.2333144579262552  1.8399264391510819 8.2451927262542366  1.8366040961171692 8.2569266264923549  1.8332000070216499 8.2685130400732927  1.829715391411231 8.2799488360542632  1.826151466327846 8.2912308916677997  1.8225094318248178 8.3023560638206284  1.8187905382914398 8.3133213097447207  1.8149960710416186 8.3241236597212893  1.81112729945097 8.3347601267746256  1.8071854898897086 8.3452277311736154  1.8031718973993751 8.3555234814656032  1.7990877857001233 8.3656444280191895  1.7949344655255306 8.3755877655632531  1.7907132344541639 8.3853506726187881  1.786425380879511 8.3949303204231427  1.7820722024452487 8.4043239332255748  1.7776550146867955 8.4135288159825503  1.7731751231468791 8.4225422614752556  1.7686338187924797 8.4313615540749751  1.7640324459215817 8.4399840706914819  1.7593723590922259 8.4484072149609286  1.7546549008920564 8.4566283836358505  1.7498814076559723 8.4646449756586382  1.7450532061090582 8.47245438809591  1.7401717303100466 8.4800541647087258  1.7352384085695116 8.4874418504787386  1.7302546621419812 8.4946149906769506  1.7252219031087561 8.5015711281966428  1.7201415420227453 8.5083078151526106  1.715014957216934 8.5148225691513559  1.7098436946996505 8.5211131627899643  1.7046293453523544 8.5271774418006832  1.699373481289298 8.533013233089255  1.6940776718474138 8.5386183696364366  1.6887434780104538 8.5439906789494291  1.6833724560399372 8.5491280043545927  1.6779661457446113 8.5540281313753006  1.672526142855099 8.5586892767587841  1.6670540571517365 8.5631097786844386  1.6615514868397399 8.567287942472209  1.6560200341046847 8.5712220897242997  1.6504612646504222 8.5749105097732734  1.6448768801984039 8.5783516338184302  1.6392687244951585 8.5815440388660136  1.6336386026824312 8.5844862647859941  1.6279883383013083 8.5871768849080699  1.6223199134165005 8.589614770396599  1.6166352999416027 8.5917987561796618  1.6109364564161244 8.5937277484423351  1.6052252497988226 8.5954011428097186  1.5995035534745861 8.5968182925739605  1.593773236874416 8.5979785617151965  1.58803616540012 8.5988813137945996  1.5822939172147443 8.5995264045570998  1.5765480729123564 8.5999136879815179  1.5708002104175705 8.6000430151879872  1.565051913620785 8.5999142504973989  1.5593047397775703 8.5995270761271865  1.5535603436303482 8.5988813682635783  1.5478207870437186 8.5979777955694878  1.5420880849813106 8.5968169272637738  1.5363642674927303 8.5953993608894486  1.5306513658995995 8.593725680136922  1.5249514019006407 8.5917964957828712  1.5192664408366581 8.5896123241114832  1.5135983431215372 8.5871741237369434  1.5079487678947041 8.5844832988214392  1.5023194236831063 8.5815411589308184  1.4967120119380863 8.5783490398246816  1.4911282421946157 8.5749082670838899  1.4855698244871558 8.5712201808104354  1.4800384811849765 8.5672860732007265  1.4745359013121535 8.5631074278264396  1.4690636848908738 8.5586862387308802  1.463623454157325 8.5540244216899435  1.4582168342211217 8.5491239133207149  1.4528454572905714 8.5439866451429278  1.4475109620421174 8.5386145482244995  1.4422149889382878 8.5330095605380905  1.4369591967091946 8.5271735928890102  1.4317450575780746 8.5211089392642911  1.4265740330984191 8.5148179319845365  1.4214475974483893 8.5083028935575271  1.4163672319477474 8.5015661478580391  1.4113344213902614 8.4946100231057731  1.4063506717626499 8.4874368287737045  1.4014174335803653 8.4800489542075734  1.3965360530298192 8.4724489340801874  1.3917079043422211 8.4646392775589785  1.386934364905458 8.4566224991551824  1.3822168180649677 8.4484011175101248  1.377556664806314 8.4399776294010671  1.3729552443900535 8.4313546720023176  1.3684138757169568 8.4225349402967389  1.3639338931848015 8.4135211139869188  1.3595166338238425 8.4043158808447966  1.3551634535194852 8.3949219116450955  1.3508756439014384 8.385341979247757  1.3466544759470136 8.3755788970461058  1.3425012354343846 8.3656354674490014  1.3384172116829767 8.3555144994833359  1.3344037079652153 8.3452187866882035  1.3304620070225444 8.3347511841464001  1.326593342957666 8.3241146724814818  1.3227989660396795 8.313312211534905  1.3190801309871776 8.302346764376713  1.3154380980673313 8.2912213019447805  1.3118741393064861 8.2799387604769894  1.3083894883762799 8.2685023487650966  1.304985373032258 8.2569153468051262  1.3016630304698991 8.2451810153380034  1.2984236998049716 8.2333026242552414  1.2952686364691035 8.2212834261012748  1.2921990555134799 8.2091267423962844  1.2892161005235181 8.1968360109730867  1.2863209341368242 8.1844146437906495  1.2835147182469151 8.1718660762043331  1.2807986260168425 8.15919367585796  1.2781738084053527 8.1464011100206388  1.2756413878686836 8.1334924093241696  1.2732024980058672 8.1204715298159602  1.2708582698833579 8.1073424517185408  1.2686098545163105 8.0941091331382999  1.2664582589532514 8.0807756870906218  1.2644044648755002 8.0673462528499496  1.2624494628797072 8.0538249723029267  1.2605942477611216 8.0402159515429368  1.2588397426226712 8.0265239902912473  1.257186859079872 8.0127539369581466  1.2556365410828745 7.9989106277373851  1.2541896009361948 7.9849988990322434  1.2528467046960248 7.9710235910959772  1.2516085424478103 7.9569895204680758  1.2504758266328866 7.9429015942922279  1.249449131270205 7.9287642825931437  1.2485289025853399 7.9145816509508826  1.2477156095324664 7.9003578634982201  1.247009736542483 7.8860970173986269  1.2464116449010927 7.8718034607520728  1.2459216256426924 7.8574816759399342  1.2455399878563571 7.8431361111843509  1.2452670313995122 7.8287712327819454  1.2451031011915279 7.8143914197761051  1.2450667343751922 7.8047978294332623  1.2450668395002673 7.8000000000000007 
 0 4 0.005681818181818182 1 0.011363636363636364 1 0.017045454545454544 1 0.022727272727272728 1 0.028409090909090912 1 0.034090909090909088 1 0.039772727272727272 1 0.045454545454545456 1 0.05113636363636364 1 0.056818181818181823 1 0.0625 1 0.068181818181818177 1 0.073863636363636367 1 0.079545454545454544 1 0.085227272727272735 1 0.090909090909090912 1 0.096590909090909088 1 0.10227272727272728 1 0.10795454545454546 1 0.11363636363636365 1 0.11931818181818182 1 0.125 1 0.13068181818181818 1 0.13636363636363635 1 0.14204545454545456 1 0.14772727272727273 1 0.15340909090909091 1 0.15909090909090909 1 0.16477272727272727 1 0.17045454545454547 1 0.17613636363636365 1 0.18181818181818182 1 0.1875 1 0.19318181818181818 1 0.19886363636363638 1 0.20454545454545456 1 0.21022727272727273 1 0.21590909090909091 1 0.22159090909090909 1 0.22727272727272729 1 0.23295454545454547 1 0.23863636363636365 1 0.24431818181818182 1 0.25 1 0.25568181818181818 1 0.26136363636363635 1 0.26704545454545453 1 0.27272727272727271 1 0.27840909090909094 1 0.28409090909090912 1 0.28977272727272729 1 0.29545454545454547 1 0.30113636363636365 1 0.30681818181818182 1 0.3125 1 0.31818181818181818 1 0.32386363636363635 1 0.32954545454545453 1 0.33522727272727276 1 0.34090909090909094 1 0.34659090909090912 1 0.35227272727272729 1 0.35795454545454547 1 0.36363636363636365 1 0.36931818181818182 1 0.375 1 0.38068181818181818 1 0.38636363636363635 1 0.39204545454545453 1 0.39772727272727276 1 0.40340909090909094 1 0.40909090909090912 1 0.41477272727272729 1 0.42045454545454547 1 0.42613636363636365 1 0.43181818181818182 1 0.4375 1 0.44318181818181818 1 0.44886363636363635 1 0.45454545454545459 1 0.46022727272727276 1 0.46590909090909094 1 0.47159090909090912 1 0.47727272727272729 1 0.48295454545454547 1 0.48863636363636365 1 0.49431818181818182 1 0.5 1 0.50568181818181823 1 0.51136363636363635 1 0.51704545454545459 1 0.52272727272727271 1 0.52840909090909094 1 0.53409090909090906 1 0.53977272727272729 1 0.54545454545454541 1 0.55113636363636365 1 0.55681818181818188 1 0.5625 1 0.56818181818181823 1 0.57386363636363635 1 0.57954545454545459 1 0.58522727272727271 1 0.59090909090909094 1 0.59659090909090906 1 0.60227272727272729 1 0.60795454545454553 1 0.61363636363636365 1 0.61931818181818188 1 0.625 1 0.63068181818181823 1 0.63636363636363635 1 0.64204545454545459 1 0.64772727272727271 1 0.65340909090909094 1 0.65909090909090906 1 0.66477272727272729 1 0.67045454545454553 1 0.67613636363636365 1 0.68181818181818188 1 0.6875 1 0.69318181818181823 1 0.69886363636363635 1 0.70454545454545459 1 0.71022727272727271 1 0.71590909090909094 1 0.72159090909090906 1 0.72727272727272729 1 0.73295454545454553 1 0.73863636363636365 1 0.74431818181818188 1 0.75 1 0.75568181818181823 1 0.76136363636363635 1 0.76704545454545459 1 0.77272727272727271 1 0.77840909090909094 1 0.78409090909090906 1 0.78977272727272729 1 0.79545454545454553 1 0.80113636363636365 1 0.80681818181818188 1 0.8125 1 0.81818181818181823 1 0.82386363636363635 1 0.82954545454545459 1 0.83522727272727271 1 0.84090909090909094 1 0.84659090909090906 1 0.85227272727272729 1 0.85795454545454553 1 0.86363636363636365 1 0.86931818181818188 1 0.875 1 0.88068181818181823 1 0.88636363636363635 1 0.89204545454545459 1 0.89772727272727271 1 0.90340909090909094 1 0.90909090909090917 1 0.91477272727272729 1 0.92045454545454553 1 0.92613636363636365 1 0.93181818181818188 1 0.9375 1 0.94318181818181823 1 0.94886363636363635 1 0.95454545454545459 1 0.96022727272727271 1 0.96590909090909094 1 0.97159090909090917 1 0.97727272727272729 1 0.98295454545454553 1 0.98863636363636365 1 0.99431818181818188 1 1 4
7 0 0  3 179 177  6.6154001423683468e-07 0.81854385661116003  0.0059897446973947782 0.81854380261974824  0.017968042778508858 0.81857288457919486  0.035935282049029134 0.81870375692749797  0.053901697276610136 0.81892152762593196  0.071866717914988859 0.819225952860127  0.089829671198250333 0.81961658972108409  0.10778979234226653 0.82009282239537973  0.12574628027795534 0.82065389946950185  0.14369835859122346 0.82129901902711167  0.16164544100426989 0.82202708707208705  0.17958687587816646 0.82283707993209831  0.19752216465260547 0.82372777857500568  0.21545096889416362 0.82469773437312077  0.23337288742902879 0.82574557599953158  0.25128757913529715 0.82686978126213162  0.26919477689033 0.82806858651738957  0.28709417197563686 0.82934030482029297  0.30498550116023282 0.83068305334616588  0.32286849120446681 0.83209485146059348  0.34074291335723728 0.83357370507098771  0.35860878476704433 0.83511744336627713  0.37646606005364985 0.83672394281321572  0.39431478367236011 0.83839090035423269  0.41215501258242537 0.84011595023954921  0.42998676106611927 0.84189676380254197  0.44781017268263279 0.84373086069168912  0.46562542646871863 0.84561570111744633  0.48343266412488067 0.84754876990623862  0.50123206333179626 0.84952750672806354  0.519023947250974 0.85154917220642889  0.53680859562418926 0.85361104828820855  0.55458627583111975 0.8557104117014761  0.57235725043237129 0.85784453872613564  0.59012175346205387 0.86001071265356299  0.60788038630073349 0.86220611299966465  0.62563376796651582 0.86442790864169583  0.64338249451004847 0.86667327167299979  0.66112715562364388 0.86893937183710412  0.67886833934053292 0.87122338506072328  0.69660662482185054 0.8735224565687898  0.71434257119575806 0.87583370933820393  0.73207672953185665 0.87815427125772527  0.74980964672436767 0.88048126937076598  0.76754187041841571 0.88281182919026657  0.78527395719700521 0.88514308358302962  0.80300646626971239 0.88747219073079042  0.820739951668781 0.88979630717036173  0.83847497012152128 0.8921125835180399  0.85621208424399442 0.89441819989760452  0.8739518573719619 0.89671037993094826  0.89169485291187744 0.8989863419704337  0.90944165751624995 0.90124329481046039  0.92719277038118031 0.90347853466174743  0.94494866441937797 0.90568938274555011  0.96270982736775523 0.90787315380960198  0.98047675688337743 0.91002716478383994  0.99824997358080603 0.91214873034291488  1.0160297722082916 0.91423535529051814  1.0338164468180566 0.91628454603295917  1.0516103007467956 0.91829380932002591  1.0694116564766742 0.92026064892531867  1.0872208430678294 0.92218258018368693  1.1050382732641313 0.92405707516118896  1.1228639835573848 0.92588192564539795  1.140697890120759 0.92765501510255111  1.1585399413541599 0.92937420347106847  1.1763900877551423 0.93103735801715737  1.1942483001340436 0.93264234022371062  1.2121145709805357 0.93418702737907977  1.2299889347141062 0.93566923933310564  1.2478713973436071 0.93708722432371627  1.2657619449265605 0.93843935146795698  1.2836605805685937 0.93972395637114436  1.3015672966656446 0.94093939404248128  1.3194821936389407 0.94208397538737121  1.3374049928855012 0.94315620878907003  1.3553350047628503 0.94415480479700964  1.3732716476446627 0.94507842547150711  1.3912142972418278 0.94592576730186173  1.4091618933029335 0.9466957951363415  1.4271133950706076 0.94738744320232404  1.4450678203822849 0.94799970286859359  1.4630245305088718 0.94853195450344741  1.4809828491135053 0.94898354488427394  1.4989421110347183 0.94935382915792765  1.5169016700842179 0.94964216258439582  1.5348618052276792 0.94984837736047145  1.5528227769861811 0.94997230380156494  1.570784851086741 0.95001377021850197  1.5887482743271997 0.9499726148218528  1.6067133901548574 0.94984869012235651  1.6246802590657219 0.94964199593242837  1.6426476357914657 0.94935313359403073  1.6606144043090314 0.94898262886947971  1.6785793927568229 0.94853102940347878  1.696541426973212 0.94799887089084645  1.7144993686328431 0.94738671494353688  1.7324519764062358 0.94669503145486189  1.7503986083105938 0.94592472014267959  1.7683391694662303 0.94507711371816316  1.78627340928457 0.94415345294831543  1.8042010875524157 0.94315500410683384  1.8221219389734682 0.94208302338479943  1.840035698113017 0.9409387817970577  1.8579420844081795 0.93972350114602532  1.8758408911247557 0.9384385999317757  1.8937320494524701 0.93708602134235619  1.911615427557023 0.93566762812253368  1.9294908739183534 0.93418530442304426  1.9473582161941345 0.93264092921402353  1.9652172691308141 0.9310363807820452  1.983067850938131 0.92937354532853134  2.000909756862824 0.92765427807906131  2.0187432013390834 0.9258808709731986  2.0365684050319137 0.92405565961594471  2.0543855519854111 0.92218096851005449  2.0721948065823845 0.92025912341393923  2.0899963276898701 0.91829245616564148  2.1077902349528359 0.9162832730290098  2.1255767851790752 0.91423398905776865  2.143356463737633 0.91214721728894887  2.1611296892015806 0.91002553585414614  2.1788968757288911 0.90787153078594285  2.196658428366709 0.90568779141841405  2.2144147341267479 0.90347688597867781  2.2321662763681172 0.90124151940549402  2.2499135617545725 0.89898445287634576  2.2676570738778361 0.89670843297696301  2.2853972965047031 0.89441621305432562  2.3031346965352757 0.89211053400215978  2.3208698429897536 0.88979420998448211  2.3386033326668416 0.88747008404731542  2.3563357453748632 0.88514099192181084  2.3740676621159804 0.88280977201957067  2.391799664902313 0.88047925934525173  2.409532350960125 0.87815230107012487  2.4272663267106767 0.8758317690429932  2.4450021920551968 0.8735205308265438  2.4627405516767418 0.87122145541092533  2.4804820104334162 0.86893741036257033  2.4982272111618142 0.86667126751530377  2.5159766184861843 0.86442586609634242  2.5337306453010031 0.86220403655471234  2.5514897214912255 0.86000861261348582  2.5692542828964524 0.85784242327836946  2.5870247831966386 0.85570831315050733  2.604801690518681 0.85360906079107435  2.622585467127982 0.851547334012701  2.6403765896493883 0.84952582240443009  2.658175529736917 0.84754720448712273  2.6759828473737151 0.8456141812779413  2.6937988161899495 0.84372935826445505  2.7116233394461839 0.84189522482299095  2.729456406451114 0.84011429587792041  2.7472980022244822 0.83838907187165213  2.7651481477466993 0.83672208562640871  2.7830068484237174 0.83511558819226983  2.8008741123337457 0.83357177761053569  2.8187499523802022 0.83209286263898863  2.8366344472773557 0.83068106049560397  2.8545269163694322 0.82933835044501625  2.8724266357985249 0.82806668040643749  2.8903328948938207 0.82686805525654028  2.9082450949478873 0.82574423880081671  2.9261627284343632 0.82469672961222096  2.9440853035864976 0.82372706601658541  2.9620122229684118 0.82283683011698783  2.9799435097518931 0.8220273261245814  2.9978797475997356 0.82129960523938272  3.0158213945911436 0.82065475566533208  3.0337690045364401 0.82009392115742674  3.0517228636028375 0.81961785454299019  3.0696831074318029 0.81922708815102208  3.0876499161727771 0.81892221045317837  3.1056234628850783 0.81870378047871128  3.1236040433587084 0.81857249815360067  3.1355960293089815 0.81854355987692273  3.1415933128601825 0.81854385646540018 
 0 4 0.005681818181818182 1 0.011363636363636364 1 0.017045454545454544 1 0.022727272727272728 1 0.028409090909090912 1 0.034090909090909088 1 0.039772727272727272 1 0.045454545454545456 1 0.05113636363636364 1 0.056818181818181823 1 0.0625 1 0.068181818181818177 1 0.073863636363636367 1 0.079545454545454544 1 0.085227272727272735 1 0.090909090909090912 1 0.096590909090909088 1 0.10227272727272728 1 0.10795454545454546 1 0.11363636363636365 1 0.11931818181818182 1 0.125 1 0.13068181818181818 1 0.13636363636363635 1 0.14204545454545456 1 0.14772727272727273 1 0.15340909090909091 1 0.15909090909090909 1 0.16477272727272727 1 0.17045454545454547 1 0.17613636363636365 1 0.18181818181818182 1 0.1875 1 0.19318181818181818 1 0.19886363636363638 1 0.20454545454545456 1 0.21022727272727273 1 0.21590909090909091 1 0.22159090909090909 1 0.22727272727272729 1 0.23295454545454547 1 0.23863636363636365 1 0.24431818181818182 1 0.25 1 0.25568181818181818 1 0.26136363636363635 1 0.26704545454545453 1 0.27272727272727271 1 0.27840909090909094 1 0.28409090909090912 1 0.28977272727272729 1 0.29545454545454547 1 0.30113636363636365 1 0.30681818181818182 1 0.3125 1 0.31818181818181818 1 0.32386363636363635 1 0.32954545454545453 1 0.33522727272727276 1 0.34090909090909094 1 0.34659090909090912 1 0.35227272727272729 1 0.35795454545454547 1 0.36363636363636365 1 0.36931818181818182 1 0.375 1 0.38068181818181818 1 0.38636363636363635 1 0.39204545454545453 1 0.39772727272727276 1 0.40340909090909094 1 0.40909090909090912 1 0.41477272727272729 1 0.42045454545454547 1 0.42613636363636365 1 0.43181818181818182 1 0.4375 1 0.44318181818181818 1 0.44886363636363635 1 0.45454545454545459 1 0.46022727272727276 1 0.46590909090909094 1 0.47159090909090912 1 0.47727272727272729 1 0.48295454545454547 1 0.48863636363636365 1 0.49431818181818182 1 0.5 1 0.50568181818181823 1 0.51136363636363635 1 0.51704545454545459 1 0.52272727272727271 1 0.52840909090909094 1 0.53409090909090906 1 0.53977272727272729 1 0.54545454545454541 1 0.55113636363636365 1 0.55681818181818188 1 0.5625 1 0.56818181818181823 1 0.57386363636363635 1 0.57954545454545459 1 0.58522727272727271 1 0.59090909090909094 1 0.59659090909090906 1 0.60227272727272729 1 0.60795454545454553 1 0.61363636363636365 1 0.61931818181818188 1 0.625 1 0.63068181818181823 1 0.63636363636363635 1 0.64204545454545459 1 0.64772727272727271 1 0.65340909090909094 1 0.65909090909090906 1 0.66477272727272729 1 0.67045454545454553 1 0.67613636363636365 1 0.68181818181818188 1 0.6875 1 0.69318181818181823 1 0.69886363636363635 1 0.70454545454545459 1 0.71022727272727271 1 0.71590909090909094 1 0.72159090909090906 1 0.72727272727272729 1 0.73295454545454553 1 0.73863636363636365 1 0.74431818181818188 1 0.75 1 0.75568181818181823 1 0.76136363636363635 1 0.76704545454545459 1 0.77272727272727271 1 0.77840909090909094 1 0.78409090909090906 1 0.78977272727272729 1 0.79545454545454553 1 0.80113636363636365 1 0.80681818181818188 1 0.8125 1 0.81818181818181823 1 0.82386363636363635 1 0.82954545454545459 1 0.83522727272727271 1 0.84090909090909094 1 0.84659090909090906 1 0.85227272727272729 1 0.85795454545454553 1 0.86363636363636365 1 0.86931818181818188 1 0.875 1 0.88068181818181823 1 0.88636363636363635 1 0.89204545454545459 1 0.89772727272727271 1 0.90340909090909094 1 0.90909090909090917 1 0.91477272727272729 1 0.92045454545454553 1 0.92613636363636365 1 0.93181818181818188 1 0.9375 1 0.94318181818181823 1 0.94886363636363635 1 0.95454545454545459 1 0.96022727272727271 1 0.96590909090909094 1 0.97159090909090917 1 0.97727272727272729 1 0.98295454545454553 1 0.98863636363636365 1 0.99431818181818188 1 1 4
1 3.1415933128601825 0.15999999999999992 0 1 
1 0 0.15999999999999992 0 1 
1 0 0.15999999999999992 1 0 
1 0.50000000000000011 6.2831853071795862 1 0 
1 0.50000000000001266 6.2831853071795862 -1.0492603889229261e-07 -0.99999999999999456 
1 1.5707963267948966 -3.0399994725836983 -1 -1.1308638867425838e-15 
1 0.50000000000000022 4.7123889803846879 1 1.6962954741423983e-15 
1 3.6415933128601821 6.2831853071795862 2.8271597168564658e-16 -1 
1 1.5707963267948952 -0.63999999999999879 -1 0 
1 0 -0.63999999999999879 0 -1 
1 1.5707963267948966 -3.0399999999999991 -1 0 
1 0.50000000000000011 6.2831853071795862 1.6256168371924679e-15 -1 
1 1.5707963267948966 -0.63999999999999879 0 -1 
1 0.50000000000000266 4.7123889803846932 1 -2.8271597168564624e-16 
1 3.6415926535897936 6.2831853071795862 -2.8271597168564545e-16 -1 
1 1.5707963267948979 -0.63999999999999879 -1 6.3328377657584633e-14 
1 0 0.15999999999999992 1 0 
1 0.50000000000000067 6.2831853071795862 1 0 
1 0 -0.63999999999999879 0 -1 
1 1.5707963267948979 -0.63999999999999879 0 -1 
1 0 0.15999999999999992 0 1 
1 3.1415926535897931 0.15999999999999992 0 1 
1 0 0 1 0 
1 6.2831853071795862 0 0 1 
1 0 0 0 1 
1 0 1 1 0 
1 0 19.024999999999999 1 0 
1 6.2831853071795862 0 0 1 
1 0 0 0 1 
1 0 25.625 1 0 
2 -0 0 -0.99272119451769913 -0.12043516909670801 -0.12043516909670801 0.99272119451769913 3.6750000000000007
1 0 3.5500000000000007 1 0 
1 6.2831853071795862 -0 0 1 
1 0 -0 0 1 
2 1.0696791816463148e-16 -8.8171354174955064e-16 -0.99272119451769913 -0.12043516909670801 -0.12043516909670801 0.99272119451769913 3.6750000000000007
1 0 0 1 0 
1 0 29.175000000000001 1 0 
1 6.2831853071795862 0 0 1 
1 0 0 0 1 
1 0 34 1 0 
1 0 4.7123889803846897 1 0 
1 6.2831853071795862 0 0 1 
1 0 0 0 1 
1 0 3.1415926535897931 1 0 
1 0 0.19999999999999929 1 0 
1 6.2831853071795862 0 0 1 
1 0 0 0 1 
1 0 2.8000000000000007 1 0 
1 9.4247779607693793 0.14142135623730934 -1 0 
1 9.4247779607693793 0 0 1 
1 3.1415926535897931 0 0 1 
1 9.4247779607693793 -0.14142135623730917 -1 0 
Curves 54
2 22.625 0 0 -1 0 0 0 -1 6.1232339957367697e-17 0 6.1232339957367697e-17 1 1.8999999999999999
2 22.625 0 0 1 0 0 -0 1 6.1232339957367697e-17 0 -6.1232339957367697e-17 1 1.7
2 22.824999999999999 0 0 1 0 0 -0 1 6.1232339957367599e-17 0 -6.1232339957367599e-17 1 1.5
7 1 0  6 7 2  22.824999999999999 1.5 9.1848509936051398e-17  1.0313934717875073 22.771532643369415 1.4999999999999998 9.1848509936051386e-17  1.0100254076614366 22.719458285483562 1.517000870126739 9.2889512995222933e-17  0.99792464272497539 22.674616097359543 1.5496160973595419 9.4886619676928714e-17  0.99395844413692447 22.642000870126736 1.5944582854835612 9.7632411784570908e-17  0.99792464272497583 22.625 1.6465326433694163 1.0082104656969921e-16  1.0100254076614348 22.625 1.7 1.0409497792752492e-16  1.0313934717875073
 3.1415926535897931 7 4.7123889803846897 7
2 25.425000000000001 0 0 1 0 0 -0 1 6.1232339957367599e-17 0 -6.1232339957367599e-17 1 1.5
7 0 0  1 2 2  22.824999999999999 1.5 -2.7554552980815453e-16  25.425000000000001 1.5 -2.7554552980815453e-16 
 0.19999999999999929 2 2.8000000000000007 2
2 25.625 0 0 1 0 0 -0 1 1.8369701987210299e-16 0 -1.8369701987210299e-16 1 1.3
7 0 0  1 2 2  25.625 1.2999999999999992 3.1272230763941333e-16  25.425000000000001 1.4999999999999991 3.6083343189163078e-16 
 -0.14142135623731042 2 0.14142135623730803 2
7 0 0  1 2 2  22.625 -1.8999999999999999 -2.9831139979230525e-18  22.524999999999999 -2 -3.14011999781374e-18 
 -0.070710678118655279 2 0.070710678118655279 2
2 22.524999999999999 0 0 -1 0 0 -0 -1 -6.1232339957367697e-17 0 -6.1232339957367697e-17 1 2
7 0 0  1 2 2  22.524999999999999 -2 -1.2246467991473539e-16  16.425000000000001 -2 -1.2246467991473539e-16 
 3.1000000000000014 2 9.1999999999999993 2
2 16.425000000000001 0 0 -1 0 0 -0 -1 -6.1232339957367697e-17 0 -6.1232339957367697e-17 1 2
2 16.425000000000001 0 0 1 0 0 0 -1 6.1232339957367697e-17 0 -6.1232339957367697e-17 -1 2.5
7 0 0  1 2 2  7.5999999999999996 -2.5 7.6540424946709586e-16  16.425000000000001 -2.5 7.6540424946709586e-16 
 1 2 9.8250000000000011 2
2 7.5999999999999996 0 0 1 0 -6.1232339957367697e-17 3.7493994566546488e-33 -1 6.1232339957367697e-17 -6.1232339957367697e-17 -6.1232339957367697e-17 -1 2.5
1 12 0.80000000000000204 -2.3685438564654002 1 3.14563259437875e-13 0 
7 0 0  3 39 37  12 -0.79999999999373805 -2.3685438564675199  11.984011185494399 -0.80000059518799105 -2.3685427547631099  11.952081531051601 -0.79904138696696902 -2.3688683783510598  11.904398520782999 -0.79474735221535797 -2.3703138452031798  11.8570815492454 -0.78761542063263801 -2.3726964947757399  11.8102733345905 -0.77766743054912801 -2.3759798761962601  11.762456409001899 -0.76447533456479499 -2.38026422948528  11.7122524473531 -0.74715275667001901 -2.38577169938078  11.657395145368399 -0.72383741755497699 -2.3929722063603598  11.599240246173499 -0.69353122332505301 -2.40196638884452  11.5311784472617 -0.65021478701290902 -2.4141485948433901  11.459494855038599 -0.59273728209402199 -2.4290624587367202  11.389470429445099 -0.52014214027675199 -2.4457014344419501  11.333425226380699 -0.44538438735619001 -2.4604023796350099  11.287523208014299 -0.36727769934772397 -2.4732828787082299  11.2496142716432 -0.28304866928913902 -2.4844939022685102  11.220463727061199 -0.18906225112161201 -2.4934949112993099  11.2035398290611 -0.092924769512851793 -2.4988642766165299  11.1998102556056 -0.026558251324520499 -2.5000607194500599  11.2002348568318 0.040446613971381301 -2.4999248823106699  11.205635176577401 0.111487583219586 -2.4981922499864599  11.226347120785 0.21220625818283601 -2.4916508780113902  11.258934627776799 0.30672293020451402 -2.48167968930293  11.2997407610204 0.39006007779799201 -2.4697781413606101  11.3432706755369 0.45894101850929098 -2.4577833505715501  11.389750494951899 0.51903906832205604 -2.4457513937342701  11.441200566740299 0.57424217528884203 -2.43336855780964  11.499243118789201 0.62551861404044795 -2.4206547809713501  11.560526250771 0.66983653627744499 -2.40871354641757  11.622070881160599 0.70621884987291605 -2.3982559677766502  11.680457420749301 0.73428029541629303 -2.3897798213198498  11.734608885839901 0.75533513268500496 -2.3831874293992001  11.7829215725032 0.770474730635612 -2.3783246034432701  11.827918478307501 0.78168977045217602 -2.3746566181237401  11.871077203873799 0.78994701807003498 -2.3719194255218601  11.914190979235 0.79577646865121698 -2.3699677364212501  11.957133865062101 0.79923438281261305 -2.36880292800064  11.985743820495699 0.80000042200327104 -2.3685431325475501  12 0.80000000000000004 -2.3685438564654002 
 0 4 0.0189168314301227 1 0.0378135432040042 1 0.056766826006658798 1 0.075736491020070407 1 0.094702969362069706 1 0.115786947790609 1 0.13900361123497701 1 0.165837067649627 1 0.19419005989973701 1 0.235657281815146 1 0.275984036696171 1 0.31516982672266097 1 0.34759665919560701 1 0.38434418249366498 1 0.42529879260158698 1 0.46449778856798901 1 0.49999985392973001 1 0.50400888183722903 1 0.54395298060085095 1 0.58430467986474399 1 0.62589707913578696 1 0.66280769492150204 1 0.69503433293855299 1 0.72342917390366801 1 0.75392410141278299 1 0.78560717278777703 1 0.81637986408174401 1 0.84460536697175204 1 0.87120050852749897 1 0.89376638097893701 1 0.913886895755043 1 0.93147129404828199 1 0.948911266956872 1 0.96610215785207598 1 0.98312063242092895 1 1 4
1 12 -0.79999999999999805 -2.3685438564654002 1 9.2518585385429605e-17 0 
7 0 0  3 45 43  14.4000000018157 0.79999999956836898 -2.3685438566111601  14.408681847920599 0.800000089684063 -2.3685437552186901  14.425275891780901 0.79972980683365003 -2.3686351747552901  14.4489803637495 0.79860559641123696 -2.3690145186238198  14.4729610932434 0.79678908105022594 -2.3696263053673001  14.5018903384283 0.79371517451566798 -2.3706585519246999  14.538185206641799 0.78834021897562301 -2.3724539500842599  14.578303547890201 0.78025307407647304 -2.37512903357154  14.6164745489355 0.77045208156664002 -2.3783274232256399  14.6513697642281 0.759749348114372 -2.3817692519435898  14.686883367008701 0.747138540804967 -2.3857609115753702  14.726553907850899 0.73081315056074403 -2.3908244393407099  14.7772729745497 0.70639776825536604 -2.3981877933813198  14.835266043717899 0.67264294464697605 -2.4079361559575201  14.896774865713001 0.62858860940918204 -2.4198469848175201  14.9485151570818 0.58356984452365002 -2.4310843001354501  14.9908549225933 0.54021120242995602 -2.4410467534046498  15.0285228260712 0.496142656632033 -2.4504285491969902  15.0695586010049 0.44016383158562999 -2.4612422009467001  15.113148467951399 0.36659087397303902 -2.4734592375453301  15.148864523869699 0.28598502097848999 -2.4840544812601699  15.1715108792905 0.21466004846033401 -2.4910148087612098  15.184180673936901 0.16048967305142001 -2.4949780069958201  15.1928103388721 0.11101363175095399 -2.4977052126847998  15.1985973651183 0.058154239760183697 -2.49955069995957  15.2003077664187 0.0106406982867044 -2.5000984805895099  15.1993472709571 -0.049278222522756397 -2.4997912563509002  15.1923839265424 -0.124394225280924 -2.4975612164557899  15.17033695956 -0.22413885449929499 -2.49061678023984  15.1358772143551 -0.31904424150617799 -2.4801263977021399  15.093441900716799 -0.40206877318106199 -2.4678460043889401  15.048664821502999 -0.47026663498575499 -2.45563479349756  15.001195576130799 -0.52949642898965898 -2.4435021202703902  14.9488782814699 -0.58372668772264102 -2.4311029841668201  14.8901100135395 -0.63388533052671303 -2.4184691697916798  14.828369767331999 -0.67697654347448 -2.4067093319126198  14.766671057479099 -0.71211009042998297 -2.3965074531694599  14.708522610497599 -0.73895529241648295 -2.3883341482175302  14.6549896173152 -0.75888306050321397 -2.38205726805392  14.6032912820568 -0.77434625046234395 -2.3770688922956502  14.5506665367141 -0.78635448123052898 -2.3731175881120201  14.495535330049 -0.79491773380983899 -2.3702574290009499  14.4453067708346 -0.79919408899072297 -2.3688166316466099  14.4134976989899 -0.80000049859768396 -2.3685430220252099  14.4 -0.79999999999999705 -2.3685438564654002 
 0 4 0.0102955384360405 1 0.019677980375478198 1 0.028140270192315901 1 0.038818035965832901 1 0.054188266547488498 1 0.071681566908483804 1 0.087427055827210498 1 0.10105422698948099 1 0.11514041364423699 1 0.13235028142613101 1 0.152252176012108 1 0.182416368570997 1 0.21265386441505099 1 0.24296930413388901 1 0.26473053141406899 1 0.28543293912114098 1 0.31256774876014798 1 0.34794846978944199 1 0.387699952316506 1 0.41763576305938499 1 0.43695851712994199 1 0.45378360371738302 1 0.477236256731571 1 0.50000376809125502 1 0.51015118564497397 1 0.54830524236201195 1 0.58927730715510895 1 0.631276419808105 1 0.66838108214843595 1 0.70059100609351699 1 0.72896442679319695 1 0.75943381125814502 1 0.79103845303480902 1 0.82168357695596295 1 0.84968505789095095 1 0.87600965529709895 1 0.89816346626625498 1 0.91777413183314105 1 0.94022602724405302 1 0.96230732096187599 1 0.98401538186706905 1 1 4
1 14.4 -0.79999999999999705 -1.71 0 -1.6858756083217399e-16 -1 
1 14.3999994725837 0.80000000000067095 -1.71 0 -3.3717512166434902e-16 -1 
2 14.4 2.8032165232482898e-15 -1.71 -1.1754943508222901e-38 -1.22464679914735e-16 -1 -6.5927038939150893e-07 0.99999999999978273 -1.224646799147084e-16 0.99999999999978273 6.5927038939150893e-07 -8.0737337214093853e-23 0.80000000000000004
2 14.399999472583801 0.64000000000151203 -1.71 1 6.2908624530943604e-13 1.7758306497465999e-31 -6.2908624530943604e-13 1 7.55121730348091e-16 4.7485911103127034e-28 -7.55121730348091e-16 1 0.16
2 14.4 2.8228108720346498e-15 -1.55 0 -1.22464679914735e-16 -1 -6.5927038828128591e-07 0.99999999999978273 -1.224646799147084e-16 0.99999999999978273 6.5927038828128591e-07 -8.0737337078130733e-23 0.64000000000000001
2 14.4 -0.63999999999999702 -1.71 -1 1.0547118733939001e-15 -1.2916495197745499e-31 -1.0547118733939001e-15 -1 1.38777878078145e-15 1.3345418057568507e-30 1.38777878078145e-15 1 0.16
1 14.4 -0.63999999999999702 -1.55 -1 -1.8503717077086e-16 0 
2 12 -0.63999999999999801 -1.71 -1 -1.81014623580189e-16 0 1.81014623580189e-16 -1 6.1232339957367697e-17 -1.108394896831708e-32 6.1232339957367697e-17 1 0.16
1 14.4 -0.79999999999999705 -1.71 -1 -1.8503717077086e-16 0 
2 12 2.3819380243415999e-15 -1.55 0 -1.22464679914735e-16 -1 0 -1 1.22464679914735e-16 -1 -0 0 0.64000000000000001
2 12 0.64000000000000201 -1.71 1 9.4368957093138306e-16 -1.1556864124298599e-31 -9.4368957093138306e-16 1 1.09060921467716e-46 1.1556864124298599e-31 3.8893845486632136e-61 1 0.16
2 12 2.3623436755552399e-15 -1.71 0 -1.22464679914735e-16 -1 0 -1 1.22464679914735e-16 -1 -0 0 0.80000000000000004
1 12.000000000000099 0.64000000000000201 -1.55 1 6.2912651887575102e-13 0 
1 12 0.80000000000000204 -1.71 1 6.2908025957289199e-13 0 
1 12 -0.79999999999999805 -1.71 0 -1.6858756083217399e-16 -1 
1 12 0.80000000000000204 -1.71 0 -1.6858756083217399e-16 -1 
2 7.5999999999999996 0 -4.6536578367599398e-16 -1 0 6.1232339957367697e-17 3.7493994566546488e-33 -1 6.1232339957367697e-17 6.1232339957367697e-17 6.1232339957367697e-17 1 3.5
7 0 0  1 2 2  7.5999999999999996 -3.5 -2.5105259382520702e-16  6.5999999999999996 -3.5 -1.8982025386783933e-16 
 0 2 1 2
2 6.5999999999999996 0 -4.0413344371862699e-16 -1 0 6.1232339957367697e-17 3.7493994566546488e-33 -1 6.1232339957367697e-17 6.1232339957367697e-17 6.1232339957367697e-17 1 3.5
2 6.5999999999999996 0 0 -1 0 6.1232339957367697e-17 3.7493994566546488e-33 -1 6.1232339957367697e-17 6.1232339957367697e-17 6.1232339957367697e-17 1 2
7 0 0  1 2 2  6.6000000000000014 -2 -1.2246467991473539e-16  0 -2 -1.2246467991473539e-16 
 19.024999999999999 2 25.625 2
2 0 0 0 -1 0 0 -0 -1 -6.1232339957367697e-17 0 -6.1232339957367697e-17 1 2
2 -6.6675051577611297 13.375000000000799 -11.936553006152099 0 1 0 0 -0 1 1 0 -0 3.6749999999999998
1 -6.6675051577611306 9.8249999999999993 -8.2615530061520985 0 1 0 
2 -6.6675051577611297 9.8250000000007987 -11.936553006152099 0 1 0 0 -0 1 1 0 -0 3.6749999999999998
2 -3.5499999999999998 0 0 -1 0 0 -0 -1 -6.1232339957367697e-17 0 -6.1232339957367697e-17 1 2
7 0 0  1 2 2  -3.5500000000000007 -2 -1.2246467991473539e-16  -8.375 -2 -1.2246467991473539e-16 
 29.175000000000001 2 34 2
2 -8.375 0 0 -1 0 0 -0 -1 -6.1232339957367697e-17 0 -6.1232339957367697e-17 1 2
2 -8.375 0 0 -1 0 0 -0 -1 -6.1232339957367697e-17 0 -6.1232339957367697e-17 1 1.7
7 1 0  6 7 2  -8.5749999999999993 -1.5 -4.592425496802574e-16  1.0313934717875073 -8.5215326433694152 -1.4999999999999998 -4.592425496802574e-16  1.0100254076614366 -8.4694582854835598 -1.517000870126739 -4.6444756497611509e-16  0.99792464272497539 -8.4246160973595412 -1.5496160973595419 -4.7443309838464404e-16  0.99395844413692447 -8.3920008701267381 -1.5944582854835612 -4.8816205892285496e-16  0.99792464272497583 -8.375 -1.6465326433694163 -5.0410523284849645e-16  1.0100254076614348 -8.375 -1.7 -5.2047488963762507e-16  1.0313934717875073
 3.1415926535897931 7 4.7123889803846897 7
2 -8.5749999999999993 0 0 -1 0 0 -0 -1 -6.1232339957367599e-17 0 -6.1232339957367599e-17 1 1.5
7 0 0  1 2 2  -8.5749999999999993 -1.5 -9.1848509936051398e-17  -11.175000000000001 -1.5 -9.1848509936051398e-17 
 0.19999999999999929 2 2.8000000000000007 2
2 -11.175000000000001 0 0 -1 0 0 -0 -1 -6.1232339957367599e-17 0 -6.1232339957367599e-17 1 1.5
7 0 0  1 2 2  -11.375 -1.3 3.9801020972288972e-16  -11.175000000000001 -1.5 4.592425496802574e-16 
 -0.14142135623730917 2 0.14142135623730934 2
2 -11.375 0 0 -1 0 0 -0 -1 -6.1232339957367697e-17 0 -6.1232339957367697e-17 1 1.3
Polygon3D 0
PolygonOnTriangulations 0
Surfaces 33
1 22.625 0 0 1 0 0 -0 1 6.1232339957367697e-17 0 -6.1232339957367697e-17 1 
10 0 6.2831853071795862 -0.070710678118655279 0.070710678118655279
3 22.574999999999999 0 0 -1 0 0 -0 -1 -1.57005999890687e-18 0 -1.57005999890687e-18 1 1.95
0.78539816339744195
10 0 6.2831853071795862 0.78539816339744828 7.0685834705770345
5 22.824999999999999 0 0 1 0 0 -0 1 6.1232339957367599e-17 0 -6.1232339957367599e-17 1 1.7 0.20000000000000001
10 0 6.2831853071795862 0.19999999999999929 2.8000000000000007
2 22.625 0 0 1 0 0 -0 1 6.1232339957367599e-17 0 -6.1232339957367599e-17 1 1.5
10 3.1415926535897931 9.4247779607693793 -0.14142135623731042 0.14142135623730803
3 25.524999999999999 0 0 -1 0 0 -0 -1 -1.18090941346352e-16 0 -1.18090941346352e-16 1 1.3999999999999999
0.78539816339745006
1 25.625 0 0 -1 0 0 -0 -1 -6.1232339957367697e-17 0 -6.1232339957367697e-17 1 
10 0 6.2831853071795862 3.1000000000000014 9.1999999999999993
2 25.625 0 0 -1 0 0 -0 -1 -6.1232339957367697e-17 0 -6.1232339957367697e-17 1 2
1 16.425000000000001 0 0 1 0 0 0 -1 6.1232339957367697e-17 0 -6.1232339957367697e-17 -1 
10 0 6.2831853071795862 1 9.8250000000000011
2 6.5999999999999996 0 0 1 0 0 0 -1 6.1232339957367697e-17 0 -6.1232339957367697e-17 -1 2.5
1 7.5999999999999996 0 -4.6536578367599398e-16 -1 0 6.1232339957367697e-17 3.7493994566546488e-33 -1 6.1232339957367697e-17 6.1232339957367697e-17 6.1232339957367697e-17 1 
1 12 0.80000000000000204 -1.55 -6.2908025957289199e-13 1 -1.1686558153949001e-16 1 6.2908025957289199e-13 0 7.3517830369999346e-29 -1.1686558153949001e-16 -1 
2 12 2.3819380243415999e-15 -1.55 0 -1.22464679914735e-16 -1 0 -1 1.22464679914735e-16 -1 -0 0 0.80000000000000004
1 14.4 -0.79999999999999705 -1.55 1.8503717077085899e-16 -1 1.1686558153949001e-16 -1 -1.8503717077085899e-16 0 2.1624476568558357e-32 -1.1686558153949001e-16 -1 
2 14.4 2.8228108720346498e-15 -1.55 0 -1.22464679914735e-16 -1 -6.5927038939150893e-07 0.99999999999978273 -1.224646799147084e-16 0.99999999999978273 6.5927038939150893e-07 -8.0737337214093841e-23 0.80000000000000004
5 14.4 2.8032165232482898e-15 -1.71 0 -1.22464679914735e-16 -1 -0.47942611716829581 0.8775822458191207 -1.0747282883309291e-16 0.8775822458191207 0.47942611716829581 -5.871276598177958e-17 0.64000000000000001 0.16
2 11.360000000000101 0.6399999999996 -1.71 -1 -6.2908624530943604e-13 0 4.3651627126534699e-28 -6.9388939039770702e-16 1 -6.2908624530943604e-13 1 6.9388939039770702e-16 0.16
1 0 -1.8982025386783999e-16 -1.55 0 -1.22464679914735e-16 -1 1 0 0 0 -1 1.22464679914735e-16 
2 15.039999999999999 -0.63999999999999702 -1.71 1 1.81014623580189e-16 0 0 -0 1 1.81014623580189e-16 -1 -0 0.16
5 12 2.3623436755552399e-15 -1.71 0 -1.22464679914735e-16 -1 0.47942553860420334 -0.87758256189037254 1.074728675406576e-16 -0.87758256189037254 -0.47942553860420334 5.8712695128113185e-17 0.64000000000000001 0.16
10 0 6.2831853071795862 0 1
2 7.5999999999999996 0 -4.6536578367599398e-16 -1 0 6.1232339957367697e-17 3.7493994566546488e-33 -1 6.1232339957367697e-17 6.1232339957367697e-17 6.1232339957367697e-17 1 3.5
1 6.5999999999999996 0 -4.0413344371862699e-16 -1 0 6.1232339957367697e-17 3.7493994566546488e-33 -1 6.1232339957367697e-17 6.1232339957367697e-17 6.1232339957367697e-17 1 
10 0 6.2831853071795862 19.024999999999999 25.625
2 25.625 0 0 -1 0 0 -0 -1 -6.1232339957367697e-17 0 -6.1232339957367697e-17 1 2
1 0 0 0 -1 0 0 0 0 -1 -0 -1 -0 
1 -6.6675051577611297 13.375000000000799 -11.936553006152099 3.1585763696016498e-16 -1 -3.3135390266976303e-17 -0.12043516909670801 -5.1461637111412179e-18 -0.99272119451769913 0.99272119451769913 3.1754923699052137e-16 -0.12043516909670801 
2 -6.6675051577611297 9.8249999999999993 -11.936553006152099 0 1 0 0 -0 1 1 0 -0 3.6749999999999998
1 -6.6675051577611288 9.8250000000007987 -11.936553006152099 3.1585763696016498e-16 -1 -3.3135390266976303e-17 -0.12043516909670801 -5.1461637111412179e-18 -0.99272119451769913 0.99272119451769913 3.1754923699052137e-16 -0.12043516909670801 
10 0 6.2831853071795862 29.175000000000001 34
2 25.625 0 0 -1 0 0 -0 -1 -6.1232339957367697e-17 0 -6.1232339957367697e-17 1 2
1 -3.5499999999999998 0 0 -1 0 0 0 0 -1 -0 -1 -0 
1 -8.375 0 0 -1 0 0 -0 -1 -6.1232339957367697e-17 0 -6.1232339957367697e-17 1 
10 0 6.2831853071795862 0.78539816339744828 7.0685834705770345
5 -8.5749999999999993 0 0 -1 0 0 -0 -1 -6.1232339957367599e-17 0 -6.1232339957367599e-17 1 1.7 0.20000000000000001
10 0 6.2831853071795862 0.19999999999999929 2.8000000000000007
2 -8.375 0 0 -1 0 0 -0 -1 -6.1232339957367599e-17 0 -6.1232339957367599e-17 1 1.5
10 3.1415926535897931 9.4247779607693793 -0.14142135623730917 0.14142135623730934
3 -11.275 0 0 1 0 0 -0 1 6.1232339957367697e-17 0 -6.1232339957367697e-17 1 1.3999999999999999
0.78539816339745006
1 -11.375 0 0 -1 0 0 -0 -1 -6.1232339957367697e-17 0 -6.1232339957367697e-17 1 
Triangulations 0

TShapes 159
Ve
1e-05
22.625 -1.9 -1.9589115253028e-16
0 0

0101101
*
Ed
 1e-07 1 1 0
1  1 0 0 6.28318530717959
2  1 2 0 0 6.28318530717959
4 C0 1 0 2 0
0

0101000
+159 0 -159 0 *
Wi

0101100
-158 0 *
Ve
1e-05
22.625 1.7 -1.04094977927525e-16
0 0

0101101
*
Ed
 1e-07 1 1 0
1  2 0 0 6.28318530717959
2  2 3 0 0 6.28318530717959
4 G1 1 0 3 0
0

0101000
-156 0 +156 0 *
Wi

0101100
-155 0 *
Fa
0  1e-07 1 0

0111000
+157 0 +154 0 *
Ve
1e-05
22.825 1.5 -9.18485099360515e-17
0 0

0101101
*
Ed
 1e-07 1 1 0
1  3 0 0 6.28318530717959
2  3 3 0 0 6.28318530717959
2  4 4 0 0 6.28318530717959
4 G1 3 0 4 0
0

0101000
+152 0 -152 0 *
Ed
 1e-05 1 1 0
1  4 0 3.14159265358979 4.71238898038469
3  5 6CN 3 0 3.14159265358979 4.71238898038469
0

0101000
+152 0 -156 0 *
Wi

0101100
+151 0 +150 0 -155 0 -150 0 *
Fa
0  1e-07 3 0

0111000
+149 0 *
Ve
1e-05
25.425 1.5 -4.92045588943133e-17
0 0

0101101
*
Ed
 1e-07 1 1 0
1  5 0 0 6.28318530717959
2  7 4 0 0 6.28318530717959
2  8 5 0 0 6.28318530717959
4 C0 4 0 5 0
0

0101000
+147 0 -147 0 *
Ed
 1e-05 1 1 0
1  6 0 0.199999999999999 2.8
3  9 10CN 4 0 0.199999999999999 2.8
0

0101000
-147 0 +152 0 *
Wi

0101100
-146 0 -145 0 +151 0 +145 0 *
Fa
0  1e-07 4 0

0111000
+144 0 *
Ve
1e-05
25.625 1.3 2.27434405555937e-17
0 0

0101101
*
Ed
 1e-07 1 1 0
1  7 0 0 6.28318530717959
2  11 5 0 0 6.28318530717959
4 C0 5 0 6 0
0

0101000
-142 0 +142 0 *
Ed
 1e-05 1 1 0
1  8 0 -0.14142135623731 0.141421356237308
3  12 13CN 5 0 -0.14142135623731 0.141421356237308
0

0101000
+142 0 -147 0 *
Wi

0101100
-141 0 +140 0 +146 0 -140 0 *
Fa
0  1e-07 5 0

0111000
+139 0 *
Wi

0101100
+141 0 *
Fa
0  1e-07 6 0

0111000
-137 0 *
Ve
1e-05
22.525 -2 -3.07731759785745e-16
0 0

0101101
*
Ed
 1e-05 1 1 0
1  9 0 -0.0707106781186553 0.0707106781186553
3  14 15CN 2 0 -0.0707106781186553 0.0707106781186553
0

0101000
+159 0 -135 0 *
Ed
 1e-07 1 1 0
1  10 0 0 6.28318530717959
2  16 7 0 0 6.28318530717959
2  17 2 0 0 6.28318530717959
4 C0 7 0 2 0
0

0101000
-135 0 +135 0 *
Wi

0101100
+158 0 +134 0 -133 0 -134 0 *
Fa
0  1e-07 2 0

0111000
+132 0 *
Ve
1e-05
16.425 -2 -3.67394039744206e-16
0 0

0101101
*
Ed
 1e-05 1 1 0
1  11 0 3.1 9.2
3  18 19CN 7 0 3.1 9.2
0

0101000
+135 0 -130 0 *
Ed
 1e-07 1 1 0
1  12 0 0 6.28318530717959
2  20 7 0 0 6.28318530717959
4 C0 8 0 7 0
0

0101000
-130 0 +130 0 *
Wi

0101100
+133 0 +129 0 -128 0 -129 0 *
Fa
0  1e-07 7 0

0111000
+127 0 *
Ve
1e-05
16.425 -2.5 4.59242549680257e-16
0 0

0101101
*
Ed
 1e-07 1 1 0
1  13 0 0 6.28318530717959
2  21 9 0 0 6.28318530717959
4 C0 9 0 8 0
0

0101000
-125 0 +125 0 *
Wi

0101100
+124 0 *
Wi

0101100
+128 0 *
Fa
0  1e-07 8 0

0111000
+123 0 +122 0 *
Ve
1e-05
7.6 -2.5 4.59242549680257e-16
0 0

0101101
*
Ed
 1e-05 1 1 0
1  14 0 1 9.825
3  22 23CN 9 0 1 9.825
0

0101000
-125 0 +120 0 *
Ed
 1e-07 1 1 0
1  15 0 0 6.28318530717959
2  24 9 0 0 6.28318530717959
4 C0 9 0 10 0
0

0101000
+120 0 -120 0 *
Wi

0101100
-124 0 -119 0 +118 0 +119 0 *
Ve
7.04456416534847e-07
14.3999994725837 0.80000000000067 -2.3685438564654
0 0

0101101
*
Ve
5.81197545001448e-07
12 0.800000000000002 -2.3685438564654
0 0

0101101
*
Ed
 1e-07 1 1 0
1  16 0 0 2.3999994725837
2  25 9 0 0 2.3999994725837
4 C0 9 0 11 0
0

0101000
-116 0 +115 0 *
Ve
5.81197545001448e-07
12 -0.799999999999998 -2.3685438564654
0 0

0101101
*
Ed
 5.81197545001448e-07 1 1 0
1  17 0 0 1
2  26 9 0 0 1
2  27 12 0 0 1
4 C0 9 0 12 0
0

0101000
-115 0 +113 0 *
Ve
7.04456416534847e-07
14.4 -0.799999999999997 -2.36854385646541
0 0

0101101
*
Ed
 1e-07 1 1 0
1  18 0 0 2.4
2  28 9 0 0 2.4
4 C0 9 0 13 0
0

0101000
+113 0 -111 0 *
Ed
 7.04456416534847e-07 1 1 0
1  19 0 0 1
2  29 9 0 0 1
2  30 14 0 0 1
4 C0 9 0 14 0
0

0101000
-111 0 +116 0 *
Wi

0101100
-114 0 -112 0 +110 0 -109 0 *
Fa
0  1e-07 9 0

0111000
+117 0 +108 0 *
Ve
1e-07
14.4 -0.799999999999997 -1.71
0 0

0101101
*
Ed
 1e-07 1 1 0
1  20 0 0 0.65854385646541
2  31 14 0 0 0.65854385646541
4 G1 13 0 14 0
0

0101000
+106 0 -111 0 *
Ve
1e-07
14.3999994725837 0.800000000000671 -1.71
0 0

0101101
*
Ed
 1e-07 1 1 0
1  21 0 0 0.6585438564654
2  32 14 0 0 0.6585438564654
4 G1 14 0 11 0
0

0101000
+104 0 -116 0 *
Ed
 1e-07 1 1 0
1  22 0 0 3.14159331286018
2  33 14 0 0 3.14159331286018
2  34 15 0 0 3.14159331286018
4 G1 14 0 15 0
0

0101000
+104 0 -106 0 *
Wi

0101100
+105 0 -109 0 -103 0 +102 0 *
Fa
0  1e-07 14 0

0111000
+101 0 *
Ve
1e-07
14.3999995253254 0.640000000000688 -1.55
0 0

0101101
*
Ed
 1e-07 1 1 0
1  23 0 0 1.57079632680005
2  35 15 0 0 1.57079632680005
2  36 16 0 0 1.57079632680005
4 G1 15 0 16 0
0

0101000
+104 0 -99 0 *
Ve
1e-07
14.4 -0.639999999999997 -1.55
0 0

0101101
*
Ed
 1e-07 1 1 0
1  24 0 0 3.14159331286018
2  37 15 0 0 3.14159331286018
4 G1 17 0 15 0
0

0101000
+99 0 -97 0 *
Ed
 1e-07 1 1 0
1  25 0 0 1.5707963267949
2  38 15 0 0 1.5707963267949
2  39 18 0 0 1.5707963267949
4 G1 15 0 18 0
0

0101000
+106 0 -97 0 *
Wi

0101100
+98 0 +96 0 -95 0 -102 0 *
Fa
0  1e-07 15 0

0111000
+94 0 *
Ve
1e-07
12 -0.639999999999998 -1.55
0 0

0101101
*
Ed
 1e-07 1 1 0
1  26 0 0 2.4
2  40 18 0 0 2.4
4 G1 17 0 18 0
0

0101000
+97 0 -92 0 *
Ve
1e-07
12 -0.799999999999998 -1.71
0 0

0101101
*
Ed
 1e-07 1 1 0
1  27 0 0 1.5707963267949
2  41 18 0 0 1.5707963267949
2  42 19 0 0 1.5707963267949
4 G1 18 0 19 0
0

0101000
+90 0 -92 0 *
Ed
 1e-07 1 1 0
1  28 0 0 2.4
2  43 18 0 0 2.4
4 G1 13 0 18 0
0

0101000
+106 0 -90 0 *
Wi

0101100
+95 0 +91 0 -89 0 -88 0 *
Fa
0  1e-07 18 0

0111000
+87 0 *
Ve
1e-07
12 0.640000000000002 -1.55
0 0

0101101
*
Ed
 1e-07 1 1 0
1  29 0 0 3.14159265358979
2  44 19 0 0 3.14159265358979
4 G1 17 0 19 0
0

0101000
+92 0 -85 0 *
Ve
1e-07
12 0.800000000000002 -1.71
0 0

0101101
*
Ed
 1e-07 1 1 0
1  30 0 0 1.5707963267949
2  45 19 0 0 1.5707963267949
2  46 16 0 0 1.5707963267949
4 G1 19 0 16 0
0

0101000
+83 0 -85 0 *
Ed
 1e-07 1 1 0
1  31 0 0 3.14159265358979
2  47 12 0 0 3.14159265358979
2  48 19 0 0 3.14159265358979
4 G1 12 0 19 0
0

0101000
+90 0 -83 0 *
Wi

0101100
+89 0 +84 0 -82 0 -81 0 *
Fa
0  1e-07 19 0

0111000
+80 0 *
Ed
 1e-07 1 1 0
1  32 0 -9.9475983006414e-14 2.3999995253253
2  49 16 0 -9.9475983006414e-14 2.3999995253253
4 G1 17 0 16 0
0

0101000
+85 0 -99 0 *
Wi

0101100
+96 0 +91 0 +84 0 +78 0 *
Fa
0  1e-07 17 0

0111000
+77 0 *
Ed
 1e-07 1 1 0
1  33 0 0 2.3999994725837
2  50 16 0 0 2.3999994725837
4 G1 11 0 16 0
0

0101000
+83 0 -104 0 *
Wi

0101100
+82 0 +78 0 -98 0 -75 0 *
Fa
0  1e-07 16 0

0111000
+74 0 *
Ed
 1e-07 1 1 0
1  34 0 0 0.6585438564654
2  51 12 0 0 0.6585438564654
4 G1 12 0 13 0
0

0101000
+90 0 -113 0 *
Wi

0101100
-88 0 +105 0 -110 0 -72 0 *
Fa
0  1e-07 13 0

0111000
-71 0 *
Ed
 1e-07 1 1 0
1  35 0 0 0.6585438564654
2  52 12 0 0 0.6585438564654
4 G1 12 0 11 0
0

0101000
+83 0 -115 0 *
Wi

0101100
+69 0 -112 0 -72 0 +81 0 *
Fa
0  1e-07 12 0

0111000
+68 0 *
Wi

0101100
-75 0 +69 0 +114 0 -103 0 *
Fa
0  1e-07 11 0

0111000
-66 0 *
Ve
1e-05
7.6 -3.5 -6.79678973526781e-16
0 0

0101101
*
Ed
 1e-07 1 1 0
1  36 0 0 6.28318530717959
2  53 20 0 0 6.28318530717959
4 C0 10 0 20 0
0

0101000
+64 0 -64 0 *
Wi

0101100
-63 0 *
Wi

0101100
-118 0 *
Fa
0  1e-07 10 0

0111000
-62 0 -61 0 *
Ve
1e-05
6.6 -3.5 -6.18446633569413e-16
0 0

0101101
*
Ed
 1e-05 1 1 0
1  37 0 0 1
3  54 55CN 20 0 0 1
0

0101000
+64 0 -59 0 *
Ed
 1e-07 1 1 0
1  38 0 0 6.28318530717959
2  56 20 0 0 6.28318530717959
4 C0 20 0 21 0
0

0101000
-59 0 +59 0 *
Wi

0101100
+63 0 +58 0 -57 0 -58 0 *
Fa
0  1e-07 20 0

0111000
+56 0 *
Wi

0101100
+57 0 *
Ve
1e-05
6.6 -2 -3.67394039744206e-16
0 0

0101101
*
Ed
 1e-07 1 1 0
1  39 0 0 6.28318530717959
2  57 22 0 0 6.28318530717959
4 C0 21 0 22 0
0

0101000
+53 0 -53 0 *
Wi

0101100
-52 0 *
Fa
0  1e-07 21 0

0111000
+54 0 +51 0 *
Ve
1e-05
-3.5527136788005e-15 -2 -3.67394039744206e-16
0 0

0101101
*
Ed
 1e-05 1 1 0
1  40 0 19.025 25.625
3  58 59CN 22 0 19.025 25.625
0

0101000
+53 0 -49 0 *
Ed
 1e-07 1 1 0
1  41 0 0 6.28318530717959
2  60 22 0 0 6.28318530717959
4 C0 22 0 23 0
0

0101000
-49 0 +49 0 *
Wi

0101100
+52 0 +48 0 -47 0 -48 0 *
Fa
0  1e-07 22 0

0111000
+46 0 *
Ve
1.00000399680536e-07
-6.66750515776113 13.3750000000004 -8.2615530061521
0 0

0101101
*
Ed
 1e-07 1 1 0
1  42 0 0 6.28318530717959
2  61 24 0 0 6.28318530717959
2  62 25 0 0 6.28318530717959
4 C0 24 0 25 0
0

0101000
+44 0 -44 0 *
Wi

0101100
+43 0 *
Wi

0101100
-47 3 *
Fa
0  1e-07 24 0

0111000
-42 0 +41 0 *
Ve
1.00000399680536e-07
-6.66750515776113 9.8250000000004 -8.2615530061521
0 0

0101101
*
Ed
 1e-07 1 1 0
1  43 0 0 3.55
3  63 64CN 25 0 0 3.55
0

0101000
-44 0 +39 0 *
Ed
 1e-07 1 1 0
1  44 0 0 6.28318530717959
2  65 26 0 0 6.28318530717959
2  66 25 0 0 6.28318530717959
4 C0 25 0 26 0
0

0101000
+39 0 -39 0 *
Wi

0101100
-43 0 +38 0 +37 0 -38 0 *
Fa
0  1e-07 25 0

0101000
+36 0 *
Wi

0101100
+37 0 *
Ve
1e-05
-3.55 -2 -3.67394039744206e-16
0 0

0101101
*
Ed
 1e-07 1 1 0
1  45 0 0 6.28318530717959
2  67 27 0 0 6.28318530717959
4 C0 28 0 27 0
0

0101000
+33 0 -33 0 *
Wi

0101100
-32 0 *
Fa
0  1e-07 26 0

0111000
-34 0 +31 3 *
Ve
1e-05
-8.375 -2 -3.67394039744206e-16
0 0

0101101
*
Ed
 1e-05 1 1 0
1  46 0 29.175 34
3  68 69CN 27 0 29.175 34
0

0101000
+33 0 -29 0 *
Ed
 1e-07 1 1 0
1  47 0 0 6.28318530717959
2  70 27 0 0 6.28318530717959
4 C0 27 0 29 0
0

0101000
-29 0 +29 0 *
Wi

0101100
+32 0 +28 0 -27 0 -28 0 *
Fa
0  1e-07 27 0

0111000
+26 0 *
Wi

0101100
+27 0 *
Ve
1e-05
-8.375 -1.7 -3.12284933782575e-16
0 0

0101101
*
Ed
 1e-07 1 1 0
1  48 0 0 6.28318530717959
2  71 30 0 0 6.28318530717959
4 G1 29 0 30 0
0

0101000
-23 0 +23 0 *
Wi

0101100
-22 0 *
Fa
0  1e-07 29 0

0111000
+24 0 +21 0 *
Ve
1e-05
-8.575 -1.5 -2.75545529808154e-16
0 0

0101101
*
Ed
 1e-05 1 1 0
1  49 0 3.14159265358979 4.71238898038469
3  72 73CN 30 0 3.14159265358979 4.71238898038469
0

0101000
-23 0 +19 0 *
Ed
 1e-07 1 1 0
1  50 0 0 6.28318530717959
2  74 30 0 0 6.28318530717959
2  75 31 0 0 6.28318530717959
4 G1 30 0 31 0
0

0101000
+19 0 -19 0 *
Wi

0101100
-22 0 -18 0 +17 0 +18 0 *
Fa
0  1e-07 30 0

0111000
+16 0 *
Ve
1e-05
-11.175 -1.5 -2.75545529808154e-16
0 0

0101101
*
Ed
 1e-05 1 1 0
1  51 0 0.199999999999999 2.8
3  76 77CN 31 0 0.199999999999999 2.8
0

0101000
+19 0 -14 0 *
Ed
 1e-07 1 1 0
1  52 0 0 6.28318530717959
2  78 31 0 0 6.28318530717959
2  79 32 0 0 6.28318530717959
4 C0 31 0 32 0
0

0101000
+14 0 -14 0 *
Wi

0101100
+17 0 +13 0 -12 0 -13 0 *
Fa
0  1e-07 31 0

0111000
+11 0 *
Ve
1e-05
-11.375 -1.3 -2.38806125833734e-16
0 0

0101101
*
Ed
 1e-05 1 1 0
1  53 0 -0.141421356237309 0.141421356237309
3  80 81CN 32 0 -0.141421356237309 0.141421356237309
0

0101000
-14 0 +9 0 *
Ed
 1e-07 1 1 0
1  54 0 0 6.28318530717959
2  82 32 0 0 6.28318530717959
4 C0 32 0 33 0
0

0101000
-9 0 +9 0 *
Wi

0101100
+12 0 -8 0 -7 0 +8 0 *
Fa
0  1e-07 32 0

0111000
+6 0 *
Wi

0101100
+7 0 *
Fa
0  1e-07 33 0

0111000
+4 0 *
Sh

0101100
+153 3 -148 3 +143 3 +138 3 -136 3 +131 3 +126 3 +121 3 +107 3 -100 3 
-93 3 -86 3 -79 3 +76 3 -73 3 -70 3 -67 3 -65 3 -60 3 +55 3 
+50 3 +45 3 -40 0 +35 0 +30 0 +25 3 +20 3 -15 3 +10 3 +5 3 
+3 3 *
So

1100000
+2 0 *

+1 0 