DBRep_DrawableShape

CASCADE Topology V3, (c) Open Cascade
Locations 3
1
             -1 -1.00734825744371e-17 7.16930379988371e-18             9.1 
-3.08528945864065e-18 -0.358197883788282 -0.933645690853654 -2.69917096620593e-11 
1.19730930468662e-17 -0.933645690853654 0.358197883788282 -1.38456283056456e-11 
1
-3.15857636960165e-16 -0.992721194517699 0.120435169096708 -6.66750515776113 
              1 -3.17549236990521e-16 5.14616371114122e-18 13.3750000000008 
3.31353902669763e-17 0.120435169096708 0.992721194517699 -11.9365530061521 
2  1 1 2 1 0
Curve2ds 18
2 -0 0 -0.24314685441364264 0.96998948818466635 -0.96998948818466635 -0.24314685441364264 10.800000000000001
1 0 0 1 0 
1 0 7.8539816339744828 1 0 
1 6.2831853071795862 6.2831853071795862 0 1 
1 0 6.2831853071795862 0 1 
1 0 2.8000000000000003 1 0 
1 0 9.4247779607693793 1 0 
1 6.2831853071795862 0 0 1 
1 0 0 0 1 
1 0 1 1 0 
1 0 0.5 1 0 
1 0 0 1 0 
1 6.2831853071795862 0 0 1 
1 0 0 0 1 
2 -8.6152373074159025e-16 -2.1595778890816554e-16 -0.24314685441364264 0.96998948818466635 -0.96998948818466635 -0.24314685441364264 10.800000000000001
1 0 1.5999999999999979 1 0 
1 6.2831853071795862 -0 0 1 
1 0 -0 0 1 
Curves 11
2 -6.6675051577360049 22.475000000000797 -11.936553006169095 0 1 0 0 -0 1 1 0 -0 10.800000000000001
2 0 0 0 1 0 0 -0 1 1.8369701987210299e-16 0 -1.8369701987210299e-16 1 4.2999999999999998
7 1 0  6 7 2  -5.5511151231257827e-17 4.2999999999999998 5.4634555326961339e-16  1.0313934717875144 0 4.2197989650541246 5.3615544191838089e-16  1.0100254076614403 -0.025501305190107626 4.1416874282253398 5.2623081614966875e-16  0.99792464272496961 -0.07442414603931391 4.0744241460393154 5.1768453821463297e-16  0.99395844413692891 -0.14168742822534125 4.0255013051901063 5.1146854366782325e-16  0.99792464272497117 -0.21979896505412388 4 5.0822842164615201e-16  1.0100254076614386 -0.29999999999999971 4 5.0822842164615201e-16  1.0313934717875144
 1.5707963267948966 7 3.1415926535897922 7
2 -0.29999999999999999 0 0 1 0 0 -0 1 6.1232339957367697e-17 0 -6.1232339957367697e-17 1 4
7 0 0  1 2 2  -2.1000000000000001 4 -7.3478807948841178e-16  -0.29999999999999982 4 -7.3478807948841178e-16 
 1 2 2.8000000000000003 2
2 -2.1000000000000001 0 0 1 0 0 -0 1 6.1232339957367697e-17 0 -6.1232339957367697e-17 1 4
2 -2.1000000000000001 0 0 -1 0 0 -0 -1 -6.1232339957367697e-17 0 -6.1232339957367697e-17 1 9
2 -1.6000000000000001 0 0 -1 0 0 -0 -1 -6.1232339957367697e-17 0 -6.1232339957367697e-17 1 9
7 0 0  1 2 2  -1.6000000000000001 -9 -5.5109105961630925e-16  -2.1000000000000001 -9 -5.5109105961630925e-16 
 0 2 0.5 2
2 -6.6675051577360049 24.075000000000799 -11.936553006169095 0 1 0 0 -0 1 1 0 -0 10.800000000000001
1 -6.6675051577360076 22.475000000000001 -1.1365530061690945 0 1 0 
Polygon3D 0
PolygonOnTriangulations 0
Surfaces 9
1 -6.6675051577360049 22.475000000000797 -11.936553006169095 -3.2036245068268954e-16 1 2.1621024393083405e-17 -0.96998948818466635 -3.0549112550090849e-16 -0.24314685441364264 -0.24314685441364264 -9.8867288540816841e-17 0.96998948818466635 
2 -6.6675051577360049 22.475000000000001 -11.936553006169095 0 1 0 0 -0 1 1 0 -0 10.800000000000001
10 0 6.2831853071795862 5.4977871437821371 11.780972450961723
5 -0.29999999999999999 0 0 1 0 0 -0 1 1.27057105411538e-16 0 -1.27057105411538e-16 1 4.2999999999999998 0.29999999999999999
1 0 0 0 -1 0 0 0 0 -1 -0 -1 -0 
10 0 6.2831853071795862 1 2.8000000000000003
2 -3.1000000000000001 0 0 1 0 0 -0 1 6.1232339957367697e-17 0 -6.1232339957367697e-17 1 4
1 -2.1000000000000001 0 0 -1 0 0 -0 -1 -6.1232339957367697e-17 0 -6.1232339957367697e-17 1 
10 0 6.2831853071795862 0 0.5
2 -1.6000000000000001 0 0 -1 0 0 -0 -1 -6.1232339957367697e-17 0 -6.1232339957367697e-17 1 9
1 -1.6000000000000001 0 0 -1 0 0 0 0 -1 -0 -1 -0 
1 -6.6675051577360058 24.075000000000799 -11.936553006169095 -3.2036245068268954e-16 1 2.1621024393083405e-17 -0.96998948818466635 -3.0549112550090849e-16 -0.24314685441364264 -0.24314685441364264 -9.8867288540816841e-17 0.96998948818466635 
Triangulations 0

TShapes 37
Ve
1.00000397906178e-07
-6.66750515773601 22.4750000000004 -1.13655300616909
0 0

0101101
*
Ed
 1e-07 1 1 0
1  1 0 0 6.28318530717959
2  1 1 0 0 6.28318530717959
2  2 2 0 0 6.28318530717959
4 C0 1 0 2 0
0

0101000
+37 0 -37 0 *
Wi

0101100
+36 0 *
Ve
1e-05
1.11022302462516e-16 4.3 1.00931307029728e-16
0 0

0101101
*
Ed
 1e-07 1 1 0
1  2 0 0 6.28318530717959
2  3 3 0 0 6.28318530717959
4 G1 4 0 3 0
0

0101000
+34 0 -34 0 *
Wi

0101100
+33 3 *
Fa
0  1e-07 1 0

0111000
+35 0 +32 0 *
Ve
1e-05
-0.3 4 -1.1327982892113e-16
0 0

0101101
*
Ed
 1e-05 1 1 0
1  3 0 1.5707963267949 3.14159265358979
3  4 5CN 3 0 1.5707963267949 3.14159265358979
0

0101000
+34 0 -30 0 *
Ed
 1e-07 1 1 0
1  4 0 0 6.28318530717959
2  6 5 0 0 6.28318530717959
2  7 3 0 0 6.28318530717959
4 G1 5 0 3 0
0

0101000
-30 0 +30 0 *
Wi

0101100
+33 0 +29 0 -28 0 -29 0 *
Fa
0  1e-07 3 0

0111000
+27 0 *
Ve
1e-05
-2.1 4 -2.44929359829471e-16
0 0

0101101
*
Ed
 1e-05 1 1 0
1  5 0 1 2.8
3  8 9CN 5 0 1 2.8
0

0101000
-30 0 +25 0 *
Ed
 1e-07 1 1 0
1  6 0 0 6.28318530717959
2  10 5 0 0 6.28318530717959
4 C0 6 0 5 0
0

0101000
+25 0 -25 0 *
Wi

0101100
-28 0 -24 0 +23 0 +24 0 *
Fa
0  1e-07 5 0

0111000
+22 0 *
Ve
1e-05
-2.1 -9 -1.65327317884893e-15
0 0

0101101
*
Ed
 1e-07 1 1 0
1  7 0 0 6.28318530717959
2  11 7 0 0 6.28318530717959
4 C0 6 0 7 0
0

0101000
-20 0 +20 0 *
Wi

0101100
+19 0 *
Wi

0101100
+23 0 *
Fa
0  1e-07 6 0

0111000
+18 0 +17 0 *
Ve
1e-05
-1.6 -9 -1.65327317884893e-15
0 0

0101101
*
Ed
 1e-07 1 1 0
1  8 0 0 6.28318530717959
2  12 7 0 0 6.28318530717959
4 C0 7 0 8 0
0

0101000
+15 0 -15 0 *
Ed
 1e-05 1 1 0
1  9 0 0 0.5
3  13 14CN 7 0 0 0.5
0

0101000
+15 0 -20 0 *
Wi

0101100
+14 0 +13 0 -19 0 -13 0 *
Fa
0  1e-07 7 0

0111000
+12 0 *
Ve
1.00000399682525e-07
-6.66750515773601 24.0750000000004 -1.13655300616909
0 0

0101101
*
Ed
 1e-07 1 1 0
1  10 0 0 6.28318530717959
2  15 9 0 0 6.28318530717959
2  16 2 0 0 6.28318530717959
4 C0 9 0 2 0
0

0101000
+10 0 -10 0 *
Wi

0101100
+9 0 *
Wi

0101100
-14 0 *
Fa
0  1e-07 9 0

0111000
+8 0 +7 3 *
Ed
 1e-07 1 1 0
1  11 0 0 1.6
3  17 18CN 2 0 0 1.6
0

0101000
-10 0 +37 0 *
Wi

0101100
-9 0 +5 0 +36 0 -5 0 *
Fa
0  1e-07 2 0

0101000
+4 0 *
Sh

0101100
-31 0 +26 3 -21 3 +16 3 +11 3 +6 0 +3 0 *
So

1100000
+2 0 *

+1 0 