DBRep_DrawableShape

CASCADE Topology V3, (c) Open Cascade
Locations 1
1
-3.26848325291754e-17 0.610824426277544 0.791766076731448               5 
              1 -3.87214499917075e-17 7.11533894424516e-17 21.4750000000002 
7.41205588291754e-17 0.791766076731448 -0.610824426277544 -0.0500000000007685 
Curve2ds 52
2 0 0 0.61082442627754396 -0.79176607673144805 -0.79176607673144805 -0.61082442627754396 3.1499999999999999
1 0 2.7000000000000028 1 0 
1 0 17.16 1 0 
1 0 3 1 0 
1 6.2831853071795862 0 0 1 
1 0 0 0 1 
1 0 4.7123889803846897 1 0 
1 0 3.1415926535897931 1 0 
1 0 0.19999999999999929 1 0 
1 6.2831853071795862 0 0 1 
1 0 0 0 1 
1 0 2.8000000000000007 1 0 
1 9.4247779607693793 0.14142135623730806 -1 0 
1 6.2831853071795862 0 0 1 
1 0 0 0 1 
1 9.4247779607693793 -0.14142135623731042 -1 0 
1 9.4247779607693793 0 0 1 
1 3.1415926535897931 0 0 1 
1 6.2831853071795862 -0 0 1 
1 0 -0 0 1 
2 1.2291493074779153e-16 -1.5932544329141925e-16 0.61082442627754396 -0.79176607673144805 -0.79176607673144805 -0.61082442627754396 3.1499999999999999
1 0 0 1 0 
1 0 19.859999999999999 1 0 
1 6.2831853071795862 0 0 1 
1 0 0 0 1 
1 0 23.810000000000002 1 0 
1 0 1.5 1 0 
1 6.2831853071795862 0 0 1 
1 0 0 0 1 
1 0 0 1 0 
1 0 25.310000000000002 1 0 
1 6.2831853071795862 0 0 1 
1 0 0 0 1 
1 0 33.635000000000005 1 0 
7 0 0  3 245 243  1.5707963232442548 26.810000000000002  1.5740710809838847 26.810000102795755  1.580621573258588 26.810172020053866  1.5904427752014458 26.810944414489732  1.6002519987023409 26.812230621723248  1.6100417146988437 26.8140302485529  1.6198048157229905 26.816341317391984  1.6295344814463379 26.819160670435117  1.6392237910112646 26.822485427778922  1.6488658576758353 26.826312592508607  1.6584546671356004 26.830637734794575  1.6679841561266247 26.835456421573539  1.6774481905658019 26.840764347228081  1.6868408104856696 26.846556621433759  1.6961563222397833 26.85282743721973  1.7053889490994956 26.859571122834968  1.7145328125397907 26.866782101850315  1.7235823721972654 26.874454136610492  1.7325324009409604 26.882580333906827  1.7413775310432837 26.891153945927371  1.7501123978554887 26.900168167528413  1.7587314720652396 26.909616277496319  1.7672297383554072 26.919491195338335  1.7756026218492982 26.929785518166536  1.7838453780897552 26.940491913080663  1.791953235969683 26.951603028097534  1.7999213617639256 26.963111517578099  1.8077448806866221 26.975010029589619  1.8154188458737204 26.987291231030017  1.8229388358211989 26.999947376723238  1.8303004004035692 27.012970698773398  1.8374990249437415 27.026353435468728  1.8445301434172729 27.040087822982926  1.8513891375498317 27.054166099763929  1.8580713423101967 27.068580497277022  1.8645720388939873 27.083323272643877  1.8708864906460698 27.098386586179238  1.8770101759292437 27.113761649818091  1.8829385094507569 27.129439743756748  1.8886668680326064 27.145412130214634  1.8941905861056836 27.161670075057682  1.8995049580494414 27.178204847542357  1.9046052429715323 27.195007699716754  1.9094866525424519 27.212069949071729  1.9141447281524298 27.229380642121718  1.9185749960678844 27.246928750721146  1.9227729523705879 27.264703266841728  1.9267340683070946 27.282693176517942  1.9304537886206175 27.300887469416125  1.9339275382050241 27.31927512661181  1.937151620102145 27.337843568973213  1.9401223170811848 27.356580228770095  1.9428359042740002 27.375472524184456  1.945288621279603 27.394507918347582  1.9474775913855502 27.413672043171339  1.9493999729172713 27.432950470976483  1.9510528468812343 27.452328822542274  1.9524335342797108 27.471792580008316  1.9535405709582536 27.491326560028224  1.954372385267702 27.510915629343007  1.9549273271384682 27.530544725546985  1.9552048353904603 27.550197901148842  1.9552045316153677 27.569859051604983  1.9549260653827241 27.589512121017624  1.9543701589007054 27.60914100317088  1.9535379089502449 27.628729647405741  1.952430179486867 27.648261770287121  1.9510486886945515 27.667722370367123  1.9493956808702839 27.687097233190091  1.9474731528169176 27.706371886234972  1.9452837172570772 27.725532267094614  1.9428306258566337 27.74456470471636  1.9401169844256168 27.763455442642027  1.9371459384081684 27.782190766581465  1.9339214090832275 27.800758217644781  1.9304473118085621 27.819145359923624  1.9267274789010842 27.837339618210684  1.9227660098384802 27.855329007306104  1.9185676013838906 27.873102830689138  1.9141368216149712 27.89065018184565  1.909478237188079 27.907960192958328  1.9045963895255889 27.92502205141589  1.8994957575269584 27.941824685086228  1.8941810557734307 27.958358947287444  1.8886570403987253 27.974616255978255  1.8829284095514558 27.990587885795421  1.8769998274274136 28.006265151045209  1.8708759140729943 28.021639350678001  1.8645612524997182 28.036701805398071  1.8580603603303461 28.051443764250006  1.8513779683578491 28.065857376599027  1.8445187928759919 28.079934896025364  1.8374874954318876 28.093668548514032  1.8302886913319047 28.107050567746143  1.8229269423966663 28.120073184213506  1.8154067633850119 28.13272863346922  1.8077325884606923 28.145009134010451  1.7999088852924519 28.156906969229333  1.7919406145657384 28.168414798859164  1.7838326343898814 28.179525243778532  1.7755897691540521 28.190230936708552  1.7672167776289744 28.200524501854787  1.75871839232585 28.210398585642597  1.7500991732273885 28.219845754133672  1.7413643114285873 28.228859075092583  1.7325192435366137 28.237431825202776  1.7235692869611217 28.245557224377681  1.7145197432683887 28.253228528070274  1.7053757998696419 28.2604389063452  1.6961428050253287 28.267181853438029  1.6868268098422385 28.273451957507721  1.6774337268187112 28.279243643342575  1.6679694741041242 28.284551424893493  1.6584398516202743 28.289369622831508  1.6488508898510992 28.293693325939348  1.6392091318486757 28.297519092254085  1.6295210052900748 28.30084319994711  1.6197929513432534 28.303662083370984  1.6100313171869753 28.305971832019235  1.6002426966955778 28.307770224650465  1.5904338825624595 28.309056240991342  1.5806116193737831 28.309828574030263  1.5707826535374618 28.31008604371041  1.5609537099793376 28.309827248894035  1.5511314922672197 28.309053301881072  1.5413227238437153 28.307765687767326  1.5315341408982661 28.305965801181607  1.5217724912906987 28.303655039866076  1.5120445050309637 28.300834879747104  1.5023565083275729 28.297509211047593  1.4927148840038535 28.293681837993361  1.4831260246634421 28.289356625281272  1.4735964053553967 28.284537281721157  1.4641322823801146 28.279228130896929  1.4547393856798663 28.273434980370538  1.4454235922504923 28.267163389358405  1.4361907667973088 28.260419022481216  1.4270469233880585 28.25320737108807  1.4179975710122661 28.245534711599227  1.4090478480734043 28.237407941088406  1.4002030470738904 28.228833815880229  1.3914684703553646 28.219819139339133  1.3828495276636017 28.210370667419411  1.3743514526640197 28.200495306721333  1.3659787965547909 28.190200472934315  1.3577362736734533 28.179493512429278  1.3496286281254481 28.168381790302554  1.3416606658911521 28.156872666067397  1.3338372390665167 28.144973502843882  1.3261632574345374 28.132691654907934  1.3186431925732047 28.120034869271301  1.3112815636151463 28.10701090199338  1.3040829473407389 28.093627507570321  1.2970519735022163 28.079892437712314  1.290193317510421 28.065813456836839  1.2835117195146641 28.051398281317926  1.2770117331312922 28.036655274878353  1.2706979349783671 28.021592871269164  1.2645749574695933 28.006219482384097  1.2586474650992052 27.99054353840847  1.2529202053461364 27.974573418218586  1.2473977734268527 27.958317741896238  1.2420846306060811 27.941785318406257  1.2369853134877533 27.924984987077814  1.2321043790807538 27.907925316078067  1.2274464443301947 27.890616181466314  1.2230161885081394 27.873068872411743  1.2188182881066945 27.855294406859386  1.2148575409461722 27.837303791313747  1.2111382280281493 27.819108542544242  1.207664368290396 27.800720484239406  1.2044401051192011 27.782151253292316  1.201469423069347 27.763412982692671  1.1987557990655824 27.744519360817542  1.1963028025498617 27.725483855168978  1.1941139620785588 27.706320005736377  1.1921918829135301 27.687041920858011  1.1905392582776511 27.667663582074677  1.189158575138918 27.648199416110902  1.1880515329941599 27.628665403246728  1.187220090596151 27.609077282183751  1.1866653075131564 27.589451031124717  1.1863877725955798 27.569802723894458  1.1863881877380391 27.550148380575983  1.1866662193345621 27.530503076067333  1.187221515921004 27.510881934873687  1.1880534425340197 27.491299991406134  1.1891604356692327 27.471772030034408  1.1905410828911591 27.452312873791023  1.1921938828613732 27.432937325338067  1.1941161747258537 27.413660006587971  1.1963053001161932 27.394495511443306  1.1987587628368956 27.375458560351753  1.2014732036541842 27.356563206460816  1.2044446878030208 27.33782308273863  1.207669412174017 27.319251819434278  1.2111436165428251 27.300863413201427  1.214863196137393 27.28266966121506  1.2188238676442928 27.264681152351248  1.2230213992450449 27.246908736080915  1.2274516411661922 27.229363287271099  1.2321101495648481 27.212055245695964  1.2369920837633603 27.194994442057268  1.2420927191850955 27.178190825424803  1.2474073423615588 27.161654320989339  1.2529312779613846 27.145394831089661  1.2586598930354631 27.129422373351684  1.26458846721897 27.113745245094719  1.2707123095790307 27.098371580448131  1.2770267748515234 27.083309556244817  1.2835272631529198 27.068567339948586  1.2902092159040375 27.05415309379611  1.2970681439629803 27.040075010301614  1.3040995277571354 27.026341160626725  1.311298569712305 27.012959131873551  1.3186605598174534 26.999936572355431  1.3261808267618682 26.987281114194843  1.3338547526947184 26.975000393066242  1.341677778279758 26.963102046627299  1.3496453841226894 26.95159370105074  1.3577531775631186 26.940483026465788  1.3659962068030391 26.929777275550165  1.37436945270622 26.919483625197373  1.3828679738107219 26.909609271666572  1.3914868753827916 26.900161407353032  1.4002213125212442 26.891147220742074  1.4090665312193247 26.882573919822619  1.4180169433051166 26.874448132194942  1.4270669721442377 26.866776474854543  1.4362110769656025 26.859565527640584  1.4454438406480286 26.85282202957212  1.454759471683873 26.846551794595392  1.4641519935670124 26.840760170271114  1.4736155215021294 26.835452599077389  1.4831441954631643 26.830634560058375  1.4927322551479303 26.826310210811407  1.5023738997189966 26.822483587608513  1.5120636092025341 26.819158867696398  1.5217943787178903 26.816339501865166  1.5315585364526711 26.814028594360718  1.5413486558884804 26.812229438239388  1.5511562895941065 26.81094332783584  1.5609729752326491 26.810171411433242  1.5675216545967026 26.809999885463011  1.5707963232442548 26.810000000000002 
 0 4 0.0041322314049586778 1 0.0082644628099173556 1 0.012396694214876033 1 0.016528925619834711 1 0.020661157024793389 1 0.024793388429752067 1 0.028925619834710745 1 0.033057851239669422 1 0.0371900826446281 1 0.041322314049586778 1 0.045454545454545456 1 0.049586776859504134 1 0.053719008264462811 1 0.057851239669421489 1 0.061983471074380167 1 0.066115702479338845 1 0.070247933884297523 1 0.0743801652892562 1 0.078512396694214878 1 0.082644628099173556 1 0.086776859504132234 1 0.090909090909090912 1 0.095041322314049589 1 0.099173553719008267 1 0.10330578512396695 1 0.10743801652892562 1 0.1115702479338843 1 0.11570247933884298 1 0.11983471074380166 1 0.12396694214876033 1 0.12809917355371903 1 0.13223140495867769 1 0.13636363636363635 1 0.14049586776859505 1 0.14462809917355374 1 0.1487603305785124 1 0.15289256198347106 1 0.15702479338842976 1 0.16115702479338845 1 0.16528925619834711 1 0.16942148760330578 1 0.17355371900826447 1 0.17768595041322316 1 0.18181818181818182 1 0.18595041322314049 1 0.19008264462809918 1 0.19421487603305787 1 0.19834710743801653 1 0.2024793388429752 1 0.20661157024793389 1 0.21074380165289258 1 0.21487603305785125 1 0.21900826446280991 1 0.2231404958677686 1 0.22727272727272729 1 0.23140495867768596 1 0.23553719008264462 1 0.23966942148760331 1 0.243801652892562 1 0.24793388429752067 1 0.25206611570247933 1 0.25619834710743805 1 0.26033057851239672 1 0.26446280991735538 1 0.26859504132231404 1 0.27272727272727271 1 0.27685950413223143 1 0.28099173553719009 1 0.28512396694214875 1 0.28925619834710747 1 0.29338842975206614 1 0.2975206611570248 1 0.30165289256198347 1 0.30578512396694213 1 0.30991735537190085 1 0.31404958677685951 1 0.31818181818181818 1 0.3223140495867769 1 0.32644628099173556 1 0.33057851239669422 1 0.33471074380165289 1 0.33884297520661155 1 0.34297520661157027 1 0.34710743801652894 1 0.3512396694214876 1 0.35537190082644632 1 0.35950413223140498 1 0.36363636363636365 1 0.36776859504132231 1 0.37190082644628097 1 0.37603305785123969 1 0.38016528925619836 1 0.38429752066115702 1 0.38842975206611574 1 0.3925619834710744 1 0.39669421487603307 1 0.40082644628099173 1 0.4049586776859504 1 0.40909090909090912 1 0.41322314049586778 1 0.41735537190082644 1 0.42148760330578516 1 0.42561983471074383 1 0.42975206611570249 1 0.43388429752066116 1 0.43801652892561982 1 0.44214876033057854 1 0.4462809917355372 1 0.45041322314049587 1 0.45454545454545459 1 0.45867768595041325 1 0.46280991735537191 1 0.46694214876033058 1 0.47107438016528924 1 0.47520661157024796 1 0.47933884297520662 1 0.48347107438016529 1 0.48760330578512401 1 0.49173553719008267 1 0.49586776859504134 1 0.5 1 0.50413223140495866 1 0.50826446280991733 1 0.5123966942148761 1 0.51652892561983477 1 0.52066115702479343 1 0.52479338842975209 1 0.52892561983471076 1 0.53305785123966942 1 0.53719008264462809 1 0.54132231404958675 1 0.54545454545454541 1 0.54958677685950419 1 0.55371900826446285 1 0.55785123966942152 1 0.56198347107438018 1 0.56611570247933884 1 0.57024793388429751 1 0.57438016528925617 1 0.57851239669421495 1 0.58264462809917361 1 0.58677685950413228 1 0.59090909090909094 1 0.5950413223140496 1 0.59917355371900827 1 0.60330578512396693 1 0.6074380165289256 1 0.61157024793388426 1 0.61570247933884303 1 0.6198347107438017 1 0.62396694214876036 1 0.62809917355371903 1 0.63223140495867769 1 0.63636363636363635 1 0.64049586776859502 1 0.64462809917355379 1 0.64876033057851246 1 0.65289256198347112 1 0.65702479338842978 1 0.66115702479338845 1 0.66528925619834711 1 0.66942148760330578 1 0.67355371900826444 1 0.6776859504132231 1 0.68181818181818188 1 0.68595041322314054 1 0.69008264462809921 1 0.69421487603305787 1 0.69834710743801653 1 0.7024793388429752 1 0.70661157024793386 1 0.71074380165289264 1 0.7148760330578513 1 0.71900826446280997 1 0.72314049586776863 1 0.72727272727272729 1 0.73140495867768596 1 0.73553719008264462 1 0.73966942148760328 1 0.74380165289256195 1 0.74793388429752072 1 0.75206611570247939 1 0.75619834710743805 1 0.76033057851239672 1 0.76446280991735538 1 0.76859504132231404 1 0.77272727272727271 1 0.77685950413223148 1 0.78099173553719015 1 0.78512396694214881 1 0.78925619834710747 1 0.79338842975206614 1 0.7975206611570248 1 0.80165289256198347 1 0.80578512396694213 1 0.80991735537190079 1 0.81404958677685957 1 0.81818181818181823 1 0.8223140495867769 1 0.82644628099173556 1 0.83057851239669422 1 0.83471074380165289 1 0.83884297520661155 1 0.84297520661157033 1 0.84710743801652899 1 0.85123966942148765 1 0.85537190082644632 1 0.85950413223140498 1 0.86363636363636365 1 0.86776859504132231 1 0.87190082644628097 1 0.87603305785123964 1 0.88016528925619841 1 0.88429752066115708 1 0.88842975206611574 1 0.8925619834710744 1 0.89669421487603307 1 0.90082644628099173 1 0.9049586776859504 1 0.90909090909090917 1 0.91322314049586784 1 0.9173553719008265 1 0.92148760330578516 1 0.92561983471074383 1 0.92975206611570249 1 0.93388429752066116 1 0.93801652892561982 1 0.94214876033057848 1 0.94628099173553726 1 0.95041322314049592 1 0.95454545454545459 1 0.95867768595041325 1 0.96280991735537191 1 0.96694214876033058 1 0.97107438016528924 1 0.97520661157024802 1 0.97933884297520668 1 0.98347107438016534 1 0.98760330578512401 1 0.99173553719008267 1 0.99586776859504134 1 1 4
7 0 0  3 245 243  -9.4683789697569409e-09 5.0000000000007496  0.0087326775325973216 4.9999999365492966  0.026200664356897718 4.9999353332426013  0.052406015574709919 4.9996457748074894  0.078610315368941031 4.9991644184123833  0.1048089835520658 4.998491840346631  0.1309985114209109 4.9976300324365681  0.15717599867387122 4.9965820419040963  0.18333827892093613 4.9953506646832375  0.2094823089879787 4.9939388123440125  0.23560713677963108 4.9923510231219552  0.26171163477911552 4.9905918395455382  0.28779452965801156 4.988665653242613  0.31385491948333044 4.9865775475731358  0.33989237508427728 4.9843336888402563  0.36590626737743914 4.981940087199642  0.39189577585111834 4.9794026260869346  0.41786080452004182 4.9767280374885736  0.4438018364091274 4.9739238947471076  0.46971903622454381 4.9709975800588406  0.49561258819457255 4.9679565671676906  0.52148236205059639 4.9648081547733494  0.54732946615170253 4.9615604277683056  0.5731559909598225 4.9582221793926653  0.59896364594453111 4.9548020490906097  0.62475411021787952 4.9513087182013908  0.65052897901405693 4.9477508542798949  0.67628983424129618 4.9441371381234225  0.70203822444068997 4.9404762113439569  0.72777677098040083 4.9367775720327858  0.75350804956920481 4.9330507654298223  0.77923455514329998 4.9293053241798512  0.80495874703691062 4.9255507843629385  0.83068307404102448 4.921796680913169  0.85641000071748685 4.9180525499132575  0.88214204905877924 4.9143279239973738  0.90788177659859315 4.9106323485990471  0.9336312754545375 4.9069754944248789  0.95939265030538046 4.9033670231191211  0.98516801818617949 4.8998165988767886  1.0109595462607768 4.8963338847522309  1.0367694878987619 4.8929285458116798  1.0626001862661347 4.8896102402145116  1.0884542076497308 4.8863886517356301  1.1143318448592243 4.8832725768777339  1.1402333070860369 4.8802707829469991  1.1661588800268525 4.8773920452222335  1.1921089401517522 4.874645136238251  1.2180840040993672 4.8720388315332421  1.2440847812500584 4.8695818973753475  1.270110719335575 4.8672813723771942  1.2961613008624226 4.8651443073491194  1.3222360842544054 4.863177739166324  1.3483348314415746 4.8613887482467995  1.3744554192439118 4.8597825865875093  1.400595676157538 4.8583644250205662  1.4267535647302845 4.8571395630870979  1.4529271006470488 4.8561128522702726  1.4791138000208921 4.8552869358637709  1.5053111993717474 4.8546646484819629  1.5315170194639247 4.8542489646679137  1.5577279867622185 4.854040866151724  1.5839406005874501 4.8540410015910487  1.6101514786204385 4.8542499679781228  1.6363571490397213 4.8546665186080302  1.6625540893845931 4.8552887599238721  1.6887384888476111 4.8561152213740248  1.7149080958966465 4.857142823994578  1.741061473480519 4.8583674889728643  1.7671968462446666 4.859785598144021  1.7933127526022199 4.8613923609790772  1.8194078800817151 4.863181762674615  1.8454807414691956 4.8651480470098081  1.8715298547438035 4.8672853651866186  1.8975548678357415 4.8695863052972426  1.9235553038458431 4.8720434363028904  1.9495304805069766 4.8746494554081066  1.9754802271436409 4.8773965143609619  2.0014053925530684 4.8802755719448445  2.0273064662239033 4.8832777840916801  2.0531838574224892 4.8863942602090287  2.0790379598881206 4.8896160986533594  2.1048688754991094 4.8929344885098978  2.1306786914295675 4.8963399289747827  2.1564699378041263 4.8998227166333344  2.1822448835033441 4.9033731993324237  2.2080057549853578 4.9069817113583172  2.233754714294065 4.9106385899781575  2.2594939119789945 4.9143341740961812  2.285225482518233 4.9180587930873783  2.3109519797504516 4.9218029005832209  2.3366759244865403 4.9255569646826602  2.362399780875243 4.9293114494965202  2.3881259977832814 4.9330568208320296  2.4138570378054789 4.9367835416989063  2.439595391783385 4.9404820846005615  2.4653436633858483 4.9441428868631014  2.4911043822667081 4.947756520629536  2.5168790564236834 4.9513143403271505  2.5426692908121789 4.9548076196117599  2.5684766932202083 4.9582276567662911  2.5943029648968512 4.9615657323367088  2.6201498402324646 4.9648131731896799  2.6460194438430933 4.9679611386460847  2.6719124980075923 4.971001833797696  2.6978290947629264 4.973927897935523  2.7237695437102052 4.9767318563499847  2.7497341791146268 4.9794062923481377  2.7757236043863189 4.9819436711710434  2.8017381466875722 4.9843368968303929  2.8277765974122828 4.9865803497901524  2.8538379934219646 4.9886681930026278  2.8799213652266609 4.990594698306043  2.9060260351953056 4.9923539195065763  2.9321509371095571 4.9939407674589358  2.9582938949110198 4.9953517899915241  2.9844529284497239 4.9965832252758817  3.0106260437744456 4.9976314771395263  3.0368115087219629 4.9984925964428966  3.0630071662373788 4.9991643548249902  3.0892103714538903 4.999645746728949  3.1154185434831394 4.9999354749548566  3.1416291127081841 5.0000323703631713  3.1678396399333297 4.9999350432159426  3.1940477597825283 4.9996445968818159  3.2202509637316541 4.9991625058848026  3.246446685975763 4.9984901548269569  3.2726323480591604 4.9976289308246225  3.2988054945222784 4.9965803010334318  3.3249644777342482 4.995348201204906  3.351107435406111 4.9939364780646045  3.3772324568352468 4.9923490443278258  3.4033374736685009 4.9905896377768917  3.4294209420149508 4.9886626881523277  3.4554823579306984 4.9865742970503257  3.4815208455303424 4.9843302837585481  3.507535541872798 4.9819365960994553  3.5335252984878269 4.9793989500648568  3.5594900976836752 4.976724129140381  3.5854306558570381 4.973919762563126  3.6113473286776148 4.9709932857733392  3.6372404574605088 4.9679522061712253  3.6631101870834253 4.9648039371139996  3.688957140788371 4.9615562134515976  3.714783475465147 4.9582178640888408  3.7405909752625481 4.9547975688956196  3.7663813832791844 4.9513040479753476  3.7921563550185327 4.947746009532267  3.8179175175694042 4.9441321691337965  3.8436664857907363 4.9404712247938107  3.8694057555793462 4.9367726525470479  3.8951377523556641 4.9330459467582299  3.9208648444680012 4.9293005971716024  3.9465893783186603 4.9255460937006657  3.9723137005020508 4.9217919302024002  3.9980402107680901 4.9180475845906084  4.023771180354669 4.9143227498630697  4.0495088332326841 4.9106271411446709  4.0752554057939179 4.9069704704696901  4.1010131680077366 4.903362440403221  4.1267844607303248 4.8998127944777465  4.1525717034855365 4.8963310758240839  4.178377379926502 4.8929266536246416  4.2042039441198753 4.8896089225022132  4.230054296490775 4.8863873160517484  4.2559298311327316 4.8832710430260624  4.2818302384690057 4.880269079030664  4.3077556454232475 4.8773904094108564  4.3337062577330299 4.8746441593494181  4.3596822231105659 4.8720385622373925  4.3856835799572522 4.8695813776654262  4.4117106276154185 4.8672805623935407  4.4377632841764001 4.865143691054703  4.4638398270224604 4.8631771875809671  4.4899388375158695 4.8613876516051642  4.5160589790880055 4.85978157950791  4.5421986522868609 4.8583637733380494  4.568356436082869 4.8571391910364001  4.5945305077315606 4.8561123764416525  4.6207172375492043 4.8552863468402814  4.6469133110860605 4.8546645830104369  4.6731153316072112 4.8542490132615859  4.6993198070757458 4.8540407556979277  4.7255233472595091 4.8540411328760653  4.7517238577720695 4.8542496147109144  4.7779191329999895 4.8546656008287243  4.8041070873775542 4.8552879614906859  4.8302857981573046 4.8561138030344697  4.8564532379068046 4.8571405137991288  4.8826074097738781 4.858365314012997  4.9087461804778361 4.8597832825661671  4.9348673205112261 4.8613894964121362  4.9609684789278718 4.8631792989740719  4.9870477587883872 4.8651465417881852  5.0131033589890972 4.8672840734363199  5.0391333978001578 4.869584927172447  5.0651354870007115 4.8720422542301103  5.0911097907610756 4.8746482127152797  5.1170577397505195 4.8773944109146381  5.1429803194436419 4.8802725554117332  5.1688784636029066 4.8832744452179639  5.1947533075911547 4.8863913203616614  5.2206062039585577 4.8896136646413444  5.2464382967807826 4.8929321107982275  5.2722506478931068 4.8963372530489861  5.2980442874358946 4.8998196907657494  5.3238201174736108 4.9033700412233818  5.349580785971483 4.9069786183467405  5.3753289980741545 4.9106357068973683  5.4010673408327303 4.9143315997695893  5.4267983663152917 4.9180565861815202  5.4525246006056847 4.9218009619233607  5.4782485938363665 4.9255550001731434  5.5039728779471764 4.9293090619346209  5.529699711083345 4.9330538576292984  5.5554313359754133 4.9367800535925737  5.5811699809180713 4.9404783274924808  5.6069178944971982 4.9441393557526201  5.6326773866738291 4.9477538084416954  5.6584508101023552 4.9513123822924356  5.684240772970627 4.9548056737363568  5.7100486894363627 4.9582252305537136  5.7358757341116426 4.9615627732447996  5.7617231820695247 4.9648099780821653  5.7875923737486739 4.9679585305091356  5.8134847459711336 4.9710001235136971  5.8394019651731082 4.9739264107344123  5.8653437610196191 4.9767302383245342  5.8913098205757173 4.9794044845011154  5.9172999015985281 4.981942065867643  5.9433140410117815 4.9843357135212161  5.9693515994781619 4.986579244466725  5.995411535134715 4.9886670238686888  6.0214929865326079 4.9905933040915746  6.0475951731947708 4.9923522994351064  6.0737178493730468 4.9939396914909118  6.0998606547066903 4.9953513076576677  6.1260239714651155 4.9965827786620194  6.1522043752436213 4.9976307848124115  6.1783966819189473 4.9984924860052748  6.2045963778643305 4.9991648450233068  6.2307964309643147 4.9996463764382675  6.2569897076437391 4.9999357053450337  6.2744528494713219 5.0000000764523245  6.2831852977112064 5.0000000000007496 
 0 4 0.0041322314049586778 1 0.0082644628099173556 1 0.012396694214876033 1 0.016528925619834711 1 0.020661157024793389 1 0.024793388429752067 1 0.028925619834710745 1 0.033057851239669422 1 0.0371900826446281 1 0.041322314049586778 1 0.045454545454545456 1 0.049586776859504134 1 0.053719008264462811 1 0.057851239669421489 1 0.061983471074380167 1 0.066115702479338845 1 0.070247933884297523 1 0.0743801652892562 1 0.078512396694214878 1 0.082644628099173556 1 0.086776859504132234 1 0.090909090909090912 1 0.095041322314049589 1 0.099173553719008267 1 0.10330578512396695 1 0.10743801652892562 1 0.1115702479338843 1 0.11570247933884298 1 0.11983471074380166 1 0.12396694214876033 1 0.12809917355371903 1 0.13223140495867769 1 0.13636363636363635 1 0.14049586776859505 1 0.14462809917355374 1 0.1487603305785124 1 0.15289256198347106 1 0.15702479338842976 1 0.16115702479338845 1 0.16528925619834711 1 0.16942148760330578 1 0.17355371900826447 1 0.17768595041322316 1 0.18181818181818182 1 0.18595041322314049 1 0.19008264462809918 1 0.19421487603305787 1 0.19834710743801653 1 0.2024793388429752 1 0.20661157024793389 1 0.21074380165289258 1 0.21487603305785125 1 0.21900826446280991 1 0.2231404958677686 1 0.22727272727272729 1 0.23140495867768596 1 0.23553719008264462 1 0.23966942148760331 1 0.243801652892562 1 0.24793388429752067 1 0.25206611570247933 1 0.25619834710743805 1 0.26033057851239672 1 0.26446280991735538 1 0.26859504132231404 1 0.27272727272727271 1 0.27685950413223143 1 0.28099173553719009 1 0.28512396694214875 1 0.28925619834710747 1 0.29338842975206614 1 0.2975206611570248 1 0.30165289256198347 1 0.30578512396694213 1 0.30991735537190085 1 0.31404958677685951 1 0.31818181818181818 1 0.3223140495867769 1 0.32644628099173556 1 0.33057851239669422 1 0.33471074380165289 1 0.33884297520661155 1 0.34297520661157027 1 0.34710743801652894 1 0.3512396694214876 1 0.35537190082644632 1 0.35950413223140498 1 0.36363636363636365 1 0.36776859504132231 1 0.37190082644628097 1 0.37603305785123969 1 0.38016528925619836 1 0.38429752066115702 1 0.38842975206611574 1 0.3925619834710744 1 0.39669421487603307 1 0.40082644628099173 1 0.4049586776859504 1 0.40909090909090912 1 0.41322314049586778 1 0.41735537190082644 1 0.42148760330578516 1 0.42561983471074383 1 0.42975206611570249 1 0.43388429752066116 1 0.43801652892561982 1 0.44214876033057854 1 0.4462809917355372 1 0.45041322314049587 1 0.45454545454545459 1 0.45867768595041325 1 0.46280991735537191 1 0.46694214876033058 1 0.47107438016528924 1 0.47520661157024796 1 0.47933884297520662 1 0.48347107438016529 1 0.48760330578512401 1 0.49173553719008267 1 0.49586776859504134 1 0.5 1 0.50413223140495866 1 0.50826446280991733 1 0.5123966942148761 1 0.51652892561983477 1 0.52066115702479343 1 0.52479338842975209 1 0.52892561983471076 1 0.53305785123966942 1 0.53719008264462809 1 0.54132231404958675 1 0.54545454545454541 1 0.54958677685950419 1 0.55371900826446285 1 0.55785123966942152 1 0.56198347107438018 1 0.56611570247933884 1 0.57024793388429751 1 0.57438016528925617 1 0.57851239669421495 1 0.58264462809917361 1 0.58677685950413228 1 0.59090909090909094 1 0.5950413223140496 1 0.59917355371900827 1 0.60330578512396693 1 0.6074380165289256 1 0.61157024793388426 1 0.61570247933884303 1 0.6198347107438017 1 0.62396694214876036 1 0.62809917355371903 1 0.63223140495867769 1 0.63636363636363635 1 0.64049586776859502 1 0.64462809917355379 1 0.64876033057851246 1 0.65289256198347112 1 0.65702479338842978 1 0.66115702479338845 1 0.66528925619834711 1 0.66942148760330578 1 0.67355371900826444 1 0.6776859504132231 1 0.68181818181818188 1 0.68595041322314054 1 0.69008264462809921 1 0.69421487603305787 1 0.69834710743801653 1 0.7024793388429752 1 0.70661157024793386 1 0.71074380165289264 1 0.7148760330578513 1 0.71900826446280997 1 0.72314049586776863 1 0.72727272727272729 1 0.73140495867768596 1 0.73553719008264462 1 0.73966942148760328 1 0.74380165289256195 1 0.74793388429752072 1 0.75206611570247939 1 0.75619834710743805 1 0.76033057851239672 1 0.76446280991735538 1 0.76859504132231404 1 0.77272727272727271 1 0.77685950413223148 1 0.78099173553719015 1 0.78512396694214881 1 0.78925619834710747 1 0.79338842975206614 1 0.7975206611570248 1 0.80165289256198347 1 0.80578512396694213 1 0.80991735537190079 1 0.81404958677685957 1 0.81818181818181823 1 0.8223140495867769 1 0.82644628099173556 1 0.83057851239669422 1 0.83471074380165289 1 0.83884297520661155 1 0.84297520661157033 1 0.84710743801652899 1 0.85123966942148765 1 0.85537190082644632 1 0.85950413223140498 1 0.86363636363636365 1 0.86776859504132231 1 0.87190082644628097 1 0.87603305785123964 1 0.88016528925619841 1 0.88429752066115708 1 0.88842975206611574 1 0.8925619834710744 1 0.89669421487603307 1 0.90082644628099173 1 0.9049586776859504 1 0.90909090909090917 1 0.91322314049586784 1 0.9173553719008265 1 0.92148760330578516 1 0.92561983471074383 1 0.92975206611570249 1 0.93388429752066116 1 0.93801652892561982 1 0.94214876033057848 1 0.94628099173553726 1 0.95041322314049592 1 0.95454545454545459 1 0.95867768595041325 1 0.96280991735537191 1 0.96694214876033058 1 0.97107438016528924 1 0.97520661157024802 1 0.97933884297520668 1 0.98347107438016534 1 0.98760330578512401 1 0.99173553719008267 1 0.99586776859504134 1 1 4
7 0 0  3 201 199  4.7123889803722037 26.810000000000002  4.7163930117528814 26.810000081585144  4.7244013894873005 26.810257240260675  4.7364022900741842 26.811411678750176  4.7483789354958468 26.813332481118678  4.7603186603597383 26.816017487720909  4.7722089779444561 26.819463866318259  4.7840384150630495 26.823664499812491  4.7957953344220625 26.828612629042055  4.8074680005859411 26.834301585776508  4.8190449068047574 26.840723943815021  4.8305155037710952 26.847869221524018  4.8418690284792865 26.855727290391197  4.8530945628474509 26.864288067194845  4.8641815264508157 26.873540899009342  4.8751205751057736 26.883473195318349  4.8859020390451917 26.894072645734088  4.8965162234306439 26.905326841662834  4.9069531969479492 26.917223487206307  4.9172043432462003 26.929749243923787  4.9272611069011942 26.942890627018347  4.9371147440055836 26.956634196499163  4.9467564441789742 26.970966476623293  4.9561771440327247 26.985874089850412  4.9653685279520383 27.001343081142267  4.9743225317278421 27.01735923697494  4.9830308736322548 27.033908404315941  4.991485176769122 27.050976422659264  4.9996769561386492 27.06854910090145  5.0075975878413788 27.0866123778024  5.0152384909864942 27.105151668707425  5.022591404157887 27.12415084788195  5.0296479072439562 27.143594006965309  5.0363994980988167 27.163465210699826  5.0428376012878973 27.183748414041929  5.0489534830277609 27.204428037988492  5.0547386583285006 27.225486434784624  5.0601850447877128 27.246903049467342  5.0652843949156647 27.268657917074709  5.0700284852295434 27.290730821098741  5.0744088133443883 27.313101961214734  5.0784179089721784 27.335749648717144  5.0820491712465632 27.358650617510399  5.0852956648425121 27.381782162073197  5.0881509029460155 27.405120603508333  5.0906098437417091 27.428639305105392  5.0926671460078721 27.452312080485868  5.0943178384860657 27.476112456756265  5.0955592815884341 27.500012682737605  5.0963883819695202 27.523985309222155  5.0968031294602412 27.548002025796027  5.096802975237039 27.572033311637281  5.0963872748486443 27.596049862734169  5.0955577093949866 27.620022339281913  5.0943160128984442 27.643921132154762  5.0926645944983076 27.667717770410896  5.0906076068292672 27.691386376915826  5.0881486827631024 27.714900510925961  5.0852931849482585 27.738234864406309  5.0820469599909064 27.76136444163  5.0784156354068966 27.78426405457191  5.0744062865479966 27.806910813678563  5.070026070700492 27.829282038590883  5.0652819929398989 27.851354814604843  5.0601823978374849 27.873109105982852  5.0547356927041092 27.894525108788542  5.0489502067696543 27.915583051210625  5.0428341640986654 27.936262803779826  5.0363959399333504 27.956545800069513  5.0296442634961611 27.976416589407833  5.0225877053263632 27.995859186730765  5.0152347627504765 28.01485773565026  5.0075938512712934 28.033396399466699  4.9996732269723623 28.051459134050667  4.9914814597280195 28.069031339011392  4.9830271684760827 28.086098933552844  4.9743188320091507 28.102647708936058  4.965364819587311 28.11866348541227  4.9561734106844915 28.134132095214781  4.946752645510136 28.149039293658589  4.9371109301051552 28.163371180197363  4.9272573173832983 28.177114376390424  4.9172006059471567 28.190255402674175  4.9069495252984092 28.202780814206946  4.8965126257823348 28.214677128382174  4.8858984796491285 28.225930980503907  4.8751170329880482 28.236530088792108  4.8641780112129815 28.2464620680556  4.8530911159967651 28.255714637362512  4.8418657088682 28.26427520215482  4.8305122366125275 28.27213294817313  4.819041665313839 28.279277914631233  4.8074647789047242 28.285700053868396  4.7957921265567425 28.291388905086318  4.7840351348017531 28.296336705140117  4.7722056868025504 28.300537019268621  4.760315518300386 28.303983231664628  4.7483762313760289 28.306668265900718  4.7363999952598297 28.3085888886623  4.724399187264126 28.309743063497052  4.7123861173440176 28.310128534188042  4.7003730705809987 28.309742799778988  4.6883722872411813 28.308587998524153  4.6763960544724785 28.306666808549835  4.6644566759885837 28.303981813097288  4.652566486028201 28.300535449355223  4.6407370865473903 28.296334524013879  4.6289801200787171 28.291386086546744  4.617307321621869 28.285697071830668  4.6057303848585329 28.279274632247855  4.5942598501333034 28.272129144066927  4.5829064097915024 28.264270852776281  4.5716808978711923 28.255709946229238  4.5605939570530927 28.246456985693733  4.5496549511538378 28.236524532089085  4.5388735336374673 28.225924919849227  4.5282593887939964 28.21467057030544  4.5178224535991793 28.202773783685004  4.5075713698594431 28.190247877556736  4.4975146691294983 28.177106350500633  4.4876610846378586 28.163362647426691  4.4780194125782602 28.149030251944311  4.4685987058673087 28.134122546535536  4.4594073702013342 28.118653427423748  4.4504534372241844 28.10263713529746  4.441745180054939 28.086087832886186  4.4332909599140145 28.069019699582313  4.4250992533765503 28.051446926085728  4.4171786567818065 28.033383641203404  4.4095378036364403 28.014844214462006  4.4021849614515709 27.995844801733817  4.3951285358183352 27.976401408423609  4.3883770178513597 27.956530060893954  4.3819389775812212 27.936246852143913  4.3758231165124819 27.915567587668665  4.3700380271907724 27.894509226102958  4.3645917579583511 27.873092399068828  4.3594925145099079 27.851337193749949  4.3547484895135042 27.829263927991846  4.3503681145823139 27.806892541430841  4.3463591138368169 27.784244438042574  4.3427280040940701 27.761343421337216  4.3394814841668818 27.738212953610212  4.3366265188732944 27.714876230129335  4.3341688250703099 27.691358090303204  4.332112166101763 27.667685922589939  4.3304606915908161 27.643886628994412  4.3292184429976581 27.619987251815616  4.3283895667137342 27.59601475862927  4.3279748128957607 27.571998531019041  4.3279750439332227 27.54796800397774  4.3283903426607822 27.523952557085519  4.3292202854388071 27.499981738366394  4.3304622597471818 27.47608340816678  4.332113141928116 27.452285083808533  4.3341702315484465 27.428614583987457  4.3366294154436398 27.405098666468319  4.3394849065901662 27.381762742063195  4.3427314520459435 27.35863283471161  4.3463628756723622 27.3357332272533  4.3503721325138756 27.313086416270416  4.3547524726878315 27.290715393712798  4.3594968287989335 27.268642555443776  4.3645966250427302 27.246887717741757  4.3700435142188114 27.22547100116455  4.3758291498257158 27.20441234834944  4.3819453083010877 27.183732109336585  4.3883836224046737 27.16344902885054  4.395135365833668 27.143578412576311  4.4021919694578191 27.124136138679027  4.4095449382726111 27.105137946123328  4.4171858575510612 27.08659955819585  4.4251064779328209 27.068536900095591  4.4332983085555187 27.050964830049463  4.4417526901705839 27.033897371643246  4.4504611266924341 27.017348734303472  4.4594152215266094 27.001333080874325  4.4686066811990077 26.985864574688605  4.4780274042312733 26.970957423707095  4.4876691504821231 26.956625646642784  4.4975228455331564 26.942882602765334  4.5075796481388073 26.929741740043649  4.5178308047222169 26.917216485887408  4.5282676781932913 26.905320261243972  4.5388818340555117 26.894066533469061  4.5496633991721538 26.883467632442777  4.5606025264807739 26.873535852531873  4.5716894489809077 26.864283425105782  4.5829146918405295 26.855722868833848  4.5942680829922891 26.847865354406554  4.6057386562789011 26.840720644572151  4.6173156528657211 26.834298683792692  4.6289885718552144 26.828609778712828  4.6407460239292249 26.823662133819354  4.6525757261315572 26.819462037318893  4.6644656481821238 26.816016051007846  4.6764037645156717 26.81333118076623  4.688378219068527 26.811410750180151  4.7003771788408857 26.810256749504379  4.7083849488863283 26.80999991841486  4.7123889803722037 26.810000000000002 
 0 4 0.0050505050505050509 1 0.010101010101010102 1 0.015151515151515152 1 0.020202020202020204 1 0.025252525252525256 1 0.030303030303030304 1 0.035353535353535359 1 0.040404040404040407 1 0.045454545454545456 1 0.050505050505050511 1 0.055555555555555559 1 0.060606060606060608 1 0.065656565656565663 1 0.070707070707070718 1 0.07575757575757576 1 0.080808080808080815 1 0.08585858585858587 1 0.090909090909090912 1 0.095959595959595967 1 0.10101010101010102 1 0.10606060606060606 1 0.11111111111111112 1 0.11616161616161617 1 0.12121212121212122 1 0.12626262626262627 1 0.13131313131313133 1 0.13636363636363638 1 0.14141414141414144 1 0.14646464646464646 1 0.15151515151515152 1 0.15656565656565657 1 0.16161616161616163 1 0.16666666666666669 1 0.17171717171717174 1 0.1767676767676768 1 0.18181818181818182 1 0.18686868686868688 1 0.19191919191919193 1 0.19696969696969699 1 0.20202020202020204 1 0.2070707070707071 1 0.21212121212121213 1 0.21717171717171718 1 0.22222222222222224 1 0.22727272727272729 1 0.23232323232323235 1 0.2373737373737374 1 0.24242424242424243 1 0.24747474747474749 1 0.25252525252525254 1 0.25757575757575762 1 0.26262626262626265 1 0.26767676767676768 1 0.27272727272727276 1 0.27777777777777779 1 0.28282828282828287 1 0.2878787878787879 1 0.29292929292929293 1 0.29797979797979801 1 0.30303030303030304 1 0.30808080808080812 1 0.31313131313131315 1 0.31818181818181823 1 0.32323232323232326 1 0.32828282828282829 1 0.33333333333333337 1 0.3383838383838384 1 0.34343434343434348 1 0.34848484848484851 1 0.35353535353535359 1 0.35858585858585862 1 0.36363636363636365 1 0.36868686868686873 1 0.37373737373737376 1 0.37878787878787884 1 0.38383838383838387 1 0.3888888888888889 1 0.39393939393939398 1 0.39898989898989901 1 0.40404040404040409 1 0.40909090909090912 1 0.4141414141414142 1 0.41919191919191923 1 0.42424242424242425 1 0.42929292929292934 1 0.43434343434343436 1 0.43939393939393945 1 0.44444444444444448 1 0.44949494949494956 1 0.45454545454545459 1 0.45959595959595961 1 0.4646464646464647 1 0.46969696969696972 1 0.47474747474747481 1 0.47979797979797983 1 0.48484848484848486 1 0.48989898989898994 1 0.49494949494949497 1 0.5 1 0.50505050505050508 1 0.51010101010101017 1 0.51515151515151525 1 0.52020202020202022 1 0.5252525252525253 1 0.53030303030303039 1 0.53535353535353536 1 0.54040404040404044 1 0.54545454545454553 1 0.5505050505050505 1 0.55555555555555558 1 0.56060606060606066 1 0.56565656565656575 1 0.57070707070707072 1 0.5757575757575758 1 0.58080808080808088 1 0.58585858585858586 1 0.59090909090909094 1 0.59595959595959602 1 0.60101010101010111 1 0.60606060606060608 1 0.61111111111111116 1 0.61616161616161624 1 0.62121212121212122 1 0.6262626262626263 1 0.63131313131313138 1 0.63636363636363646 1 0.64141414141414144 1 0.64646464646464652 1 0.6515151515151516 1 0.65656565656565657 1 0.66161616161616166 1 0.66666666666666674 1 0.67171717171717182 1 0.6767676767676768 1 0.68181818181818188 1 0.68686868686868696 1 0.69191919191919193 1 0.69696969696969702 1 0.7020202020202021 1 0.70707070707070718 1 0.71212121212121215 1 0.71717171717171724 1 0.72222222222222232 1 0.72727272727272729 1 0.73232323232323238 1 0.73737373737373746 1 0.74242424242424254 1 0.74747474747474751 1 0.7525252525252526 1 0.75757575757575768 1 0.76262626262626265 1 0.76767676767676774 1 0.77272727272727282 1 0.77777777777777779 1 0.78282828282828287 1 0.78787878787878796 1 0.79292929292929304 1 0.79797979797979801 1 0.80303030303030309 1 0.80808080808080818 1 0.81313131313131315 1 0.81818181818181823 1 0.82323232323232332 1 0.8282828282828284 1 0.83333333333333337 1 0.83838383838383845 1 0.84343434343434354 1 0.84848484848484851 1 0.85353535353535359 1 0.85858585858585867 1 0.86363636363636376 1 0.86868686868686873 1 0.87373737373737381 1 0.8787878787878789 1 0.88383838383838387 1 0.88888888888888895 1 0.89393939393939403 1 0.89898989898989912 1 0.90404040404040409 1 0.90909090909090917 1 0.91414141414141425 1 0.91919191919191923 1 0.92424242424242431 1 0.92929292929292939 1 0.93434343434343448 1 0.93939393939393945 1 0.94444444444444453 1 0.94949494949494961 1 0.95454545454545459 1 0.95959595959595967 1 0.96464646464646475 1 0.96969696969696972 1 0.97474747474747481 1 0.97979797979797989 1 0.98484848484848497 1 0.98989898989898994 1 0.99494949494949503 1 1 4
7 0 0  3 201 199  6.2831853072128823 0.9999999999992002  6.272507897798528 1.0000000410710939  6.2511522008787832 1.0000967978844173  6.2191215032182861 1.0005296556950645  6.187099076661946 1.0012478835889211  6.1550905497199579 1.0022493078718111  6.1231009477284246 1.0035310751917774  6.0911330915477322 1.0050860068004324  6.0591903395449869 1.0069072792522022  6.0272762590513409 1.0089881839095292  5.9953938196717544 1.0113211568208187  5.9635441418629114 1.0138952058838886  5.931728921574992 1.0166997258731441  5.8999501817836659 1.0197241978624292  5.8682090844738042 1.0229573227372328  5.8365042066454595 1.0263851698957904  5.8048349134094579 1.029994193619133  5.7732005998255538 1.0337706968473424  5.7416010408491616 1.0377012030015096  5.7100329898031585 1.0417700677000414  5.6784930984433313 1.0459613405921131  5.6469783720899063 1.0502591652366267  5.6154858488871806 1.0546476095160597  5.5840128713364869 1.0591109501088638  5.5525551371371407 1.0636322350441985  5.5211078224916879 1.0681939608875612  5.4896664263372195 1.072778757961486  5.4582264590282783 1.0773692219607378  5.4267834469066223 1.0819479533341079  5.3953327569233576 1.0864975681420646  5.3638698433757028 1.0910006104236964  5.332390942648118 1.0954394077892669  5.3008921986225879 1.0997963230211409  5.2693696589515024 1.1040536972093924  5.2378193231643628 1.1081939230411584  5.2062364467158631 1.1121992085076255  5.1746181046236046 1.1160525720646792  5.142964350914049 1.1197381771958139  5.1112745494389884 1.1232399367556636  5.079548092502062 1.1265419343047014  5.0477836548557846 1.1296278212089086  5.0159811678287518 1.1324833328036981  4.9841418839582836 1.1350959453405554  4.9522663399400511 1.1374525397175725  4.9203557576082222 1.1395409734681392  4.888414440275815 1.1413520940124209  4.8564461132096604 1.1428761871764737  4.8244544035734407 1.1441042505471868  4.7924438906588129 1.1450315200094503  4.760418821596808 1.1456524133962176  4.7283842255046515 1.1459633350841256  4.6963466248020787 1.1459633624577339  4.6643121846891695 1.1456513901950198  4.6322872127151768 1.1450303256192853  4.6002785448962147 1.1441031327034004  4.5682915769086634 1.142874062673261  4.5363288129658379 1.1413506635866764  4.5043935150076013 1.1395395184920185  4.4724881399676164 1.1374505017832865  4.4406152435390318 1.1350944440790693  4.4087776598577957 1.1324817913873677  4.3769761689121118 1.1296259082341538  4.3452116670092327 1.1265403935199894  4.3134853711786718 1.1232386195214614  4.281796069735984 1.1197366206720423  4.2501427495298731 1.1160506603566263  4.2185246049961318 1.1121969747989711  4.1869413516862828 1.1081916823616973  4.1553910807559262 1.1040514590187784  4.1238688763268705 1.0997940994160389  4.0923706610078021 1.0954372042741849  4.0608923851252925 1.0909984282847107  4.029430109574772 1.0864954041810753  3.9979799832006506 1.0819457985581069  3.9665374612086097 1.0773670769852626  3.935097921512213 1.0727766344213354  3.9036568948026122 1.0681918804352017  3.872209890133167 1.0636302316808373  3.8407524123319323 1.0591090618617398  3.8092795982212255 1.0546459093982092  3.7777873243775986 1.0502575960902141  3.7462729168610434 1.0459598588256271  3.7147333915683429 1.0417686446277059  3.683165722964036 1.0376998282447762  3.6515665505195027 1.0337693633895035  3.6199325256304746 1.0299929569145139  3.588263450111377 1.0263840634111885  3.556558788739979 1.022956336719008  3.5248179827801316 1.0197232740413387  3.4930396656058846 1.0166987998779051  3.4612246986617397 1.0138944352182344  3.4293751880456131 1.0113205406596579  3.3974928686141901 1.0089876238472955  3.3655788682974475 1.006906639239326  3.3336360009245034 1.0050855388671269  3.301668169157967 1.0035307892668615  3.269678982288946 1.0022490732111413  3.2376716211459335 1.0012475339758014  3.2056503110942316 1.0005294035932988  3.1736198765828902 1.0000966941123262  3.1415850190718899 0.99995164353818256  3.1095502217697977 1.0000967316274219  3.0775198241154307 1.0005298369571756  3.0454984641531926 1.0012483008502915  3.0134908432317324 1.0022495578249817  2.9815015742590614 1.0035311926567774  2.94953376821951 1.0050863225683973  2.9175908251100182 1.0069078151026258  2.8856763721927017 1.0089886606101697  2.8537938256731827 1.0113216058379517  2.8219442446052128 1.0138957698239708  2.7901291602887692 1.0167004125375465  2.7583504134108594 1.0197248826892162  2.7266093086206382 1.0229580165719701  2.6949044596698108 1.0263859181179007  2.6632351958414446 1.0299950059452221  2.6316008898699721 1.0337715595246593  2.6000013341858264 1.0377021002307709  2.5684333355749551 1.0417710244139498  2.5368934907621838 1.0459623489321521  2.5053787825298972 1.0502602032429078  2.4738862213796526 1.054648635374533  2.4424131349061575 1.0591119064726329  2.4109553936775914 1.0636331947637041  2.3795081091690147 1.0681949515941076  2.3480667658175403 1.0727797951039664  2.3166268550270779 1.077370299217969  2.2851838836682443 1.0819490479287761  2.2537332387090991 1.0864986291725929  2.2222702553712494 1.0910016045368778  2.1907912045997584 1.095440331503799  2.1592923079470197 1.0997971876145649  2.1277697054650346 1.1040545372185182  2.0962194493882151 1.1081947773734195  2.0646370494899777 1.1122001874952365  2.033018864475638 1.1160535130954223  2.001364978723764 1.1197389902869224  1.9696748618112601 1.1232406198764056  1.9379480073212534 1.1265425518793901  1.9061832361045852 1.1296285747822516  1.8743802891843764 1.1324839585943143  1.842541031899616 1.1350963934547549  1.8106668929610379 1.137453272980439  1.7787587292591915 1.13954153472443  1.7468186081617585 1.1413505878746448  1.7148511828685784 1.1428736474987478  1.6828606345023749 1.1441031983031076  1.6508511096569638 1.1450319515309269  1.6188262614066771 1.1456524426393662  1.5867923149182133 1.1459633728449636  1.5547557188924017 1.1459632591873441  1.5227227858632419 1.1456519351831986  1.490699996273344 1.1450300496292964  1.4586918526925201 1.1441022802039802  1.4267027582627581 1.1428742431915742  1.3947374743259449 1.1413507874969209  1.3627997195628367 1.1395393745086126  1.3308922857773648 1.137450594823002  1.2990188061427244 1.1350940447617717  1.2671811586183246 1.1324812506319721  1.2353796482013779 1.1296256017878104  1.2036153055993735 1.1265399613969806  1.1718886845916341 1.1232378585866996  1.1401984889611967 1.1197357334922009  1.1085440816690255 1.1160497037835637  1.0769248931544686 1.1121960063398229  1.0453409120896904 1.108190723669338  1.0137904235786444 1.1040504888539466  0.98226832369811579 1.0997931051853638  0.9507704027808721 1.0954361792886604  0.91929247380061785 1.090997372839446  0.88783047674722848 1.0864943239778286  0.85638043851233014 1.0819447099353887  0.82493792686918255 1.077366029556091  0.79349833165867878 1.0727756442961769  0.76205722062317793 1.068190944506491  0.73061014950111414 1.0636293195089532  0.69915265414796846 1.0591081338465675  0.66768000099182512 1.0546448522069383  0.63618775270789563 1.0502565420709318  0.60467326151826306 1.0459588937581639  0.57313362666917023 1.0417677828070868  0.54156587344189511 1.0376990416545042  0.50996683983465108 1.0337684899249695  0.47833288280777264 1.0299920415936918  0.4466636190328126 1.0263832740857348  0.41495878064811365 1.022955676494872  0.38321796374770845 1.0197226651949123  0.35144009000267928 1.0166980353537043  0.31962541882347928 1.0138937914176473  0.28777598623825096 1.011320057673986  0.25589343513563101 1.0089872257224666  0.22397874522396144 1.0069060738039755  0.19203470914436416 1.0050850398193054  0.16006624140808956 1.0035304173358839  0.12807773292442182 1.0022488220210026  0.096073500399153744 1.0012473037849381  0.064056956065715376 1.0005292111339934  0.032031473622748052 1.0000965502043053  0.010677410437346602 0.99999995892730942  3.3296920776137995e-11 0.9999999999992002 
 0 4 0.0050505050505050509 1 0.010101010101010102 1 0.015151515151515152 1 0.020202020202020204 1 0.025252525252525256 1 0.030303030303030304 1 0.035353535353535359 1 0.040404040404040407 1 0.045454545454545456 1 0.050505050505050511 1 0.055555555555555559 1 0.060606060606060608 1 0.065656565656565663 1 0.070707070707070718 1 0.07575757575757576 1 0.080808080808080815 1 0.08585858585858587 1 0.090909090909090912 1 0.095959595959595967 1 0.10101010101010102 1 0.10606060606060606 1 0.11111111111111112 1 0.11616161616161617 1 0.12121212121212122 1 0.12626262626262627 1 0.13131313131313133 1 0.13636363636363638 1 0.14141414141414144 1 0.14646464646464646 1 0.15151515151515152 1 0.15656565656565657 1 0.16161616161616163 1 0.16666666666666669 1 0.17171717171717174 1 0.1767676767676768 1 0.18181818181818182 1 0.18686868686868688 1 0.19191919191919193 1 0.19696969696969699 1 0.20202020202020204 1 0.2070707070707071 1 0.21212121212121213 1 0.21717171717171718 1 0.22222222222222224 1 0.22727272727272729 1 0.23232323232323235 1 0.2373737373737374 1 0.24242424242424243 1 0.24747474747474749 1 0.25252525252525254 1 0.25757575757575762 1 0.26262626262626265 1 0.26767676767676768 1 0.27272727272727276 1 0.27777777777777779 1 0.28282828282828287 1 0.2878787878787879 1 0.29292929292929293 1 0.29797979797979801 1 0.30303030303030304 1 0.30808080808080812 1 0.31313131313131315 1 0.31818181818181823 1 0.32323232323232326 1 0.32828282828282829 1 0.33333333333333337 1 0.3383838383838384 1 0.34343434343434348 1 0.34848484848484851 1 0.35353535353535359 1 0.35858585858585862 1 0.36363636363636365 1 0.36868686868686873 1 0.37373737373737376 1 0.37878787878787884 1 0.38383838383838387 1 0.3888888888888889 1 0.39393939393939398 1 0.39898989898989901 1 0.40404040404040409 1 0.40909090909090912 1 0.4141414141414142 1 0.41919191919191923 1 0.42424242424242425 1 0.42929292929292934 1 0.43434343434343436 1 0.43939393939393945 1 0.44444444444444448 1 0.44949494949494956 1 0.45454545454545459 1 0.45959595959595961 1 0.4646464646464647 1 0.46969696969696972 1 0.47474747474747481 1 0.47979797979797983 1 0.48484848484848486 1 0.48989898989898994 1 0.49494949494949497 1 0.5 1 0.50505050505050508 1 0.51010101010101017 1 0.51515151515151525 1 0.52020202020202022 1 0.5252525252525253 1 0.53030303030303039 1 0.53535353535353536 1 0.54040404040404044 1 0.54545454545454553 1 0.5505050505050505 1 0.55555555555555558 1 0.56060606060606066 1 0.56565656565656575 1 0.57070707070707072 1 0.5757575757575758 1 0.58080808080808088 1 0.58585858585858586 1 0.59090909090909094 1 0.59595959595959602 1 0.60101010101010111 1 0.60606060606060608 1 0.61111111111111116 1 0.61616161616161624 1 0.62121212121212122 1 0.6262626262626263 1 0.63131313131313138 1 0.63636363636363646 1 0.64141414141414144 1 0.64646464646464652 1 0.6515151515151516 1 0.65656565656565657 1 0.66161616161616166 1 0.66666666666666674 1 0.67171717171717182 1 0.6767676767676768 1 0.68181818181818188 1 0.68686868686868696 1 0.69191919191919193 1 0.69696969696969702 1 0.7020202020202021 1 0.70707070707070718 1 0.71212121212121215 1 0.71717171717171724 1 0.72222222222222232 1 0.72727272727272729 1 0.73232323232323238 1 0.73737373737373746 1 0.74242424242424254 1 0.74747474747474751 1 0.7525252525252526 1 0.75757575757575768 1 0.76262626262626265 1 0.76767676767676774 1 0.77272727272727282 1 0.77777777777777779 1 0.78282828282828287 1 0.78787878787878796 1 0.79292929292929304 1 0.79797979797979801 1 0.80303030303030309 1 0.80808080808080818 1 0.81313131313131315 1 0.81818181818181823 1 0.82323232323232332 1 0.8282828282828284 1 0.83333333333333337 1 0.83838383838383845 1 0.84343434343434354 1 0.84848484848484851 1 0.85353535353535359 1 0.85858585858585867 1 0.86363636363636376 1 0.86868686868686873 1 0.87373737373737381 1 0.8787878787878789 1 0.88383838383838387 1 0.88888888888888895 1 0.89393939393939403 1 0.89898989898989912 1 0.90404040404040409 1 0.90909090909090917 1 0.91414141414141425 1 0.91919191919191923 1 0.92424242424242431 1 0.92929292929292939 1 0.93434343434343448 1 0.93939393939393945 1 0.94444444444444453 1 0.94949494949494961 1 0.95454545454545459 1 0.95959595959595967 1 0.96464646464646475 1 0.96969696969696972 1 0.97474747474747481 1 0.97979797979797989 1 0.98484848484848497 1 0.98989898989898994 1 0.99494949494949503 1 1 4
1 6.2831853072128823 0 0 1 
1 3.3296032597718295e-11 0 0 1 
1 0 4.7123889803846897 1 0 
1 6.2831853071795862 0 0 1 
1 0 0 0 1 
1 0 3.1415926535897931 1 0 
1 0 0.19999999999999929 1 0 
1 6.2831853071795862 0 0 1 
1 0 0 0 1 
1 0 2.7999999999999972 1 0 
1 9.4247779607693793 0.14142135623731059 -1 0 
1 9.4247779607693793 0 0 1 
1 3.1415926535897931 0 0 1 
1 9.4247779607693793 -0.14142135623731042 -1 0 
Curves 32
2 5 21.4750000000002 -0.050000000000768499 0 1 0 0 -0 1 1 0 -0 3.1499999999999999
2 0 0 0 -1 0 0 -0 -1 -6.1232339957367697e-17 0 -6.1232339957367697e-17 1 2
2 14.16 0 0 -1 0 0 -0 -1 -6.1232339957367697e-17 0 -6.1232339957367697e-17 1 2
7 0 0  1 2 2  14.16 -2 -1.2246467991473539e-16  0 -2 -1.2246467991473539e-16 
 3 2 17.16 2
2 14.16 0 0 1 0 0 -0 1 6.1232339957367697e-17 0 -6.1232339957367697e-17 1 1.7
2 14.359999999999999 0 0 1 0 0 -0 1 6.1232339957367599e-17 0 -6.1232339957367599e-17 1 1.5
7 1 0  6 7 2  14.359999999999999 1.5 9.1848509936051398e-17  1.0313934717875073 14.306532643369415 1.4999999999999998 9.1848509936051386e-17  1.0100254076614366 14.25445828548356 1.517000870126739 9.2889512995222933e-17  0.99792464272497539 14.209616097359541 1.5496160973595419 9.4886619676928714e-17  0.99395844413692447 14.177000870126738 1.5944582854835612 9.7632411784570908e-17  0.99792464272497583 14.16 1.6465326433694163 1.0082104656969921e-16  1.0100254076614348 14.16 1.7 1.0409497792752492e-16  1.0313934717875073
 3.1415926535897931 7 4.7123889803846897 7
2 16.960000000000001 0 0 1 0 0 -0 1 6.1232339957367599e-17 0 -6.1232339957367599e-17 1 1.5
7 0 0  1 2 2  14.359999999999999 1.5 -2.7554552980815453e-16  16.960000000000001 1.5 -2.7554552980815453e-16 
 0.19999999999999929 2 2.8000000000000007 2
2 17.16 0 0 1 0 0 -0 1 1.8369701987210299e-16 0 -1.8369701987210299e-16 1 1.3
7 0 0  1 2 2  17.16 1.2999999999999992 3.1272230763941333e-16  16.960000000000001 1.4999999999999991 3.6083343189163078e-16 
 -0.14142135623731042 2 0.14142135623730803 2
1 4.9999999999999991 18.774999999999999 3.0999999999992314 0 1 0 
2 5 18.775000000000201 -0.050000000000768499 0 1 0 0 -0 1 1 0 -0 3.1499999999999999
2 -2.7000000000000002 0 0 -1 0 0 -0 -1 -6.1232339957367697e-17 0 -6.1232339957367697e-17 1 2
7 0 0  1 2 2  -2.6999999999999993 -2 -1.2246467991473539e-16  -6.6500000000000021 -2 -1.2246467991473539e-16 
 19.859999999999999 2 23.810000000000002 2
2 -6.6500000000000004 0 0 -1 0 1.22464679914735e-16 -7.498798913309273e-33 -1 -6.1232339957367697e-17 1.22464679914735e-16 -6.1232339957367697e-17 1 2
2 -6.6500000000000004 0 -1.8369701987210299e-16 1 0 -1.22464679914735e-16 1.22464679914735e-16 0 1 0 -1 0 4
7 0 0  1 2 2  -8.1500000000000004 9.7971743931788257e-16 4  -6.6500000000000004 9.7971743931788257e-16 4 
 0 2 1.5 2
2 -8.1500000000000004 0 0 1 0 -1.22464679914735e-16 1.22464679914735e-16 0 1 0 -1 0 4
2 -8.1500000000000004 0 0 -1 0 1.22464679914735e-16 -7.498798913309273e-33 -1 -6.1232339957367697e-17 1.22464679914735e-16 -6.1232339957367697e-17 1 2
7 0 0  1 2 2  -8.1500000000000021 -2 -1.2246467991473539e-16  -16.475000000000005 -2 -1.2246467991473539e-16 
 25.310000000000002 2 33.635000000000005 2
2 -16.475000000000001 0 0 -1 0 0 -0 -1 -6.1232339957367697e-17 0 -6.1232339957367697e-17 1 2
7 0 1  3 59 58  -9.6500000000000004 -7.1012836496547899e-09 2.0000000000007501  -9.6500003527609604 0.0224757653984172 1.99999978225638  -9.6520532881880996 0.068118630376504299 1.99922873240999  -9.6614939193183496 0.13697317962023101 1.9957069963268701  -9.6779849471686799 0.20737475863843 1.9896458706179001  -9.7042759199948794 0.284568897930422 1.9802125291553601  -9.7473699979027 0.375254399336583 1.9653408460526001  -9.8175730224602393 0.47935961151909501 1.94279182906987  -9.9153903232724794 0.57849171320805604 1.9153165681356299  -10.0271452276468 0.65489674981614698 1.8901079236095499  -10.128340670358 0.70136461614354795 1.87309962362358  -10.214144481687701 0.72795285837803103 1.86285171940704  -10.2857745054385 0.74235396209665405 1.85713450912136  -10.3474715498606 0.74886016434472302 1.8545110469378301  -10.390097232338 0.75016532483946796 1.8539827429756299  -10.430849932583399 0.74972514050509498 1.85416077154404  -10.476829974691899 0.74688365010019597 1.8553107445797901  -10.539425689292299 0.73787443076488601 1.85892253232361  -10.6048910937616 0.72259934706790796 1.86493566348452  -10.683445196704399 0.69635819828964496 1.8749605732865899  -10.7780942273845 0.65148137650666404 1.89126018507603  -10.885427510626499 0.57750095998620199 1.91557439211657  -10.9810807697631 0.48077655720113199 1.94240309735934  -11.052543104085 0.37572502655284301 1.9652926336713701  -11.099386026272001 0.27705535700959399 1.98147882948706  -11.1293738719594 0.18305453934608301 1.99232034956071  -11.1463170612117 0.091279753957330706 1.99861475877116  -11.150077586736799 0.028696487834713302 2.0000290956854099  -11.1499159283903 -0.033794997772351801 1.9999684800630999  -11.145614424025 -0.097295409120326901 1.99835061038267  -11.127797614941001 -0.18892906352653499 1.9917422932978299  -11.097793562964901 -0.28072317710102801 1.9809196635864501  -11.051944182058399 -0.37642874715757602 1.9651055111575799  -10.987755091218 -0.47095941316555401 1.94454671544191  -10.909432938983199 -0.55412774168099999 1.9222200151981299  -10.8310353194863 -0.61602552681072997 1.90301735603656  -10.758037222358199 -0.66049490011809497 1.8879183846579299  -10.692070516768 -0.69198934233842702 1.87654641996052  -10.628355150848201 -0.71536292135580504 1.8677257793563  -10.5690701047477 -0.73148703923494796 1.86144846783816  -10.5137208765716 -0.74196235761218199 1.8572870705209501  -10.461653945995 -0.748042909436195 1.85484171557407  -10.4240851058508 -0.74985425923492499 1.8541085622537501  -10.388885133614499 -0.75010407791046796 1.8540075201912001  -10.3496254904466 -0.74895232337100504 1.85447370495803  -10.2915304337291 -0.74307901509170304 1.8568426792471999  -10.223233700617699 -0.73007943146875098 1.86201188346292  -10.150516141318301 -0.70878066500071402 1.87026435065729  -10.0683028658009 -0.67489438284938896 1.88285159229858  -9.9759051497201892 -0.62235413175742604 1.9011174996439999  -9.8770604182662503 -0.54332678804414003 1.9256037499313301  -9.7925270521668608 -0.44609852002193401 1.95061065189627  -9.7335625543729591 -0.34879240470004302 1.9700419584398701  -9.6973031121337598 -0.26602418019357899 1.98269244966025  -9.6749842575517206 -0.19597648295429099 1.9907440477687599  -9.6612549994835994 -0.13385705377710799 1.99579945582153  -9.6540939969877293 -0.082636326071204205 1.9984669658315499  -9.6506835761233791 -0.038980167731005197 1.99974346527207  -9.6499997910172599 -0.013315110543194101 2.0000001289969398 
 0 3 0.0141804494958164 1 0.0287823985078598 1 0.043821863082205703 1 0.059883845722577503 1 0.080484357075815693 1 0.107693236272199 1 0.14005688661478299 1 0.16957969529160399 1 0.19418738683771 1 0.21087711980318699 1 0.22652103879139299 1 0.240343558636402 1 0.249994014920772 1 0.25339996239662299 1 0.26604147656031002 1 0.27902626839106198 1 0.293317703644842 1 0.30856674714404903 1 0.33158137816571298 1 0.35999254127515501 1 0.391886959739431 1 0.41862021611713601 1 0.44113551997700701 1 0.46134374124274702 1 0.48108191484511398 1 0.49999425311043599 1 0.50080997592765397 1 0.52049037446311996 1 0.54005439132674204 1 0.55969980817507603 1 0.58164798647883098 1 0.60755433041938101 1 0.63268706017251597 1 0.65484664002763204 1 0.67156415006775905 1 0.68737210174756003 1 0.70144276171075104 1 0.71468429689747204 1 0.72628440329780197 1 0.73704101516076403 1 0.74775620596871595 1 0.74999487273727194 1 0.75924456444246302 1 0.77252311520664696 1 0.78682433840116905 1 0.80316260661511196 1 0.82051591979787997 1 0.84338745699041395 1 0.87100271411513797 1 0.90152985367998395 1 0.92580249170762596 1 0.94359089029258802 1 0.95897627471875402 1 0.97238618426313295 1 0.98380247148375999 1 0.99159921413637298 1 1 3
7 0 1  3 51 50  -9.6500000000000004 2.4972551804225399e-11 -2.0000000000007998  -9.6500003140656805 -0.030827418815360799 -1.9999998418927001  -9.6538490461214206 -0.093133406502753396 -1.9985519602145601  -9.6712689584781106 -0.18557020270914201 -1.9920838697185601  -9.7013884687067993 -0.27885714384369498 -1.9812062732572699  -9.7476979729373294 -0.37592898107480899 -1.9652201570146499  -9.8186954659643604 -0.48049637435936698 -1.9424763320121401  -9.9153880402409307 -0.57849018605993496 -1.9153171723654301  -10.0271448920825 -0.65489658207248402 -1.89010796262355  -10.128340676960899 -0.70136462054955295 -1.8730996255707799  -10.214144479796101 -0.72795285737587601 -1.86285171903499  -10.2857745050497 -0.74235396219393701 -1.8571345092603  -10.347471550033401 -0.74886016433256997 -1.8545110469113399  -10.390097232365299 -0.75016532484044796 -1.8539827429772899  -10.4308499325694 -0.74972514050440697 -1.85416077154293  -10.4768299746751 -0.74688365010301205 -1.8553107445792101  -10.5394256893145 -0.73787443076080605 -1.85892253232507  -10.604891093755599 -0.72259934706877005 -1.8649356634842  -10.6834451966877 -0.69635819829688606 -1.8749605732839101  -10.7780942274018 -0.651481376497416 -1.8912601850792501  -10.8854275106209 -0.57750095998959206 -1.91557439211549  -10.981080769764 -0.48077655720014001 -1.9424030973594699  -11.0525431040844 -0.37572502655535001 -1.9652926336712599  -11.0993860262724 -0.277055357003546 -1.98147882948706  -11.1293738719591 -0.183054539363739 -1.99232034956106  -11.1463170612124 -0.091279753893273904 -1.99861475876984  -11.150077586737 -0.0286964879573351 -2.00002909568888  -11.1499159283902 0.033794997872380703 -1.99996848005907  -11.1456144239501 0.097295410229276 -1.9983506108957401  -11.127797614986401 0.18892906097980799 -1.9917422914195899  -11.097793590335501 0.28072310429079 -1.98091968087668  -11.051558049972099 0.377234709569162 -1.96497229416344  -10.9801004725262 0.48206826465775199 -1.9421018116570801  -10.882291010305099 0.58050795143599698 -1.9147093265802799  -10.7696174990733 0.65675741150954503 -1.8894575206294699  -10.6630450387675 0.70500983005213402 -1.8717470601580499  -10.5613843147324 0.73473898339923105 -1.86019890973283  -10.4751395665792 0.747805018660744 -1.8549379346086901  -10.406554422888 0.75052733068420396 -1.8538362680278699  -10.3463618975853 0.74892767062516596 -1.8544833827223499  -10.2825223738449 0.74205053674090304 -1.8572605106494  -10.2069839984468 0.72603757775435196 -1.86360004544655  -10.122518337365801 0.69906882717652397 -1.87396241784703  -10.022397273011 0.65209230965026099 -1.8910808610894201  -9.9124066334008507 0.57581567161689795 -1.9161111927152901  -9.8164111665250395 0.47773623188969599 -1.94316223278914  -9.7454607604671892 0.37224558849522499 -1.96596076058642  -9.6992448253581003 0.27352719204925702 -1.98196609485215  -9.6700599881612099 0.18048006567271399 -1.9925303562538701  -9.6535949334872999 0.090005883215966601 -1.9986477887254599  -9.64999969634213 0.029805830035253899 -2.0000001528693501 
 0 3 0.019442146122686001 1 0.039289234334044097 1 0.059329530096838598 1 0.081508748050932403 1 0.107692735675905 1 0.14005792101791101 1 0.16958123843711301 1 0.19418915112803001 1 0.21087903659024401 1 0.22652309789238101 1 0.24034574329809799 1 0.24999628729457901 1 0.25340226573232399 1 0.26604389480706397 1 0.279028804662803 1 0.29332036982576398 1 0.30856955193735203 1 0.33158439215188001 1 0.35999581351228299 1 0.39189052188856799 1 0.41862402126453802 1 0.441139529782408 1 0.46134793473568902 1 0.481086287752576 1 0.49999879792875301 1 0.50081452816062899 1 0.520495105563056 1 0.54005930043577999 1 0.55970489616462404 1 0.58165321416915705 1 0.60812842509791998 1 0.640737824485478 1 0.67042675537592999 1 0.69503850372991305 1 0.71512568949551103 1 0.73748439219675699 1 0.74999648604256597 1 0.75837514775735804 1 0.77544274536909996 1 0.79046336714581 1 0.80718229808195796 1 0.83166742124728599 1 0.86082175947008099 1 0.89272709576064802 1 0.91947591764515801 1 0.94200224316034997 1 0.96202785885666997 1 0.98120214652516902 1 1 3
7 0 0  1 2 2  -9.6500000000000004 2.4972523491859375e-11 -2.0000000000007998  -9.6500000000000004 2.4972523491859375e-11 2.0000000000006803 
 0.9999999999992002 2 5.0000000000006803 2
2 -16.475000000000001 0 0 -1 0 0 -0 -1 -6.1232339957367697e-17 0 -6.1232339957367697e-17 1 1.7
7 1 0  6 7 2  -16.675000000000001 -1.5 -4.592425496802574e-16  1.0313934717875073 -16.621532643369417 -1.4999999999999998 -4.592425496802574e-16  1.0100254076614366 -16.569458285483563 -1.517000870126739 -4.6444756497611509e-16  0.99792464272497539 -16.524616097359544 -1.5496160973595419 -4.7443309838464404e-16  0.99395844413692447 -16.492000870126738 -1.5944582854835612 -4.8816205892285496e-16  0.99792464272497583 -16.475000000000001 -1.6465326433694163 -5.0410523284849645e-16  1.0100254076614348 -16.475000000000001 -1.7 -5.2047488963762507e-16  1.0313934717875073
 3.1415926535897931 7 4.7123889803846897 7
2 -16.675000000000001 0 0 -1 0 0 -0 -1 -6.1232339957367599e-17 0 -6.1232339957367599e-17 1 1.5
7 0 0  1 2 2  -16.675000000000001 -1.5 -9.1848509936051398e-17  -19.274999999999999 -1.5 -9.1848509936051398e-17 
 0.19999999999999929 2 2.7999999999999972 2
2 -19.274999999999999 0 0 -1 0 0 -0 -1 -6.1232339957367599e-17 0 -6.1232339957367599e-17 1 1.5
7 0 0  1 2 2  -19.475000000000001 -1.2999999999999992 3.9801020972288943e-16  -19.274999999999999 -1.5000000000000009 4.5924254968025759e-16 
 -0.14142135623731042 2 0.14142135623731059 2
2 -19.475000000000001 0 0 -1 0 0 -0 -1 -6.1232339957367697e-17 0 -6.1232339957367697e-17 1 1.3
Polygon3D 0
PolygonOnTriangulations 0
Surfaces 22
1 5 21.4750000000002 -0.050000000000768499 3.2684832529175399e-17 -1 -7.41205588291754e-17 -0.79176607673144805 -7.1153389442451627e-17 0.61082442627754396 -0.61082442627754396 3.8721449991707526e-17 -0.79176607673144805 
2 5 18.774999999999999 -0.050000000000768499 0 1 0 0 -0 1 1 0 -0 3.1499999999999999
10 0 6.2831853071795862 3 17.16
2 17.16 0 0 -1 0 0 -0 -1 -6.1232339957367697e-17 0 -6.1232339957367697e-17 1 2
1 0 0 0 -1 0 0 0 0 -1 -0 -1 -0 
1 14.16 0 0 1 0 0 -0 1 6.1232339957367697e-17 0 -6.1232339957367697e-17 1 
10 0 6.2831853071795862 0.78539816339744828 7.0685834705770345
5 14.359999999999999 0 0 1 0 0 -0 1 6.1232339957367599e-17 0 -6.1232339957367599e-17 1 1.7 0.20000000000000001
10 0 6.2831853071795862 0.19999999999999929 2.8000000000000007
2 14.16 0 0 1 0 0 -0 1 6.1232339957367599e-17 0 -6.1232339957367599e-17 1 1.5
10 3.1415926535897931 9.4247779607693793 -0.14142135623731042 0.14142135623730803
3 17.059999999999999 0 0 -1 0 0 -0 -1 -1.18090941346352e-16 0 -1.18090941346352e-16 1 1.3999999999999999
0.78539816339745006
1 17.16 0 0 -1 0 0 -0 -1 -6.1232339957367697e-17 0 -6.1232339957367697e-17 1 
1 5 18.775000000000201 -0.0500000000007687 3.2684832529175399e-17 -1 -7.41205588291754e-17 -0.79176607673144805 -7.1153389442451627e-17 0.61082442627754396 -0.61082442627754396 3.8721449991707526e-17 -0.79176607673144805 
10 0 6.2831853071795862 19.859999999999999 23.810000000000002
2 17.16 0 0 -1 0 0 -0 -1 -6.1232339957367697e-17 0 -6.1232339957367697e-17 1 2
1 -2.7000000000000002 0 0 -1 0 0 0 0 -1 -0 -1 -0 
1 -6.6500000000000004 0 -1.8369701987210299e-16 1 0 -1.22464679914735e-16 1.22464679914735e-16 0 1 0 -1 0 
10 0 6.2831853071795862 0 1.5
2 -8.1500000000000004 0 0 1 0 -1.22464679914735e-16 1.22464679914735e-16 0 1 0 -1 0 4
1 -8.1500000000000004 0 0 1 0 -1.22464679914735e-16 1.22464679914735e-16 0 1 0 -1 0 
10 0 6.2831853071795862 25.310000000000002 33.635000000000005
2 17.16 0 0 -1 0 0 -0 -1 -6.1232339957367697e-17 0 -6.1232339957367697e-17 1 2
1 -16.475000000000001 0 0 -1 0 0 -0 -1 -6.1232339957367697e-17 0 -6.1232339957367697e-17 1 
10 3.3296032597718295e-11 6.2831853072128823 0.99995164353818256 5.0000323703631704
2 -10.4 6.8274059052464902e-16 -3 0 0 1 1 0 -0 -0 1 0 0.75
10 0 6.2831853071795862 0.78539816339744828 7.0685834705770345
5 -16.675000000000001 0 0 -1 0 0 -0 -1 -6.1232339957367599e-17 0 -6.1232339957367599e-17 1 1.7 0.20000000000000001
10 0 6.2831853071795862 0.19999999999999929 2.7999999999999972
2 -16.475000000000001 0 0 -1 0 0 -0 -1 -6.1232339957367599e-17 0 -6.1232339957367599e-17 1 1.5
10 3.1415926535897931 9.4247779607693793 -0.14142135623731042 0.14142135623731059
3 -19.375 0 0 1 0 0 -0 1 6.1232339957367697e-17 0 -6.1232339957367697e-17 1 1.3999999999999999
0.78539816339745006
1 -19.475000000000001 0 0 -1 0 0 -0 -1 -6.1232339957367697e-17 0 -6.1232339957367697e-17 1 
Triangulations 0

TShapes 102
Ve
1.00000099476974e-07
5 21.4750000000001 3.09999999999923
0 0

0101101
*
Ed
 1e-07 1 1 0
1  1 0 0 6.28318530717959
2  1 1 0 0 6.28318530717959
2  2 2 0 0 6.28318530717959
4 C0 1 0 2 0
0

0101000
+102 0 -102 0 *
Wi

0101100
+101 0 *
Ve
1e-05
0 -2 -3.67394039744206e-16
0 0

0101101
*
Ed
 1e-07 1 1 0
1  2 0 0 6.28318530717959
2  3 3 0 0 6.28318530717959
4 C0 4 0 3 0
0

0101000
-99 0 +99 0 *
Wi

0101100
-98 1 *
Fa
0  1e-07 1 0

0111000
-100 0 +97 0 *
Ve
1e-05
14.16 -2 -3.67394039744206e-16
0 0

0101101
*
Ed
 1e-07 1 1 0
1  3 0 0 6.28318530717959
2  4 3 0 0 6.28318530717959
4 C0 3 0 5 0
0

0101000
+95 0 -95 0 *
Ed
 1e-05 1 1 0
1  4 0 3 17.16
3  5 6CN 3 0 3 17.16
0

0101000
+95 0 -99 0 *
Wi

0101100
+94 0 +93 0 -98 0 -93 0 *
Fa
0  1e-07 3 0

0111000
+92 0 *
Wi

0101100
-94 0 *
Ve
1e-05
14.16 1.7 -1.04094977927525e-16
0 0

0101101
*
Ed
 1e-07 1 1 0
1  5 0 0 6.28318530717959
2  7 6 0 0 6.28318530717959
4 G1 5 0 6 0
0

0101000
-89 0 +89 0 *
Wi

0101100
-88 0 *
Fa
0  1e-07 5 0

0111000
+90 0 +87 0 *
Ve
1e-05
14.36 1.5 -9.18485099360515e-17
0 0

0101101
*
Ed
 1e-07 1 1 0
1  6 0 0 6.28318530717959
2  8 6 0 0 6.28318530717959
2  9 7 0 0 6.28318530717959
4 G1 6 0 7 0
0

0101000
+85 0 -85 0 *
Ed
 1e-05 1 1 0
1  7 0 3.14159265358979 4.71238898038469
3  10 11CN 6 0 3.14159265358979 4.71238898038469
0

0101000
+85 0 -89 0 *
Wi

0101100
+84 0 +83 0 -88 0 -83 0 *
Fa
0  1e-07 6 0

0111000
+82 0 *
Ve
1e-05
16.96 1.5 -4.92045588943133e-17
0 0

0101101
*
Ed
 1e-07 1 1 0
1  8 0 0 6.28318530717959
2  12 7 0 0 6.28318530717959
2  13 8 0 0 6.28318530717959
4 C0 7 0 8 0
0

0101000
+80 0 -80 0 *
Ed
 1e-05 1 1 0
1  9 0 0.199999999999999 2.8
3  14 15CN 7 0 0.199999999999999 2.8
0

0101000
-80 0 +85 0 *
Wi

0101100
-79 0 -78 0 +84 0 +78 0 *
Fa
0  1e-07 7 0

0111000
+77 0 *
Ve
1e-05
17.16 1.3 2.27434405555937e-17
0 0

0101101
*
Ed
 1e-07 1 1 0
1  10 0 0 6.28318530717959
2  16 8 0 0 6.28318530717959
4 C0 8 0 9 0
0

0101000
-75 0 +75 0 *
Ed
 1e-05 1 1 0
1  11 0 -0.14142135623731 0.141421356237308
3  17 18CN 8 0 -0.14142135623731 0.141421356237308
0

0101000
+75 0 -80 0 *
Wi

0101100
-74 0 +73 0 +79 0 -73 0 *
Fa
0  1e-07 8 0

0111000
+72 0 *
Wi

0101100
+74 0 *
Fa
0  1e-07 9 0

0111000
-70 0 *
Ve
1.00000101253314e-07
5 18.7750000000001 3.09999999999923
0 0

0101101
*
Ed
 1e-07 1 1 0
1  12 0 0 2.7
3  19 20CN 2 0 0 2.7
0

0101000
-102 0 +68 0 *
Ed
 1e-07 1 1 0
1  13 0 0 6.28318530717959
2  21 10 0 0 6.28318530717959
2  22 2 0 0 6.28318530717959
4 C0 2 0 10 0
0

0101000
+68 0 -68 0 *
Wi

0101100
-101 0 +67 0 +66 0 -67 0 *
Fa
0  1e-07 2 0

0101000
+65 0 *
Wi

0101100
+66 0 *
Ve
1e-05
-2.7 -2 -3.67394039744206e-16
0 0

0101101
*
Ed
 1e-07 1 1 0
1  14 0 0 6.28318530717959
2  23 11 0 0 6.28318530717959
4 C0 11 0 12 0
0

0101000
+62 0 -62 0 *
Wi

0101100
-61 0 *
Fa
0  1e-07 10 0

0111000
-63 0 +60 1 *
Ve
1e-05
-6.65 -2 -3.67394039744206e-16
0 0

0101101
*
Ed
 1e-05 1 1 0
1  15 0 19.86 23.81
3  24 25CN 11 0 19.86 23.81
0

0101000
+62 0 -58 0 *
Ed
 1e-07 1 1 0
1  16 0 0 6.28318530717959
2  26 11 0 0 6.28318530717959
4 C0 13 0 11 0
0

0101000
-58 0 +58 0 *
Wi

0101100
+61 0 +57 0 -56 0 -57 0 *
Fa
0  1e-07 11 0

0111000
+55 0 *
Ve
1e-05
-6.65 4.89858719658941e-16 4
0 0

0101101
*
Ed
 1e-07 1 1 0
1  17 0 0 6.28318530717959
2  27 14 0 0 6.28318530717959
4 C0 14 0 13 0
0

0101000
-53 0 +53 0 *
Wi

0101100
+52 0 *
Wi

0101100
+56 0 *
Fa
0  1e-07 13 0

0111000
+51 0 +50 0 *
Ve
1e-05
-8.15 4.89858719658941e-16 4
0 0

0101101
*
Ed
 1e-05 1 1 0
1  18 0 0 1.5
3  28 29CN 14 0 0 1.5
0

0101000
-53 0 +48 0 *
Ed
 1e-07 1 1 0
1  19 0 0 6.28318530717959
2  30 14 0 0 6.28318530717959
4 C0 15 0 14 0
0

0101000
+48 0 -48 0 *
Wi

0101100
-52 0 -47 0 +46 0 +47 0 *
Fa
0  1e-07 14 0

0111000
+45 0 *
Wi

0101100
-46 0 *
Ve
1e-05
-8.14999999999999 -2 -3.67394039744206e-16
0 0

0101101
*
Ed
 1e-07 1 1 0
1  20 0 0 6.28318530717959
2  31 16 0 0 6.28318530717959
4 C0 16 0 15 0
0

0101000
+42 0 -42 0 *
Wi

0101100
-41 0 *
Fa
0  1e-07 15 0

0111000
-43 0 -40 0 *
Ve
1e-05
-16.475 -2 -3.67394039744206e-16
0 0

0101101
*
Ed
 1e-05 1 1 0
1  21 0 25.31 33.635
3  32 33CN 16 0 25.31 33.635
0

0101000
+42 0 -38 0 *
Ed
 1e-07 1 1 0
1  22 0 0 6.28318530717959
2  34 16 0 0 6.28318530717959
4 C0 16 0 17 0
0

0101000
-38 0 +38 0 *
Wi

0101100
+41 0 +37 0 -36 0 -37 0 *
Ve
1e-05
-9.65 4.60314670399263e-16 2.000000000001
0 0

0101101
*
Ed
 1.4926826168338e-06 1 1 0
1  23 0 0 1
2  35 16 0 0 1
2  36 18 0 0 1
4 C0 16 0 18 0
0

0101000
-34 0 +34 0 *
Wi

0101100
-33 0 *
Ve
1e-05
-9.65 5.57214293612046e-16 -2.00000000000106
0 0

0101101
*
Ed
 1.80751557133332e-06 1 1 0
1  24 0 0 1
2  37 16 0 0 1
2  38 18 0 0 1
4 C0 16 0 18 0
0

0101000
-31 0 +31 0 *
Wi

0101100
-30 0 *
Fa
0  1e-07 16 0

0111000
+35 0 +32 0 +29 0 *
Ed
 1e-05 1 1 0
1  25 0 0.9999999999992 5.00000000000068
3  39 40CN 18 0 0.9999999999992 5.00000000000068
0

0101000
-34 0 +31 0 *
Wi

0101100
-33 0 -27 0 -30 0 +27 0 *
Fa
0  1e-07 18 0

0111000
+26 0 *
Wi

0101100
+36 0 *
Ve
1e-05
-16.475 -1.7 -3.12284933782575e-16
0 0

0101101
*
Ed
 1e-07 1 1 0
1  26 0 0 6.28318530717959
2  41 19 0 0 6.28318530717959
4 G1 17 0 19 0
0

0101000
-23 0 +23 0 *
Wi

0101100
-22 0 *
Fa
0  1e-07 17 0

0111000
+24 0 +21 0 *
Ve
1e-05
-16.675 -1.5 -2.75545529808154e-16
0 0

0101101
*
Ed
 1e-05 1 1 0
1  27 0 3.14159265358979 4.71238898038469
3  42 43CN 19 0 3.14159265358979 4.71238898038469
0

0101000
-23 0 +19 0 *
Ed
 1e-07 1 1 0
1  28 0 0 6.28318530717959
2  44 19 0 0 6.28318530717959
2  45 20 0 0 6.28318530717959
4 G1 19 0 20 0
0

0101000
+19 0 -19 0 *
Wi

0101100
-22 0 -18 0 +17 0 +18 0 *
Fa
0  1e-07 19 0

0111000
+16 0 *
Ve
1e-05
-19.275 -1.5 -2.75545529808154e-16
0 0

0101101
*
Ed
 1e-05 1 1 0
1  29 0 0.199999999999999 2.8
3  46 47CN 20 0 0.199999999999999 2.8
0

0101000
+19 0 -14 0 *
Ed
 1e-07 1 1 0
1  30 0 0 6.28318530717959
2  48 20 0 0 6.28318530717959
2  49 21 0 0 6.28318530717959
4 C0 20 0 21 0
0

0101000
+14 0 -14 0 *
Wi

0101100
+17 0 +13 0 -12 0 -13 0 *
Fa
0  1e-07 20 0

0111000
+11 0 *
Ve
1e-05
-19.475 -1.3 -2.38806125833734e-16
0 0

0101101
*
Ed
 1e-05 1 1 0
1  31 0 -0.14142135623731 0.141421356237311
3  50 51CN 21 0 -0.14142135623731 0.141421356237311
0

0101000
-14 0 +9 0 *
Ed
 1e-07 1 1 0
1  32 0 0 6.28318530717959
2  52 21 0 0 6.28318530717959
4 C0 21 0 22 0
0

0101000
-9 0 +9 0 *
Wi

0101100
+12 0 -8 0 -7 0 +8 0 *
Fa
0  1e-07 21 0

0111000
+6 0 *
Wi

0101100
+7 0 *
Fa
0  1e-07 22 0

0111000
+4 0 *
Sh

0101100
-96 0 +91 1 +86 1 -81 1 +76 1 +71 1 -69 1 +64 0 +59 0 +54 1 
+49 1 +44 1 -39 1 +28 1 -25 1 +20 1 -15 1 +10 1 +5 1 +3 1 
*
So

1100000
+2 0 *

+1 0 