DBRep_DrawableShape

CASCADE Topology V3, (c) Open Cascade
Locations 3
1
              1               0               0               0 
              0               1               0               0 
              0               0               1               0 
1
6.12323399573677e-17 -6.12323399573677e-17               1 -15.3300051584094 
              1 3.74939945665465e-33 -6.12323399573677e-17 46.0000000000007 
              0               1 6.12323399573677e-17   3.06733711406 
2  1 1 2 1 0
Curve2ds 54
2 0 0 -6.1232339957367697e-17 -1 -1 6.1232339957367697e-17 23
1 0 4 1 0 
1 0 4.0000000000000036 1 0 
1 6.2831853071795862 0 -1 0 
1 6.2831853071795862 4.0000000000000027 -1 0 
1 0 0 1 0 
1 6.2831853071795862 0 -1 0 
1 6.2831853071795862 4.0000000000000018 -1 0 
1 0 4.0000000000000036 1 0 
1 6.2831853071795862 0 0 1 
1 0 0 0 1 
1 0 2.6342285794399853e-15 1 0 
2 0 0 -6.1232339957367697e-17 -1 -1 6.1232339957367697e-17 23
1 0 0 1 0 
1 0 4.4711987781610145e-15 1 0 
1 6.2831853071795862 1.7763568394002457e-15 -1 1.255511124778712e-31 
1 6.2831853071795862 3.9999999999999996 -1 0 
1 0 1.7763568394002501e-15 1 0 
1 6.2831853071795862 1.7763568394002459e-15 -1 -6.2775556238935602e-32 
1 6.2831853071795862 4 -1 0 
1 3.14159265358979 1.2500000000000022 0 -1 
1 6.2831853071795862 1.2500000000000022 0 -1 
1 -3.1415817466314375 1.2500000000000022 1 0 
1 0 -2.2204460492503131e-16 1 0 
1 0 1.5 1 0 
1 6.2831853071795862 0 0 1 
1 0 0 0 1 
1 -3.1415817466314375 2.7500000000000022 1 0 
1 5.6035114882713426 1.7749370367472766e-30 0 1 
1 0 9.5 1 0 
1 0 13.500000000000002 1 0 
1 0 -1.5777218104420236e-30 0 1 
1 6.2831853071795862 3.9999999999999987 0 -1 
1 3.1415926535897927 4.0000000000000009 0 -1 
1 -3.1415867363975369 2.75 1 0 
1 0 0 1 0 
1 0 1.5 1 0 
1 6.2831853071795862 0 0 1 
1 0 0 0 1 
1 -3.1415867363975369 1.25 1 0 
1 6.2831853071795862 4.0000000000000018 0 -1 
1 3.14159265358979 4.0000000000000018 0 -1 
1 3.1415926535897927 3.9999999999999991 0 -1 
1 6.2831853071795862 4 0 -1 
1 6.2831853071795862 0 0 1 
1 0 0 0 1 
1 3.1415926535897896 4.0000000000000027 1.1102230246251568e-16 -1 
1 6.2831853071795862 4.0000000000000027 0 -1 
1 3.1415926535897927 1.25 0 -1 
1 6.2831853071795862 1.25 0 -1 
1 6.2831853071795862 0 0 1 
1 0 0 0 1 
1 6.2831853071795862 -0 0 1 
1 0 -0 0 1 
Curves 78
2 -15.330005158409399 50.000000000000703 3.0673371140599999 0 1 0 0 -0 1 1 0 -0 23
2 4 -2.9873977503088801e-15 15 1 0 -6.1232339957367697e-17 0 1 0 6.1232339957367697e-17 -0 1 0.78349364899999996
1 4 -9 6.9999999999999902 -3.1720657846432999e-17 2.5376526277146399e-16 -1 
2 4 -12 7 1 0 -6.1232339957367697e-17 -3.6256828625250503e-32 1 -5.9211894646675101e-16 6.1232339957367697e-17 5.9211894646675101e-16 1 3
1 4 -15 -7.0000000000000098 3.1720657846432999e-17 -2.5376526277146399e-16 1 
2 4 -12 -7.0000000000000098 -1 0 6.1232339957367697e-17 -3.6256828625250503e-32 1 -5.9211894646675101e-16 -6.1232339957367697e-17 -5.9211894646675101e-16 -1 3
2 4 0 -2.4492935982947099e-16 1 0 -6.1232339957367697e-17 -6.1232339957367697e-17 -1.22464679914735e-16 -1 -7.498798913309273e-33 1 -1.22464679914735e-16 7.5
1 4 15 7 -3.1720657846432999e-17 -3.80647894157197e-16 -1 
2 4 12 7 1 0 -6.1232339957367697e-17 1.8128414312625221e-32 1 2.9605947323337501e-16 6.1232339957367697e-17 -2.9605947323337501e-16 1 3
1 4 9 -7 3.1720657846432999e-17 2.5376526277146399e-16 1 
2 4 12 -7.0000000000000098 -1 0 6.1232339957367697e-17 1.8128414312625221e-32 1 2.9605947323337501e-16 -6.1232339957367697e-17 2.9605947323337501e-16 -1 3
2 4 -1.83697019872103e-15 -15 1 0 -6.1232339957367697e-17 0 1 0 6.1232339957367697e-17 -0 1 0.78349364899999996
7 0 0  1 2 2  -9.1848509936051479e-16 0.78349364899999807 -15  4 0.78349364899999807 -15 
 2.6342285794399853e-15 2 4.0000000000000036 2
2 -9.1848509936051499e-16 -1.83697019872103e-15 -15 1 0 -6.1232339957367697e-17 0 1 0 6.1232339957367697e-17 -0 1 0.78349364899999996
2 -15.330005158409399 46.000000000000703 3.0673371140599999 0 1 0 0 -0 1 1 0 -0 23
2 9.1848509936051499e-16 -2.9873977503088801e-15 15 1 0 -6.1232339957367697e-17 0 1 0 6.1232339957367697e-17 -0 1 0.78349364899999996
2 -4.28626379701574e-16 -12 -7.0000000000000098 -1 0 6.1232339957367697e-17 1.8128414312625221e-32 1 2.9605947323337501e-16 -6.1232339957367697e-17 2.9605947323337501e-16 -1 3
1 4.2862637970157302e-16 -9 6.9999999999999902 -6.1232339957367599e-17 2.5376526277146399e-16 -1 
2 4.2862637970157302e-16 -12 7 1 0 -6.1232339957367697e-17 -1.8128414312625221e-32 1 -2.9605947323337501e-16 6.1232339957367697e-17 2.9605947323337501e-16 1 3
1 -4.28626379701574e-16 -15 -7.0000000000000098 6.1232339957367697e-17 -1.26882631385732e-16 1 
1 9.1848509936051398e-17 5.7000000000000002 1.5 -6.1232339957367599e-17 5.9211894646675101e-16 -1 
1 9.1848509936051398e-17 4.2426406871192901 1.5 -8.4577300430557701e-33 1 -4.5708275844367399e-16 
2 -6.22296477525837e-49 0 -1.0162872723124801e-32 1 3.0814879110195801e-33 -6.1232339957367697e-17 2.0410779985789219e-17 0.94280904158206347 0.33333333333333315 5.7730403749032923e-17 -0.33333333333333315 0.94280904158206347 4.5
1 -9.1848509936051497e-17 5.7000000000000002 -1.5 -5.0746380258334599e-32 -1 -1.3712482753310199e-15 
2 -4.28626379701574e-16 12 -7.0000000000000098 -1 0 6.1232339957367697e-17 1.8128414312625221e-32 1 2.9605947323337501e-16 -6.1232339957367697e-17 2.9605947323337501e-16 -1 3
1 4.2862637970157302e-16 15 7 -6.1232339957367697e-17 -2.5376526277146399e-16 -1 
2 4.2862637970157302e-16 12 7 1 0 -6.1232339957367697e-17 1.8128414312625221e-32 1 2.9605947323337501e-16 6.1232339957367697e-17 -2.9605947323337501e-16 1 3
1 -4.28626379701574e-16 9 -7 6.1232339957367697e-17 2.5376526277146399e-16 1 
1 1.25 9 -7 -1 0 0 
1 1.25 15 -7.0000000000000098 -1 0 0 
2 1.25 12 -7.0000000000000098 1 0 6.1232339957367697e-17 6.6785858193966487e-22 -0.99999999994051914 -1.0906958355742302e-05 6.1232339953725539e-17 1.0906958355742302e-05 -0.99999999994051914 3
1 1.25 9 -7 -2.2204460492503101e-16 0 1 
1 1.25 15 -6 0 -1 0 
1 1.25 15 -6 0 0 -1 
2 1.25 12 -8.5 1 0 6.1232339957367697e-17 6.1232339957367697e-17 0 -1 -0 1 0 1
2 2.75 12 -8.5 1 0 6.1232339957367697e-17 6.1232339957367697e-17 0 -1 -0 1 0 1
7 0 0  1 2 2  1.2499999999999998 12 -9.5  2.75 12 -9.5 
 -2.2204460492503131e-16 2 1.5 2
1 2.75 9 -7 0 0 1 
2 2.75 12 -7.0000000000000098 1 0 6.1232339957367697e-17 6.6785858193966487e-22 -0.99999999994051914 -1.0906958355742302e-05 6.1232339953725539e-17 1.0906958355742302e-05 -0.99999999994051914 3
1 2.75 15 -6 0 0 -1 
1 2.75 15 -6 0 -1 0 
1 2.75 9 -6 -1 0 0 
1 1.25 15 -6 1 0 0 
1 13.5 4.2426406871192901 -1.5 0 1 1.3712482753310199e-15 
1 -1.8682053493362999e-15 5.7000000000000002 -1.5 1 0 -6.57909940518611e-17 
1 -1.8682053493362999e-15 4.2426406871192901 -1.5 1 0 -6.57909940518611e-17 
2 13.5 0 -8.2663658942446304e-16 1 0 -6.1232339957367697e-17 -6.1232339957367697e-17 -1.22464679914735e-16 -1 -7.498798913309273e-33 1 -1.22464679914735e-16 7.5
1 13.5 5.7000000000000002 -1.5 0 -5.9211894646675101e-16 1 
2 13.5 0 -8.2663658942446304e-16 1 0 -6.1232339957367697e-17 2.0410779985789222e-17 0.94280904158206347 0.33333333333333315 5.7730403749032923e-17 -0.33333333333333315 0.94280904158206347 4.5
1 13.5 5.7000000000000002 1.5 0 -1 6.0944367792489905e-16 
1 -1.6845083294642001e-15 4.2426406871192901 1.5 1 0 -6.57909940518611e-17 
1 -1.6845083294642001e-15 5.7000000000000002 1.5 1 0 -6.57909940518611e-17 
1 1.10249160955091e-15 -9 6.9999999999999902 1 0 0 
1 -6.7386522984933902e-16 -15 7 1 0 0 
2 1.25 -12 7 -1 0 -6.1232339957367697e-17 -3.6232352787774179e-22 -0.99999999998249345 5.9171922570655528e-06 -6.1232339956295734e-17 5.9171922570655528e-06 0.99999999998249345 3
1 1.25 -15 5.9999999999999902 0 0 1 
1 1.25 -9 6.9999999999999902 2.2204460492503101e-16 0 -1 
1 1.25 -15 5.9999999999999902 0 1 2.9605947323337501e-16 
2 1.25 -12 8.5 1 0 6.1232339957367697e-17 6.1232339957367697e-17 0 -1 -0 1 0 1
2 2.75 -12 8.5 1 0 6.1232339957367697e-17 6.1232339957367697e-17 0 -1 -0 1 0 1
7 0 0  1 2 2  1.25 -12 7.5  2.75 -12 7.5 
 0 2 1.5 2
1 2.75 -15 5.9999999999999902 0 0 1 
1 2.75 -15 5.9999999999999902 0 1 2.9605947323337501e-16 
1 2.75 -9 6.9999999999999902 0 0 -1 
2 2.75 -12 7 -1 0 -6.1232339957367697e-17 -3.6232352787774179e-22 -0.99999999998249345 5.9171922570655528e-06 -6.1232339956295734e-17 5.9171922570655528e-06 0.99999999998249345 3
1 1.25 -15 5.9999999999999902 1 0 0 
1 2.75 -9 6 -1 0 0 
1 4 15 -7.0000000000000098 -1 0 0 
1 4 9 -7 -1 0 0 
1 1.3245362144759401e-15 9 7 1 0 -2.22044604925032e-16 
1 2.14313189850787e-16 15 7 1 0 -2.2204460492503101e-16 
7 0 0  1 2 2  3.9999999999999996 -2.7554552980815424e-15 -7.5  13.5 -2.7554552980815424e-15 -7.5000000000000009 
 0 2 9.5 2
1 4 -15 -7 -1 0 -2.2204460492503101e-16 
1 4 -9 -7.0000000000000098 -1 0 2.2204460492503101e-16 
1 2.75 -15 7 1 0 0 
1 2.75 -9 6.9999999999999902 1 0 0 
7 0 0  1 2 2  9.184850993605144e-16 0.78349364899999696 15  4 0.78349364899999696 15 
 4.4711987781610145e-15 2 4.0000000000000036 2
1 -15.330005158409406 46 26.067337114059999 0 1 0 
Polygon3D 0
PolygonOnTriangulations 0
Surfaces 31
1 -15.330005158409399 50.000000000000703 3.0673371140599999 0 -1 3.7493994566546488e-33 -1 0 -6.1232339957367697e-17 6.1232339957367697e-17 -3.7493994566546488e-33 -1 
2 -15.330005158409399 46 3.0673371140599999 0 1 0 0 -0 1 1 0 -0 23
10 0 6.2831853071795862 4.4711987781610145e-15 4.0000000000000036
2 -3.5527136788005001e-15 -2.9873977503088801e-15 15 1 0 -6.1232339957367697e-17 0 1 0 6.1232339957367697e-17 -0 1 0.78349364899999996
1 4 0 -2.4492935982947099e-16 -1 0 6.1232339957367697e-17 -6.1232339957367697e-17 0 -1 -0 -1 0 
1 -2.3886802389739301e-15 -9 -10 1.3684555315672001e-48 1 1.7763568394002501e-16 6.1232339957367697e-17 -1.7763568394002501e-16 1 1 1.0877048587575132e-32 -6.1232339957367697e-17 
2 4 -12 7 -1 0 0 0 1 -5.9211894646675002e-16 -0 -5.9211894646675002e-16 -1 3
1 -1.16403343982657e-15 -15 9.9999999999999893 -1.3684555315672001e-48 -1 -1.7763568394002501e-16 -6.1232339957367697e-17 1.7763568394002501e-16 -1 1 1.0877048587575132e-32 -6.1232339957367697e-17 
2 -2.2049832191018199e-15 -12 -7.0000000000000098 1 0 -2.2204460492503101e-16 0 1 0 2.2204460492503101e-16 -0 1 3
10 0 6.2831853071795862 0 9.5
2 4 0 -2.4492935982947099e-16 1 0 -6.1232339957367599e-17 -6.1232339957367599e-17 -1.22464679914735e-16 -1 -7.4987989133092607e-33 1 -1.22464679914735e-16 7.5
1 -2.3886802389739301e-15 15 -10 -1.3684555315672001e-48 1 -1.7763568394002501e-16 6.1232339957367697e-17 1.7763568394002501e-16 1 1 -1.0877048587575132e-32 -6.1232339957367697e-17 
2 4 12 7 -1 0 2.2204460492503101e-16 -6.5738408768417548e-32 1 -2.9605947323337501e-16 -2.2204460492503101e-16 -2.9605947323337501e-16 -1 3
1 -1.16403343982657e-15 9 10 1.3684555315672001e-48 -1 1.7763568394002501e-16 -6.1232339957367697e-17 -1.7763568394002501e-16 -1 1 -1.0877048587575132e-32 -6.1232339957367697e-17 
2 -2.2049832191018199e-15 12 -7.0000000000000098 1 0 0 -0 1 0 0 -0 1 3
10 0 6.2831853071795862 2.6342285794399853e-15 4.0000000000000036
2 -3.5527136788005001e-15 -1.83697019872103e-15 -15 1 0 -6.1232339957367697e-17 0 1 0 6.1232339957367697e-17 -0 1 0.78349364899999996
1 0 0 0 -1 0 6.1232339957367697e-17 -6.1232339957367697e-17 0 -1 -0 -1 0 
1 -15.330005158409399 46.000000000000703 3.0673371140599999 0 -1 3.7493994566546488e-33 -1 0 -6.1232339957367697e-17 6.1232339957367697e-17 -3.7493994566546488e-33 -1 
2 4 -12 7 -1 0 0 0 1 -5.9211894646675002e-16 -0 -5.9211894646675002e-16 -1 3
1 -1.8682053493362999e-15 5.7000000000000002 -1.5 3.8956094084988301e-32 1 5.9211894646675101e-16 6.1232339957367599e-17 -5.9211894646675101e-16 1 1 -2.6992654597378581e-33 -6.1232339957367599e-17 
1 -1.6845083294642001e-15 5.7000000000000002 1.5 6.57909940518611e-17 4.5708275844367399e-16 1 0 -1 4.5708275844367399e-16 1 -3.0071929041976017e-32 -6.57909940518611e-17 
2 -1.7763568394002501e-15 0 9.8607613152626498e-32 1 0 -6.1232339957367697e-17 2.0410779985789222e-17 0.94280904158206347 0.33333333333333315 5.7730403749032923e-17 -0.33333333333333315 0.94280904158206347 4.5
1 -1.8682053493362999e-15 4.2426406871192901 -1.5 -6.57909940518611e-17 1.3712482753310199e-15 -1 0 1 1.3712482753310199e-15 1 9.0215787125927926e-32 -6.57909940518611e-17 
2 -2.2049832191018199e-15 12 -7.0000000000000098 1 0 0 -0 1 0 0 -0 1 3
1 1.25 0 -1.68388934882761e-16 1 0 6.1232339957367697e-17 6.1232339957367697e-17 0 -1 -0 1 0 
1 1.25 15 -6 0 0 1 0 -1 0 1 0 -0 
10 0 6.2831853071795862 -2.2204460492503131e-16 1.5
2 1.25 12 -8.5 1 0 6.1232339957367697e-17 6.1232339957367697e-17 0 -1 -0 1 0 1
1 2.75 0 -7.6540424946709603e-17 1 0 6.1232339957367697e-17 6.1232339957367697e-17 0 -1 -0 1 0 
1 13.5 0 -8.2663658942446304e-16 1 0 -6.1232339957367697e-17 -6.1232339957367697e-17 -1.22464679914735e-16 -1 -7.498798913309273e-33 1 -1.22464679914735e-16 
1 1.25 0 -1.68388934882761e-16 1 0 6.1232339957367697e-17 6.1232339957367697e-17 0 -1 -0 1 0 
1 1.25 -15 5.9999999999999902 0 2.9605947323337501e-16 -1 0 1 2.9605947323337501e-16 1 -0 0 
10 0 6.2831853071795862 0 1.5
2 1.25 -12 8.5 1 0 6.1232339957367697e-17 6.1232339957367697e-17 0 -1 -0 1 0 1
1 2.75 0 -7.6540424946709603e-17 1 0 6.1232339957367697e-17 6.1232339957367697e-17 0 -1 -0 1 0 
Triangulations 0

TShapes 205
Ve
1.00000351736597e-07
-15.3300051584094 50.0000000000004 26.06733711406
0 0

0101101
*
Ed
 1e-07 1 1 0
1  1 0 0 6.28318530717959
2  1 1 0 0 6.28318530717959
2  2 2 0 0 6.28318530717959
4 C0 1 0 2 0
0

0101000
+205 0 -205 0 *
Wi

0101100
+204 0 *
Ve
1e-05
4 0.783493648999997 15
0 0

0101101
*
Ed
 1e-07 1 1 0
1  2 0 0 6.28318530717959
2  3 3 0 0 6.28318530717959
4 C0 4 0 3 0
0

0101000
-202 0 +202 0 *
Wi

0101100
+201 3 *
Ve
1e-07
4 -9 6.99999999999999
0 0

0101101
*
Ve
1e-07
4 -9 -7.00000000000001
0 0

0101101
*
Ed
 1e-07 1 1 0
1  3 0 0 14
4 C0 4 0 5 0
0

0101000
+199 0 -198 0 *
Ve
1e-07
4 -15 7
0 0

0101101
*
Ed
 1e-07 1 1 0
1  4 0 0 3.14159265358979
2  4 6 0 0 3.14159265358979
4 C0 4 0 6 0
0

0101000
+199 0 -196 0 *
Ve
1e-07
4 -15 -7
0 0

0101101
*
Ed
 1e-07 1 1 0
1  5 0 9.76996261670138e-15 14
4 C0 4 0 7 0
0

0101000
+194 0 -196 0 *
Ed
 1e-07 1 1 0
1  6 0 0 3.14159265358979
2  5 8 0 0 3.14159265358979
4 C0 4 0 8 0
0

0101000
+198 0 -194 0 *
Wi

0101100
-197 3 +195 3 -193 3 -192 3 *
Ve
1e-05
4 -1.83697019872103e-15 -7.5
0 0

0101101
*
Ed
 1e-07 1 1 0
1  7 0 0 6.28318530717959
2  6 9 0 0 6.28318530717959
4 C0 4 0 9 0
0

0101000
+190 0 -190 0 *
Wi

0101100
+189 3 *
Ve
1e-07
4 15 6.99999999999999
0 0

0101101
*
Ve
1e-07
4 15 -7
0 0

0101101
*
Ed
 1e-07 1 1 0
1  8 0 9.76996261670138e-15 14
4 C0 4 0 10 0
0

0101000
+187 0 -186 0 *
Ve
1e-07
4 9 7
0 0

0101101
*
Ed
 1e-07 1 1 0
1  9 0 0 3.14159265358979
2  7 11 0 0 3.14159265358979
4 C0 4 0 11 0
0

0101000
+187 0 -184 0 *
Ve
1e-07
4 9 -7
0 0

0101101
*
Ed
 1e-07 1 1 0
1  10 0 0 14
4 C0 4 0 12 0
0

0101000
+182 0 -184 0 *
Ed
 1e-07 1 1 0
1  11 0 0 3.14159265358979
2  8 13 0 0 3.14159265358979
4 C0 4 0 13 0
0

0101000
+186 0 -182 0 *
Wi

0101100
-185 3 +183 3 -181 3 -180 3 *
Ve
1e-05
4 0.783493648999998 -15
0 0

0101101
*
Ed
 1e-07 1 1 0
1  12 0 0 6.28318530717959
2  9 14 0 0 6.28318530717959
4 C0 4 0 14 0
0

0101000
-178 0 +178 0 *
Wi

0101100
+177 3 *
Fa
0  1e-07 1 0

0111000
-203 0 +200 0 +191 0 +188 0 +179 0 +176 0 *
Ve
1e-05
-3.5527136788005e-15 0.783493648999998 -15
0 0

0101101
*
Ed
 1e-05 1 1 0
1  13 0 2.63422857943999e-15 4
3  10 11CN 14 0 2.63422857943999e-15 4
0

0101000
-178 0 +174 0 *
Ed
 1e-07 1 1 0
1  14 0 0 6.28318530717959
2  12 14 0 0 6.28318530717959
4 C0 15 0 14 0
0

0101000
+174 0 -174 0 *
Wi

0101100
-177 0 -173 0 +172 0 +173 0 *
Fa
0  1e-07 14 0

0111000
+171 0 *
Ve
1.00000351736597e-07
-15.3300051584094 46.0000000000004 26.06733711406
0 0

0101101
*
Ed
 1e-07 1 1 0
1  15 0 0 6.28318530717959
2  13 16 0 0 6.28318530717959
2  14 2 0 0 6.28318530717959
4 C0 16 0 2 0
0

0101000
+169 0 -169 0 *
Wi

0101100
+168 0 *
Ve
1e-05
-3.5527136788005e-15 0.783493648999997 15
0 0

0101101
*
Ed
 1e-07 1 1 0
1  16 0 0 6.28318530717959
2  15 3 0 0 6.28318530717959
4 C0 15 0 3 0
0

0101000
+166 0 -166 0 *
Wi

0101100
+165 0 *
Ve
1e-07
-1.61286427263507e-15 -9 -7.00000000000001
0 0

0101101
*
Ve
1e-07
1.34773045969868e-15 -15 -7
0 0

0101101
*
Ed
 1e-07 1 1 0
1  17 0 0 3.14159265358979
2  16 8 0 0 3.14159265358979
4 C0 15 0 8 0
0

0101000
+163 0 -162 0 *
Ve
1e-07
7.29840129651112e-16 -9 6.99999999999999
0 0

0101101
*
Ed
 1e-07 1 1 0
1  18 0 -1.84440227367437e-32 14
4 C0 15 0 5 0
0

0101000
+160 0 -163 0 *
Ve
1e-07
-1.0308553432326e-17 -15 7
0 0

0101101
*
Ed
 1e-07 1 1 0
1  19 0 0 3.14159265358979
2  17 17 0 0 3.14159265358979
4 C0 15 0 17 0
0

0101000
+160 0 -158 0 *
Ed
 1e-07 1 1 0
1  20 0 9.76996261670138e-15 14
4 C0 15 0 7 0
0

0101000
+162 0 -158 0 *
Wi

0101100
-161 0 -159 0 +157 0 -156 0 *
Ve
1e-07
-1.6845083294642e-15 5.7 1.5
0 0

0101101
*
Ve
1e-07
-1.8682053493363e-15 5.7 -1.5
0 0

0101101
*
Ed
 1e-07 1 1 0
1  21 0 1.08770485875751e-31 3
4 C0 15 0 18 0
0

0101000
+154 0 -153 0 *
Ve
1e-07
-1.6845083294642e-15 4.24264068711929 1.5
0 0

0101101
*
Ed
 1e-07 1 1 0
1  22 0 1.50239466077831e-47 1.45735931288071
4 C0 15 0 19 0
0

0101000
+151 0 -154 0 *
Ve
1e-07
-1.8682053493363e-15 4.24264068711929 -1.5
0 0

0101101
*
Ed
 1e-07 1 1 0
1  23 0 0 5.60351148827134
2  18 20 0 0 5.60351148827134
4 C0 15 0 20 0
0

0101000
+151 0 -149 0 *
Ed
 1e-07 1 1 0
1  24 0 9.01436796466984e-47 1.45735931288071
4 C0 15 0 21 0
0

0101000
+153 0 -149 0 *
Wi

0101100
-152 0 -150 0 +148 0 -147 0 *
Ve
1e-07
-4.28626379701573e-16 15 -7.00000000000001
0 0

0101101
*
Ve
1e-07
-1.02074532616832e-15 9 -7
0 0

0101101
*
Ed
 1e-07 1 1 0
1  25 0 0 3.14159265358979
2  19 22 0 0 3.14159265358979
4 C0 15 0 22 0
0

0101000
+145 0 -144 0 *
Ve
1e-07
1.37721183184361e-16 15 7
0 0

0101101
*
Ed
 1e-07 1 1 0
1  26 0 1.78128058885068e-32 14
4 C0 15 0 10 0
0

0101000
+142 0 -145 0 *
Ve
1e-07
8.77869866267799e-16 9 7
0 0

0101101
*
Ed
 1e-07 1 1 0
1  27 0 0 3.14159265358979
2  20 11 0 0 3.14159265358979
4 C0 15 0 11 0
0

0101000
+142 0 -140 0 *
Ed
 1e-07 1 1 0
1  28 0 -3.62568286252502e-32 14
4 C0 15 0 12 0
0

0101000
+144 0 -140 0 *
Wi

0101100
-143 0 -141 0 +139 0 -138 0 *
Wi

0101100
+172 0 *
Fa
0  1e-07 16 0

0111000
-167 0 +164 3 +155 3 +146 3 +137 3 +136 3 *
Ve
1.09069692667116e-05
1.25 9.00000000005948 -7.00001090695836
0 0

0101101
*
Ed
 1e-07 1 1 0
1  29 0 0 1.25
2  21 22 0 0 1.25
4 G1 22 0 12 0
0

0101000
+134 0 -144 0 *
Ve
1.09069149669816e-05
1.25 14.9999999999405 -7.00001090690407
0 0

0101101
*
Ed
 1e-07 1 1 0
1  30 0 -0 1.25
2  22 22 0 -0 1.25
4 G1 22 0 10 0
0

0101000
+132 0 -145 0 *
Ed
 1e-07 1 1 0
1  31 0 6.28317803587401 9.42476341817634
2  23 22 0 6.28317803587401 9.42476341817634
4 C0 22 0 23 0
0

0101000
+134 0 -132 0 *
Wi

0101100
+133 0 -143 0 -131 0 -130 0 *
Fa
0  1e-07 22 0

0111000
+129 0 *
Ve
1e-07
1.25 9 -6
0 0

0101101
*
Ed
 1e-07 1 1 0
1  32 0 -1.09069583595911e-05 1
4 C0 12 0 23 0
0

0101000
+134 0 -127 0 *
Ve
1e-07
1.25 15 -6
0 0

0101101
*
Ed
 1e-07 1 1 0
1  33 0 0 6
4 C0 23 0 24 0
0

0101000
+125 0 -127 0 *
Ed
 1e-07 1 1 0
1  34 0 0 1.00001090690407
4 C0 10 0 23 0
0

0101000
+125 0 -132 0 *
Wi

0101100
+126 0 -124 0 +123 0 -130 0 *
Ve
1e-05
1.25 12 -9.5
0 0

0101101
*
Ed
 1e-07 1 1 0
1  35 0 0 6.28318530717959
2  24 25 0 0 6.28318530717959
4 C0 23 0 25 0
0

0101000
+121 0 -121 0 *
Wi

0101100
+120 0 *
Fa
0  1e-07 23 0

0111000
-122 0 -119 0 *
Ve
1e-05
2.75 12 -9.5
0 0

0101101
*
Ed
 1e-07 1 1 0
1  36 0 0 6.28318530717959
2  25 25 0 0 6.28318530717959
4 C0 26 0 25 0
0

0101000
-117 0 +117 0 *
Ed
 1e-05 1 1 0
1  37 0 -2.22044604925031e-16 1.5
3  26 27CN 25 0 -2.22044604925031e-16 1.5
0

0101000
-117 0 +121 0 *
Wi

0101100
-116 0 -115 0 +120 0 +115 0 *
Fa
0  1e-07 25 0

0111000
+114 0 *
Ve
1.09069692667116e-05
2.75 9.00000000005948 -7.00001090695836
0 0

0101101
*
Ve
1e-07
2.75 9 -6
0 0

0101101
*
Ed
 1e-07 1 1 0
1  38 0 -1.09069583595911e-05 1
4 C0 12 0 26 0
0

0101000
+112 0 -111 0 *
Ve
1.09069149669816e-05
2.75 14.9999999999405 -7.00001090690407
0 0

0101101
*
Ed
 1e-07 1 1 0
1  39 0 6.28317803587401 9.42476341817634
2  28 13 0 6.28317803587401 9.42476341817634
4 C0 13 0 26 0
0

0101000
+112 0 -109 0 *
Ve
1e-07
2.75 15 -6
0 0

0101101
*
Ed
 1e-07 1 1 0
1  40 0 0 1.00001090690407
4 C0 10 0 26 0
0

0101000
+107 0 -109 0 *
Ed
 1e-07 1 1 0
1  41 0 0 6
4 C0 24 0 26 0
0

0101000
+107 0 -111 0 *
Wi

0101100
-110 0 +108 0 -106 0 +105 0 *
Wi

0101100
-116 0 *
Fa
0  1e-07 26 0

0111000
+104 0 +103 0 *
Ed
 1e-07 1 1 0
1  42 0 0 1.5
4 C0 12 0 24 0
0

0101000
+111 0 -127 0 *
Ed
 1e-07 1 1 0
1  43 0 0 1.5
4 C0 10 0 24 0
0

0101000
+125 0 -107 0 *
Wi

0101100
-101 0 -105 0 -100 0 +124 0 *
Fa
0  1e-07 24 0

0111000
+99 0 *
Ve
1e-07
13.5 4.24264068711929 -1.5
0 0

0101101
*
Ve
1e-07
13.5 5.7 -1.5
0 0

0101101
*
Ed
 1e-07 1 1 0
1  44 0 0 1.45735931288071
4 C0 21 0 27 0
0

0101000
+97 0 -96 0 *
Ed
 1e-07 1 1 0
1  45 0 0 13.5
4 C0 18 0 21 0
0

0101000
+153 0 -96 0 *
Ed
 1e-07 1 1 0
1  46 0 0 13.5
2  29 20 0 0 13.5
4 C0 20 0 21 0
0

0101000
+149 0 -97 0 *
Wi

0101100
+95 0 -94 0 +147 0 +93 0 *
Fa
0  1e-07 21 0

0111000
-92 0 *
Ve
1e-05
13.5 -1.83697019872103e-15 -7.5
0 0

0101101
*
Ed
 1e-07 1 1 0
1  47 0 0 6.28318530717959
2  30 9 0 0 6.28318530717959
4 C0 9 0 27 0
0

0101000
-90 0 +90 0 *
Wi

0101100
+89 0 *
Ve
1e-07
13.5 5.7 1.5
0 0

0101101
*
Ed
 1e-07 1 1 0
1  48 0 0 3
4 C0 18 0 27 0
0

0101000
+96 0 -87 0 *
Ve
1e-07
13.5 4.24264068711929 1.5
0 0

0101101
*
Ed
 1e-07 1 1 0
1  49 0 0 5.60351148827134
2  31 20 0 0 5.60351148827134
4 C0 20 0 27 0
0

0101000
+85 0 -97 0 *
Ed
 1e-07 1 1 0
1  50 0 0 1.45735931288071
4 C0 19 0 27 0
0

0101000
+87 0 -85 0 *
Wi

0101100
-86 0 -95 0 -84 0 -83 0 *
Fa
0  1e-07 27 0

0111000
+88 0 +82 0 *
Ed
 1e-07 1 1 0
1  51 0 0 13.5
2  32 20 0 0 13.5
4 C0 19 0 20 0
0

0101000
+151 0 -85 0 *
Wi

0101100
-80 0 +148 0 +93 0 -84 0 *
Fa
0  1e-07 20 0

0111000
+79 0 *
Ed
 1e-07 1 1 0
1  52 0 0 13.5
4 C0 18 0 19 0
0

0101000
+154 0 -87 0 *
Wi

0101100
+83 0 -80 0 +150 0 +77 0 *
Fa
0  1e-07 19 0

0111000
-76 0 *
Wi

0101100
+86 0 -77 0 +152 0 +94 0 *
Fa
0  1e-07 18 0

0111000
-74 0 *
Ve
5.60125267098881e-06
1.25 -9.00000000001569 7.00000560124706
0 0

0101101
*
Ed
 1e-07 1 1 0
1  53 0 -3.72651479899798e-16 1.25
2  33 17 0 -3.72651479899798e-16 1.25
4 G1 5 0 17 0
0

0101000
+160 0 -72 0 *
Ve
5.91719816717825e-06
1.25 -14.9999999999825 7.00000591719225
0 0

0101101
*
Ed
 1e-07 1 1 0
1  54 0 6.63556676417013e-16 1.25
2  34 17 0 6.63556676417013e-16 1.25
4 G1 17 0 7 0
0

0101000
+158 0 -70 0 *
Ed
 1e-07 1 1 0
1  55 0 6.28318136238475 9.42477017649477
2  35 17 0 6.28318136238475 9.42477017649477
4 C0 17 0 28 0
0

0101000
+70 0 -72 0 *
Wi

0101100
-71 0 +157 0 +69 0 +68 0 *
Fa
0  1e-07 17 0

0111000
+67 0 *
Ve
1e-07
1.25 -15 5.99999999999999
0 0

0101101
*
Ed
 1e-07 1 1 0
1  56 0 0 1.00000591719226
4 C0 7 0 28 0
0

0101000
+65 0 -70 0 *
Ve
1e-07
1.25 -9 6
0 0

0101101
*
Ed
 1e-07 1 1 0
1  57 0 -5.60124706971976e-06 0.99999999999999
4 C0 5 0 28 0
0

0101000
+72 0 -63 0 *
Ed
 1e-07 1 1 0
1  58 0 0 6
4 C0 28 0 29 0
0

0101000
+65 0 -63 0 *
Wi

0101100
+64 0 +68 0 +62 0 -61 0 *
Ve
1e-05
1.25 -12 7.5
0 0

0101101
*
Ed
 1e-07 1 1 0
1  59 0 0 6.28318530717959
2  36 30 0 0 6.28318530717959
4 C0 28 0 30 0
0

0101000
+59 0 -59 0 *
Wi

0101100
+58 0 *
Fa
0  1e-07 28 0

0111000
-60 0 -57 0 *
Ve
1e-05
2.75 -12 7.5
0 0

0101101
*
Ed
 1e-07 1 1 0
1  60 0 0 6.28318530717959
2  37 30 0 0 6.28318530717959
4 C0 31 0 30 0
0

0101000
-55 0 +55 0 *
Ed
 1e-05 1 1 0
1  61 0 0 1.5
3  38 39CN 30 0 0 1.5
0

0101000
-55 0 +59 0 *
Wi

0101100
-54 0 -53 0 +58 0 +53 0 *
Fa
0  1e-07 30 0

0111000
+52 0 *
Ve
1e-07
2.75 -15 5.99999999999999
0 0

0101101
*
Ve
5.91719816717825e-06
2.75 -14.9999999999825 7.00000591719225
0 0

0101101
*
Ed
 1e-07 1 1 0
1  62 0 0 1.00000591719226
4 C0 7 0 31 0
0

0101000
+50 0 -49 0 *
Ve
1e-07
2.75 -9 6
0 0

0101101
*
Ed
 1e-07 1 1 0
1  63 0 0 6
4 C0 31 0 29 0
0

0101000
+50 0 -47 0 *
Ve
5.60125267098881e-06
2.75 -9.00000000001569 7.00000560124706
0 0

0101101
*
Ed
 1e-07 1 1 0
1  64 0 -5.60124706971976e-06 0.99999999999999
4 C0 5 0 31 0
0

0101000
+45 0 -47 0 *
Ed
 1e-07 1 1 0
1  65 0 6.28318136238475 9.42477017649477
2  40 6 0 6.28318136238475 9.42477017649477
4 C0 6 0 31 0
0

0101000
+49 0 -45 0 *
Wi

0101100
-48 0 +46 0 -44 0 -43 0 *
Wi

0101100
-54 0 *
Fa
0  1e-07 31 0

0111000
+42 0 +41 0 *
Ed
 1e-07 1 1 0
1  66 0 0 1.5
4 C0 7 0 29 0
0

0101000
+65 0 -50 0 *
Ed
 1e-07 1 1 0
1  67 0 0 1.5
4 C0 5 0 29 0
0

0101000
+47 0 -63 0 *
Wi

0101100
-39 0 +61 0 -38 0 -46 0 *
Fa
0  1e-07 29 0

0111000
+37 0 *
Ed
 1e-07 1 1 0
1  68 0 0 1.25
2  41 13 0 0 1.25
4 G1 10 0 13 0
0

0101000
+186 0 -109 0 *
Ed
 1e-07 1 1 0
1  69 0 0 1.25
2  42 13 0 0 1.25
4 G1 12 0 13 0
0

0101000
+182 0 -112 0 *
Wi

0101100
-35 0 +180 0 +34 0 +108 0 *
Fa
0  1e-07 13 0

0111000
+33 0 *
Ed
 1e-07 1 1 0
1  70 0 -4.46666348208141e-16 4
2  43 11 0 -4.46666348208141e-16 4
4 G1 11 0 12 0
0

0101000
+140 0 -184 0 *
Wi

0101100
-126 0 +133 0 +138 0 +31 0 -181 0 +34 0 +110 0 +101 0 *
Fa
0  1e-07 12 0

0111000
-30 0 *
Ed
 1e-07 1 1 0
1  71 0 -7.6592006666426e-17 4
2  44 11 0 -7.6592006666426e-17 4
4 G1 10 0 11 0
0

0101000
+142 0 -187 0 *
Wi

0101100
+139 0 +31 0 -183 0 -28 0 *
Fa
0  1e-07 11 0

0111000
+27 0 *
Wi

0101100
-123 0 +100 0 +106 0 -35 0 -185 0 -28 0 +141 0 -131 0 *
Fa
0  1e-07 10 0

0111000
-25 0 *
Ed
 1e-05 1 1 0
1  72 0 0 9.5
3  45 46CN 9 0 0 9.5
0

0101000
-90 0 +190 0 *
Wi

0101100
-89 0 -23 0 +189 0 +23 0 *
Fa
0  1e-07 9 0

0111000
+22 0 *
Ed
 1e-07 1 1 0
1  73 0 0 4
2  47 8 0 0 4
4 G1 8 0 7 0
0

0101000
+194 0 -162 0 *
Ed
 1e-07 1 1 0
1  74 0 0 4
2  48 8 0 0 4
4 G1 8 0 5 0
0

0101000
+198 0 -163 0 *
Wi

0101100
+192 0 +20 0 -161 0 -19 0 *
Fa
0  1e-07 8 0

0111000
+18 0 *
Ed
 1e-07 1 1 0
1  75 0 0 1.25
2  49 6 0 0 1.25
4 G1 7 0 6 0
0

0101000
+49 0 -196 0 *
Wi

0101100
-64 0 +39 0 +48 0 +16 0 -193 0 +20 0 +156 0 +69 0 *
Fa
0  1e-07 7 0

0111000
-15 0 *
Ed
 1e-07 1 1 0
1  76 0 0 1.25
2  50 6 0 0 1.25
4 G1 5 0 6 0
0

0101000
+45 0 -199 0 *
Wi

0101100
+16 0 -195 0 -13 0 -43 0 *
Fa
0  1e-07 6 0

0111000
+12 0 *
Wi

0101100
-62 0 -71 0 +159 0 -19 0 -197 0 -13 0 +44 0 +38 0 *
Fa
0  1e-07 5 0

0111000
-10 0 *
Ed
 1e-05 1 1 0
1  77 0 4.47119877816101e-15 4
3  51 52CN 3 0 4.47119877816101e-15 4
0

0101000
-202 0 +166 0 *
Wi

0101100
-201 0 -8 0 +165 0 +8 0 *
Fa
0  1e-07 3 0

0111000
+7 0 *
Ed
 1e-07 1 1 0
1  78 0 0 4
3  53 54CN 2 0 0 4
0

0101000
-205 0 +169 0 *
Wi

0101100
-204 0 +5 0 +168 0 -5 0 *
Fa
0  1e-07 2 0

0101000
+4 0 *
Sh

0101100
-175 0 -170 3 +135 0 -128 3 -118 3 -113 3 +102 3 +98 3 -91 3 +81 3 
-78 3 -75 3 -73 3 -66 3 -56 3 -51 3 +40 3 +36 3 -32 3 -29 3 
-26 3 -24 3 +21 3 -17 3 -14 3 -11 3 -9 3 -6 3 +3 0 *
So

1100000
+2 0 *

+1 0 