DBRep_DrawableShape

CASCADE Topology V3, (c) Open Cascade
Locations 3
1
             -1 -8.07277063213226e-20 -1.23259516440783e-32               0 
-8.07277063213226e-20               1 6.60929644347163e-16 3.37508954873613e-19 
1.22725963098504e-32 6.60929644347163e-16              -1 -1.16719301919492e-16 
1
6.12323399573677e-17 -6.12323399573677e-17               1 -15.3300051584094 
              1 3.74939945665465e-33 -6.12323399573677e-17 46.0000000000007 
              0               1 6.12323399573677e-17   3.06733711406 
2  1 1 2 1 0
Curve2ds 74
2 0 0 -5.9969730438979534e-16 -1 1 -5.9969730438979534e-16 23
1 0 0 1 0 
1 0 -9.9999999999999982 1 0 
1 0 -10 1 0 
1 0 9.9999999999999982 1 0 
1 0 -10 1 0 
1 0 10 1 0 
1 6.2831853071795862 0 -1 0 
1 6.2831853071795862 4.0000000000000018 -1 0 
1 6.2831853071795862 0 -1 0 
1 6.2831853071795862 4.0000000000000027 -1 0 
1 0 -10 1 0 
1 0 10 1 0 
1 0 10 1 0 
1 0 10 1 0 
1 0 6.0000000000000018 0 1 
1 0.68021733128763362 6.0000000000000009 0 1 
1 0 6.0000000000000009 1 0 
1 3.1415926536245813 6.0000000000000018 0 1 
1 0 -6.0000000000000009 0 -1 
2 0 0 -5.9969730438979534e-16 -1 1 -5.9969730438979534e-16 23
1 0 4 1 0 
1 0 -5.9999999999999991 1 0 
1 0 -5.9999999999999982 1 0 
1 0 -5.9999999999999991 1 0 
1 0 5.9999999999999982 1 0 
1 0 6 1 0 
1 6.2831853071795862 1.7763568394002459e-15 -1 -6.2775556238935602e-32 
1 6.2831853071795862 4 -1 0 
1 6.2831853071795862 1.7763568394002457e-15 -1 1.255511124778712e-31 
1 6.2831853071795862 3.9999999999999996 -1 0 
1 0 -6 1 0 
1 0 6.0000000000000009 1 0 
1 0 6 1 0 
1 6.2831853071795862 3.9999999999999987 0 -1 
1 3.1415926535897927 4.0000000000000009 0 -1 
1 -3.1415867363975369 2.75 1 0 
1 0 0 1 0 
1 0 1.5 1 0 
1 6.2831853071795862 0 0 1 
1 0 0 0 1 
1 -3.1415867363975369 1.25 1 0 
1 3.14159265358979 1.2500000000000022 0 -1 
1 6.2831853071795862 1.2500000000000022 0 -1 
1 -3.1415817466314375 1.2500000000000022 1 0 
1 0 -2.2204460492503131e-16 1 0 
1 0 1.5 1 0 
1 6.2831853071795862 0 0 1 
1 0 0 0 1 
1 -3.1415817466314375 2.7500000000000022 1 0 
1 0 6.0000000000000009 0 1 
1 3.1416251920572211 6.0000000000000018 0 1 
1 0 6.0000000000000018 0 1 
1 0.68022007658292238 -6.0000000000000009 0 -1 
1 3.1415926535897896 4.0000000000000027 1.1102230246251568e-16 -1 
1 6.2831853071795862 4.0000000000000027 0 -1 
1 3.1415926535897927 1.25 0 -1 
1 6.2831853071795862 1.25 0 -1 
1 6.2831853071795862 4.0000000000000018 0 -1 
1 3.14159265358979 4.0000000000000018 0 -1 
1 3.1415926535897927 3.9999999999999991 0 -1 
1 6.2831853071795862 4 0 -1 
1 6.2831853071795862 0 0 1 
1 0 0 0 1 
1 0.68021733128763362 -6.0000000000000009 0 -1 
1 0 -6.0000000000000018 0 -1 
1 0 6.0000000000000009 0 1 
1 3.1415926536245813 -6.0000000000000018 0 -1 
1 0 -6.0000000000000018 0 -1 
1 0.68022007658292238 6.0000000000000009 0 1 
1 0 -6.0000000000000009 0 -1 
1 3.1416251920572211 -6.0000000000000018 0 -1 
1 6.2831853071795862 -0 0 1 
1 0 -0 0 1 
Curves 84
2 -15.330005158409399 42.000000000000703 3.0673371140599999 0 1 0 0 -0 1 1 0 -0 23
2 4 0 2.4492935982947099e-16 -1 -3.0814879110195801e-33 6.1232339957367697e-17 -5.6877813124996868e-17 0.37036782030765686 -0.92888518003064047 -2.2678488282347713e-17 -0.92888518003064047 -0.37036782030765686 16.5
2 4 5.5555571859000104 -13.933261798810699 -1 0 6.1232339957367697e-17 5.6877724329096408e-17 -0.37037145726641718 0.9288837298835364 2.2678710981842938e-17 0.9288837298835364 0.37037145726641718 1.5
2 4 0 2.4492935982947099e-16 1 0 -6.1232339957367697e-17 -5.8482769374872005e-17 -0.29629618760500298 -0.95509610469875805 -1.8142908887501538e-17 0.95509610469875805 -0.29629618760500298 13.5
2 4 -4.4444428140999896 -14.326441570473699 -1 0 6.1232339957367697e-17 -5.8482769375187611e-17 -0.2962961875883881 -0.95509610470391237 1.8142908886484172e-17 -0.95509610470391237 0.2962961875883881 1.5
2 4 0 -2.4492935982947099e-16 1 0 -6.1232339957367697e-17 -6.1232339957367697e-17 -1.22464679914735e-16 -1 -7.498798913309273e-33 1 -1.22464679914735e-16 4.5
1 4 15 7 -3.1720657846432999e-17 -3.80647894157197e-16 -1 
2 4 12 7 1 0 -6.1232339957367697e-17 1.8128414312625221e-32 1 2.9605947323337501e-16 6.1232339957367697e-17 -2.9605947323337501e-16 1 3
1 4 9 -7 3.1720657846432999e-17 2.5376526277146399e-16 1 
2 4 12 -7.0000000000000098 -1 0 6.1232339957367697e-17 1.8128414312625221e-32 1 2.9605947323337501e-16 -6.1232339957367697e-17 2.9605947323337501e-16 -1 3
1 4 -9 6.9999999999999902 -3.1720657846432999e-17 2.5376526277146399e-16 -1 
2 4 -12 7 1 0 -6.1232339957367697e-17 -3.6256828625250503e-32 1 -5.9211894646675101e-16 6.1232339957367697e-17 5.9211894646675101e-16 1 3
1 4 -15 -7.0000000000000098 3.1720657846432999e-17 -2.5376526277146399e-16 1 
2 4 -12 -7.0000000000000098 -1 0 6.1232339957367697e-17 -3.6256828625250503e-32 1 -5.9211894646675101e-16 -6.1232339957367697e-17 -5.9211894646675101e-16 -1 3
2 4 0 -2.4492935982947099e-16 -1 0 6.1232339957367697e-17 5.8482769374872005e-17 -0.29629618760500298 0.95509610469875805 1.8142908887501538e-17 0.95509610469875805 0.29629618760500298 13.5
2 4 5.5555571859000104 13.933261798810699 1 0 -6.1232339957367697e-17 -5.6877724329096408e-17 -0.37037145726641718 -0.9288837298835364 -2.2678710981842938e-17 0.9288837298835364 -0.37037145726641718 1.5
2 4 0 -2.4492935982947099e-16 1 -3.0814879110195801e-33 -6.1232339957367697e-17 5.6877813124996868e-17 0.37036782030765686 0.92888518003064047 2.2678488282347713e-17 -0.92888518003064047 0.37036782030765686 16.5
2 4 -4.4444428140999896 14.326441570473699 1 0 -6.1232339957367697e-17 5.8482769375187611e-17 -0.2962961875883881 0.95509610470391237 -1.8142908886484172e-17 -0.95509610470391237 -0.2962961875883881 1.5
1 1.7763568394002501e-15 -4.8888870954825396 15.7590857275295 1 0 0 
2 8.7724154062261197e-16 -4.4444428140999896 14.326441570473699 1 0 -6.1232339957367697e-17 5.8482769375187611e-17 -0.2962961875883881 0.95509610470391237 -1.8142908886484172e-17 -0.95509610470391237 -0.2962961875883881 1.5
1 1.7763568394002501e-15 -3.9999985326675702 12.893797413433299 1 0 -4.4408920985006301e-16 
2 -15.330005158409399 46.000000000000703 3.0673371140599999 0 1 0 0 -0 1 1 0 -0 23
2 -8.7724154062261197e-16 -4.4444428140999896 -14.326441570473699 -1 0 6.1232339957367697e-17 -5.8482769375187611e-17 -0.2962961875883881 -0.95509610470391237 1.8142908886484172e-17 -0.95509610470391237 0.2962961875883881 1.5
2 -3.0189874454731103e-48 0 -4.93038065763132e-32 -1 -3.0814879110195801e-33 6.1232339957367697e-17 -5.6877813124996868e-17 0.37036782030765686 -0.92888518003064047 -2.2678488282347713e-17 -0.92888518003064047 -0.37036782030765686 16.5
2 -8.5316622317978196e-16 5.5555571859000104 -13.933261798810699 -1 0 6.1232339957367697e-17 5.6877724329096408e-17 -0.37037145726641718 0.9288837298835364 2.2678710981842938e-17 0.9288837298835364 0.37037145726641718 1.5
2 -3.0189874454731103e-48 0 -4.93038065763132e-32 1 0 -6.1232339957367697e-17 -5.8482769374872005e-17 -0.29629618760500298 -0.95509610469875805 -1.8142908887501538e-17 0.95509610469875805 -0.29629618760500298 13.5
2 3.0189874454731103e-48 0 4.93038065763132e-32 1 0 -6.1232339957367697e-17 -6.1232339957367697e-17 -1.22464679914735e-16 -1 -7.498798913309273e-33 1 -1.22464679914735e-16 4.5
2 -4.28626379701574e-16 12 -7.0000000000000098 -1 0 6.1232339957367697e-17 1.8128414312625221e-32 1 2.9605947323337501e-16 -6.1232339957367697e-17 2.9605947323337501e-16 -1 3
1 4.2862637970157302e-16 15 7 -6.1232339957367697e-17 -2.5376526277146399e-16 -1 
2 4.2862637970157302e-16 12 7 1 0 -6.1232339957367697e-17 1.8128414312625221e-32 1 2.9605947323337501e-16 6.1232339957367697e-17 -2.9605947323337501e-16 1 3
1 -4.28626379701574e-16 9 -7 6.1232339957367697e-17 2.5376526277146399e-16 1 
2 -4.28626379701574e-16 -12 -7.0000000000000098 -1 0 6.1232339957367697e-17 1.8128414312625221e-32 1 2.9605947323337501e-16 -6.1232339957367697e-17 2.9605947323337501e-16 -1 3
1 4.2862637970157302e-16 -9 6.9999999999999902 -6.1232339957367599e-17 2.5376526277146399e-16 -1 
2 4.2862637970157302e-16 -12 7 1 0 -6.1232339957367697e-17 -1.8128414312625221e-32 1 -2.9605947323337501e-16 6.1232339957367697e-17 2.9605947323337501e-16 1 3
1 -4.28626379701574e-16 -15 -7.0000000000000098 6.1232339957367697e-17 -1.26882631385732e-16 1 
2 3.0189874454731103e-48 0 4.93038065763132e-32 -1 0 6.1232339957367697e-17 5.8482769374872005e-17 -0.29629618760500298 0.95509610469875805 1.8142908887501538e-17 0.95509610469875805 0.29629618760500298 13.5
2 8.5316622317978196e-16 5.5555571859000104 13.933261798810699 1 0 -6.1232339957367697e-17 -5.6877724329096408e-17 -0.37037145726641718 -0.9288837298835364 -2.2678710981842938e-17 0.9288837298835364 -0.37037145726641718 1.5
2 3.0189874454731103e-48 0 4.93038065763132e-32 1 -3.0814879110195801e-33 -6.1232339957367697e-17 5.6877813124996868e-17 0.37036782030765686 0.92888518003064047 2.2678488282347713e-17 -0.92888518003064047 0.37036782030765686 16.5
1 1.10249160955091e-15 -9 6.9999999999999902 1 0 0 
1 -6.7386522984933902e-16 -15 7 1 0 0 
2 1.25 -12 7 -1 0 -6.1232339957367697e-17 -3.6232352787774179e-22 -0.99999999998249345 5.9171922570655528e-06 -6.1232339956295734e-17 5.9171922570655528e-06 0.99999999998249345 3
1 1.25 -15 5.9999999999999902 0 0 1 
1 1.25 -9 6.9999999999999902 2.2204460492503101e-16 0 -1 
1 1.25 -15 5.9999999999999902 0 1 2.9605947323337501e-16 
2 1.25 -12 8.5 1 0 6.1232339957367697e-17 6.1232339957367697e-17 0 -1 -0 1 0 1
2 2.75 -12 8.5 1 0 6.1232339957367697e-17 6.1232339957367697e-17 0 -1 -0 1 0 1
7 0 0  1 2 2  1.25 -12 7.5  2.75 -12 7.5 
 0 2 1.5 2
1 2.75 -15 5.9999999999999902 0 0 1 
1 2.75 -15 5.9999999999999902 0 1 2.9605947323337501e-16 
1 2.75 -9 6.9999999999999902 0 0 -1 
2 2.75 -12 7 -1 0 -6.1232339957367697e-17 -3.6232352787774179e-22 -0.99999999998249345 5.9171922570655528e-06 -6.1232339956295734e-17 5.9171922570655528e-06 0.99999999998249345 3
1 1.25 -15 5.9999999999999902 1 0 0 
1 2.75 -9 6 -1 0 0 
1 1.25 9 -7 -1 0 0 
1 1.25 15 -7.0000000000000098 -1 0 0 
2 1.25 12 -7.0000000000000098 1 0 6.1232339957367697e-17 6.6785858193966487e-22 -0.99999999994051914 -1.0906958355742302e-05 6.1232339953725539e-17 1.0906958355742302e-05 -0.99999999994051914 3
1 1.25 9 -7 -2.2204460492503101e-16 0 1 
1 1.25 15 -6 0 -1 0 
1 1.25 15 -6 0 0 -1 
2 1.25 12 -8.5 1 0 6.1232339957367697e-17 6.1232339957367697e-17 0 -1 -0 1 0 1
2 2.75 12 -8.5 1 0 6.1232339957367697e-17 6.1232339957367697e-17 0 -1 -0 1 0 1
7 0 0  1 2 2  1.2499999999999998 12 -9.5  2.75 12 -9.5 
 -2.2204460492503131e-16 2 1.5 2
1 2.75 9 -7 0 0 1 
2 2.75 12 -7.0000000000000098 1 0 6.1232339957367697e-17 6.6785858193966487e-22 -0.99999999994051914 -1.0906958355742302e-05 6.1232339953725539e-17 1.0906958355742302e-05 -0.99999999994051914 3
1 2.75 15 -6 0 0 -1 
1 2.75 15 -6 0 -1 0 
1 2.75 9 -6 -1 0 0 
1 1.25 15 -6 1 0 0 
1 1.7763568394002501e-15 6.1110690348260599 15.3266054698778 1 0 -4.4408920985006301e-16 
1 1.7763568394002501e-15 5 12.539936203984499 1 0 0 
1 4 -15 -7 -1 0 -2.2204460492503101e-16 
1 4 -9 -7.0000000000000098 -1 0 2.2204460492503101e-16 
1 2.75 -15 7 1 0 0 
1 2.75 -9 6.9999999999999902 1 0 0 
1 4 15 -7.0000000000000098 -1 0 0 
1 4 9 -7 -1 0 0 
1 1.3245362144759401e-15 9 7 1 0 -2.22044604925032e-16 
1 2.14313189850787e-16 15 7 1 0 -2.2204460492503101e-16 
7 0 0  1 2 2  0 -1.6532731788489253e-15 -4.5  4 -1.6532731788489253e-15 -4.5000000000000009 
 6 2 10 2
1 1.7763568394002501e-15 -4.8888870954825396 -15.7590857275295 1 0 0 
1 1.7763568394002501e-15 -3.9999985326675702 -12.893797413433299 1 0 4.4408920985006301e-16 
1 1.7763568394002501e-15 5 -12.539936203984499 1 0 0 
1 1.7763568394002501e-15 6.1110690348260599 -15.3266054698778 1 0 4.4408920985006301e-16 
1 -15.330005158409406 42 26.067337114059999 0 1 0 
Polygon3D 0
PolygonOnTriangulations 0
Surfaces 32
1 -15.330005158409399 42.000000000000703 3.0673371140599999 -1.2325951644078309e-32 1 8.0727706321359329e-20 1 1.2325951644078309e-32 -5.9969730438979534e-16 -5.9969730438979534e-16 8.0727706321359329e-20 -1 
2 -15.330005158409399 42 3.0673371140599999 0 1 0 0 -0 1 1 0 -0 23
2 -6 0 -3.6739403974420599e-16 -1 0 -6.1232339957367697e-17 5.6877813124996868e-17 0.37036782030765686 -0.92888518003064047 2.2678488282347716e-17 -0.92888518003064047 -0.37036782030765686 16.5
1 4 0 -2.4492935982947099e-16 -1 0 6.1232339957367697e-17 -6.1232339957367697e-17 0 -1 -0 -1 0 
2 -6 5.5555571859000104 -13.933261798810699 -1 0 -6.1232339957367697e-17 -5.6877724329096408e-17 -0.37037145726641718 0.9288837298835364 -2.2678710981842938e-17 0.9288837298835364 0.37037145726641718 1.5
2 -6 0 -3.6739403974420599e-16 1 0 6.1232339957367697e-17 5.8482769374872005e-17 -0.29629618760500298 -0.95509610469875805 1.8142908887501538e-17 0.95509610469875805 -0.29629618760500298 13.5
2 -6 -4.4444428140999896 -14.326441570473699 -1 0 -6.1232339957367697e-17 5.8482769375187611e-17 -0.2962961875883881 -0.95509610470391237 -1.8142908886484172e-17 -0.95509610470391237 0.2962961875883881 1.5
10 0 6.2831853071795862 6 10
2 -6 0 3.6739403974420599e-16 1 0 -6.1232339957367697e-17 -6.1232339957367697e-17 -1.22464679914735e-16 -1 -7.498798913309273e-33 1 -1.22464679914735e-16 4.5
1 -2.3886802389739301e-15 15 -10 -1.3684555315672001e-48 1 -1.7763568394002501e-16 6.1232339957367697e-17 1.7763568394002501e-16 1 1 -1.0877048587575132e-32 -6.1232339957367697e-17 
2 4 12 7 -1 0 2.2204460492503101e-16 -6.5738408768417548e-32 1 -2.9605947323337501e-16 -2.2204460492503101e-16 -2.9605947323337501e-16 -1 3
1 -1.16403343982657e-15 9 10 1.3684555315672001e-48 -1 1.7763568394002501e-16 -6.1232339957367697e-17 -1.7763568394002501e-16 -1 1 -1.0877048587575132e-32 -6.1232339957367697e-17 
2 -2.2049832191018199e-15 12 -7.0000000000000098 1 0 0 -0 1 0 0 -0 1 3
1 -2.3886802389739301e-15 -9 -10 1.3684555315672001e-48 1 1.7763568394002501e-16 6.1232339957367697e-17 -1.7763568394002501e-16 1 1 1.0877048587575132e-32 -6.1232339957367697e-17 
2 4 -12 7 -1 0 0 0 1 -5.9211894646675002e-16 -0 -5.9211894646675002e-16 -1 3
1 -1.16403343982657e-15 -15 9.9999999999999893 -1.3684555315672001e-48 -1 -1.7763568394002501e-16 -6.1232339957367697e-17 1.7763568394002501e-16 -1 1 1.0877048587575132e-32 -6.1232339957367697e-17 
2 -2.2049832191018199e-15 -12 -7.0000000000000098 1 0 -2.2204460492503101e-16 0 1 0 2.2204460492503101e-16 -0 1 3
2 -6 0 3.6739403974420599e-16 -1 0 6.1232339957367697e-17 5.8482769374872005e-17 -0.29629618760500298 0.95509610469875805 1.8142908887501538e-17 0.95509610469875805 0.29629618760500298 13.5
2 -6 5.5555571859000104 13.933261798810699 1 0 -6.1232339957367697e-17 -5.6877724329096408e-17 -0.37037145726641718 -0.9288837298835364 -2.2678710981842938e-17 0.9288837298835364 -0.37037145726641718 1.5
2 -6 0 3.6739403974420599e-16 1 0 -6.1232339957367697e-17 5.6877813124996868e-17 0.37036782030765686 0.92888518003064047 2.2678488282347716e-17 -0.92888518003064047 0.37036782030765686 16.5
2 -6 -4.4444428140999896 14.326441570473699 1 0 -6.1232339957367697e-17 5.8482769375187611e-17 -0.2962961875883881 0.95509610470391237 -1.8142908886484172e-17 -0.95509610470391237 -0.2962961875883881 1.5
1 0 0 0 -1 0 6.1232339957367697e-17 -6.1232339957367697e-17 0 -1 -0 -1 0 
1 -15.330005158409399 46.000000000000703 3.0673371140599999 -1.2325951644078309e-32 1 8.0727706321359329e-20 1 1.2325951644078309e-32 -5.9969730438979534e-16 -5.9969730438979534e-16 8.0727706321359329e-20 -1 
2 -2.2049832191018199e-15 12 -7.0000000000000098 1 0 0 -0 1 0 0 -0 1 3
2 4 -12 7 -1 0 0 0 1 -5.9211894646675002e-16 -0 -5.9211894646675002e-16 -1 3
1 1.25 0 -1.68388934882761e-16 1 0 6.1232339957367697e-17 6.1232339957367697e-17 0 -1 -0 1 0 
1 1.25 -15 5.9999999999999902 0 2.9605947323337501e-16 -1 0 1 2.9605947323337501e-16 1 -0 0 
10 0 6.2831853071795862 0 1.5
2 1.25 -12 8.5 1 0 6.1232339957367697e-17 6.1232339957367697e-17 0 -1 -0 1 0 1
1 2.75 0 -7.6540424946709603e-17 1 0 6.1232339957367697e-17 6.1232339957367697e-17 0 -1 -0 1 0 
1 1.25 0 -1.68388934882761e-16 1 0 6.1232339957367697e-17 6.1232339957367697e-17 0 -1 -0 1 0 
1 1.25 15 -6 0 0 1 0 -1 0 1 0 -0 
10 0 6.2831853071795862 -2.2204460492503131e-16 1.5
2 1.25 12 -8.5 1 0 6.1232339957367697e-17 6.1232339957367697e-17 0 -1 -0 1 0 1
1 2.75 0 -7.6540424946709603e-17 1 0 6.1232339957367697e-17 6.1232339957367697e-17 0 -1 -0 1 0 
Triangulations 0

TShapes 216
Ve
1.00000351736597e-07
-15.3300051584094 42.0000000000004 26.06733711406
0 0

0101101
*
Ed
 1e-07 1 1 0
1  1 0 0 6.28318530717959
2  1 1 0 0 6.28318530717959
2  2 2 0 0 6.28318530717959
4 C0 1 0 2 0
0

0101000
+216 0 -216 0 *
Wi

0101100
+215 0 *
Ve
1e-07
4 6.1110690349512 -15.3266054701917
0 0

0101101
*
Ve
1e-07
4 -4.88888709548256 -15.7590857275296
0 0

0101101
*
Ed
 1e-07 1 1 0
1  2 0 0 0.680217331287633
2  3 3 0 0 0.680217331287633
4 C0 4 0 3 0
0

0101000
+213 0 -212 0 *
Ve
1e-07
4 5.00000000000019 -12.5399362039849
0 0

0101101
*
Ed
 1e-07 1 1 0
1  3 0 0 3.14162519205723
2  4 5 0 0 3.14162519205723
4 C0 4 0 5 0
0

0101000
+210 0 -213 0 *
Ve
1e-07
4 -3.99999853266755 -12.8937974134333
0 0

0101101
*
Ed
 1e-07 1 1 0
1  4 0 0 0.680220076582924
2  5 6 0 0 0.680220076582924
4 C0 4 0 6 0
0

0101000
+208 0 -210 0 *
Ed
 1e-07 1 1 0
1  5 0 0 3.14159265362459
2  6 7 0 0 3.14159265362459
4 C0 4 0 7 0
0

0101000
+212 0 -208 0 *
Wi

0101100
-211 3 -209 3 -207 3 -206 3 *
Ve
1e-05
4 -1.10218211923262e-15 -4.5
0 0

0101101
*
Ed
 1e-07 1 1 0
1  6 0 0 6.28318530717959
2  7 8 0 0 6.28318530717959
4 C0 4 0 8 0
0

0101000
-204 0 +204 0 *
Wi

0101100
+203 3 *
Ve
1e-07
4 15 6.99999999999999
0 0

0101101
*
Ve
1e-07
4 15 -7
0 0

0101101
*
Ed
 1e-07 1 1 0
1  7 0 9.76996261670138e-15 14
4 C0 4 0 9 0
0

0101000
+201 0 -200 0 *
Ve
1e-07
4 9 7
0 0

0101101
*
Ed
 1e-07 1 1 0
1  8 0 0 3.14159265358979
2  8 10 0 0 3.14159265358979
4 C0 4 0 10 0
0

0101000
+201 0 -198 0 *
Ve
1e-07
4 9 -7
0 0

0101101
*
Ed
 1e-07 1 1 0
1  9 0 0 14
4 C0 4 0 11 0
0

0101000
+196 0 -198 0 *
Ed
 1e-07 1 1 0
1  10 0 0 3.14159265358979
2  9 12 0 0 3.14159265358979
4 C0 4 0 12 0
0

0101000
+200 0 -196 0 *
Wi

0101100
-199 3 +197 3 -195 3 -194 3 *
Ve
1e-07
4 -9 6.99999999999999
0 0

0101101
*
Ve
1e-07
4 -9 -7.00000000000001
0 0

0101101
*
Ed
 1e-07 1 1 0
1  11 0 0 14
4 C0 4 0 13 0
0

0101000
+192 0 -191 0 *
Ve
1e-07
4 -15 7
0 0

0101101
*
Ed
 1e-07 1 1 0
1  12 0 0 3.14159265358979
2  10 14 0 0 3.14159265358979
4 C0 4 0 14 0
0

0101000
+192 0 -189 0 *
Ve
1e-07
4 -15 -7
0 0

0101101
*
Ed
 1e-07 1 1 0
1  13 0 9.76996261670138e-15 14
4 C0 4 0 15 0
0

0101000
+187 0 -189 0 *
Ed
 1e-07 1 1 0
1  14 0 0 3.14159265358979
2  11 16 0 0 3.14159265358979
4 C0 4 0 16 0
0

0101000
+191 0 -187 0 *
Wi

0101100
-190 3 +188 3 -186 3 -185 3 *
Ve
1e-07
4 -3.99999853266755 12.8937974134333
0 0

0101101
*
Ve
1e-07
4 5.00000000000019 12.5399362039849
0 0

0101101
*
Ed
 1e-07 1 1 0
1  15 0 0 0.680220076582924
2  12 17 0 0 0.680220076582924
4 C0 4 0 17 0
0

0101000
+183 0 -182 0 *
Ve
1e-07
4 6.1110690349512 15.3266054701917
0 0

0101101
*
Ed
 1e-07 1 1 0
1  16 0 0 3.14162519205723
2  13 18 0 0 3.14162519205723
4 C0 4 0 18 0
0

0101000
+182 0 -180 0 *
Ve
1e-07
4 -4.88888709548256 15.7590857275296
0 0

0101101
*
Ed
 1e-07 1 1 0
1  17 0 0 0.680217331287633
2  14 19 0 0 0.680217331287633
4 C0 4 0 19 0
0

0101000
+180 0 -178 0 *
Ed
 1e-07 1 1 0
1  18 0 0 3.14159265362459
2  15 20 0 0 3.14159265362459
4 C0 4 0 20 0
0

0101000
+178 0 -183 0 *
Wi

0101100
+181 3 +179 3 +177 3 +176 3 *
Fa
0  1e-07 1 0

0111000
+214 0 +205 0 +202 0 +193 0 +184 0 +175 0 *
Ve
1e-07
1.77635683940025e-15 -4.88888709548256 15.7590857275296
0 0

0101101
*
Ed
 1e-07 1 1 0
1  19 0 0 4
2  16 20 0 0 4
2  17 19 0 0 4
4 G1 20 0 19 0
0

0101000
+173 0 -178 0 *
Ve
1e-07
1.77635683940025e-15 -3.99999853266755 12.8937974134333
0 0

0101101
*
Ed
 1e-07 1 1 0
1  20 0 0 3.14159265362459
2  18 20 0 0 3.14159265362459
4 C0 21 0 20 0
0

0101000
+173 0 -171 0 *
Ed
 1e-07 1 1 0
1  21 0 0 4
2  19 20 0 0 4
2  20 17 0 0 4
4 G1 20 0 17 0
0

0101000
+171 0 -183 0 *
Wi

0101100
-172 0 +170 0 +169 0 -176 0 *
Fa
0  1e-07 20 0

0111000
+168 0 *
Ve
1.00000351736597e-07
-15.3300051584094 46.0000000000004 26.06733711406
0 0

0101101
*
Ed
 1e-07 1 1 0
1  22 0 0 6.28318530717959
2  21 22 0 0 6.28318530717959
2  22 2 0 0 6.28318530717959
4 C0 22 0 2 0
0

0101000
+166 0 -166 0 *
Wi

0101100
+165 0 *
Ve
1e-07
1.77635683940025e-15 -4.88888709548256 -15.7590857275296
0 0

0101101
*
Ve
1e-07
1.77635683940025e-15 -3.99999853266755 -12.8937974134333
0 0

0101101
*
Ed
 1e-07 1 1 0
1  23 0 0 3.14159265362459
2  23 7 0 0 3.14159265362459
4 C0 21 0 7 0
0

0101000
+163 0 -162 0 *
Ve
1e-07
1.77635683940025e-15 6.1110690349512 -15.3266054701917
0 0

0101101
*
Ed
 1e-07 1 1 0
1  24 0 0 0.680217331287633
2  24 3 0 0 0.680217331287633
4 C0 21 0 3 0
0

0101000
+160 0 -163 0 *
Ve
1e-07
1.77635683940025e-15 5.00000000000019 -12.5399362039849
0 0

0101101
*
Ed
 1e-07 1 1 0
1  25 0 0 3.14162519205723
2  25 5 0 0 3.14162519205723
4 C0 21 0 5 0
0

0101000
+158 0 -160 0 *
Ed
 1e-07 1 1 0
1  26 0 0 0.680220076582924
2  26 6 0 0 0.680220076582924
4 C0 21 0 6 0
0

0101000
+162 0 -158 0 *
Wi

0101100
-161 0 -159 0 -157 0 -156 0 *
Ve
1e-05
8.88178419700125e-16 -1.10218211923262e-15 -4.5
0 0

0101101
*
Ed
 1e-07 1 1 0
1  27 0 0 6.28318530717959
2  27 8 0 0 6.28318530717959
4 C0 21 0 8 0
0

0101000
+154 0 -154 0 *
Wi

0101100
+153 0 *
Ve
1e-07
-4.28626379701573e-16 15 -7.00000000000001
0 0

0101101
*
Ve
1e-07
-1.02074532616832e-15 9 -7
0 0

0101101
*
Ed
 1e-07 1 1 0
1  28 0 0 3.14159265358979
2  28 23 0 0 3.14159265358979
4 C0 21 0 23 0
0

0101000
+151 0 -150 0 *
Ve
1e-07
1.37721183184361e-16 15 7
0 0

0101101
*
Ed
 1e-07 1 1 0
1  29 0 1.78128058885068e-32 14
4 C0 21 0 9 0
0

0101000
+148 0 -151 0 *
Ve
1e-07
8.77869866267799e-16 9 7
0 0

0101101
*
Ed
 1e-07 1 1 0
1  30 0 0 3.14159265358979
2  29 10 0 0 3.14159265358979
4 C0 21 0 10 0
0

0101000
+148 0 -146 0 *
Ed
 1e-07 1 1 0
1  31 0 -3.62568286252502e-32 14
4 C0 21 0 11 0
0

0101000
+150 0 -146 0 *
Wi

0101100
-149 0 -147 0 +145 0 -144 0 *
Ve
1e-07
-1.61286427263507e-15 -9 -7.00000000000001
0 0

0101101
*
Ve
1e-07
1.34773045969868e-15 -15 -7
0 0

0101101
*
Ed
 1e-07 1 1 0
1  32 0 0 3.14159265358979
2  30 16 0 0 3.14159265358979
4 C0 21 0 16 0
0

0101000
+142 0 -141 0 *
Ve
1e-07
7.29840129651112e-16 -9 6.99999999999999
0 0

0101101
*
Ed
 1e-07 1 1 0
1  33 0 -1.84440227367437e-32 14
4 C0 21 0 13 0
0

0101000
+139 0 -142 0 *
Ve
1e-07
-1.0308553432326e-17 -15 7
0 0

0101101
*
Ed
 1e-07 1 1 0
1  34 0 0 3.14159265358979
2  31 24 0 0 3.14159265358979
4 C0 21 0 24 0
0

0101000
+139 0 -137 0 *
Ed
 1e-07 1 1 0
1  35 0 9.76996261670138e-15 14
4 C0 21 0 15 0
0

0101000
+141 0 -137 0 *
Wi

0101100
-140 0 -138 0 +136 0 -135 0 *
Ve
1e-07
1.77635683940025e-15 5.00000000000019 12.5399362039849
0 0

0101101
*
Ed
 1e-07 1 1 0
1  36 0 0 0.680220076582924
2  32 17 0 0 0.680220076582924
4 C0 21 0 17 0
0

0101000
+171 0 -133 0 *
Ve
1e-07
1.77635683940025e-15 6.1110690349512 15.3266054701917
0 0

0101101
*
Ed
 1e-07 1 1 0
1  37 0 0 3.14162519205723
2  33 18 0 0 3.14162519205723
4 C0 21 0 18 0
0

0101000
+133 0 -131 0 *
Ed
 1e-07 1 1 0
1  38 0 0 0.680217331287633
2  34 19 0 0 0.680217331287633
4 C0 21 0 19 0
0

0101000
+131 0 -173 0 *
Wi

0101100
+170 0 +132 0 +130 0 +129 0 *
Fa
0  1e-07 22 0

0111000
+164 0 +155 3 +152 3 +143 3 +134 3 +128 3 *
Ve
5.60125267098881e-06
1.25 -9.00000000001569 7.00000560124706
0 0

0101101
*
Ed
 1e-07 1 1 0
1  39 0 -3.72651479899798e-16 1.25
2  35 24 0 -3.72651479899798e-16 1.25
4 G1 13 0 24 0
0

0101000
+139 0 -126 0 *
Ve
5.91719816717825e-06
1.25 -14.9999999999825 7.00000591719225
0 0

0101101
*
Ed
 1e-07 1 1 0
1  40 0 6.63556676417013e-16 1.25
2  36 24 0 6.63556676417013e-16 1.25
4 G1 15 0 24 0
0

0101000
+137 0 -124 0 *
Ed
 1e-07 1 1 0
1  41 0 6.28318136238475 9.42477017649477
2  37 24 0 6.28318136238475 9.42477017649477
4 C0 24 0 25 0
0

0101000
+124 0 -126 0 *
Wi

0101100
-125 0 +136 0 +123 0 +122 0 *
Fa
0  1e-07 24 0

0111000
+121 0 *
Ve
1e-07
1.25 -15 5.99999999999999
0 0

0101101
*
Ed
 1e-07 1 1 0
1  42 0 0 1.00000591719226
4 C0 15 0 25 0
0

0101000
+119 0 -124 0 *
Ve
1e-07
1.25 -9 6
0 0

0101101
*
Ed
 1e-07 1 1 0
1  43 0 -5.60124706971976e-06 0.99999999999999
4 C0 13 0 25 0
0

0101000
+126 0 -117 0 *
Ed
 1e-07 1 1 0
1  44 0 0 6
4 C0 25 0 26 0
0

0101000
+119 0 -117 0 *
Wi

0101100
+118 0 +122 0 +116 0 -115 0 *
Ve
1e-05
1.25 -12 7.5
0 0

0101101
*
Ed
 1e-07 1 1 0
1  45 0 0 6.28318530717959
2  38 27 0 0 6.28318530717959
4 C0 25 0 27 0
0

0101000
+113 0 -113 0 *
Wi

0101100
+112 0 *
Fa
0  1e-07 25 0

0111000
-114 0 -111 0 *
Ve
1e-05
2.75 -12 7.5
0 0

0101101
*
Ed
 1e-07 1 1 0
1  46 0 0 6.28318530717959
2  39 27 0 0 6.28318530717959
4 C0 28 0 27 0
0

0101000
-109 0 +109 0 *
Ed
 1e-05 1 1 0
1  47 0 0 1.5
3  40 41CN 27 0 0 1.5
0

0101000
-109 0 +113 0 *
Wi

0101100
-108 0 -107 0 +112 0 +107 0 *
Fa
0  1e-07 27 0

0111000
+106 0 *
Ve
1e-07
2.75 -15 5.99999999999999
0 0

0101101
*
Ve
5.91719816717825e-06
2.75 -14.9999999999825 7.00000591719225
0 0

0101101
*
Ed
 1e-07 1 1 0
1  48 0 0 1.00000591719226
4 C0 15 0 28 0
0

0101000
+104 0 -103 0 *
Ve
1e-07
2.75 -9 6
0 0

0101101
*
Ed
 1e-07 1 1 0
1  49 0 0 6
4 C0 26 0 28 0
0

0101000
+104 0 -101 0 *
Ve
5.60125267098881e-06
2.75 -9.00000000001569 7.00000560124706
0 0

0101101
*
Ed
 1e-07 1 1 0
1  50 0 -5.60124706971976e-06 0.99999999999999
4 C0 13 0 28 0
0

0101000
+99 0 -101 0 *
Ed
 1e-07 1 1 0
1  51 0 6.28318136238475 9.42477017649477
2  42 14 0 6.28318136238475 9.42477017649477
4 C0 14 0 28 0
0

0101000
+103 0 -99 0 *
Wi

0101100
-102 0 +100 0 -98 0 -97 0 *
Wi

0101100
-108 0 *
Fa
0  1e-07 28 0

0111000
+96 0 +95 0 *
Ed
 1e-07 1 1 0
1  52 0 0 1.5
4 C0 15 0 26 0
0

0101000
+119 0 -104 0 *
Ed
 1e-07 1 1 0
1  53 0 0 1.5
4 C0 13 0 26 0
0

0101000
+101 0 -117 0 *
Wi

0101100
-93 0 +115 0 -92 0 -100 0 *
Fa
0  1e-07 26 0

0111000
+91 0 *
Ve
1.09069692667116e-05
1.25 9.00000000005948 -7.00001090695836
0 0

0101101
*
Ed
 1e-07 1 1 0
1  54 0 0 1.25
2  43 23 0 0 1.25
4 G1 11 0 23 0
0

0101000
+89 0 -150 0 *
Ve
1.09069149669816e-05
1.25 14.9999999999405 -7.00001090690407
0 0

0101101
*
Ed
 1e-07 1 1 0
1  55 0 -0 1.25
2  44 23 0 -0 1.25
4 G1 9 0 23 0
0

0101000
+87 0 -151 0 *
Ed
 1e-07 1 1 0
1  56 0 6.28317803587401 9.42476341817634
2  45 23 0 6.28317803587401 9.42476341817634
4 C0 23 0 29 0
0

0101000
+89 0 -87 0 *
Wi

0101100
+88 0 -149 0 -86 0 -85 0 *
Fa
0  1e-07 23 0

0111000
+84 0 *
Ve
1e-07
1.25 9 -6
0 0

0101101
*
Ed
 1e-07 1 1 0
1  57 0 -1.09069583595911e-05 1
4 C0 11 0 29 0
0

0101000
+89 0 -82 0 *
Ve
1e-07
1.25 15 -6
0 0

0101101
*
Ed
 1e-07 1 1 0
1  58 0 0 6
4 C0 29 0 30 0
0

0101000
+80 0 -82 0 *
Ed
 1e-07 1 1 0
1  59 0 0 1.00001090690407
4 C0 9 0 29 0
0

0101000
+80 0 -87 0 *
Wi

0101100
+81 0 -79 0 +78 0 -85 0 *
Ve
1e-05
1.25 12 -9.5
0 0

0101101
*
Ed
 1e-07 1 1 0
1  60 0 0 6.28318530717959
2  46 31 0 0 6.28318530717959
4 C0 29 0 31 0
0

0101000
+76 0 -76 0 *
Wi

0101100
+75 0 *
Fa
0  1e-07 29 0

0111000
-77 0 -74 0 *
Ve
1e-05
2.75 12 -9.5
0 0

0101101
*
Ed
 1e-07 1 1 0
1  61 0 0 6.28318530717959
2  47 31 0 0 6.28318530717959
4 C0 32 0 31 0
0

0101000
-72 0 +72 0 *
Ed
 1e-05 1 1 0
1  62 0 -2.22044604925031e-16 1.5
3  48 49CN 31 0 -2.22044604925031e-16 1.5
0

0101000
-72 0 +76 0 *
Wi

0101100
-71 0 -70 0 +75 0 +70 0 *
Fa
0  1e-07 31 0

0111000
+69 0 *
Ve
1.09069692667116e-05
2.75 9.00000000005948 -7.00001090695836
0 0

0101101
*
Ve
1e-07
2.75 9 -6
0 0

0101101
*
Ed
 1e-07 1 1 0
1  63 0 -1.09069583595911e-05 1
4 C0 11 0 32 0
0

0101000
+67 0 -66 0 *
Ve
1.09069149669816e-05
2.75 14.9999999999405 -7.00001090690407
0 0

0101101
*
Ed
 1e-07 1 1 0
1  64 0 6.28317803587401 9.42476341817634
2  50 12 0 6.28317803587401 9.42476341817634
4 C0 12 0 32 0
0

0101000
+67 0 -64 0 *
Ve
1e-07
2.75 15 -6
0 0

0101101
*
Ed
 1e-07 1 1 0
1  65 0 0 1.00001090690407
4 C0 9 0 32 0
0

0101000
+62 0 -64 0 *
Ed
 1e-07 1 1 0
1  66 0 0 6
4 C0 32 0 30 0
0

0101000
+62 0 -66 0 *
Wi

0101100
-65 0 +63 0 -61 0 +60 0 *
Wi

0101100
-71 0 *
Fa
0  1e-07 32 0

0111000
+59 0 +58 0 *
Ed
 1e-07 1 1 0
1  67 0 0 1.5
4 C0 11 0 30 0
0

0101000
+66 0 -82 0 *
Ed
 1e-07 1 1 0
1  68 0 0 1.5
4 C0 9 0 30 0
0

0101000
+80 0 -62 0 *
Wi

0101100
-56 0 -60 0 -55 0 +79 0 *
Fa
0  1e-07 30 0

0111000
+54 0 *
Ed
 1e-07 1 1 0
1  69 0 -1.39399610561605e-25 4
2  51 19 0 -1.39399610561605e-25 4
2  52 18 0 -1.39399610561605e-25 4
4 G1 19 0 18 0
0

0101000
+131 0 -180 0 *
Wi

0101100
-52 0 +129 0 +172 0 -177 0 *
Fa
0  1e-07 19 0

0111000
+51 0 *
Ed
 1e-07 1 1 0
1  70 0 0 4
2  53 18 0 0 4
2  54 17 0 0 4
4 G1 18 0 17 0
0

0101000
+133 0 -182 0 *
Wi

0101100
-49 0 +130 0 +52 0 -179 0 *
Fa
0  1e-07 18 0

0111000
+48 0 *
Wi

0101100
+181 0 -49 0 -132 0 +169 0 *
Fa
0  1e-07 17 0

0111000
+46 0 *
Ed
 1e-07 1 1 0
1  71 0 0 4
2  55 16 0 0 4
4 G1 16 0 15 0
0

0101000
+187 0 -141 0 *
Ed
 1e-07 1 1 0
1  72 0 0 4
2  56 16 0 0 4
4 G1 16 0 13 0
0

0101000
+191 0 -142 0 *
Wi

0101100
+185 0 +44 0 -140 0 -43 0 *
Fa
0  1e-07 16 0

0111000
+42 0 *
Ed
 1e-07 1 1 0
1  73 0 0 1.25
2  57 14 0 0 1.25
4 G1 15 0 14 0
0

0101000
+103 0 -189 0 *
Wi

0101100
-118 0 +93 0 +102 0 +40 0 -186 0 +44 0 +135 0 +123 0 *
Fa
0  1e-07 15 0

0111000
-39 0 *
Ed
 1e-07 1 1 0
1  74 0 0 1.25
2  58 14 0 0 1.25
4 G1 14 0 13 0
0

0101000
+99 0 -192 0 *
Wi

0101100
+40 0 -188 0 -37 0 -97 0 *
Fa
0  1e-07 14 0

0111000
+36 0 *
Wi

0101100
-116 0 -125 0 +138 0 -43 0 -190 0 -37 0 +98 0 +92 0 *
Fa
0  1e-07 13 0

0111000
-34 0 *
Ed
 1e-07 1 1 0
1  75 0 0 1.25
2  59 12 0 0 1.25
4 G1 12 0 9 0
0

0101000
+200 0 -64 0 *
Ed
 1e-07 1 1 0
1  76 0 0 1.25
2  60 12 0 0 1.25
4 G1 12 0 11 0
0

0101000
+196 0 -67 0 *
Wi

0101100
-32 0 +194 0 +31 0 +63 0 *
Fa
0  1e-07 12 0

0111000
+30 0 *
Ed
 1e-07 1 1 0
1  77 0 -4.46666348208141e-16 4
2  61 10 0 -4.46666348208141e-16 4
4 G1 11 0 10 0
0

0101000
+146 0 -198 0 *
Wi

0101100
-81 0 +88 0 +144 0 +28 0 -195 0 +31 0 +65 0 +56 0 *
Fa
0  1e-07 11 0

0111000
-27 0 *
Ed
 1e-07 1 1 0
1  78 0 -7.6592006666426e-17 4
2  62 10 0 -7.6592006666426e-17 4
4 G1 10 0 9 0
0

0101000
+148 0 -201 0 *
Wi

0101100
+145 0 +28 0 -197 0 -25 0 *
Fa
0  1e-07 10 0

0111000
+24 0 *
Wi

0101100
-78 0 +55 0 +61 0 -32 0 -199 0 -25 0 +147 0 -86 0 *
Fa
0  1e-07 9 0

0111000
-22 0 *
Ed
 1e-05 1 1 0
1  79 0 6 10
3  63 64CN 8 0 6 10
0

0101000
-204 0 +154 0 *
Wi

0101100
-203 0 -20 0 +153 0 +20 0 *
Fa
0  1e-07 8 0

0111000
+19 0 *
Ed
 1e-07 1 1 0
1  80 0 0 4
2  65 3 0 0 4
2  66 7 0 0 4
4 G1 3 0 7 0
0

0101000
+163 0 -212 0 *
Ed
 1e-07 1 1 0
1  81 0 0 4
2  67 6 0 0 4
2  68 7 0 0 4
4 G1 6 0 7 0
0

0101000
+162 0 -208 0 *
Wi

0101100
+17 0 +206 0 -16 0 -161 0 *
Fa
0  1e-07 7 0

0111000
+15 0 *
Ed
 1e-07 1 1 0
1  82 0 0 4
2  69 5 0 0 4
2  70 6 0 0 4
4 G1 5 0 6 0
0

0101000
+158 0 -210 0 *
Wi

0101100
+156 0 +13 0 -207 0 -16 0 *
Fa
0  1e-07 6 0

0111000
+12 0 *
Ed
 1e-07 1 1 0
1  83 0 -1.39399610561605e-25 4
2  71 3 0 -1.39399610561605e-25 4
2  72 5 0 -1.39399610561605e-25 4
4 G1 3 0 5 0
0

0101000
+160 0 -213 0 *
Wi

0101100
+13 0 +209 0 -10 0 -157 0 *
Fa
0  1e-07 5 0

0111000
+9 0 *
Wi

0101100
+10 0 +211 0 -17 0 -159 0 *
Fa
0  1e-07 3 0

0111000
+7 0 *
Ed
 1e-07 1 1 0
1  84 0 0 4
3  73 74CN 2 0 0 4
0

0101000
-166 0 +216 0 *
Wi

0101100
-165 0 +5 0 +215 0 -5 0 *
Fa
0  1e-07 2 0

0101000
+4 0 *
Sh

0101100
-174 0 -167 3 +127 0 -120 3 -110 3 -105 3 +94 3 +90 3 -83 3 -73 3 
-68 3 +57 3 +53 3 -50 3 -47 3 +45 3 -41 3 -38 3 -35 3 -33 3 
-29 3 -26 3 -23 3 -21 3 -18 3 -14 3 +11 3 -8 3 -6 3 +3 0 
*
So

1100000
+2 0 *

+1 0 