DBRep_DrawableShape

CASCADE Topology V3, (c) Open Cascade
Locations 1
1
-5.81158435798745e-13 0.850186285609977 0.526481984269843 4.89393398274566 
              1 3.97323430330311e-13 4.62237097662343e-13 24.2250000000008 
1.8380401313548e-13 0.526481984269843 -0.850186285609977 -18.611553006144 
Curve2ds 56
2 0 -0 0.85018628560997678 -0.52648198426984294 -0.52648198426984294 -0.85018628560997678 3.1500000000000004
1 0 1.9000000000000021 1 0 
1 0 22.225000000000001 1 0 
1 0 33 1 0 
1 6.2831853071795862 0 0 1 
1 0 0 0 1 
1 0 4.7123889803846897 1 0 
1 0 3.1415926535897931 1 0 
1 0 0.19999999999999929 1 0 
1 6.2831853071795862 0 0 1 
1 0 0 0 1 
1 0 3.2999999999999989 1 0 
1 9.4247779607693793 0.14142135623731059 -1 0 
1 6.2831853071795862 0 0 1 
1 0 0 0 1 
1 9.4247779607693793 -0.14142135623730917 -1 0 
1 9.4247779607693793 0 0 1 
1 3.1415926535897931 0 0 1 
1 6.2831853071795862 -0 0 1 
1 0 -0 0 1 
2 8.7724505917787858e-13 7.5530747450207392e-13 0.85018628560997678 -0.52648198426984294 -0.52648198426984294 -0.85018628560997678 3.1500000000000004
1 0 0 1 0 
1 0 20.325000000000003 1 0 
1 6.2831853071795862 0 0 1 
1 0 0 0 1 
1 0 15.775000000000002 1 0 
1 0 1 1 0 
1 6.2831853071795862 0 0 1 
1 0 0 0 1 
1 0 0 1 0 
1 0 14.775000000000002 1 0 
1 6.2831853071795862 0 0 1 
1 0 0 0 1 
7 0 0  3 113 111  0 9.3750000000000018  0.003604785185278736 9.3749991295117781  0.010813711021694594 9.3752067055376873  0.021616750783763017 9.3761428534603688  0.032401032499243421 9.3777003229890354  0.043158124937770381 9.3798766848868631  0.053879589267781469 9.3826696428028313  0.064556991995233126 9.3860770422563231  0.075181705607681337 9.3900938209765155  0.085745054732198511 9.3947146093266749  0.09623824711208151 9.3999342616879744  0.10665278555989399 9.4057470013762874  0.11698108477599511 9.4121452217585428  0.12721534370080523 9.4191215897659113  0.13734775962090762 9.4266686721546691  0.14737040500993803 9.4347791628162874  0.15727631037807743 9.44344414130674  0.1670585108344298 9.4526545405758515  0.17670994582013044 9.4624013293488289  0.18622347327689326 9.472675478325554  0.19559195532635698 9.4834679142896725  0.20480925338667255 9.4947688035284319  0.21386908545792949 9.5065683488738042  0.22276509638714348 9.5188567463018163  0.23149086664175211 9.5316241826675387  0.24003984016400892 9.5448608881658288  0.24840565724973906 9.558556913562267  0.2565825092852263 9.5727018778311503  0.26456440025582317 9.5872854695295615  0.27234528207965614 9.6022973574199533  0.2799190221847212 9.6177272198604502  0.28727942270702833 9.633564716621251  0.29442019912484518 9.6497995722284653  0.30133507003759963 9.6664212622330776  0.30801801833591558 9.683418051180757  0.31446292386849173 9.7007783429667125  0.32066361572534152 9.7184904969713646  0.3266138562035934 9.7365429112846744  0.3323073686538951 9.7549238736733059  0.33773775739753287 9.7736220744875055  0.34289897559568416 9.7926236998347669  0.34778510437508547 9.8119138883419765  0.3523901380748482 9.8314780462253086  0.35670806844193059 9.8513014683081241  0.36073275603569588 9.8713696273958185  0.36445839475297692 9.8916673511476301  0.36788016417945002 9.9121777165497793  0.37099311329018825 9.9328839775031099  0.37379214863009391 9.953769650200309  0.37627301941786939 9.9748164797745584  0.37843203811463244 9.9960050698235587  0.38026530421903804 10.017316327081669  0.3817692249674618 10.038730933277463  0.38294185938775627 10.060228671489586  0.38378105080277969 10.081789451351934  0.38428485915918476 10.103393012572109  0.38445285110772964 10.125017889403935  0.38428438296667 10.146642720798875  0.38377968666934237 10.168246089691374  0.38294026849500362 10.189806627887657  0.38176728254991588 10.211302691080466  0.38026275682434196 10.23271391227386  0.37842971394858438 10.254021422795836  0.37627079091477889 10.275205940356766  0.37378968192641082 10.296248876989468  0.37099071026239017 10.317132060473144  0.3678779144005917 10.337837028959612  0.36445595316511969 10.358346287491463  0.36073014540409787 10.378643436197887  0.35670561882643526 10.398711793163123  0.35238762565585358 10.418534966285284  0.34778237229017961 10.438098616913566  0.3428959529687301 10.457388249381957  0.33773444422858478 10.47638941869516  0.3323038719410798 10.495087634190195  0.32661024029415042 10.513468537596054  0.32065990286207668 10.531520642395797  0.31445914300177069 10.549232352660768  0.30801419209011538 10.566592104189327  0.30133121813802344 10.583588315283544  0.29441633783536147 10.600209442503585  0.2872755637728126 10.616443806873555  0.2799151693096249 10.632280866736213  0.27234143573007596 10.647710334145069  0.2645605563688429 10.662721855486145  0.25657865915184708 10.677305095829867  0.24840178828142889 10.691449711176581  0.24003593191070394 10.705145375122479  0.23148690488681023 10.718381699950557  0.22276113285339605 10.731148782079412  0.21386514629683173 10.743436838096489  0.20480535977484404 10.755236054748419  0.1955881161806392 10.766536623330524  0.1862196919666248 10.777328746784207  0.17670619873179216 10.787602576917822  0.16705476920529261 10.797349039878789  0.15727257888376744 10.806559134454842  0.1473667039011346 10.81522383581482  0.1373441635428696 10.823334141690227  0.12721184859546764 10.830880983180762  0.11697762533468392 10.837857001763911  0.10664935147110288 10.844254894427007  0.096234857455887557 10.850067412917127  0.085741758771027854 10.855287034655619  0.075178342049208702 10.859907586820679  0.064553532228885047 10.863924105136  0.053876072043023804 10.867331392507168  0.04315469842186026 10.870124205262123  0.032397926307952574 10.872300231670735  0.021614260034861665 10.873857333190333  0.010812199859238092 10.874793237545749  0.0036042234861337619 10.875000810805911  0 10.875000000000002 
 0 4 0.0090909090909090905 1 0.018181818181818181 1 0.027272727272727271 1 0.036363636363636362 1 0.045454545454545456 1 0.054545454545454543 1 0.06363636363636363 1 0.072727272727272724 1 0.081818181818181818 1 0.090909090909090912 1 0.099999999999999992 1 0.10909090909090909 1 0.11818181818181818 1 0.12727272727272726 1 0.13636363636363635 1 0.14545454545454545 1 0.15454545454545454 1 0.16363636363636364 1 0.17272727272727273 1 0.18181818181818182 1 0.19090909090909089 1 0.19999999999999998 1 0.20909090909090908 1 0.21818181818181817 1 0.22727272727272727 1 0.23636363636363636 1 0.24545454545454545 1 0.25454545454545452 1 0.26363636363636361 1 0.27272727272727271 1 0.2818181818181818 1 0.29090909090909089 1 0.29999999999999999 1 0.30909090909090908 1 0.31818181818181818 1 0.32727272727272727 1 0.33636363636363636 1 0.34545454545454546 1 0.35454545454545455 1 0.36363636363636365 1 0.37272727272727268 1 0.38181818181818178 1 0.39090909090909087 1 0.39999999999999997 1 0.40909090909090906 1 0.41818181818181815 1 0.42727272727272725 1 0.43636363636363634 1 0.44545454545454544 1 0.45454545454545453 1 0.46363636363636362 1 0.47272727272727272 1 0.48181818181818181 1 0.49090909090909091 1 0.5 1 0.50909090909090904 1 0.51818181818181819 1 0.52727272727272723 1 0.53636363636363638 1 0.54545454545454541 1 0.55454545454545456 1 0.5636363636363636 1 0.57272727272727275 1 0.58181818181818179 1 0.59090909090909083 1 0.59999999999999998 1 0.60909090909090902 1 0.61818181818181817 1 0.6272727272727272 1 0.63636363636363635 1 0.64545454545454539 1 0.65454545454545454 1 0.66363636363636358 1 0.67272727272727273 1 0.68181818181818177 1 0.69090909090909092 1 0.69999999999999996 1 0.70909090909090911 1 0.71818181818181814 1 0.72727272727272729 1 0.73636363636363633 1 0.74545454545454537 1 0.75454545454545452 1 0.76363636363636356 1 0.77272727272727271 1 0.78181818181818175 1 0.79090909090909089 1 0.79999999999999993 1 0.80909090909090908 1 0.81818181818181812 1 0.82727272727272727 1 0.83636363636363631 1 0.84545454545454546 1 0.8545454545454545 1 0.86363636363636365 1 0.87272727272727268 1 0.88181818181818172 1 0.89090909090909087 1 0.89999999999999991 1 0.90909090909090906 1 0.9181818181818181 1 0.92727272727272725 1 0.93636363636363629 1 0.94545454545454544 1 0.95454545454545447 1 0.96363636363636362 1 0.97272727272727266 1 0.98181818181818181 1 0.99090909090909085 1 1 4
7 0 0  3 113 111  0 5  0.0096127432723918105 5.0000009381879931  0.02883653777204831 4.9999233311845979  0.057665256385537766 4.9995716732782176  0.086485165299320599 4.9989882667831216  0.11529421642052284 4.9981755742468765  0.14409037219497201 4.9971359247980294  0.17287171440269677 4.9958715056750176  0.20163548752241933 4.9943874194735187  0.23037868651920324 4.9926890830748913  0.25909805397514418 4.9907816664262112  0.28779107284030303 4.9886710611895762  0.31645720009549283 4.9863652612668439  0.34509533336859111 4.983871944732873  0.37370436288065711 4.9811989104486578  0.40228299171708226 4.9783537899576515  0.43083195435630284 4.9753463854729238  0.45935190166046258 4.972186695999274  0.48784326841648262 4.9688846748900035  0.51630634664359665 4.9654502633706254  0.54474155309315808 4.9618934973395366  0.57315156800706646 4.9582260145852164  0.601538734981232 4.9544593760577573  0.62990527706107535 4.9506051570646523  0.65825334903919686 4.9466749523221996  0.68658494548507942 4.9426802645540526  0.71490259496543196 4.9386329772808217  0.7432099380318693 4.9345458900999208  0.77151029048029773 4.9304316556137096  0.79980695006790459 4.9263029659717752  0.8281031751301775 4.9221725021298326  0.85640223943931293 4.9180529502718562  0.88470751093412403 4.9139569868626722  0.91302235394892683 4.9098973232009682  0.94134952788260762 4.9058868383643262  0.96969184221020654 4.9019383931969038  0.99805212356914463 4.8980648506181428  1.0264333244029551 4.8942790834797369  1.0548384217914739 4.8905939228291135  1.0832710112601998 4.8870223569984939  1.1117322698765033 4.8835763933137359  1.1402222828778301 4.8802676262553968  1.1687414823806934 4.8771077633932167  1.1972903336759018 4.8741084380860293  1.2258696714581605 4.8712814674471252  1.2544800545634089 4.8686379583795638  1.2831206006657299 4.8661870754038592  1.311790633354561 4.8639381892437763  1.3404899569261488 4.8619009235956154  1.3692166652696622 4.8600831387326311  1.3979676464516553 4.8584915270196793  1.4267402112825796 4.8571331779141653  1.4555317087939148 4.8560145965604136  1.4843388206810104 4.8551392870485071  1.5131583370143407 4.8545111402549681  1.5419870112186436 4.8541336453840271  1.5708201782808899 4.8540075388315724  1.5996532910761232 4.85413392999605  1.6284818048389056 4.8545124088644931  1.657301068165852 4.8551403764481744  1.6861060325667649 4.8560158654910488  1.7148932282596947 4.857135267262751  1.7436608113773104 4.8584930863008635  1.7724063985749083 4.8600845454863499  1.8011281209648926 4.8619028570549556  1.8298242100664277 4.8639400160397912  1.8584925141314752 4.866188542733739  1.887131766664357 4.868639703742935  1.9157415615026716 4.8712834137732575  1.9443210624884433 4.8741099172093669  1.9728696573786957 4.8771091717511865  2.0013884257546053 4.8802692401796817  2.0298780438310802 4.8835783278473688  2.0583390721082626 4.8870245988204921  2.086771918511765 4.8905962397388398  2.1151771198754599 4.8942813880937717  2.1435581117286713 4.8980671523620316  2.171918005316793 4.9019406797811893  2.2002598051367821 4.9058891075345059  2.2285864082579554 4.909899574261603  2.2569006841085653 4.9139592228310125  2.2852054534155037 4.9180551777392445  2.3135040743776734 4.9221747199556898  2.3417999077783129 4.9263051655645871  2.3700962234132166 4.9304338209953649  2.3983962782502117 4.9345479975208253  2.4267033691681403 4.938634996695102  2.455020820731312 4.9426821541036388  2.4833522574546363 4.9466766789252921  2.5117000775258917 4.9506067834278866  2.5400663227933582 4.9544609289387829  2.5684531579531731 4.9582275149713819  2.5968628323699203 4.9618949503309899  2.6252977031312077 4.9654516684692318  2.6537605132414743 4.968885994960571  2.6822516961761615 4.9721878879133241  2.7107714700225842 4.9753474575747312  2.7393202297097266 4.9783547680677884  2.7678985000665275 4.9811999174068431  2.7965071658945364 4.9838729141650866  2.8251450851454121 4.9863660417181368  2.8538110455341985 4.9886716608831465  2.8825038845620243 4.9907821916665798  2.9112229825889351 4.9926897401729162  2.9399662989858952 4.9943879616655815  2.9687302751270761 4.9958719004600471  2.9975117462520595 4.9971363285357278  3.026307634413838 4.9981759830469521  3.0551157968240403 4.9989884987588651  3.0839340422862471 4.9995716825823395  3.1127601437205472 4.999923208907556  3.1319814074898873 5.0000008620620457  3.1415926535797034 5 
 0 4 0.0090909090909090905 1 0.018181818181818181 1 0.027272727272727271 1 0.036363636363636362 1 0.045454545454545456 1 0.054545454545454543 1 0.06363636363636363 1 0.072727272727272724 1 0.081818181818181818 1 0.090909090909090912 1 0.099999999999999992 1 0.10909090909090909 1 0.11818181818181818 1 0.12727272727272726 1 0.13636363636363635 1 0.14545454545454545 1 0.15454545454545454 1 0.16363636363636364 1 0.17272727272727273 1 0.18181818181818182 1 0.19090909090909089 1 0.19999999999999998 1 0.20909090909090908 1 0.21818181818181817 1 0.22727272727272727 1 0.23636363636363636 1 0.24545454545454545 1 0.25454545454545452 1 0.26363636363636361 1 0.27272727272727271 1 0.2818181818181818 1 0.29090909090909089 1 0.29999999999999999 1 0.30909090909090908 1 0.31818181818181818 1 0.32727272727272727 1 0.33636363636363636 1 0.34545454545454546 1 0.35454545454545455 1 0.36363636363636365 1 0.37272727272727268 1 0.38181818181818178 1 0.39090909090909087 1 0.39999999999999997 1 0.40909090909090906 1 0.41818181818181815 1 0.42727272727272725 1 0.43636363636363634 1 0.44545454545454544 1 0.45454545454545453 1 0.46363636363636362 1 0.47272727272727272 1 0.48181818181818181 1 0.49090909090909091 1 0.5 1 0.50909090909090904 1 0.51818181818181819 1 0.52727272727272723 1 0.53636363636363638 1 0.54545454545454541 1 0.55454545454545456 1 0.5636363636363636 1 0.57272727272727275 1 0.58181818181818179 1 0.59090909090909083 1 0.59999999999999998 1 0.60909090909090902 1 0.61818181818181817 1 0.6272727272727272 1 0.63636363636363635 1 0.64545454545454539 1 0.65454545454545454 1 0.66363636363636358 1 0.67272727272727273 1 0.68181818181818177 1 0.69090909090909092 1 0.69999999999999996 1 0.70909090909090911 1 0.71818181818181814 1 0.72727272727272729 1 0.73636363636363633 1 0.74545454545454537 1 0.75454545454545452 1 0.76363636363636356 1 0.77272727272727271 1 0.78181818181818175 1 0.79090909090909089 1 0.79999999999999993 1 0.80909090909090908 1 0.81818181818181812 1 0.82727272727272727 1 0.83636363636363631 1 0.84545454545454546 1 0.8545454545454545 1 0.86363636363636365 1 0.87272727272727268 1 0.88181818181818172 1 0.89090909090909087 1 0.89999999999999991 1 0.90909090909090906 1 0.9181818181818181 1 0.92727272727272725 1 0.93636363636363629 1 0.94545454545454544 1 0.95454545454545447 1 0.96363636363636362 1 0.97272727272727266 1 0.98181818181818181 1 0.99090909090909085 1 1 4
1 6.2831853071795862 0 0 1 
1 0 0 0 1 
1 0 3 1 0 
7 0 0  3 113 111  6.2831853071795862 10.875000000001201  6.2795805219943004 10.875000870489101  6.2723715961578712 10.874793294462702  6.2615685563957735 10.873857146539635  6.2507842746802558 10.872299677010828  6.2400271822416915 10.870123315113016  6.2293057179116387 10.867330357197122  6.218628315184155 10.863922957743656  6.2080036015716749 10.859906179023444  6.1974402524471248 10.855285390673233  6.1869470600672152 10.850065738311891  6.1765325216193707 10.844252998623535  6.1662042224032421 10.837854778241228  6.1559699634784009 10.830878410233826  6.1458375475582701 10.823331327845018  6.1358149021692139 10.815220837183347  6.1259089968010452 10.806555858692843  6.1161267963446688 10.797345459423672  6.106475361358946 10.78759867065064  6.0969618339021592 10.777324521673849  6.0875933518526768 10.766532085709672  6.0783760537923408 10.755231196470847  6.0693162217210634 10.743431651125404  6.0604202107918317 10.731143253697315  6.051694440537208 10.718375817331525  6.0431454670149378 10.705139111833157  6.0347796499291952 10.691443086436639  6.0266027978936965 10.677298122167675  6.0186209069230934 10.662714530469186  6.0108400250992524 10.647702642578704  6.003266284994182 10.632272780138123  5.9959058844718713 10.616435283377227  5.9887651080540554 10.600200427769932  5.9818502371413 10.583578737765226  5.9751672888429876 10.566581948817451  5.968722383310415 10.549221657031406  5.9625216914535732 10.531509503026657  5.9565714509753303 10.513457088713256  5.950877938525041 10.49507612632453  5.9454475497814157 10.476377925510228  5.9402863315832821 10.457376300162876  5.9354002028039021 10.438086111655576  5.9307951691041589 10.418521953772137  5.9264772387371014 10.398698531689238  5.9224525511433646 10.378630372601432  5.9187269124261119 10.35833264884953  5.9153051429996726 10.337822283447283  5.9121921938889681 10.317116022493868  5.9093931585491006 10.296230349796563  5.9069122877613642 10.27518352022223  5.9047532690646438 10.253994930173141  5.9029200029602835 10.232683672914945  5.9014160822119086 10.211269066719067  5.9002434477916648 10.189771328506865  5.8994042563766937 10.168210548644442  5.8989004480203437 10.146606987424178  5.8987324560718575 10.124982110592301  5.8989009242129784 10.103357279197281  5.8994056205103664 10.081753910304727  5.9002450386847674 10.060193372108374  5.9014180246299217 10.038697308915523  5.9029225503555613 10.017286087722075  5.9047555932313882 9.9959785772000576  5.906914516265263 9.9747940596390787  5.909395625253703 9.9537511230063469  5.9121945969177965 9.9328679395226338  5.9153073927796704 9.9121629710361354  5.9187293540152162 9.8916537125042723  5.9224551617763117 9.8713565637978213  5.9264796883540525 9.8512882068325851  5.9307976815247079 9.8314650337104013  5.9354029348904636 9.8119013830821249  5.9402893542119868 9.7926117506137249  5.9454508629522129 9.7736105813005363  5.9508814352397934 9.754912365805497  5.9565750668868054 9.7365314623996486  5.9625254043189546 9.7184793575999198  5.9687261641793414 9.7007676473349544  5.975171115091074 9.6834078958064254  5.9818540890432459 9.6664116847122266  5.988768969345986 9.6497905574922136  5.9959097434086148 9.6335561931222937  6.0032701378718816 9.6177191332596745  6.0108438714515078 9.6022896658508774  6.0186247508128199 9.5872781445098614  6.0266066480298939 9.5726949041662124  6.0347835189003911 9.5585502888195766  6.0431493752711907 9.5448546248737625  6.0516984022951643 9.531618300045789  6.0604241743286522 9.5188512179170282  6.0693201608852938 9.5065631619000648  6.0783799474073543 9.4947639452482484  6.0875971910016338 9.4834633766662684  6.0969656152157183 9.4726712532127078  6.1064791084506256 9.4623974230792225  6.1161305379771953 9.4526509601183921  6.1259127282987889 9.4434408655424704  6.1358186032814892 9.4347761641826384  6.1458411436398244 9.4266658583073841  6.1559734585872894 9.4191190168169978  6.1662076818481353 9.4121429982340068  6.1765359557117785 9.4057451055710768  6.1869504497270515 9.3999325870811177  6.1974435484119708 9.394712965342805  6.2080069651338432 9.3900924131779071  6.2186317749542193 9.3860758948627758  6.2293092351401365 9.3826686074917838  6.2400306087613311 9.3798757947370355  6.2507873808753445 9.3776997683286289  6.2615710471482462 9.3761426668092618  6.2723731073247757 9.3752067624540718  6.2795810836957529 9.3749991891940407  6.2831853071795862 9.3750000000000018 
 0 4 0.0090909090909090905 1 0.018181818181818181 1 0.027272727272727271 1 0.036363636363636362 1 0.045454545454545456 1 0.054545454545454543 1 0.06363636363636363 1 0.072727272727272724 1 0.081818181818181818 1 0.090909090909090912 1 0.099999999999999992 1 0.10909090909090909 1 0.11818181818181818 1 0.12727272727272726 1 0.13636363636363635 1 0.14545454545454545 1 0.15454545454545454 1 0.16363636363636364 1 0.17272727272727273 1 0.18181818181818182 1 0.19090909090909089 1 0.19999999999999998 1 0.20909090909090908 1 0.21818181818181817 1 0.22727272727272727 1 0.23636363636363636 1 0.24545454545454545 1 0.25454545454545452 1 0.26363636363636361 1 0.27272727272727271 1 0.2818181818181818 1 0.29090909090909089 1 0.29999999999999999 1 0.30909090909090908 1 0.31818181818181818 1 0.32727272727272727 1 0.33636363636363636 1 0.34545454545454546 1 0.35454545454545455 1 0.36363636363636365 1 0.37272727272727268 1 0.38181818181818178 1 0.39090909090909087 1 0.39999999999999997 1 0.40909090909090906 1 0.41818181818181815 1 0.42727272727272725 1 0.43636363636363634 1 0.44545454545454544 1 0.45454545454545453 1 0.46363636363636362 1 0.47272727272727272 1 0.48181818181818181 1 0.49090909090909091 1 0.5 1 0.50909090909090904 1 0.51818181818181819 1 0.52727272727272723 1 0.53636363636363638 1 0.54545454545454541 1 0.55454545454545456 1 0.5636363636363636 1 0.57272727272727275 1 0.58181818181818179 1 0.59090909090909083 1 0.59999999999999998 1 0.60909090909090902 1 0.61818181818181817 1 0.6272727272727272 1 0.63636363636363635 1 0.64545454545454539 1 0.65454545454545454 1 0.66363636363636358 1 0.67272727272727273 1 0.68181818181818177 1 0.69090909090909092 1 0.69999999999999996 1 0.70909090909090911 1 0.71818181818181814 1 0.72727272727272729 1 0.73636363636363633 1 0.74545454545454537 1 0.75454545454545452 1 0.76363636363636356 1 0.77272727272727271 1 0.78181818181818175 1 0.79090909090909089 1 0.79999999999999993 1 0.80909090909090908 1 0.81818181818181812 1 0.82727272727272727 1 0.83636363636363631 1 0.84545454545454546 1 0.8545454545454545 1 0.86363636363636365 1 0.87272727272727268 1 0.88181818181818172 1 0.89090909090909087 1 0.89999999999999991 1 0.90909090909090906 1 0.9181818181818181 1 0.92727272727272725 1 0.93636363636363629 1 0.94545454545454544 1 0.95454545454545447 1 0.96363636363636362 1 0.97272727272727266 1 0.98181818181818181 1 0.99090909090909085 1 1 4
7 0 0  3 113 111  3.1415926535897949 5  3.1512053968621867 5.000000938187994  3.1704291913618743 4.9999233311845979  3.1992579099754632 4.9995716732782149  3.2280778188893589 4.9989882667831163  3.2568868700106712 4.9981755742468632  3.2856830257852074 4.9971359247980125  3.3144643679930201 4.9958715056749901  3.3432281411128262 4.994387419473485  3.3719713401096989 4.9926890830748478  3.4006907075657296 4.9907816664261579  3.4293837264309825 4.9886710611895104  3.4580498536862621 4.9863652612667666  3.4866879869594545 4.9838719447327824  3.5152970164716084 4.9811989104485539  3.5438756453081268 4.9783537899575316  3.5724246079474362 4.9753463854727844  3.6009445552516866 4.9721866959991177  3.6294359220077936 4.9688846748898259  3.6578990002349983 4.9654502633704301  3.6863342066846485 4.9618934973393198  3.7147442215986466 4.9582260145849828  3.7431313885729001 4.954459376057506  3.7714979306528384 4.9506051570643832  3.7998460026310461 4.9466749523219109  3.8281775990770122 4.9426802645537498  3.856495248557458 4.9386329772805002  3.8848025916239823 4.934545890099586  3.9131029440725005 4.9304316556133596  3.9413996036601979 4.9263029659714093  3.9696958287225605 4.922172502129456  3.9979948930317892 4.9180529502714672  4.0263001645266847 4.9139569868622734  4.0546150075415799 4.9098973232005569  4.0829421814753584 4.9058868383639131  4.1112844958030426 4.9019383931964819  4.1396447771620775 4.8980648506177209  4.1680259779959794 4.8942790834793115  4.1964310753845879 4.8905939228286881  4.2248636648534159 4.8870223569980729  4.2533249234698047 4.8835763933133185  4.2818149364712319 4.8802676262549882  4.3103341359741911 4.877107763392817  4.3388829872694803 4.874108438085643  4.3674623250518501 4.8712814674467557  4.3960727081571846 4.8686379583792139  4.4247132542596113 4.8661870754035288  4.4533832869485224 4.8639381892434717  4.4820826105202229 4.8619009235953339  4.5108093188638279 4.8600831387323753  4.5395603000459204 4.858491527019452  4.5683328648769352 4.8571331779139699  4.59712436238837 4.8560145965602519  4.6259314742755535 4.8551392870483818  4.654750990608977 4.8545111402548828  4.6835796648133901 4.8541336453839845  4.7124128318757084 4.8540075388315742  4.7412459446710482 4.8541339299961024  4.7700744584339105 4.8545124088645908  4.7988937217609511 4.8551403764483165  4.8276986861619502 4.8560158654912353  4.8564858818549581 4.8571352672629891  4.8852534649726662 4.8584930863011468  4.9139990521703583 4.8600845454866866  4.9427207745604198 4.8619028570553411  4.9714168636620446 4.8639400160402273  5.0000851677271809 4.8661885427342249  5.0287244202601356 4.8686397037434679  5.0573342150985434 4.8712834137738383  5.0859137160843906 4.8741099172099949  5.1144623109747398 4.8771091717518589  5.1429810793507267 4.8802692401804002  5.1714706974272939 4.8835783278481291  5.1999317257045563 4.887024598821295  5.2283645721081546 4.8905962397396792  5.2567697734719463 4.894281388094651  5.2851507653252465 4.8980671523629438  5.3135106589134802 4.9019406797821308  5.3418524587335492 4.9058891075354794  5.3701790618548371 4.9098995742626022  5.3984933377055384 4.9139592228320357  5.4267981070125675 4.9180551777402872  5.4550967279748335 4.9221747199567494  5.4833925613755579 4.9263051655656609  5.5116888770105579 4.9304338209964502  5.5399889318476347 4.9345479975219195  5.5682960227656517 4.9386349966961989  5.5966134743289073 4.9426821541047374  5.6249449110523129 4.9466766789263863  5.6532927311236563 4.9506067834289738  5.6816589763912093 4.9544609289398611  5.7100458115511055 4.9582275149724433  5.7384554859679406 4.9618949503320335  5.7668903567293155 4.9654516684702523  5.7953531668396812 4.9688859949615649  5.8238443497744559 4.9721878879142887  5.8523641236209842 4.9753474575756611  5.8809128833082207 4.978354768068681  5.9094911536651207 4.981199917407694  5.9380998194932308 4.9838729141658895  5.9667377387442038 4.9863660417188935  5.995403699133095 4.9886716608838482  6.0240965381610216 4.9907821916672255  6.0528156361880345 4.9926897401735042  6.0815589525850955 4.9943879616661047  6.1103229287263776 4.9958719004605028  6.1391043998514556 4.9971363285361123  6.1679002880133309 4.9981759830472647  6.1967084504236283 4.9989884987591022  6.2255266958859297 4.9995716825825021  6.2543527973203288 4.9999232089076413  6.2735740610897377 5.0000008620620742  6.2831853071795862 5 
 0 4 0.0090909090909090905 1 0.018181818181818181 1 0.027272727272727271 1 0.036363636363636362 1 0.045454545454545456 1 0.054545454545454543 1 0.06363636363636363 1 0.072727272727272724 1 0.081818181818181818 1 0.090909090909090912 1 0.099999999999999992 1 0.10909090909090909 1 0.11818181818181818 1 0.12727272727272726 1 0.13636363636363635 1 0.14545454545454545 1 0.15454545454545454 1 0.16363636363636364 1 0.17272727272727273 1 0.18181818181818182 1 0.19090909090909089 1 0.19999999999999998 1 0.20909090909090908 1 0.21818181818181817 1 0.22727272727272727 1 0.23636363636363636 1 0.24545454545454545 1 0.25454545454545452 1 0.26363636363636361 1 0.27272727272727271 1 0.2818181818181818 1 0.29090909090909089 1 0.29999999999999999 1 0.30909090909090908 1 0.31818181818181818 1 0.32727272727272727 1 0.33636363636363636 1 0.34545454545454546 1 0.35454545454545455 1 0.36363636363636365 1 0.37272727272727268 1 0.38181818181818178 1 0.39090909090909087 1 0.39999999999999997 1 0.40909090909090906 1 0.41818181818181815 1 0.42727272727272725 1 0.43636363636363634 1 0.44545454545454544 1 0.45454545454545453 1 0.46363636363636362 1 0.47272727272727272 1 0.48181818181818181 1 0.49090909090909091 1 0.5 1 0.50909090909090904 1 0.51818181818181819 1 0.52727272727272723 1 0.53636363636363638 1 0.54545454545454541 1 0.55454545454545456 1 0.5636363636363636 1 0.57272727272727275 1 0.58181818181818179 1 0.59090909090909083 1 0.59999999999999998 1 0.60909090909090902 1 0.61818181818181817 1 0.6272727272727272 1 0.63636363636363635 1 0.64545454545454539 1 0.65454545454545454 1 0.66363636363636358 1 0.67272727272727273 1 0.68181818181818177 1 0.69090909090909092 1 0.69999999999999996 1 0.70909090909090911 1 0.71818181818181814 1 0.72727272727272729 1 0.73636363636363633 1 0.74545454545454537 1 0.75454545454545452 1 0.76363636363636356 1 0.77272727272727271 1 0.78181818181818175 1 0.79090909090909089 1 0.79999999999999993 1 0.80909090909090908 1 0.81818181818181812 1 0.82727272727272727 1 0.83636363636363631 1 0.84545454545454546 1 0.8545454545454545 1 0.86363636363636365 1 0.87272727272727268 1 0.88181818181818172 1 0.89090909090909087 1 0.89999999999999991 1 0.90909090909090906 1 0.9181818181818181 1 0.92727272727272725 1 0.93636363636363629 1 0.94545454545454544 1 0.95454545454545447 1 0.96363636363636362 1 0.97272727272727266 1 0.98181818181818181 1 0.99090909090909085 1 1 4
7 0 0  3 201 199  3.1415926535772667 9.3750000000000018  3.1455966849579444 9.3750000815851511  3.1536050626923666 9.3752572402607193  3.165605963279265 9.3764116787502942  3.1775826087009391 9.3783324811187807  3.1895223335648413 9.3810174877208841  3.20141265114956 9.3844638663179101  3.2132420882681525 9.3886644998119184  3.2249990076271691 9.3936126290415345  3.236671673791061 9.3993015857766444  3.2482485800099075 9.4057239438164171  3.2597191769762759 9.4128692215263268  3.2710727016844814 9.4207272903932608  3.2822982360526143 9.4292880671944328  3.2933851996559387 9.4385408990042272  3.3043242483111399 9.4484731953097008  3.3151057122513565 9.4590726457261294  3.3257198966384007 9.4703268416625832  3.3361568701585274 9.482223487224795  3.3464080164591605 9.4947492439629553  3.3564647801141412 9.5078906270693224  3.3663184172141349 9.5216341965423954  3.3759601173770828 9.5359664766299179  3.3853808172113373 9.5508740897763911  3.3945722011071591 9.5663430809642556  3.4035262048642148 9.5823592367064521  3.412234546762444 9.5989084040031933  3.4206888499139914 9.6159764223830901  3.4288806293265335 9.6335491007738714  3.4368012611109653 9.6516123779783829  3.4444421643754439 9.6701516693383276  3.4517950776692254 9.6891508489777376  3.4588515808509852 9.7085940084166751  3.4656031717436453 9.7284652122651529  3.4720412748823017 9.7487484153773032  3.4781571564511995 9.7694280385408891  3.483942331410792 9.7904864344212861  3.4893887174872358 9.8119030480910787  3.4944880672990837 9.8336579146151184  3.4992321574719805 9.8557308175525566  3.5036124857529543 9.8781019564930936  3.5076215814721183 9.9007496440859786  3.5112528440179851 9.9236506148894339  3.5144993384745487 9.9467821637856222  3.5173545773360106 9.9701206138181675  3.5198135186699528 9.9936393261508236  3.5218708218397872 10.017312111970735  3.5235215141948637 10.041112496936474  3.5247629563903335 10.065012727511586  3.5255920564490664 10.088985350799623  3.5260068029147855 10.113002057532336  3.5260066481741745 10.137033330245155  3.5255909481198051 10.161049867678875  3.5247613826027306 10.185022332674238  3.5235196869422061 10.208921119680651  3.5218682687733662 10.232717756529279  3.5198112811503779 10.256386364514103  3.5173523572271264 10.27990050186224  3.5144968588493342 10.30323485899461  3.5112506334115987 10.326364439878418  3.507619308563044 10.349264055360228  3.5036099593879411 10.371910815595996  3.4992297434310005 10.394282040920443  3.4944856657791377 10.416354816831614  3.4893860708045215 10.438109107511384  3.4839393658327609 10.459525109410881  3.4781538800517167 10.48058305096194  3.4720378375014622 10.50126280306133  3.4655996133754003 10.521545799208386  3.4588479369205087 10.541416588609346  3.4517913786949186 10.560859186138249  3.4444384360457252 10.57985773532813  3.4367975244950086 10.598396399408152  3.4288769001489547 10.616459134164103  3.4206851328826109 10.634031339202808  3.4122308416266542 10.65109893375517  3.4035225051685263 10.667647709101793  3.3945684927625721 10.683663485515677  3.3853770838773598 10.69913209525051  3.3759563187161485 10.714039293644939  3.36631460331715 10.728371180162823  3.3564609905965921 10.742114376353538  3.3464042791585733 10.755255402647308  3.3361531985065005 10.767780814195371  3.3257162989873801 10.779677128384042  3.3151021528528877 10.790930980511206  3.3043207061916742 10.801530088799577  3.2933816844171639 10.811462068060127  3.2822947892017171 10.820714637363187  3.2710693820736005 10.829275202153285  3.2597159098179946 10.837132948171282  3.2482453385191783 10.844277914630053  3.236668452109865 10.850700053868236  3.224995799761766 10.856388905086762  3.2132388080067655 10.861336705140621  3.2014093600075952 10.86553701926894  3.1895191915054846 10.868983231664673  3.1775799045811519 10.871668265900615  3.1656036684649531 10.873588888662209  3.1536028604692379 10.874743063497021  3.1415897905491179 10.875128534188079  3.1295767437861 10.874742799779034  3.1175759604462896 10.873587998524199  3.1055997276775917 10.871666808549874  3.0936603491936898 10.868981813097331  3.0817701592332822 10.865535449355294  3.069940759752444 10.861334524013996  3.0581837932837717 10.856386086546854  3.046510994826972 10.850697071830714  3.0349340580637469 10.844274632247718  3.0234635233386142 10.837129144066662  3.0121100829968124 10.829270852776029  3.0008845710763157 10.820709946229291  2.9897976302577951 10.811456985694434  2.9788586243580304 10.801524532090159  2.9680772068411749 10.790924919849871  2.9574630619973759 10.779670570304363  2.9470261268025015 10.76777378368017  2.9367750430631818 10.755247877548022  2.926718342334361 10.742106350490326  2.9168647578447908 10.728362647419489  2.9072230857883854 10.714030251946879  2.8978023790822061 10.699122546558057  2.8886110434215562 10.683653427472139  2.8796571104482451 10.667637135368235  2.8709488532795433 10.65108783296764  2.8624946331339727 10.634019699654116  2.8543029265848721 10.616446926119375  2.8463823299693591 10.598383641160757  2.8387414767932651 10.57984421430087  2.8313886345765948 10.56084480145101  2.8243322089187615 10.541401408049325  2.8175806909420098 10.52153006049998  2.8111426506877493 10.501246851816253  2.8050267896591805 10.480567587608979  2.79924170045653 10.459509226180307  2.7937954313620161 10.438092399173971  2.7886961879990131 10.416337193880347  2.7839521629910076 10.394263928174476  2.7795717878072161 10.371892541946094  2.7755627869789214 10.349244438229569  2.771931677147276 10.326343420476196  2.76868515702657 10.30321295089268  2.7658301910822232 10.279876224825728  2.763372497312742 10.256358080481956  2.7613158386571204 10.23268590809357  2.7596643644876093 10.208886611106429  2.7584221156497204 10.184987233567124  2.7575932392122109 10.161014743905589  2.7571784859468371 10.136998521516881  2.757178717326406 10.112968000237052  2.7575940158491696 10.088952558172222  2.7584239581925303 10.064981742110882  2.7596659325826516 10.041083413122083  2.761316814880372 10.017285088642055  2.7633739043571635 9.9936145875317539  2.7658330883931455 9.9700986684074397  2.7686885797717316 9.946762742374581  2.7719351253713156 9.9236328337246249  2.7755665491111432 9.9007332256745304  2.7795758060242926 9.8780864145635761  2.7839561462124047 9.8557153921908363  2.7887005022718627 9.8336425542601091  2.7938002984244594 9.8118877169879948  2.7992471874925524 9.7904710008582061  2.8050328229976023 9.7694123484396478  2.8111489814029307 9.748732109693341  2.8175872954814234 9.728449029306196  2.8243390389162735 9.7085784130140773  2.8313956425678066 9.6891361390179931  2.8387486114207454 9.6701379463229031  2.846389530738167 9.6515995582529097  2.8543101511479403 9.6335369000514746  2.8625019817848338 9.6159648299562175  2.8709563634043294 9.5988973715373582  2.8796647999233409 9.5823487342118021  2.8886188947503326 9.5663330808124378  2.8978103544139433 9.5508645746614338  2.9072310774388028 9.5359574237079343  2.9168728236856944 9.5216256466569558  2.9267265187351255 9.5078826027829297  2.9367833213408754 9.4947417400578047  2.9470344779253219 9.482216485894746  2.9574713513976416 9.4703202612445079  2.968085507260569 9.4590665334663022  2.9788670723774868 9.4484676324394297  2.9898061996861105 9.4385358525295526  3.000893122186111 9.4292834251051243  3.0121183650456209 9.4207228688343498  3.0234717561973459 9.4128653544072893  3.0349423294839637 9.4057206445726695  3.0465193260708108 9.399298683792793  3.0581922450603254 9.3936097787126336  3.0699496971343425 9.3886621338191283  3.0817793993366736 9.3844620373187375  3.0936693213872331 9.3810160510078084  3.1056074377207654 9.3783311807662439  3.1175818922736078 9.376410750180165  3.1295808520459527 9.3752567495043664  3.1375886220913904 9.3749999184148471  3.1415926535772667 9.3750000000000018 
 0 4 0.0050505050505050509 1 0.010101010101010102 1 0.015151515151515152 1 0.020202020202020204 1 0.025252525252525256 1 0.030303030303030304 1 0.035353535353535359 1 0.040404040404040407 1 0.045454545454545456 1 0.050505050505050511 1 0.055555555555555559 1 0.060606060606060608 1 0.065656565656565663 1 0.070707070707070718 1 0.07575757575757576 1 0.080808080808080815 1 0.08585858585858587 1 0.090909090909090912 1 0.095959595959595967 1 0.10101010101010102 1 0.10606060606060606 1 0.11111111111111112 1 0.11616161616161617 1 0.12121212121212122 1 0.12626262626262627 1 0.13131313131313133 1 0.13636363636363638 1 0.14141414141414144 1 0.14646464646464646 1 0.15151515151515152 1 0.15656565656565657 1 0.16161616161616163 1 0.16666666666666669 1 0.17171717171717174 1 0.1767676767676768 1 0.18181818181818182 1 0.18686868686868688 1 0.19191919191919193 1 0.19696969696969699 1 0.20202020202020204 1 0.2070707070707071 1 0.21212121212121213 1 0.21717171717171718 1 0.22222222222222224 1 0.22727272727272729 1 0.23232323232323235 1 0.2373737373737374 1 0.24242424242424243 1 0.24747474747474749 1 0.25252525252525254 1 0.25757575757575762 1 0.26262626262626265 1 0.26767676767676768 1 0.27272727272727276 1 0.27777777777777779 1 0.28282828282828287 1 0.2878787878787879 1 0.29292929292929293 1 0.29797979797979801 1 0.30303030303030304 1 0.30808080808080812 1 0.31313131313131315 1 0.31818181818181823 1 0.32323232323232326 1 0.32828282828282829 1 0.33333333333333337 1 0.3383838383838384 1 0.34343434343434348 1 0.34848484848484851 1 0.35353535353535359 1 0.35858585858585862 1 0.36363636363636365 1 0.36868686868686873 1 0.37373737373737376 1 0.37878787878787884 1 0.38383838383838387 1 0.3888888888888889 1 0.39393939393939398 1 0.39898989898989901 1 0.40404040404040409 1 0.40909090909090912 1 0.4141414141414142 1 0.41919191919191923 1 0.42424242424242425 1 0.42929292929292934 1 0.43434343434343436 1 0.43939393939393945 1 0.44444444444444448 1 0.44949494949494956 1 0.45454545454545459 1 0.45959595959595961 1 0.4646464646464647 1 0.46969696969696972 1 0.47474747474747481 1 0.47979797979797983 1 0.48484848484848486 1 0.48989898989898994 1 0.49494949494949497 1 0.5 1 0.50505050505050508 1 0.51010101010101017 1 0.51515151515151525 1 0.52020202020202022 1 0.5252525252525253 1 0.53030303030303039 1 0.53535353535353536 1 0.54040404040404044 1 0.54545454545454553 1 0.5505050505050505 1 0.55555555555555558 1 0.56060606060606066 1 0.56565656565656575 1 0.57070707070707072 1 0.5757575757575758 1 0.58080808080808088 1 0.58585858585858586 1 0.59090909090909094 1 0.59595959595959602 1 0.60101010101010111 1 0.60606060606060608 1 0.61111111111111116 1 0.61616161616161624 1 0.62121212121212122 1 0.6262626262626263 1 0.63131313131313138 1 0.63636363636363646 1 0.64141414141414144 1 0.64646464646464652 1 0.6515151515151516 1 0.65656565656565657 1 0.66161616161616166 1 0.66666666666666674 1 0.67171717171717182 1 0.6767676767676768 1 0.68181818181818188 1 0.68686868686868696 1 0.69191919191919193 1 0.69696969696969702 1 0.7020202020202021 1 0.70707070707070718 1 0.71212121212121215 1 0.71717171717171724 1 0.72222222222222232 1 0.72727272727272729 1 0.73232323232323238 1 0.73737373737373746 1 0.74242424242424254 1 0.74747474747474751 1 0.7525252525252526 1 0.75757575757575768 1 0.76262626262626265 1 0.76767676767676774 1 0.77272727272727282 1 0.77777777777777779 1 0.78282828282828287 1 0.78787878787878796 1 0.79292929292929304 1 0.79797979797979801 1 0.80303030303030309 1 0.80808080808080818 1 0.81313131313131315 1 0.81818181818181823 1 0.82323232323232332 1 0.8282828282828284 1 0.83333333333333337 1 0.83838383838383845 1 0.84343434343434354 1 0.84848484848484851 1 0.85353535353535359 1 0.85858585858585867 1 0.86363636363636376 1 0.86868686868686873 1 0.87373737373737381 1 0.8787878787878789 1 0.88383838383838387 1 0.88888888888888895 1 0.89393939393939403 1 0.89898989898989912 1 0.90404040404040409 1 0.90909090909090917 1 0.91414141414141425 1 0.91919191919191923 1 0.92424242424242431 1 0.92929292929292939 1 0.93434343434343448 1 0.93939393939393945 1 0.94444444444444453 1 0.94949494949494961 1 0.95454545454545459 1 0.95959595959595967 1 0.96464646464646475 1 0.96969696969696972 1 0.97474747474747481 1 0.97979797979797989 1 0.98484848484848497 1 0.98989898989898994 1 0.99494949494949503 1 1 4
7 0 0  3 201 199  6.2831853072129888 0.9999999999992002  6.2725078977986364 1.0000000410710936  6.2511522008788809 1.00009679788442  6.2191215032183393 1.0005296556950733  6.187099076661962 1.0012478835889296  6.1550905497199633 1.0022493078718047  6.1231009477284921 1.0035310751917383  6.0911330915478743 1.0050860068003684  6.0591903395451325 1.006907279252147  6.0272762590512663 1.0089881839095454  5.995393819671138 1.0113211568209715  5.9635441418617923 1.0138952058841408  5.9317289215738356 1.0166997258733734  5.899950181783673 1.0197241978623952  5.8682090844763497 1.0229573227367059  5.8365042066496091 1.0263851698949678  5.8048349134117139 1.029994193618589  5.773200599819706 1.0337706968479992  5.7416010408246585 1.0377012030048054  5.7100329897584352 1.0417700677060275  5.6784930983888309 1.0459613405992096  5.6469783720491797 1.0502591652416207  5.6154858488959665 1.0546476095143518  5.5840128714511845 1.0591109500934899  5.5525551373891062 1.0636322350117593  5.5211078228636445 1.0681939608409079  5.489666426766183 1.0727787579090304  5.4582264594010876 1.0773692219167661  5.4267834470632152 1.0819479533182137  5.3953327566392026 1.0864975681811053  5.3638698424270039 1.0910006105440215  5.332390941012342 1.0954394079939418  5.3008921964528088 1.0997963232929868  5.2693696565969255 1.1040536975112691  5.2378193211338875 1.1081939233118008  5.2062364458124613 1.1121992086779913  5.1746181051850613 1.1160525719225074  5.1429643530811351 1.1197381766928285  5.1112745532209551 1.1232399359791581  5.0795480977449348 1.1265419334758104  5.04778366146056 1.1296278207179371  5.0159811742440326 1.1324833322692454  4.9841418875893382 1.1350959448673363  4.9522663374889042 1.1374525401891042  4.9203557435672174 1.139540974379649  4.8884144118747166 1.1413520949829685  4.8564460707393664 1.142876189240235  4.8244543496675547 1.1441042524944349  4.7924438308275583 1.145031520871324  4.7604187660810737 1.1456524145519682  4.7283841832005429 1.1459633352986478  4.6963465999820322 1.1459633622479586  4.6643121781107908 1.1456513904541641  4.6322872215111666 1.145030325347355  4.6002785616376478 1.1441031334975968  4.5682915956053769 1.1428740634974468  4.5363288297333106 1.1413506642951874  4.5043935274510769 1.1395395196281304  4.4724881473934577 1.1374505022722177  4.4406152459376109 1.1350944441755535  4.4087776588070309 1.1324817914244996  4.3769761662018247 1.1296259079681648  4.3452116636827078 1.12654039318804  4.3134853680698875 1.123238619352052  4.2817960676233913 1.1197366205721042  4.2501427486977406 1.1160506603314115  4.2185246053839105 1.1121969748378369  4.1869413527661088 1.1081916824872466  4.1553910820458029 1.1040514591768598  4.1238688775178858 1.0997940995644397  4.0923706618886495 1.0954372043855816  4.0608923856033527 1.0909984283460383  4.0294301096642791 1.0864954041931063  3.9979799830392366 1.081945798537747  3.9665374609350081 1.0773670769499994  3.9350979212238979 1.0727766343836536  3.9036568945670354 1.0681918804039807  3.8722098899854274 1.0636302316609398  3.8407524122778014 1.0591090618542665  3.8092795982342551 1.0546459093998997  3.7777873244187923 1.0502575960959106  3.7462729169058431 1.0459598588319663  3.7147333916010048 1.0417686446324208  3.6831657229783499 1.0376998282468737  3.6515665505181119 1.033769363389256  3.6199325256229997 1.0299929569133064  3.5882634501037387 1.0263840634099251  3.5565587887354511 1.0229563367182324  3.5248179827794779 1.0197232740412117  3.4930396656073111 1.0166987998781529  3.4612246986633917 1.0138944352185386  3.429375188046631 1.0113205406598533  3.3974928686143251 1.0089876238473208  3.3655788682971153 1.0069066392392527  3.333636000924141 1.0050855388670428  3.3016681691577574 1.0035307892668095  3.2696789822889265 1.0022490732111351  3.2376716211459993 1.0012475339758171  3.2056503110942902 1.0005294035933125  3.1736198765829151 1.0000966941123315  3.141585019071881 0.99995164353817989  3.1095502217697941 1.0000967316274223  3.0775198241154467 1.0005298369571731  3.0454984641532192 1.0012483008502882  3.0134908432317467 1.0022495578249795  2.9815015742590134 1.0035311926567798  2.9495337682194105 1.005086322568405  2.9175908251099223 1.0069078151026352  2.8856763721927123 1.0089886606101728  2.8537938256734208 1.0113216058379384  2.8219442446056231 1.0138957698239424  2.7901291602891618 1.0167004125375165  2.7583504134109251 1.0197248826892087  2.7266093086200183 1.0229580165720256  2.6949044596682317 1.0263859181180643  2.6632351958385581 1.029995005945556  2.6316008898653482 1.0337715595252295  2.6000013341786001 1.0377021002316753  2.5684333355658318 1.0417710244150475  2.5368934907540606 1.045962348933021  2.5053787825281741 1.0502602032428432  2.4738862213920036 1.0546486353725979  2.4424131349446014 1.0591119064674441  2.4109553937491501 1.0636331947545872  2.3795081092687518 1.0681949515818796  2.3480667659293442 1.0727797950907536  2.3166268551226601 1.0773702992072725  2.2851838837073259 1.0819490479253935  2.2537332386370679 1.086498629182858  2.2222702551267552 1.0910016045677653  2.190791204175957 1.0954403315568029  2.159292307386 1.0997971876855785  2.1277697048682249 1.1040545373001815  2.0962194488866199 1.1081947774458658  2.0646370493563193 1.1122001875607446  2.0330188646318472 1.1160535130223141  2.0013649790367491 1.1197389900298937  1.9696748622159959 1.1232406195067284  1.9379480077598323 1.1265425515307215  1.9061832367762506 1.1296285748372004  1.8743802893750576 1.1324839586316753  1.8425410306780332 1.1350963934396445  1.8106668892165327 1.1374532731013167  1.7787587218769456 1.139541535884667  1.7468185948852817 1.1413505887971049  1.7148511635022761 1.1428736477183312  1.6828606106771709 1.1441031978741074  1.6508510852706344 1.1450319516866454  1.6188262417217185 1.1456524434463007  1.5867923022553025 1.1459633730482328  1.5547557139008514 1.1459632589347457  1.5227227873053364 1.145651935205372  1.4907000013233542 1.145030050291125  1.4586918593610854 1.1441022805642607  1.4267027647392236 1.1428742432406183  1.3947374791429716 1.1413507878354276  1.3627997222207933 1.1395393747348492  1.3308922861965033 1.1374505948221203  1.2990188047913156 1.135094044695115  1.2671811564325361 1.1324812504891628  1.2353796458005757 1.129625601584221  1.2036153034200137 1.1265399611697851  1.1718886828792936 1.1232378583895213  1.1401984878659892 1.1197357333574338  1.1085440812290015 1.1160497037262773  1.076924893301249 1.1121960063572953  1.0453409126315183 1.1081907237390356  1.0137904242643447 1.1040504889429636  0.9822683243536483 1.0997931052710948  0.95077040328671281 1.0954361793553233  0.91929247409835035 1.0909973728790969  0.88783047683446004 1.0864943239897669  0.85638043845140643 1.0819447099275226  0.82493792673673561 1.0773660295384182  0.7934983315077595 1.072775644275733  0.76205722049202329 1.0681909444884827  0.73061014941124824 1.0636293194964399  0.69915265410569205 1.0591081338405919  0.6676800009875743 1.0546448522063308  0.63618775272203276 1.0502565420730017  0.60467326153792911 1.045958893761086  0.57313362668570988 1.0417677828095737  0.54156587345121654 1.0376990416558998  0.50996683983667168 1.0337684899252115  0.47833288280624764 1.029992041593353  0.44666361903042429 1.0263832740852594  0.41495878064637726 1.022955676494528  0.38321796374716577 1.0197226651948135  0.35144009000293597 1.0166980353537791  0.31962541882389051 1.0138937914177599  0.28777598623853251 1.0113200576740682  0.2558934351356914 1.0089872257224879  0.22397874522388594 1.006906073803955  0.19203470914427001 1.0050850398192783  0.16006624140802383 1.003530417335867  0.12807773292440494 1.0022488220209995  0.096073500399179501 1.0012473037849416  0.064056956065779325 1.0005292111339934  0.03203147362284664 1.0000965502043015  0.010677410437454959 0.99999995892730698  3.340350218650201e-11 0.9999999999992002 
 0 4 0.0050505050505050509 1 0.010101010101010102 1 0.015151515151515152 1 0.020202020202020204 1 0.025252525252525256 1 0.030303030303030304 1 0.035353535353535359 1 0.040404040404040407 1 0.045454545454545456 1 0.050505050505050511 1 0.055555555555555559 1 0.060606060606060608 1 0.065656565656565663 1 0.070707070707070718 1 0.07575757575757576 1 0.080808080808080815 1 0.08585858585858587 1 0.090909090909090912 1 0.095959595959595967 1 0.10101010101010102 1 0.10606060606060606 1 0.11111111111111112 1 0.11616161616161617 1 0.12121212121212122 1 0.12626262626262627 1 0.13131313131313133 1 0.13636363636363638 1 0.14141414141414144 1 0.14646464646464646 1 0.15151515151515152 1 0.15656565656565657 1 0.16161616161616163 1 0.16666666666666669 1 0.17171717171717174 1 0.1767676767676768 1 0.18181818181818182 1 0.18686868686868688 1 0.19191919191919193 1 0.19696969696969699 1 0.20202020202020204 1 0.2070707070707071 1 0.21212121212121213 1 0.21717171717171718 1 0.22222222222222224 1 0.22727272727272729 1 0.23232323232323235 1 0.2373737373737374 1 0.24242424242424243 1 0.24747474747474749 1 0.25252525252525254 1 0.25757575757575762 1 0.26262626262626265 1 0.26767676767676768 1 0.27272727272727276 1 0.27777777777777779 1 0.28282828282828287 1 0.2878787878787879 1 0.29292929292929293 1 0.29797979797979801 1 0.30303030303030304 1 0.30808080808080812 1 0.31313131313131315 1 0.31818181818181823 1 0.32323232323232326 1 0.32828282828282829 1 0.33333333333333337 1 0.3383838383838384 1 0.34343434343434348 1 0.34848484848484851 1 0.35353535353535359 1 0.35858585858585862 1 0.36363636363636365 1 0.36868686868686873 1 0.37373737373737376 1 0.37878787878787884 1 0.38383838383838387 1 0.3888888888888889 1 0.39393939393939398 1 0.39898989898989901 1 0.40404040404040409 1 0.40909090909090912 1 0.4141414141414142 1 0.41919191919191923 1 0.42424242424242425 1 0.42929292929292934 1 0.43434343434343436 1 0.43939393939393945 1 0.44444444444444448 1 0.44949494949494956 1 0.45454545454545459 1 0.45959595959595961 1 0.4646464646464647 1 0.46969696969696972 1 0.47474747474747481 1 0.47979797979797983 1 0.48484848484848486 1 0.48989898989898994 1 0.49494949494949497 1 0.5 1 0.50505050505050508 1 0.51010101010101017 1 0.51515151515151525 1 0.52020202020202022 1 0.5252525252525253 1 0.53030303030303039 1 0.53535353535353536 1 0.54040404040404044 1 0.54545454545454553 1 0.5505050505050505 1 0.55555555555555558 1 0.56060606060606066 1 0.56565656565656575 1 0.57070707070707072 1 0.5757575757575758 1 0.58080808080808088 1 0.58585858585858586 1 0.59090909090909094 1 0.59595959595959602 1 0.60101010101010111 1 0.60606060606060608 1 0.61111111111111116 1 0.61616161616161624 1 0.62121212121212122 1 0.6262626262626263 1 0.63131313131313138 1 0.63636363636363646 1 0.64141414141414144 1 0.64646464646464652 1 0.6515151515151516 1 0.65656565656565657 1 0.66161616161616166 1 0.66666666666666674 1 0.67171717171717182 1 0.6767676767676768 1 0.68181818181818188 1 0.68686868686868696 1 0.69191919191919193 1 0.69696969696969702 1 0.7020202020202021 1 0.70707070707070718 1 0.71212121212121215 1 0.71717171717171724 1 0.72222222222222232 1 0.72727272727272729 1 0.73232323232323238 1 0.73737373737373746 1 0.74242424242424254 1 0.74747474747474751 1 0.7525252525252526 1 0.75757575757575768 1 0.76262626262626265 1 0.76767676767676774 1 0.77272727272727282 1 0.77777777777777779 1 0.78282828282828287 1 0.78787878787878796 1 0.79292929292929304 1 0.79797979797979801 1 0.80303030303030309 1 0.80808080808080818 1 0.81313131313131315 1 0.81818181818181823 1 0.82323232323232332 1 0.8282828282828284 1 0.83333333333333337 1 0.83838383838383845 1 0.84343434343434354 1 0.84848484848484851 1 0.85353535353535359 1 0.85858585858585867 1 0.86363636363636376 1 0.86868686868686873 1 0.87373737373737381 1 0.8787878787878789 1 0.88383838383838387 1 0.88888888888888895 1 0.89393939393939403 1 0.89898989898989912 1 0.90404040404040409 1 0.90909090909090917 1 0.91414141414141425 1 0.91919191919191923 1 0.92424242424242431 1 0.92929292929292939 1 0.93434343434343448 1 0.93939393939393945 1 0.94444444444444453 1 0.94949494949494961 1 0.95454545454545459 1 0.95959595959595967 1 0.96464646464646475 1 0.96969696969696972 1 0.97474747474747481 1 0.97979797979797989 1 0.98484848484848497 1 0.98989898989898994 1 0.99494949494949503 1 1 4
1 0 4.7123889803846897 1 0 
1 6.2831853071795862 0 0 1 
1 0 0 0 1 
1 0 3.1415926535897931 1 0 
1 0 0.19999999999999929 1 0 
1 6.2831853071795862 0 0 1 
1 0 0 0 1 
1 0 2.7999999999999972 1 0 
1 9.4247779607693793 0.14142135623731059 -1 0 
1 9.4247779607693793 0 0 1 
1 3.1415926535897931 0 0 1 
1 9.4247779607693793 -0.14142135623731042 -1 0 
1 6.2831853071795862 0 0 1 
1 0 0 0 1 
Curves 34
2 4.8939339827456596 24.225000000000801 -18.611553006144 0 1 0 0 -0 1 1 0 -0 3.1499999999999999
2 0 0 0 1 0 0 -0 1 6.1232339957367697e-17 0 -6.1232339957367697e-17 1 2
2 10.775 0 0 1 0 0 -0 1 6.1232339957367697e-17 0 -6.1232339957367697e-17 1 2
7 0 0  1 2 2  0 2 -3.6739403974420589e-16  10.774999999999999 2 -3.6739403974420589e-16 
 22.225000000000001 2 33 2
2 10.775 0 0 1 0 0 -0 1 6.1232339957367697e-17 0 -6.1232339957367697e-17 1 1.7
2 10.975 0 0 1 0 0 -0 1 6.1232339957367599e-17 0 -6.1232339957367599e-17 1 1.5
7 1 0  6 7 2  10.975 1.5 9.1848509936051398e-17  1.0313934717875073 10.921532643369416 1.4999999999999998 9.1848509936051386e-17  1.0100254076614366 10.86945828548356 1.517000870126739 9.2889512995222933e-17  0.99792464272497539 10.824616097359542 1.5496160973595419 9.4886619676928714e-17  0.99395844413692447 10.792000870126738 1.5944582854835612 9.7632411784570908e-17  0.99792464272497583 10.774999999999999 1.6465326433694163 1.0082104656969921e-16  1.0100254076614348 10.775 1.7 1.0409497792752492e-16  1.0313934717875073
 3.1415926535897931 7 4.7123889803846897 7
2 14.074999999999999 0 0 1 0 0 -0 1 6.1232339957367599e-17 0 -6.1232339957367599e-17 1 1.5
7 0 0  1 2 2  10.975 1.5 -2.7554552980815453e-16  14.074999999999999 1.5 -2.7554552980815453e-16 
 0.19999999999999929 2 3.2999999999999989 2
2 14.275 0 0 1 0 0 -0 1 6.1232339957367697e-17 0 -6.1232339957367697e-17 1 1.3
7 0 0  1 2 2  14.275 1.3 2.3880612583373391e-16  14.074999999999999 1.5000000000000009 2.7554552980815467e-16 
 -0.14142135623730917 2 0.14142135623731061 2
1 4.8939339827456587 22.324999999999999 -15.461553006143998 0 1 0 
2 4.8939339827456596 22.325000000000799 -18.611553006144 0 1 0 0 -0 1 1 0 -0 3.1499999999999999
2 -1.8999999999999999 0 0 1 0 0 -0 1 6.1232339957367697e-17 0 -6.1232339957367697e-17 1 2
7 0 0  1 2 2  -6.4499999999999993 2 -3.6739403974420589e-16  -1.8999999999999986 2 -3.6739403974420589e-16 
 15.775000000000002 2 20.325000000000003 2
2 -6.4500000000000002 0 0 1 0 -1.22464679914735e-16 7.498798913309273e-33 1 6.1232339957367697e-17 1.22464679914735e-16 -6.1232339957367697e-17 1 2
2 -6.4500000000000002 0 -1.22464679914735e-16 1 0 -1.22464679914735e-16 7.498798913309273e-33 -1 6.1232339957367697e-17 -1.22464679914735e-16 -6.1232339957367697e-17 -1 4
7 0 0  1 2 2  -7.4500000000000002 -4 1.2246467991473535e-15  -6.4500000000000002 -4 1.1021821192326185e-15 
 0 2 1 2
2 -7.4500000000000002 0 0 1 0 -1.22464679914735e-16 7.498798913309273e-33 -1 6.1232339957367697e-17 -1.22464679914735e-16 -6.1232339957367697e-17 -1 4
2 -7.4500000000000002 0 0 1 0 -1.22464679914735e-16 7.498798913309273e-33 1 6.1232339957367697e-17 1.22464679914735e-16 -6.1232339957367697e-17 1 2
7 0 0  1 2 2  -11.349999999999401 2 -3.6739403974420589e-16  -7.4499999999999993 2 -3.6739403974420589e-16 
 10.8750000000006 2 14.775000000000002 2
7 0 0  3 30 28  -12.85 2 3.6884791387980001e-16  -12.8500019249253 2.0000020729300498 0.015753882434875199  -12.848840987502999 1.9995642253514001 0.052479969756622002  -12.8422467385174 1.9970988987314799 0.11509365831873999  -12.826693150080301 1.9913454643986399 0.192107976899109  -12.798211553814999 1.98106657055793 0.27974156582886101  -12.7521213221014 1.9651622018549999 0.37619507423124299  -12.6813045543533 1.9424763631006501 0.48049636229886  -12.5846114106459 1.9153170112515601 0.57849074123045996  -12.4728524938284 1.8901073864070701 0.65489829789433995  -12.3716524132463 1.8730985363411701 0.70136754532411205  -12.285843208382399 1.86285041443939 0.72795619591979499  -12.214208340641999 1.8571334024997199 0.74235672432204303  -12.152515446460299 1.8545107615274801 0.74886086772776705  -12.109888477741199 1.85398268225845 0.75016547494083496  -12.069136153359601 1.8541609516197499 0.74972469524691498  -12.0231512359831 1.8553115637018101 0.74688161957702004  -11.960560100335 1.8589236620559499 0.73787158690141996  -11.8951000781788 1.8649366999952699 0.72259666519681698  -11.816550535809 1.87496127222332 0.69635630057406095  -11.7219043372926 1.8912605047086399 0.65148042374249704  -11.614572189101301 1.91557447241096 0.57750066037259196  -11.518919214743301 1.94240311682391 0.48077652773107399  -11.447456961643899 1.9652925717757701 0.37572513610206798  -11.4006762401174 1.9814574294841001 0.27718660812456403  -11.3723754639635 1.9916871913426299 0.18856142502936901  -11.357324812857 1.99725882548517 0.11198996734984  -11.351086727284599 1.9995914638958201 0.050863924592603499  -11.349998259002099 2.0000018489302498 0.015222405295390999  -11.35 2 7.5674536896164597e-12 
 0 4 0.0198648364629108 1 0.046318854527355 1 0.079399862559751302 1 0.119069813996646 1 0.163017470523564 1 0.21538543190565901 1 0.28011579658202401 1 0.33916342111499798 1 0.38838123079613202 1 0.42176354050974202 1 0.45305374407673898 1 0.48070013318851201 1 0.49999248262664098 1 0.50681371783069495 1 0.53209598274083503 1 0.55806382077206296 1 0.58664438917168205 1 0.61714064748539099 1 0.66316922447008597 1 0.71999151006329098 1 0.783780919880539 1 0.83724790387730197 1 0.88227891492813604 1 0.92251043386720999 1 0.95504458452073004 1 0.98080233557739904 1 1 4
7 0 0  1 2 2  -19.225000000000001 2 -3.6739403974420589e-16  -12.85 2 -3.6739403974420589e-16 
 3 2 9.3750000000000018 2
2 -19.225000000000001 0 0 1 0 0 -0 1 6.1232339957367697e-17 0 -6.1232339957367697e-17 1 2
7 0 0  3 30 28  -11.349999999998801 2 -4.0444249582068702e-16  -11.3499980750742 2.0000020729300498 -0.015753882434847301  -11.3511590124973 1.9995642253514001 -0.052479969756572403  -11.3577532614825 1.9970988987314799 -0.115093658318746  -11.3733068499197 1.9913454643986399 -0.19210797689909601  -11.401788446185 1.98106657055794 -0.279741565828862  -11.447878677898601 1.9651622018549999 -0.37619507423123999  -11.518695445646699 1.9424763631006501 -0.480496362298863  -11.615388589354099 1.9153170112515601 -0.57849074123045396  -11.727147506171599 1.8901073864070701 -0.65489829789433895  -11.828347586753701 1.8730985363411701 -0.70136754532411205  -11.9141567916176 1.8628504144394 -0.72795619591979199  -11.985791659358 1.8571334024997199 -0.74235672432204303  -12.0474845535397 1.8545107615274801 -0.74886086772776395  -12.0901115222588 1.85398268225845 -0.75016547494083496  -12.1308638466404 1.8541609516197599 -0.74972469524691199  -12.176848764016899 1.8553115637018101 -0.74688161957702004  -12.239439899664999 1.8589236620559499 -0.73787158690141796  -12.3048999218212 1.8649366999952699 -0.72259666519681398  -12.383449464190999 1.87496127222332 -0.69635630057405895  -12.4780956627074 1.8912605047086399 -0.65148042374249304  -12.5854278108988 1.91557447241096 -0.57750066037259096  -12.6810807852568 1.94240311682391 -0.48077652773106799  -12.7525430383561 1.9652925717757701 -0.37572513610206498  -12.7993237598827 1.9814574294841401 -0.27718660812431101  -12.827624536036801 1.9916871913427501 -0.18856142502829801  -12.842675187143501 1.9972588254853501 -0.111989967347082  -12.8489132727158 1.99959146389597 -0.050863924587575597  -12.850001740998 2.0000018489303102 -0.0152224052886667  -12.85 2 3.20700441142777e-17 
 0 4 0.019864836462844801 1 0.046318854527209401 1 0.079399862559504999 1 0.119069813996275 1 0.16301747052305199 1 0.21538543190498 1 0.280115796581141 1 0.339163421113925 1 0.388381230794903 1 0.42176354050840897 1 0.45305374407530102 1 0.48070013318698401 1 0.49999248262505502 1 0.50681371782908702 1 0.53209598273914704 1 0.55806382077029204 1 0.58664438916982198 1 0.617140647483433 1 0.66316922446798299 1 0.71999151006100703 1 0.78378091987805099 1 0.83724790387464398 1 0.88227891492533494 1 0.92251043386463205 1 0.95504458451875596 1 0.98080233557640095 1 1 4
7 0 1  3 51 50  -12.85 -2.0000000000007998 2.5052689089921601e-11  -12.8499996859343 -1.9999998418927001 -0.0308274188157917  -12.846150953878 -1.9985519602144699 -0.093133406504204999  -12.8287310415232 -1.9920838697185601 -0.18557020271128499  -12.7986115312882 -1.9812062732573701 -0.27885714383563898  -12.7523020271022 -1.9652201570203101 -0.37592898106307698  -12.6813045338795 -1.9424763319965701 -0.48049637436214099  -12.5846114129466 -1.91531701865602 -0.57849074084046304  -12.4728524874896 -1.8901073837534299 -0.65489830106549596  -12.3716524180879 -1.87309853727892 -0.70136754345991503  -12.285843207188901 -1.8628504142308 -0.727956196340241  -12.2142083401341 -1.8571334024994699 -0.74235672434630495  -12.1525154466619 -1.8545107615298 -0.74886086771785998  -12.1098884777882 -1.85398268225842 -0.75016547494116204  -12.069136153334499 -1.85416095161969 -0.74972469524694596  -12.0231512357594 -1.85531156370848 -0.74688161955958399  -11.960560100682599 -1.8589236620494201 -0.73787158692126598  -11.8951000790421 -1.86493669984764 -0.72259666555513602  -11.8165505322645 -1.8749612728865299 -0.69635629896632201  -11.721904342636901 -1.8912605028770599 -0.65148042758601798  -11.6145721869983 -1.91557447686448 -0.57750065455696797  -11.518919230376699 -1.94240309733437 -0.48077655726651702  -11.447456895879601 -1.9652926336787799 -0.37572502652988499  -11.4006139737296 -1.9814788294875301 -0.27705535699348999  -11.3706261280389 -1.9923203495614801 -0.183054539360887  -11.353682938786999 -1.9986147587701399 -0.091279753888066903  -11.3499224132627 -2.0000290956889999 -0.028696487951850799  -11.3500840716101 -1.9999684800589299 0.0337949978782046  -11.354385576050101 -1.9983506108956901 0.097295410231212395  -11.3722023850145 -1.9917422914191201 0.18892906098549  -11.402206409665499 -1.9809196808767899 0.28072310428800301  -11.448441950018299 -1.96497229416476 0.377234709564708  -11.5198995274931 -1.9421018116600199 0.482068264630795  -11.6177094687362 -1.9147091923864401 0.58050843372934202  -11.7303847890109 -1.8894570184806001 0.65675889729402204  -11.8369606624581 -1.8717461849681201 0.70501216401914102  -11.938625069932799 -1.86019803481194 0.73474118938038802  -12.0248680363531 -1.85493769176807 0.74780561634654197  -12.0934531789331 -1.85383625722311 0.75052735746545396  -12.153643630121501 -1.8544835181136801 0.74892733649241605  -12.217483742959599 -1.8572609546682901 0.74204942573474497  -12.293018639268199 -1.86360035796311 0.72603676970032005  -12.3774822840995 -1.8739625241447799 0.69906853556741899  -12.477602725559899 -1.8910808607990299 0.65209231045270499  -12.587593367091999 -1.9161111928232299 0.57581567129330402  -12.6835888334089 -1.94316223277756 0.47773623191703801  -12.7545392395535 -1.96596076059115 0.37224558847778  -12.8007551746436 -1.9819660948533 0.27352719203676501  -12.82994001184 -1.9925303562541601 0.18048006566993699  -12.846405066512601 -1.9986477887254499 0.090005883215447002  -12.8500003036579 -2.0000001528693598 0.029805830035107402 
 0 3 0.019442146123008101 1 0.039289234334616299 1 0.059329530097357398 1 0.081508748044329393 1 0.10769273567380699 1 0.14005792098820399 1 0.16958173748073599 1 0.19419064749687601 1 0.21088180460526701 1 0.226526908809036 1 0.24035010571399901 1 0.249996282016546 1 0.25340690016883699 1 0.26604803467877502 1 0.27903195587842999 1 0.29332224231682003 1 0.30857037362237999 1 0.33158466672526299 1 0.35999581349815302 1 0.39189052189123103 1 0.41862402127131898 1 0.441139529783872 1 0.46134793473567898 1 0.481086287752585 1 0.49999879793218799 1 0.50081452816064798 1 0.52049510556326695 1 0.54005930043683303 1 0.55970489616681396 1 0.58165321416506699 1 0.60812842509263498 1 0.64073782447435901 1 0.67042719041903798 1 0.69503980700786605 1 0.71512785924242295 1 0.73748700257705502 1 0.74999648464500301 1 0.75837732748206899 1 0.77544405643825298 1 0.79046380277419304 1 0.80718229770146799 1 0.83166742140132099 1 0.86082175945739003 1 0.89272709576354103 1 0.91947591765206504 1 0.94200224316179204 1 0.96202785885683995 1 0.98120214652531201 1 1 3
2 -19.225000000000001 0 0 -1 0 0 -0 -1 -6.1232339957367697e-17 0 -6.1232339957367697e-17 1 1.7
7 1 0  6 7 2  -19.425000000000001 -1.5 -4.592425496802574e-16  1.0313934717875073 -19.371532643369417 -1.4999999999999998 -4.592425496802574e-16  1.0100254076614366 -19.319458285483563 -1.517000870126739 -4.6444756497611509e-16  0.99792464272497539 -19.274616097359544 -1.5496160973595419 -4.7443309838464404e-16  0.99395844413692447 -19.242000870126738 -1.5944582854835612 -4.8816205892285496e-16  0.99792464272497583 -19.225000000000001 -1.6465326433694163 -5.0410523284849645e-16  1.0100254076614348 -19.225000000000001 -1.7 -5.2047488963762507e-16  1.0313934717875073
 3.1415926535897931 7 4.7123889803846897 7
2 -19.425000000000001 0 0 -1 0 0 -0 -1 -6.1232339957367599e-17 0 -6.1232339957367599e-17 1 1.5
7 0 0  1 2 2  -19.425000000000001 -1.5 -9.1848509936051398e-17  -22.024999999999999 -1.5 -9.1848509936051398e-17 
 0.19999999999999929 2 2.7999999999999972 2
2 -22.024999999999999 0 0 -1 0 0 -0 -1 -6.1232339957367599e-17 0 -6.1232339957367599e-17 1 1.5
7 0 0  1 2 2  -22.225000000000001 -1.2999999999999992 4.7192639152856899e-16  -22.024999999999999 -1.5000000000000009 5.4453045176373414e-16 
 -0.14142135623731042 2 0.14142135623731059 2
2 -22.225000000000001 0 0 -1 0 0 0 -1 6.1232339957367697e-17 0 6.1232339957367697e-17 1 1.3
7 0 0  1 2 2  -12.85 -2.0000000000007998 1.866047681432424e-16  -12.85 2 4.3153412797276176e-16 
 0.9999999999992002 2 5 2
Polygon3D 0
PolygonOnTriangulations 0
Surfaces 22
1 4.8939339827456596 24.225000000000801 -18.611553006144 5.8115843579874497e-13 -1 -1.8380401313547999e-13 -0.52648198426984294 -4.6223709766234245e-13 0.85018628560997678 -0.85018628560997678 -3.9732343033031125e-13 -0.52648198426984294 
2 4.8939339827456596 22.324999999999999 -18.611553006144 0 1 0 0 -0 1 1 0 -0 3.1499999999999999
10 0 6.2831853071795862 22.225000000000001 33
2 -22.225000000000001 0 0 1 0 0 -0 1 6.1232339957367697e-17 0 -6.1232339957367697e-17 1 2
1 0 0 0 -1 0 0 0 0 -1 -0 -1 -0 
1 10.775 0 0 1 0 0 -0 1 6.1232339957367697e-17 0 -6.1232339957367697e-17 1 
10 0 6.2831853071795862 0.78539816339744828 7.0685834705770345
5 10.975 0 0 1 0 0 -0 1 6.1232339957367599e-17 0 -6.1232339957367599e-17 1 1.7 0.20000000000000001
10 0 6.2831853071795862 0.19999999999999929 3.2999999999999989
2 10.775 0 0 1 0 0 -0 1 6.1232339957367599e-17 0 -6.1232339957367599e-17 1 1.5
10 3.1415926535897931 9.4247779607693793 -0.14142135623730917 0.14142135623731061
3 14.175000000000001 0 0 -1 0 0 -0 -1 -6.1232339957367697e-17 0 -6.1232339957367697e-17 1 1.3999999999999999
0.78539816339745006
1 14.275 0 0 1 0 0 -0 1 6.1232339957367697e-17 0 -6.1232339957367697e-17 1 
1 4.8939339827467636 22.325000000000799 -18.611553006144348 5.8115843579874497e-13 -1 -1.8380401313547999e-13 -0.52648198426984294 -4.6223709766234245e-13 0.85018628560997678 -0.85018628560997678 -3.9732343033031125e-13 -0.52648198426984294 
10 0 6.2831853071795862 15.775000000000002 20.325000000000003
2 -22.225000000000001 0 0 1 0 0 -0 1 6.1232339957367697e-17 0 -6.1232339957367697e-17 1 2
1 -1.8999999999999999 0 0 -1 0 0 0 0 -1 -0 -1 -0 
1 -6.4500000000000002 0 -1.22464679914735e-16 1 0 -1.22464679914735e-16 7.498798913309273e-33 -1 6.1232339957367697e-17 -1.22464679914735e-16 -6.1232339957367697e-17 -1 
10 0 6.2831853071795862 0 1
2 -7.4500000000000002 0 0 1 0 -1.22464679914735e-16 7.498798913309273e-33 -1 6.1232339957367697e-17 -1.22464679914735e-16 -6.1232339957367697e-17 -1 4
1 -7.4500000000000002 0 0 1 0 -1.22464679914735e-16 7.498798913309273e-33 -1 6.1232339957367697e-17 -1.22464679914735e-16 -6.1232339957367697e-17 -1 
10 0 6.2831853071795862 3 14.775000000000002
2 -22.225000000000001 0 0 1 0 0 -0 1 6.1232339957367697e-17 0 -6.1232339957367697e-17 1 2
10 0 6.2831853071795862 0.99995164353817989 5.0000009381879948
2 -12.1 -3 4.0091795799407802e-16 0 1 6.1232339957367599e-17 -1 7.4987989133092607e-33 -1.22464679914735e-16 -1.22464679914735e-16 -6.1232339957367599e-17 1 0.75
1 -19.225000000000001 0 0 -1 0 0 -0 -1 -6.1232339957367697e-17 0 -6.1232339957367697e-17 1 
10 0 6.2831853071795862 0.78539816339744828 7.0685834705770345
5 -19.425000000000001 0 0 -1 0 0 -0 -1 -6.1232339957367599e-17 0 -6.1232339957367599e-17 1 1.7 0.20000000000000001
10 0 6.2831853071795862 0.19999999999999929 2.7999999999999972
2 -19.225000000000001 0 0 -1 0 0 -0 -1 -6.1232339957367599e-17 0 -6.1232339957367599e-17 1 1.5
10 3.1415926535897931 9.4247779607693793 -0.14142135623731042 0.14142135623731059
3 -22.125 0 0 1 0 0 -0 1 4.3737385683833903e-18 0 -4.3737385683833903e-18 1 1.3999999999999999
0.78539816339745006
1 -22.225000000000001 0 0 1 0 0 -0 1 6.1232339957367697e-17 0 -6.1232339957367697e-17 1 
Triangulations 0

TShapes 104
Ve
1.00000399681522e-07
4.89393398274566 24.2250000000004 -15.461553006144
0 0

0101101
*
Ed
 1e-07 1 1 0
1  1 0 0 6.28318530717959
2  1 1 0 0 6.28318530717959
2  2 2 0 0 6.28318530717959
4 C0 1 0 2 0
0

0101000
+104 0 -104 0 *
Wi

0101100
+103 0 *
Ve
1e-05
-3.5527136788005e-15 2 -1.22464679914735e-16
0 0

0101101
*
Ed
 1e-07 1 1 0
1  2 0 0 6.28318530717959
2  3 3 0 0 6.28318530717959
4 C0 4 0 3 0
0

0101000
+101 0 -101 0 *
Wi

0101100
+100 1 *
Fa
0  1e-07 1 0

0111000
-102 0 +99 0 *
Ve
1e-05
10.775 2 -1.22464679914735e-16
0 0

0101101
*
Ed
 1e-07 1 1 0
1  3 0 0 6.28318530717959
2  4 3 0 0 6.28318530717959
4 C0 3 0 5 0
0

0101000
-97 0 +97 0 *
Ed
 1e-05 1 1 0
1  4 0 22.225 33
3  5 6CN 3 0 22.225 33
0

0101000
-97 0 +101 0 *
Wi

0101100
-96 0 -95 0 +100 0 +95 0 *
Fa
0  1e-07 3 0

0111000
+94 0 *
Wi

0101100
+96 0 *
Ve
1e-05
10.775 1.7 -1.04094977927525e-16
0 0

0101101
*
Ed
 1e-07 1 1 0
1  5 0 0 6.28318530717959
2  7 6 0 0 6.28318530717959
4 G1 5 0 6 0
0

0101000
-91 0 +91 0 *
Wi

0101100
-90 0 *
Fa
0  1e-07 5 0

0111000
+92 0 +89 0 *
Ve
1e-05
10.975 1.5 -9.18485099360515e-17
0 0

0101101
*
Ed
 1e-07 1 1 0
1  6 0 0 6.28318530717959
2  8 6 0 0 6.28318530717959
2  9 7 0 0 6.28318530717959
4 G1 6 0 7 0
0

0101000
+87 0 -87 0 *
Ed
 1e-05 1 1 0
1  7 0 3.14159265358979 4.71238898038469
3  10 11CN 6 0 3.14159265358979 4.71238898038469
0

0101000
+87 0 -91 0 *
Wi

0101100
+86 0 +85 0 -90 0 -85 0 *
Fa
0  1e-07 6 0

0111000
+84 0 *
Ve
1e-05
14.075 1.5 -9.18485099360515e-17
0 0

0101101
*
Ed
 1e-07 1 1 0
1  8 0 0 6.28318530717959
2  12 7 0 0 6.28318530717959
2  13 8 0 0 6.28318530717959
4 C0 7 0 8 0
0

0101000
+82 0 -82 0 *
Ed
 1e-05 1 1 0
1  9 0 0.199999999999999 3.3
3  14 15CN 7 0 0.199999999999999 3.3
0

0101000
-82 0 +87 0 *
Wi

0101100
-81 0 -80 0 +86 0 +80 0 *
Fa
0  1e-07 7 0

0111000
+79 0 *
Ve
1e-05
14.275 1.3 -7.9602041944578e-17
0 0

0101101
*
Ed
 1e-07 1 1 0
1  10 0 0 6.28318530717959
2  16 8 0 0 6.28318530717959
4 C0 8 0 9 0
0

0101000
-77 0 +77 0 *
Ed
 1e-05 1 1 0
1  11 0 -0.141421356237309 0.141421356237311
3  17 18CN 8 0 -0.141421356237309 0.141421356237311
0

0101000
+77 0 -82 0 *
Wi

0101100
-76 0 +75 0 +81 0 -75 0 *
Fa
0  1e-07 8 0

0111000
+74 0 *
Wi

0101100
+76 0 *
Fa
0  1e-07 9 0

0111000
+72 0 *
Ve
1.00000399681522e-07
4.89393398274566 22.3250000000004 -15.461553006144
0 0

0101101
*
Ed
 1e-07 1 1 0
1  12 0 0 1.9
3  19 20CN 2 0 0 1.9
0

0101000
-104 0 +70 0 *
Ed
 1e-07 1 1 0
1  13 0 0 6.28318530717959
2  21 10 0 0 6.28318530717959
2  22 2 0 0 6.28318530717959
4 C0 2 0 10 0
0

0101000
+70 0 -70 0 *
Wi

0101100
-103 0 +69 0 +68 0 -69 0 *
Fa
0  1e-07 2 0

0101000
+67 0 *
Wi

0101100
+68 0 *
Ve
1e-05
-1.9 2 -1.22464679914735e-16
0 0

0101101
*
Ed
 1e-07 1 1 0
1  14 0 0 6.28318530717959
2  23 11 0 0 6.28318530717959
4 C0 11 0 12 0
0

0101000
-64 0 +64 0 *
Wi

0101100
+63 0 *
Fa
0  1e-07 10 0

0111000
-65 0 +62 1 *
Ve
1e-05
-6.45 2 -1.22464679914735e-16
0 0

0101101
*
Ed
 1e-05 1 1 0
1  15 0 15.775 20.325
3  24 25CN 11 0 15.775 20.325
0

0101000
-64 0 +60 0 *
Ed
 1e-07 1 1 0
1  16 0 0 6.28318530717959
2  26 11 0 0 6.28318530717959
4 C0 13 0 11 0
0

0101000
+60 0 -60 0 *
Wi

0101100
-63 0 -59 0 +58 0 +59 0 *
Fa
0  1e-07 11 0

0111000
+57 0 *
Ve
1e-05
-6.45 -4 6.12323399573677e-16
0 0

0101101
*
Ed
 1e-07 1 1 0
1  17 0 0 6.28318530717959
2  27 14 0 0 6.28318530717959
4 C0 14 0 13 0
0

0101000
-55 0 +55 0 *
Wi

0101100
+54 0 *
Wi

0101100
-58 0 *
Fa
0  1e-07 13 0

0111000
+53 0 +52 0 *
Ve
1e-05
-7.45 -4 7.34788079488412e-16
0 0

0101101
*
Ed
 1e-05 1 1 0
1  18 0 0 1
3  28 29CN 14 0 0 1
0

0101000
-55 0 +50 0 *
Ed
 1e-07 1 1 0
1  19 0 0 6.28318530717959
2  30 14 0 0 6.28318530717959
4 C0 15 0 14 0
0

0101000
+50 0 -50 0 *
Wi

0101100
-54 0 -49 0 +48 0 +49 0 *
Fa
0  1e-07 14 0

0111000
+47 0 *
Wi

0101100
-48 0 *
Ve
1e-05
-7.45 2 -1.22464679914735e-16
0 0

0101101
*
Ed
 1e-07 1 1 0
1  20 0 0 6.28318530717959
2  31 16 0 0 6.28318530717959
4 C0 16 0 15 0
0

0101000
-44 0 +44 0 *
Wi

0101100
+43 0 *
Fa
0  1e-07 15 0

0111000
-45 0 -42 0 *
Ve
1e-05
-11.3499999999977 2 -1.22464679914735e-16
0 0

0101101
*
Ed
 1e-05 1 1 0
1  21 0 10.8750000000006 14.775
3  32 33CN 16 0 10.8750000000006 14.775
0

0101000
-44 0 +40 0 *
Ve
1e-05
-12.85 2 2.00458978997039e-16
0 0

0101101
*
Ed
 1.49637896189861e-06 1 1 0
1  22 0 0 1
2  34 16 0 0 1
2  35 17 0 0 1
4 C0 16 0 17 0
0

0101000
-40 0 +38 0 *
Ve
1e-05
-19.225 2 -1.01064309961486e-15
0 0

0101101
*
Ed
 1e-05 1 1 0
1  23 0 3 9.375
3  36 37CN 16 0 3 9.375
0

0101000
-38 0 +36 0 *
Ed
 1e-07 1 1 0
1  24 0 0 6.28318530717959
2  38 16 0 0 6.28318530717959
4 C0 16 0 18 0
0

0101000
+36 0 -36 0 *
Ed
 1.49637896159594e-06 1 1 0
1  25 0 0 1
2  39 16 0 0 1
2  40 17 0 0 1
4 C0 16 0 17 0
0

0101000
-38 0 +40 0 *
Wi

0101100
-43 0 -39 0 -37 0 -35 0 +34 0 +35 0 -33 0 +39 0 *
Ve
1e-05
-12.85 -2.00000000000106 2.26457078691075e-16
0 0

0101101
*
Ed
 1.80828149150586e-06 1 1 0
1  26 0 0 1
2  41 16 0 0 1
2  42 17 0 0 1
4 C0 16 0 17 0
0

0101000
-31 0 +31 0 *
Wi

0101100
-30 0 *
Fa
0  1e-07 16 0

0111000
+32 0 +29 0 *
Wi

0101100
-34 0 *
Ve
1e-05
-19.225 -1.7 -3.12284933782575e-16
0 0

0101101
*
Ed
 1e-07 1 1 0
1  27 0 0 6.28318530717959
2  43 19 0 0 6.28318530717959
4 G1 18 0 19 0
0

0101000
-26 0 +26 0 *
Wi

0101100
-25 0 *
Fa
0  1e-07 18 0

0111000
+27 0 +24 0 *
Ve
1e-05
-19.425 -1.5 -2.75545529808154e-16
0 0

0101101
*
Ed
 1e-05 1 1 0
1  28 0 3.14159265358979 4.71238898038469
3  44 45CN 19 0 3.14159265358979 4.71238898038469
0

0101000
-26 0 +22 0 *
Ed
 1e-07 1 1 0
1  29 0 0 6.28318530717959
2  46 19 0 0 6.28318530717959
2  47 20 0 0 6.28318530717959
4 G1 19 0 20 0
0

0101000
+22 0 -22 0 *
Wi

0101100
-25 0 -21 0 +20 0 +21 0 *
Fa
0  1e-07 19 0

0111000
+19 0 *
Ve
1e-05
-22.025 -1.5 -2.32901578766416e-16
0 0

0101101
*
Ed
 1e-05 1 1 0
1  30 0 0.199999999999999 2.8
3  48 49CN 20 0 0.199999999999999 2.8
0

0101000
+22 0 -17 0 *
Ed
 1e-07 1 1 0
1  31 0 0 6.28318530717959
2  50 20 0 0 6.28318530717959
2  51 21 0 0 6.28318530717959
4 C0 20 0 21 0
0

0101000
+17 0 -17 0 *
Wi

0101100
+20 0 +16 0 -15 0 -16 0 *
Fa
0  1e-07 20 0

0111000
+14 0 *
Ve
1e-05
-22.225 -1.3 -1.36460643333562e-16
0 0

0101101
*
Ed
 1e-05 1 1 0
1  32 0 -0.14142135623731 0.141421356237311
3  52 53CN 21 0 -0.14142135623731 0.141421356237311
0

0101000
-17 0 +12 0 *
Ed
 1e-07 1 1 0
1  33 0 0 6.28318530717959
2  54 21 0 0 6.28318530717959
4 C0 21 0 22 0
0

0101000
-12 0 +12 0 *
Wi

0101100
+15 0 -11 0 -10 0 +11 0 *
Fa
0  1e-07 21 0

0111000
+9 0 *
Wi

0101100
+10 0 *
Fa
0  1e-07 22 0

0111000
-7 0 *
Ed
 1e-05 1 1 0
1  34 0 0.9999999999992 5
3  55 56CN 17 0 0.9999999999992 5
0

0101000
-38 0 +31 0 *
Wi

0101100
-37 0 -5 0 -30 0 +5 0 -33 0 *
Fa
0  1e-07 17 0

0111000
+4 0 *
Sh

0101100
-98 0 +93 1 +88 1 -83 1 +78 1 +73 1 +71 1 +66 0 +61 0 +56 1 
+51 1 +46 1 -41 1 +28 1 +23 1 -18 1 +13 1 +8 1 -6 1 -3 1 
*
So

1100000
+2 0 *

+1 0 