ISO-10303-21;
HEADER;
FILE_DESCRIPTION(('STEP AP203'),
    '1');
FILE_NAME('Датчик AXIS-M',
    '',
    ('UNSPECIFIED'),
    ('UNSPECIFIED'),
    'C3D Converter',
    'C3D Toolkit',
    '');
FILE_SCHEMA(('CONFIG_CONTROL_DESIGN'));
ENDSEC;

DATA;
#1=PRODUCT_DEFINITION('','UNSPECIFIED',#31,#34);
#2=SHAPE_DEFINITION_REPRESENTATION(#29,#3);
#3=SHAPE_REPRESENTATION('NONE',(#4),#8);
#4=AXIS2_PLACEMENT_3D('',#5,#6,#7);
#5=CARTESIAN_POINT('',(0.,0.,0.));
#6=DIRECTION('',(0.,0.,1.));
#7=DIRECTION('',(1.,0.,0.));
#8=(GEOMETRIC_REPRESENTATION_CONTEXT(3)GLOBAL_UNCERTAINTY_ASSIGNED_CONTEXT((#10))
GLOBAL_UNIT_ASSIGNED_CONTEXT((#9,#11,#12))REPRESENTATION_CONTEXT('NONE','NONE'));
#9=(LENGTH_UNIT()NAMED_UNIT(*)SI_UNIT(.MILLI.,.METRE.));
#10=UNCERTAINTY_MEASURE_WITH_UNIT(LENGTH_MEASURE(1.E-5),#9,'NONE','NONE');
#11=(NAMED_UNIT(*)PLANE_ANGLE_UNIT()SI_UNIT($,.RADIAN.));
#12=(NAMED_UNIT(*)SI_UNIT($,.STERADIAN.)SOLID_ANGLE_UNIT());
#13=MANIFOLD_SOLID_BREP('',#14);
#14=CLOSED_SHELL('',(#56,#57,#58,#59,#60,#61,#62,#63,#64,#65,#66,#67,#68,#69,#70,
#71,#72,#73,#74,#75,#76,#77,#78,#79,#80,#81,#82,#83,#84,#85,#86,#87));
#15=COLOUR_RGB('',0.811764705882353,0.980392156862745,0.96078431372549);
#16=FILL_AREA_STYLE_COLOUR('',#15);
#17=FILL_AREA_STYLE($,(#16));
#18=SURFACE_STYLE_FILL_AREA(#17);
#19=SURFACE_SIDE_STYLE('',(#18));
#20=SURFACE_STYLE_USAGE(.BOTH.,#19);
#21=PRESENTATION_STYLE_ASSIGNMENT((#20));
#22=MECHANICAL_DESIGN_GEOMETRIC_PRESENTATION_REPRESENTATION('NONE',(#23,#93,#99,
#105,#111,#117),#8);
#23=STYLED_ITEM('',(#21),#13);
#24=ADVANCED_BREP_SHAPE_REPRESENTATION('NONE',(#13),#8);
#25=SHAPE_REPRESENTATION_RELATIONSHIP('','',#3,#24);
#26=GEOMETRIC_CURVE_SET('',(#88,#94,#100,#106,#112));
#27=GEOMETRICALLY_BOUNDED_WIREFRAME_SHAPE_REPRESENTATION('NONE',(#26),#8);
#28=SHAPE_REPRESENTATION_RELATIONSHIP('','',#3,#27);
#29=PRODUCT_DEFINITION_SHAPE('NONE','NONE',#1);
#30=MECHANICAL_CONTEXT('NONE',#35,'mechanical');
#31=PRODUCT_DEFINITION_FORMATION_WITH_SPECIFIED_SOURCE('ANY','UNSPECIFIED',#32,.NOT_KNOWN.);
#32=PRODUCT('','\X2\04140430044204470438043A\X0\ Axis-M','NONE',(#30));
#33=PRODUCT_RELATED_PRODUCT_CATEGORY('detail','',(#32));
#34=DESIGN_CONTEXT('detailed design',#35,'design');
#35=APPLICATION_CONTEXT('configuration controlled 3d designs of mechanical parts and assemblies');
#36=APPLICATION_PROTOCOL_DEFINITION('international standard','config_control_design',
1994,#35);
#37=CC_DESIGN_DATE_AND_TIME_ASSIGNMENT(#38,#42,(#1));
#38=DATE_AND_TIME(#39,#40);
#39=CALENDAR_DATE(0,1,1);
#40=LOCAL_TIME(0,0,0.,#41);
#41=COORDINATED_UNIVERSAL_TIME_OFFSET(0,0,.AHEAD.);
#42=DATE_TIME_ROLE('creation_date');
#43=CC_DESIGN_APPROVAL(#44,(#1));
#44=APPROVAL(#45,'UNSPECIFIED');
#45=APPROVAL_STATUS('not_yet_approved');
#46=APPROVAL_DATE_TIME(#47,#44);
#47=DATE_AND_TIME(#48,#49);
#48=CALENDAR_DATE(0,1,1);
#49=LOCAL_TIME(0,0,0.,#50);
#50=COORDINATED_UNIVERSAL_TIME_OFFSET(0,0,.AHEAD.);
#51=PERSON('UNSPECIFIED','user','UNSPECIFIED',('UNSPECIFIED'),('UNSPECIFIED'),('UNSPECIFIED'));
#52=ORGANIZATION('UNSPECIFIED','UNSPECIFIED','UNSPECIFIED');
#53=PERSON_AND_ORGANIZATION(#51,#52);
#54=PERSON_AND_ORGANIZATION_ROLE('creator');
#55=CC_DESIGN_PERSON_AND_ORGANIZATION_ASSIGNMENT(#53,#54,(#31,#1));
#56=ADVANCED_FACE('',(#118,#120),#122,.T.);
#57=ADVANCED_FACE('',(#127),#129,.F.);
#58=ADVANCED_FACE('',(#134),#136,.F.);
#59=ADVANCED_FACE('',(#141),#143,.F.);
#60=ADVANCED_FACE('',(#148),#150,.F.);
#61=ADVANCED_FACE('',(#155,#157,#159,#161),#163,.F.);
#62=ADVANCED_FACE('',(#168),#170,.T.);
#63=ADVANCED_FACE('',(#175,#177,#179,#181),#183,.T.);
#64=ADVANCED_FACE('',(#188),#190,.T.);
#65=ADVANCED_FACE('',(#195),#197,.T.);
#66=ADVANCED_FACE('',(#202,#204),#206,.T.);
#67=ADVANCED_FACE('',(#211),#213,.T.);
#68=ADVANCED_FACE('',(#218),#220,.T.);
#69=ADVANCED_FACE('',(#225),#227,.F.);
#70=ADVANCED_FACE('',(#232),#234,.F.);
#71=ADVANCED_FACE('',(#239),#241,.F.);
#72=ADVANCED_FACE('',(#246),#248,.F.);
#73=ADVANCED_FACE('',(#253),#255,.F.);
#74=ADVANCED_FACE('',(#260),#262,.F.);
#75=ADVANCED_FACE('',(#267),#269,.F.);
#76=ADVANCED_FACE('',(#274),#276,.F.);
#77=ADVANCED_FACE('',(#281,#283),#285,.F.);
#78=ADVANCED_FACE('',(#290,#292),#294,.T.);
#79=ADVANCED_FACE('',(#299,#301),#303,.T.);
#80=ADVANCED_FACE('',(#308,#310),#312,.F.);
#81=ADVANCED_FACE('',(#317,#319),#321,.T.);
#82=ADVANCED_FACE('',(#326,#328),#330,.F.);
#83=ADVANCED_FACE('',(#335,#337),#339,.T.);
#84=ADVANCED_FACE('',(#344,#346),#348,.T.);
#85=ADVANCED_FACE('',(#353,#355),#357,.F.);
#86=ADVANCED_FACE('',(#362,#364),#366,.F.);
#87=ADVANCED_FACE('',(#371),#373,.T.);
#88=B_SPLINE_CURVE_WITH_KNOTS('',3,
(#378,#379,#380,#381,#382,#383,#384,#385,#386,#387,#388,#389,#390,#391,#392,#393,
#394,#395,#396,#397,#398,#399,#400,#401,#402,#403,#404,#405,#406,#407,#408,#409,
#410,#411,#412,#413,#414,#415,#416,#417,#418,#419,#420,#421,#422,#423,#424,#425,
#426,#427,#428,#429,#430,#431,#432,#433,#434,#435,#436,#437,#438,#439,#440,#441,
#442,#443,#444,#445,#446,#447,#448,#449,#450,#451,#452,#453,#454,#455),
.UNSPECIFIED.,.F.,.F.,
(4,1,1,1,1,1,1,1,1,1,1,1,1,1,1,1,1,1,1,1,1,1,1,1,1,1,1,1,1,1,1,1,1,1,1,1,1,1,1,1,
1,1,1,1,1,1,1,1,1,1,1,1,1,1,1,1,1,1,1,1,1,1,1,1,1,1,1,1,1,1,1,1,1,1,1,4),
(0.,0.0133333333333333,0.0266666666666667,0.04,0.0533333333333333,0.0666666666666667,
0.08,0.0933333333333333,0.106666666666667,0.12,0.133333333333333,0.146666666666667,
0.16,0.173333333333333,0.186666666666667,0.2,0.213333333333333,0.226666666666667,
0.24,0.253333333333333,0.266666666666667,0.28,0.293333333333333,0.306666666666667,
0.32,0.333333333333334,0.346666666666667,0.36,0.373333333333334,0.386666666666667,
0.4,0.413333333333334,0.426666666666667,0.44,0.453333333333334,0.466666666666667,
0.48,0.493333333333334,0.506666666666667,0.52,0.533333333333334,0.546666666666667,
0.560000000000001,0.573333333333334,0.586666666666667,0.600000000000001,0.613333333333334,
0.626666666666667,0.640000000000001,0.653333333333334,0.666666666666667,0.680000000000001,
0.693333333333334,0.706666666666667,0.720000000000001,0.733333333333334,0.746666666666668,
0.760000000000001,0.773333333333334,0.786666666666668,0.800000000000001,0.813333333333334,
0.826666666666668,0.840000000000001,0.853333333333334,0.866666666666668,0.880000000000001,
0.893333333333334,0.906666666666668,0.920000000000001,0.933333333333335,0.946666666666668,
0.960000000000001,0.973333333333335,0.986666666666668,1.),
.UNSPECIFIED.);
#89=COLOUR_RGB('',0.811764705882353,0.980392156862745,0.96078431372549);
#90=PRESENTATION_STYLE_ASSIGNMENT((#91));
#91=CURVE_STYLE('',#92,POSITIVE_LENGTH_MEASURE(0.1),#89);
#92=PRE_DEFINED_CURVE_FONT('continuous');
#93=STYLED_ITEM('',(#90),#88);
#94=CIRCLE('',#456,3.323417653125);
#95=COLOUR_RGB('',0.811764705882353,0.980392156862745,0.96078431372549);
#96=PRESENTATION_STYLE_ASSIGNMENT((#97));
#97=CURVE_STYLE('',#98,POSITIVE_LENGTH_MEASURE(0.1),#95);
#98=PRE_DEFINED_CURVE_FONT('continuous');
#99=STYLED_ITEM('',(#96),#94);
#100=CIRCLE('',#460,3.323417653125);
#101=COLOUR_RGB('',0.811764705882353,0.980392156862745,0.96078431372549);
#102=PRESENTATION_STYLE_ASSIGNMENT((#103));
#103=CURVE_STYLE('',#104,POSITIVE_LENGTH_MEASURE(0.1),#101);
#104=PRE_DEFINED_CURVE_FONT('continuous');
#105=STYLED_ITEM('',(#102),#100);
#106=CIRCLE('',#464,4.);
#107=COLOUR_RGB('',0.811764705882353,0.980392156862745,0.96078431372549);
#108=PRESENTATION_STYLE_ASSIGNMENT((#109));
#109=CURVE_STYLE('',#110,POSITIVE_LENGTH_MEASURE(0.1),#107);
#110=PRE_DEFINED_CURVE_FONT('continuous');
#111=STYLED_ITEM('',(#108),#106);
#112=CIRCLE('',#468,4.);
#113=COLOUR_RGB('',0.811764705882353,0.980392156862745,0.96078431372549);
#114=PRESENTATION_STYLE_ASSIGNMENT((#115));
#115=CURVE_STYLE('',#116,POSITIVE_LENGTH_MEASURE(0.1),#113);
#116=PRE_DEFINED_CURVE_FONT('continuous');
#117=STYLED_ITEM('',(#114),#112);
#118=FACE_BOUND('',#119,.T.);
#119=EDGE_LOOP('',(#472,#473,#474,#475));
#120=FACE_BOUND('',#121,.T.);
#121=EDGE_LOOP('',(#476,#477,#478,#479));
#122=PLANE('',#123);
#123=AXIS2_PLACEMENT_3D('',#124,#125,#126);
#124=CARTESIAN_POINT('',(-34.5,2.51910407091286E-31,-4.11400915376867E-15));
#125=DIRECTION('',(-1.,1.17589714460272E-32,-1.9203857723246E-16));
#126=DIRECTION('',(-1.9203857723246E-16,-6.12323399573677E-17,1.));
#127=FACE_BOUND('',#128,.T.);
#128=EDGE_LOOP('',(#480,#481,#482,#483));
#129=PLANE('',#130);
#130=AXIS2_PLACEMENT_3D('',#131,#132,#133);
#131=CARTESIAN_POINT('',(-33.5,1.,0.999999999999996));
#132=DIRECTION('',(1.33824617849993E-32,-1.,-6.02692499082228E-17));
#133=DIRECTION('',(-2.03012210217171E-16,-6.02692499082228E-17,1.));
#134=FACE_BOUND('',#135,.T.);
#135=EDGE_LOOP('',(#484,#485,#486,#487));
#136=PLANE('',#137);
#137=AXIS2_PLACEMENT_3D('',#138,#139,#140);
#138=CARTESIAN_POINT('',(-33.5,11.4,0.999999999999997));
#139=DIRECTION('',(1.11022302462516E-16,5.33761069531325E-17,-1.));
#140=DIRECTION('',(0.,-1.,-5.33761069531325E-17));
#141=FACE_BOUND('',#142,.T.);
#142=EDGE_LOOP('',(#488,#489,#490,#491));
#143=PLANE('',#144);
#144=AXIS2_PLACEMENT_3D('',#145,#146,#147);
#145=CARTESIAN_POINT('',(-33.5,11.4,36.));
#146=DIRECTION('',(0.,1.,5.07530525542929E-17));
#147=DIRECTION('',(2.03012210217172E-16,5.07530525542929E-17,-1.));
#148=FACE_BOUND('',#149,.T.);
#149=EDGE_LOOP('',(#492,#493,#494,#495));
#150=PLANE('',#151);
#151=AXIS2_PLACEMENT_3D('',#152,#153,#154);
#152=CARTESIAN_POINT('',(-33.5,0.999999999999998,36.));
#153=DIRECTION('',(0.,0.,1.));
#154=DIRECTION('',(0.,1.,0.));
#155=FACE_BOUND('',#156,.T.);
#156=EDGE_LOOP('',(#496,#497,#498,#499,#500,#501));
#157=FACE_BOUND('',#158,.T.);
#158=EDGE_LOOP('',(#502,#503,#504,#505));
#159=FACE_BOUND('',#160,.T.);
#160=EDGE_LOOP('',(#506,#507,#508,#509));
#161=FACE_BOUND('',#162,.T.);
#162=EDGE_LOOP('',(#510));
#163=PLANE('',#164);
#164=AXIS2_PLACEMENT_3D('',#165,#166,#167);
#165=CARTESIAN_POINT('',(0.,0.,0.));
#166=DIRECTION('',(0.,1.,6.12323399573677E-17));
#167=DIRECTION('',(-1.,7.49879891330929E-33,-1.22464679914735E-16));
#168=FACE_BOUND('',#169,.T.);
#169=EDGE_LOOP('',(#511,#512,#513,#514));
#170=PLANE('',#171);
#171=AXIS2_PLACEMENT_3D('',#172,#173,#174);
#172=CARTESIAN_POINT('',(-34.5,-2.2655965784226E-15,37.));
#173=DIRECTION('',(-2.05954416162348E-16,-5.73018335290403E-16,1.));
#174=DIRECTION('',(1.,-1.14327667423335E-32,2.05954416162348E-16));
#175=FACE_BOUND('',#176,.T.);
#176=EDGE_LOOP('',(#515,#516,#517,#518,#519,#520));
#177=FACE_BOUND('',#178,.T.);
#178=EDGE_LOOP('',(#521,#522,#523,#524));
#179=FACE_BOUND('',#180,.T.);
#180=EDGE_LOOP('',(#525,#526,#527,#528));
#181=FACE_BOUND('',#182,.T.);
#182=EDGE_LOOP('',(#529));
#183=PLANE('',#184);
#184=AXIS2_PLACEMENT_3D('',#185,#186,#187);
#185=CARTESIAN_POINT('',(0.,12.4,7.59281015471359E-16));
#186=DIRECTION('',(0.,1.,6.12323399573677E-17));
#187=DIRECTION('',(-1.,7.49879891330929E-33,-1.22464679914735E-16));
#188=FACE_BOUND('',#189,.T.);
#189=EDGE_LOOP('',(#530,#531,#532,#533));
#190=PLANE('',#191);
#191=AXIS2_PLACEMENT_3D('',#192,#193,#194);
#192=CARTESIAN_POINT('',(-15.9,1.19230902721618E-31,-1.94718841064429E-15));
#193=DIRECTION('',(1.16495738877655E-16,6.12323399573677E-17,-1.));
#194=DIRECTION('',(-1.,7.1333066865413E-33,-1.16495738877655E-16));
#195=FACE_BOUND('',#196,.T.);
#196=EDGE_LOOP('',(#534,#535,#536,#537));
#197=PLANE('',#198);
#198=AXIS2_PLACEMENT_3D('',#199,#200,#201);
#199=CARTESIAN_POINT('',(-33.5,3.9392554344191E-31,-6.4332923372874E-15));
#200=DIRECTION('',(-1.,1.17589714460272E-32,-1.9203857723246E-16));
#201=DIRECTION('',(-2.73691106313441E-48,-1.,-6.12323399573677E-17));
#202=FACE_BOUND('',#203,.T.);
#203=EDGE_LOOP('',(#538,#539,#540,#541));
#204=FACE_BOUND('',#205,.T.);
#205=EDGE_LOOP('',(#542));
#206=PLANE('',#207);
#207=AXIS2_PLACEMENT_3D('',#208,#209,#210);
#208=CARTESIAN_POINT('',(-5.,-6.67432505535308E-16,10.9));
#209=DIRECTION('',(0.707106781186548,0.,-0.707106781186547));
#210=DIRECTION('',(-0.707106781186547,4.32978028117747E-17,-0.707106781186548));
#211=FACE_BOUND('',#212,.T.);
#212=EDGE_LOOP('',(#543,#544,#545,#546));
#213=PLANE('',#214);
#214=AXIS2_PLACEMENT_3D('',#215,#216,#217);
#215=CARTESIAN_POINT('',(-3.00019954800835E-15,-6.67432505535308E-16,10.9));
#216=DIRECTION('',(0.,0.,-1.));
#217=DIRECTION('',(-1.,0.,0.));
#218=FACE_BOUND('',#219,.T.);
#219=EDGE_LOOP('',(#547,#548,#549,#550));
#220=PLANE('',#221);
#221=AXIS2_PLACEMENT_3D('',#222,#223,#224);
#222=CARTESIAN_POINT('',(-6.19652769378294E-15,-2.2655965784226E-15,37.));
#223=DIRECTION('',(1.,0.,1.22464679914735E-16));
#224=DIRECTION('',(1.22464679914735E-16,6.12323399573677E-17,-1.));
#225=FACE_BOUND('',#226,.T.);
#226=EDGE_LOOP('',(#551,#552,#553,#554));
#227=PLANE('',#228);
#228=AXIS2_PLACEMENT_3D('',#229,#230,#231);
#229=CARTESIAN_POINT('',(-4.50000000000001,-1.95943557016424E-15,32.000011293517));
#230=DIRECTION('',(-1.,0.,-4.03716275847996E-16));
#231=DIRECTION('',(-4.03716275847996E-16,-6.12323399573676E-17,1.));
#232=FACE_BOUND('',#233,.T.);
#233=EDGE_LOOP('',(#555,#556,#557,#558));
#234=CYLINDRICAL_SURFACE('',#235,1.6);
#235=AXIS2_PLACEMENT_3D('',#236,#237,#238);
#236=CARTESIAN_POINT('',(-2.90000000000001,-2.09414602654197E-15,34.2));
#237=DIRECTION('',(0.,1.,6.12323399573677E-17));
#238=DIRECTION('',(-0.999999999938357,-6.7988847929148E-22,1.11034214887892E-5));
#239=FACE_BOUND('',#240,.T.);
#240=EDGE_LOOP('',(#559,#560,#561,#562));
#241=PLANE('',#242);
#242=AXIS2_PLACEMENT_3D('',#243,#244,#245);
#243=CARTESIAN_POINT('',(-1.30000000000001,-2.09414602654197E-15,34.2));
#244=DIRECTION('',(1.,0.,1.00929883990178E-16));
#245=DIRECTION('',(1.00929883990178E-16,6.12323399573675E-17,-1.));
#246=FACE_BOUND('',#247,.T.);
#247=EDGE_LOOP('',(#563,#564,#565,#566));
#248=CYLINDRICAL_SURFACE('',#249,1.6);
#249=AXIS2_PLACEMENT_3D('',#250,#251,#252);
#250=CARTESIAN_POINT('',(-2.90000000000001,-1.95943487863576E-15,32.));
#251=DIRECTION('',(0.,1.,6.12323399573677E-17));
#252=DIRECTION('',(0.999999999975089,-4.32205295093294E-22,7.05844812388701E-6));
#253=FACE_BOUND('',#254,.T.);
#254=EDGE_LOOP('',(#567,#568,#569,#570));
#255=CYLINDRICAL_SURFACE('',#256,1.6);
#256=AXIS2_PLACEMENT_3D('',#257,#258,#259);
#257=CARTESIAN_POINT('',(-29.9,-1.77573785876366E-16,2.9));
#258=DIRECTION('',(0.,1.,6.12323399573677E-17));
#259=DIRECTION('',(1.22464679914735E-16,6.12323399573677E-17,-1.));
#260=FACE_BOUND('',#261,.T.);
#261=EDGE_LOOP('',(#571,#572,#573,#574));
#262=PLANE('',#263);
#263=AXIS2_PLACEMENT_3D('',#264,#265,#266);
#264=CARTESIAN_POINT('',(-29.9,-2.75545529808154E-16,4.5));
#265=DIRECTION('',(-1.76574907298994E-48,-7.16272919113004E-17,1.));
#266=DIRECTION('',(1.,-2.46519032881566E-32,0.));
#267=FACE_BOUND('',#268,.T.);
#268=EDGE_LOOP('',(#575,#576,#577,#578));
#269=CYLINDRICAL_SURFACE('',#270,1.6);
#270=AXIS2_PLACEMENT_3D('',#271,#272,#273);
#271=CARTESIAN_POINT('',(-27.9,-1.77573785876366E-16,2.9));
#272=DIRECTION('',(0.,1.,6.12323399573677E-17));
#273=DIRECTION('',(-1.22464679914735E-16,-6.12323399573677E-17,1.));
#274=FACE_BOUND('',#275,.T.);
#275=EDGE_LOOP('',(#579,#580,#581,#582));
#276=PLANE('',#277);
#277=AXIS2_PLACEMENT_3D('',#278,#279,#280);
#278=CARTESIAN_POINT('',(-27.9,-7.96020419445779E-17,1.3));
#279=DIRECTION('',(1.11022302462516E-16,5.37204689334753E-17,-1.));
#280=DIRECTION('',(-1.,6.16297582203915E-33,-1.11022302462516E-16));
#281=FACE_OUTER_BOUND('',#282,.T.);
#282=EDGE_LOOP('',(#583));
#283=FACE_OUTER_BOUND('',#284,.T.);
#284=EDGE_LOOP('',(#584));
#285=CYLINDRICAL_SURFACE('',#286,1.5);
#286=AXIS2_PLACEMENT_3D('',#287,#288,#289);
#287=CARTESIAN_POINT('',(-2.90000000000001,-8.63375993398884E-16,14.1));
#288=DIRECTION('',(0.,1.,6.12323399573677E-17));
#289=DIRECTION('',(-1.,7.49879891330929E-33,-1.22464679914735E-16));
#290=FACE_OUTER_BOUND('',#291,.T.);
#291=EDGE_LOOP('',(#585));
#292=FACE_OUTER_BOUND('',#293,.T.);
#293=EDGE_LOOP('',(#586));
#294=CYLINDRICAL_SURFACE('',#295,4.);
#295=AXIS2_PLACEMENT_3D('',#296,#297,#298);
#296=CARTESIAN_POINT('',(-17.6071067811865,6.2,5.));
#297=DIRECTION('',(1.,0.,1.22464679914735E-16));
#298=DIRECTION('',(7.49879891330929E-33,-1.,-6.12323399573677E-17));
#299=FACE_BOUND('',#300,.T.);
#300=EDGE_LOOP('',(#587));
#301=FACE_BOUND('',#302,.T.);
#302=EDGE_LOOP('',(#588));
#303=PLANE('',#304);
#304=AXIS2_PLACEMENT_3D('',#305,#306,#307);
#305=CARTESIAN_POINT('',(-4.,0.,7.34788079488412E-16));
#306=DIRECTION('',(1.,0.,1.22464679914735E-16));
#307=DIRECTION('',(-7.49879891330929E-33,1.,6.12323399573677E-17));
#308=FACE_OUTER_BOUND('',#309,.T.);
#309=EDGE_LOOP('',(#589));
#310=FACE_OUTER_BOUND('',#311,.T.);
#311=EDGE_LOOP('',(#590));
#312=TOROIDAL_SURFACE('',#313,3.75,0.25);
#313=AXIS2_PLACEMENT_3D('',#314,#315,#316);
#314=CARTESIAN_POINT('',(-3.75,6.2,5.));
#315=DIRECTION('',(1.,0.,1.22464679914735E-16));
#316=DIRECTION('',(-3.21485386664017E-32,1.,2.62512739908231E-16));
#317=FACE_OUTER_BOUND('',#318,.T.);
#318=EDGE_LOOP('',(#591));
#319=FACE_OUTER_BOUND('',#320,.T.);
#320=EDGE_LOOP('',(#592));
#321=CYLINDRICAL_SURFACE('',#322,3.5);
#322=AXIS2_PLACEMENT_3D('',#323,#324,#325);
#323=CARTESIAN_POINT('',(-4.,6.2,5.));
#324=DIRECTION('',(1.,0.,1.22464679914735E-16));
#325=DIRECTION('',(-7.49879891330929E-33,1.,6.12323399573677E-17));
#326=FACE_OUTER_BOUND('',#327,.T.);
#327=EDGE_LOOP('',(#593));
#328=FACE_OUTER_BOUND('',#329,.T.);
#329=EDGE_LOOP('',(#594));
#330=TOROIDAL_SURFACE('',#331,3.75,0.25);
#331=AXIS2_PLACEMENT_3D('',#332,#333,#334);
#332=CARTESIAN_POINT('',(-3.25,6.2,5.));
#333=DIRECTION('',(1.,0.,1.22464679914735E-16));
#334=DIRECTION('',(1.07125698761561E-33,1.,-8.74747713676681E-18));
#335=FACE_BOUND('',#336,.T.);
#336=EDGE_LOOP('',(#595));
#337=FACE_BOUND('',#338,.T.);
#338=EDGE_LOOP('',(#596));
#339=PLANE('',#340);
#340=AXIS2_PLACEMENT_3D('',#341,#342,#343);
#341=CARTESIAN_POINT('',(-3.,0.,-3.67394039744206E-16));
#342=DIRECTION('',(-1.,0.,-1.22464679914735E-16));
#343=DIRECTION('',(-7.49879891330929E-33,1.,6.12323399573677E-17));
#344=FACE_OUTER_BOUND('',#345,.T.);
#345=EDGE_LOOP('',(#597));
#346=FACE_OUTER_BOUND('',#347,.T.);
#347=EDGE_LOOP('',(#598));
#348=CONICAL_SURFACE('',#349,3.75,0.165148677414627);
#349=AXIS2_PLACEMENT_3D('',#350,#351,#352);
#350=CARTESIAN_POINT('',(-1.5,6.2,5.));
#351=DIRECTION('',(-1.,0.,-1.22464679914735E-16));
#352=DIRECTION('',(-7.49879891330929E-33,1.,6.12323399573677E-17));
#353=FACE_BOUND('',#354,.T.);
#354=EDGE_LOOP('',(#599));
#355=FACE_BOUND('',#356,.T.);
#356=EDGE_LOOP('',(#600));
#357=PLANE('',#358);
#358=AXIS2_PLACEMENT_3D('',#359,#360,#361);
#359=CARTESIAN_POINT('',(-1.66533453693773E-15,0.,0.));
#360=DIRECTION('',(-1.,0.,-1.22464679914735E-16));
#361=DIRECTION('',(-7.49879891330929E-33,1.,6.12323399573677E-17));
#362=FACE_OUTER_BOUND('',#363,.T.);
#363=EDGE_LOOP('',(#601));
#364=FACE_OUTER_BOUND('',#365,.T.);
#365=EDGE_LOOP('',(#602));
#366=CYLINDRICAL_SURFACE('',#367,2.5);
#367=AXIS2_PLACEMENT_3D('',#368,#369,#370);
#368=CARTESIAN_POINT('',(-5.,6.2,5.));
#369=DIRECTION('',(1.,0.,1.22464679914735E-16));
#370=DIRECTION('',(-7.49879891330929E-33,1.,6.12323399573677E-17));
#371=FACE_BOUND('',#372,.T.);
#372=EDGE_LOOP('',(#603));
#373=PLANE('',#374);
#374=AXIS2_PLACEMENT_3D('',#375,#376,#377);
#375=CARTESIAN_POINT('',(-5.,0.,-6.12323399573677E-16));
#376=DIRECTION('',(1.,0.,1.22464679914735E-16));
#377=DIRECTION('',(-7.49879891330929E-33,1.,6.12323399573677E-17));
#378=CARTESIAN_POINT('',(-4.,2.876582346875,5.));
#379=CARTESIAN_POINT('',(-4.00888888888889,2.876582346875,5.13717078072485));
#380=CARTESIAN_POINT('',(-4.02666666666667,2.89358882409757,5.41151172049845));
#381=CARTESIAN_POINT('',(-4.05333333333334,2.96972735872262,5.81672243036264));
#382=CARTESIAN_POINT('',(-4.08,3.09532885469783,6.20942709323564));
#383=CARTESIAN_POINT('',(-4.10666666666667,3.26847006199732,6.58361265985642));
#384=CARTESIAN_POINT('',(-4.13333333333334,3.486499787426,6.93354943652582));
#385=CARTESIAN_POINT('',(-4.16,3.74607949053246,7.25387909225892));
#386=CARTESIAN_POINT('',(-4.18666666666667,4.04323440440137,7.53969663429989));
#387=CARTESIAN_POINT('',(-4.21333333333334,4.37341439854778,7.78662553447753));
#388=CARTESIAN_POINT('',(-4.24,4.73156365196133,7.9908847387578));
#389=CARTESIAN_POINT('',(-4.26666666666667,5.11219806944432,8.1493465653484));
#390=CARTESIAN_POINT('',(-4.29333333333334,5.5094892558205,8.25958459638039));
#391=CARTESIAN_POINT('',(-4.32,5.9173537621743,8.31991083209052));
#392=CARTESIAN_POINT('',(-4.34666666666667,6.32954623755422,8.32940153798309));
#393=CARTESIAN_POINT('',(-4.37333333333334,6.73975505977145,8.2879113893534));
#394=CARTESIAN_POINT('',(-4.4,7.14169898096489,8.19607569654387));
#395=CARTESIAN_POINT('',(-4.42666666666667,7.52922330806471,8.05530067687065));
#396=CARTESIAN_POINT('',(-4.45333333333334,7.89639414540877,7.86774192217702));
#397=CARTESIAN_POINT('',(-4.48,8.23758925643897,7.63627139172605));
#398=CARTESIAN_POINT('',(-4.50666666666667,8.54758415317429,7.36443343584751));
#399=CARTESIAN_POINT('',(-4.53333333333334,8.82163209523126,7.05639052371918));
#400=CARTESIAN_POINT('',(-4.56,9.05553677342136,6.71685950631583));
#401=CARTESIAN_POINT('',(-4.58666666666667,9.24571656497097,6.35103939048798));
#402=CARTESIAN_POINT('',(-4.61333333333334,9.38925937646769,5.96453173011656));
#403=CARTESIAN_POINT('',(-4.64,9.48396723476012,5.56325485333966));
#404=CARTESIAN_POINT('',(-4.66666666666667,9.52838994302141,5.15335323923099));
#405=CARTESIAN_POINT('',(-4.69333333333334,9.52184728662395,4.74110343158346));
#406=CARTESIAN_POINT('',(-4.72,9.4644394488019,4.33281793047576));
#407=CARTESIAN_POINT('',(-4.74666666666667,9.35704547661376,3.9347485332649));
#408=CARTESIAN_POINT('',(-4.77333333333334,9.20130982069435,3.55299060507806));
#409=CARTESIAN_POINT('',(-4.8,8.99961715490404,3.19338974464448));
#410=CARTESIAN_POINT('',(-4.82666666666667,8.75505586144474,2.86145227462991));
#411=CARTESIAN_POINT('',(-4.85333333333334,8.47137074057001,2.56226092707378));
#412=CARTESIAN_POINT('',(-4.88,8.15290566901339,2.30039701498088));
#413=CARTESIAN_POINT('',(-4.90666666666667,7.80453708516724,2.07987028180053));
#414=CARTESIAN_POINT('',(-4.93333333333334,7.43159931950829,1.90405750296045));
#415=CARTESIAN_POINT('',(-4.96,7.03980291363386,1.77565077960826));
#416=CARTESIAN_POINT('',(-4.98666666666667,6.63514717863408,1.696616316303));
#417=CARTESIAN_POINT('',(-5.01333333333334,6.22382833173366,1.66816431386607));
#418=CARTESIAN_POINT('',(-5.04,5.81214461784445,1.69073043840159));
#419=CARTESIAN_POINT('',(-5.06666666666667,5.40639986883761,1.76396915023856));
#420=CARTESIAN_POINT('',(-5.09333333333334,5.01280697726644,1.8867589949441));
#421=CARTESIAN_POINT('',(-5.12,4.63739276258102,2.05721977539019));
#422=CARTESIAN_POINT('',(-5.14666666666667,4.28590568655327,2.27274134192966));
#423=CARTESIAN_POINT('',(-5.17333333333334,3.96372783100331,2.53002355983714));
#424=CARTESIAN_POINT('',(-5.2,3.67579248565205,2.82512684202088));
#425=CARTESIAN_POINT('',(-5.22666666666667,3.42650860802105,3.15353247323237));
#426=CARTESIAN_POINT('',(-5.25333333333334,3.21969331207366,3.51021180207041));
#427=CARTESIAN_POINT('',(-5.28,3.05851341935287,3.88970324128964));
#428=CARTESIAN_POINT('',(-5.30666666666667,2.94543696760328,4.2861958973602));
#429=CARTESIAN_POINT('',(-5.33333333333334,2.88219541939281,4.69361854871638));
#430=CARTESIAN_POINT('',(-5.36,2.8697571494075,5.10573261023084));
#431=CARTESIAN_POINT('',(-5.38666666666667,2.90831261639057,5.51622766041278));
#432=CARTESIAN_POINT('',(-5.41333333333334,2.99727144677765,5.91881806858755));
#433=CARTESIAN_POINT('',(-5.44,3.13527147468433,6.30733924247119));
#434=CARTESIAN_POINT('',(-5.46666666666667,3.32019959982322,6.67584202236678));
#435=CARTESIAN_POINT('',(-5.49333333333334,3.5492241439671,7.01868377658854));
#436=CARTESIAN_POINT('',(-5.52,3.81883821050592,7.33061480323155));
#437=CARTESIAN_POINT('',(-5.54666666666667,4.12491338316228,7.60685871527586));
#438=CARTESIAN_POINT('',(-5.57333333333334,4.46276294161361,7.84318557814254));
#439=CARTESIAN_POINT('',(-5.6,4.82721362604329,8.03597667979638));
#440=CARTESIAN_POINT('',(-5.62666666666667,5.21268485173916,8.18227994161472));
#441=CARTESIAN_POINT('',(-5.65333333333334,5.61327416078033,8.27985512155348));
#442=CARTESIAN_POINT('',(-5.68,6.02284760234876,8.32720811744553));
#443=CARTESIAN_POINT('',(-5.70666666666667,6.43513365773383,8.32361384516739));
#444=CARTESIAN_POINT('',(-5.73333333333334,6.84381927181979,8.26912734135975));
#445=CARTESIAN_POINT('',(-5.76000000000001,7.24264652059317,8.16458292068171));
#446=CARTESIAN_POINT('',(-5.78666666666667,7.6255084344605,8.01158140054635));
#447=CARTESIAN_POINT('',(-5.81333333333334,7.98654251012152,7.81246558879585));
#448=CARTESIAN_POINT('',(-5.84,8.32022047903124,7.57028441025576));
#449=CARTESIAN_POINT('',(-5.86666666666667,8.62143295819813,7.28874621923888));
#450=CARTESIAN_POINT('',(-5.89333333333334,8.88556768595925,6.9721620212333));
#451=CARTESIAN_POINT('',(-5.92000000000001,9.10858014908814,6.6253794420549));
#452=CARTESIAN_POINT('',(-5.94666666666667,9.28705550362227,6.25370857171755));
#453=CARTESIAN_POINT('',(-5.97333333333334,9.41826090152582,5.86284038497877));
#454=CARTESIAN_POINT('',(-5.99111111111112,9.47287843185867,5.59345386548733));
#455=CARTESIAN_POINT('',(-6.,9.49176498717265,5.45758951728283));
#456=AXIS2_PLACEMENT_3D('',#457,#458,#459);
#457=CARTESIAN_POINT('',(-4.,6.2,5.));
#458=DIRECTION('',(-1.,0.,-1.6296851737617E-16));
#459=DIRECTION('',(0.,-1.,0.));
#460=AXIS2_PLACEMENT_3D('',#461,#462,#463);
#461=CARTESIAN_POINT('',(-6.,6.2,5.));
#462=DIRECTION('',(-1.,0.,-1.6296851737617E-16));
#463=DIRECTION('',(0.,-1.,0.));
#464=AXIS2_PLACEMENT_3D('',#465,#466,#467);
#465=CARTESIAN_POINT('',(-4.,6.2,5.));
#466=DIRECTION('',(-1.,0.,-1.6296851737617E-16));
#467=DIRECTION('',(0.,-1.,0.));
#468=AXIS2_PLACEMENT_3D('',#469,#470,#471);
#469=CARTESIAN_POINT('',(-6.,6.2,5.));
#470=DIRECTION('',(-1.,0.,-1.6296851737617E-16));
#471=DIRECTION('',(0.,-1.,0.));
#472=ORIENTED_EDGE('',*,*,#604,.T.);
#473=ORIENTED_EDGE('',*,*,#605,.T.);
#474=ORIENTED_EDGE('',*,*,#606,.F.);
#475=ORIENTED_EDGE('',*,*,#607,.F.);
#476=ORIENTED_EDGE('',*,*,#608,.T.);
#477=ORIENTED_EDGE('',*,*,#609,.T.);
#478=ORIENTED_EDGE('',*,*,#610,.T.);
#479=ORIENTED_EDGE('',*,*,#611,.T.);
#480=ORIENTED_EDGE('',*,*,#609,.F.);
#481=ORIENTED_EDGE('',*,*,#612,.F.);
#482=ORIENTED_EDGE('',*,*,#613,.F.);
#483=ORIENTED_EDGE('',*,*,#614,.T.);
#484=ORIENTED_EDGE('',*,*,#610,.F.);
#485=ORIENTED_EDGE('',*,*,#614,.F.);
#486=ORIENTED_EDGE('',*,*,#615,.F.);
#487=ORIENTED_EDGE('',*,*,#616,.T.);
#488=ORIENTED_EDGE('',*,*,#611,.F.);
#489=ORIENTED_EDGE('',*,*,#616,.F.);
#490=ORIENTED_EDGE('',*,*,#617,.F.);
#491=ORIENTED_EDGE('',*,*,#618,.T.);
#492=ORIENTED_EDGE('',*,*,#608,.F.);
#493=ORIENTED_EDGE('',*,*,#618,.F.);
#494=ORIENTED_EDGE('',*,*,#619,.F.);
#495=ORIENTED_EDGE('',*,*,#612,.T.);
#496=ORIENTED_EDGE('',*,*,#604,.F.);
#497=ORIENTED_EDGE('',*,*,#620,.F.);
#498=ORIENTED_EDGE('',*,*,#621,.F.);
#499=ORIENTED_EDGE('',*,*,#622,.F.);
#500=ORIENTED_EDGE('',*,*,#623,.F.);
#501=ORIENTED_EDGE('',*,*,#624,.F.);
#502=ORIENTED_EDGE('',*,*,#625,.T.);
#503=ORIENTED_EDGE('',*,*,#626,.T.);
#504=ORIENTED_EDGE('',*,*,#627,.T.);
#505=ORIENTED_EDGE('',*,*,#628,.T.);
#506=ORIENTED_EDGE('',*,*,#629,.T.);
#507=ORIENTED_EDGE('',*,*,#630,.T.);
#508=ORIENTED_EDGE('',*,*,#631,.T.);
#509=ORIENTED_EDGE('',*,*,#632,.T.);
#510=ORIENTED_EDGE('',*,*,#633,.T.);
#511=ORIENTED_EDGE('',*,*,#624,.T.);
#512=ORIENTED_EDGE('',*,*,#634,.T.);
#513=ORIENTED_EDGE('',*,*,#635,.F.);
#514=ORIENTED_EDGE('',*,*,#605,.F.);
#515=ORIENTED_EDGE('',*,*,#635,.T.);
#516=ORIENTED_EDGE('',*,*,#636,.T.);
#517=ORIENTED_EDGE('',*,*,#637,.T.);
#518=ORIENTED_EDGE('',*,*,#638,.T.);
#519=ORIENTED_EDGE('',*,*,#639,.T.);
#520=ORIENTED_EDGE('',*,*,#606,.T.);
#521=ORIENTED_EDGE('',*,*,#640,.T.);
#522=ORIENTED_EDGE('',*,*,#641,.T.);
#523=ORIENTED_EDGE('',*,*,#642,.T.);
#524=ORIENTED_EDGE('',*,*,#643,.T.);
#525=ORIENTED_EDGE('',*,*,#644,.T.);
#526=ORIENTED_EDGE('',*,*,#645,.T.);
#527=ORIENTED_EDGE('',*,*,#646,.T.);
#528=ORIENTED_EDGE('',*,*,#647,.T.);
#529=ORIENTED_EDGE('',*,*,#648,.T.);
#530=ORIENTED_EDGE('',*,*,#620,.T.);
#531=ORIENTED_EDGE('',*,*,#607,.T.);
#532=ORIENTED_EDGE('',*,*,#639,.F.);
#533=ORIENTED_EDGE('',*,*,#649,.F.);
#534=ORIENTED_EDGE('',*,*,#619,.T.);
#535=ORIENTED_EDGE('',*,*,#617,.T.);
#536=ORIENTED_EDGE('',*,*,#615,.T.);
#537=ORIENTED_EDGE('',*,*,#613,.T.);
#538=ORIENTED_EDGE('',*,*,#621,.T.);
#539=ORIENTED_EDGE('',*,*,#649,.T.);
#540=ORIENTED_EDGE('',*,*,#638,.F.);
#541=ORIENTED_EDGE('',*,*,#650,.F.);
#542=ORIENTED_EDGE('',*,*,#651,.F.);
#543=ORIENTED_EDGE('',*,*,#622,.T.);
#544=ORIENTED_EDGE('',*,*,#650,.T.);
#545=ORIENTED_EDGE('',*,*,#637,.F.);
#546=ORIENTED_EDGE('',*,*,#652,.F.);
#547=ORIENTED_EDGE('',*,*,#623,.T.);
#548=ORIENTED_EDGE('',*,*,#652,.T.);
#549=ORIENTED_EDGE('',*,*,#636,.F.);
#550=ORIENTED_EDGE('',*,*,#634,.F.);
#551=ORIENTED_EDGE('',*,*,#640,.F.);
#552=ORIENTED_EDGE('',*,*,#653,.F.);
#553=ORIENTED_EDGE('',*,*,#625,.F.);
#554=ORIENTED_EDGE('',*,*,#654,.T.);
#555=ORIENTED_EDGE('',*,*,#643,.F.);
#556=ORIENTED_EDGE('',*,*,#655,.F.);
#557=ORIENTED_EDGE('',*,*,#626,.F.);
#558=ORIENTED_EDGE('',*,*,#653,.T.);
#559=ORIENTED_EDGE('',*,*,#642,.F.);
#560=ORIENTED_EDGE('',*,*,#656,.F.);
#561=ORIENTED_EDGE('',*,*,#627,.F.);
#562=ORIENTED_EDGE('',*,*,#655,.T.);
#563=ORIENTED_EDGE('',*,*,#641,.F.);
#564=ORIENTED_EDGE('',*,*,#654,.F.);
#565=ORIENTED_EDGE('',*,*,#628,.F.);
#566=ORIENTED_EDGE('',*,*,#656,.T.);
#567=ORIENTED_EDGE('',*,*,#644,.F.);
#568=ORIENTED_EDGE('',*,*,#657,.F.);
#569=ORIENTED_EDGE('',*,*,#629,.F.);
#570=ORIENTED_EDGE('',*,*,#658,.T.);
#571=ORIENTED_EDGE('',*,*,#647,.F.);
#572=ORIENTED_EDGE('',*,*,#659,.F.);
#573=ORIENTED_EDGE('',*,*,#630,.F.);
#574=ORIENTED_EDGE('',*,*,#657,.T.);
#575=ORIENTED_EDGE('',*,*,#646,.F.);
#576=ORIENTED_EDGE('',*,*,#660,.F.);
#577=ORIENTED_EDGE('',*,*,#631,.F.);
#578=ORIENTED_EDGE('',*,*,#659,.T.);
#579=ORIENTED_EDGE('',*,*,#645,.F.);
#580=ORIENTED_EDGE('',*,*,#658,.F.);
#581=ORIENTED_EDGE('',*,*,#632,.F.);
#582=ORIENTED_EDGE('',*,*,#660,.T.);
#583=ORIENTED_EDGE('',*,*,#648,.F.);
#584=ORIENTED_EDGE('',*,*,#633,.F.);
#585=ORIENTED_EDGE('',*,*,#661,.F.);
#586=ORIENTED_EDGE('',*,*,#651,.T.);
#587=ORIENTED_EDGE('',*,*,#661,.T.);
#588=ORIENTED_EDGE('',*,*,#662,.F.);
#589=ORIENTED_EDGE('',*,*,#663,.F.);
#590=ORIENTED_EDGE('',*,*,#662,.T.);
#591=ORIENTED_EDGE('',*,*,#664,.F.);
#592=ORIENTED_EDGE('',*,*,#663,.T.);
#593=ORIENTED_EDGE('',*,*,#665,.F.);
#594=ORIENTED_EDGE('',*,*,#664,.T.);
#595=ORIENTED_EDGE('',*,*,#666,.T.);
#596=ORIENTED_EDGE('',*,*,#665,.T.);
#597=ORIENTED_EDGE('',*,*,#667,.T.);
#598=ORIENTED_EDGE('',*,*,#666,.F.);
#599=ORIENTED_EDGE('',*,*,#667,.F.);
#600=ORIENTED_EDGE('',*,*,#668,.T.);
#601=ORIENTED_EDGE('',*,*,#668,.F.);
#602=ORIENTED_EDGE('',*,*,#669,.F.);
#603=ORIENTED_EDGE('',*,*,#669,.T.);
#604=EDGE_CURVE('',#670,#671,#672,.T.);
#605=EDGE_CURVE('',#671,#673,#674,.T.);
#606=EDGE_CURVE('',#675,#673,#676,.T.);
#607=EDGE_CURVE('',#670,#675,#677,.T.);
#608=EDGE_CURVE('',#678,#679,#680,.F.);
#609=EDGE_CURVE('',#679,#681,#682,.F.);
#610=EDGE_CURVE('',#681,#683,#684,.F.);
#611=EDGE_CURVE('',#683,#678,#685,.F.);
#612=EDGE_CURVE('',#686,#679,#687,.T.);
#613=EDGE_CURVE('',#688,#686,#689,.T.);
#614=EDGE_CURVE('',#688,#681,#690,.T.);
#615=EDGE_CURVE('',#691,#688,#692,.T.);
#616=EDGE_CURVE('',#691,#683,#693,.T.);
#617=EDGE_CURVE('',#694,#691,#695,.T.);
#618=EDGE_CURVE('',#694,#678,#696,.T.);
#619=EDGE_CURVE('',#686,#694,#697,.T.);
#620=EDGE_CURVE('',#698,#670,#699,.T.);
#621=EDGE_CURVE('',#700,#698,#701,.T.);
#622=EDGE_CURVE('',#702,#700,#703,.T.);
#623=EDGE_CURVE('',#704,#702,#705,.T.);
#624=EDGE_CURVE('',#671,#704,#706,.T.);
#625=EDGE_CURVE('',#707,#708,#709,.T.);
#626=EDGE_CURVE('',#708,#710,#711,.T.);
#627=EDGE_CURVE('',#710,#712,#713,.T.);
#628=EDGE_CURVE('',#712,#707,#714,.T.);
#629=EDGE_CURVE('',#715,#716,#717,.T.);
#630=EDGE_CURVE('',#716,#718,#719,.T.);
#631=EDGE_CURVE('',#718,#720,#721,.T.);
#632=EDGE_CURVE('',#720,#715,#722,.T.);
#633=EDGE_CURVE('',#723,#723,#724,.T.);
#634=EDGE_CURVE('',#704,#725,#726,.T.);
#635=EDGE_CURVE('',#673,#725,#727,.T.);
#636=EDGE_CURVE('',#725,#728,#729,.T.);
#637=EDGE_CURVE('',#728,#730,#731,.T.);
#638=EDGE_CURVE('',#730,#732,#733,.T.);
#639=EDGE_CURVE('',#732,#675,#734,.T.);
#640=EDGE_CURVE('',#735,#736,#737,.F.);
#641=EDGE_CURVE('',#736,#738,#739,.F.);
#642=EDGE_CURVE('',#738,#740,#741,.F.);
#643=EDGE_CURVE('',#740,#735,#742,.F.);
#644=EDGE_CURVE('',#743,#744,#745,.F.);
#645=EDGE_CURVE('',#744,#746,#747,.F.);
#646=EDGE_CURVE('',#746,#748,#749,.F.);
#647=EDGE_CURVE('',#748,#743,#750,.F.);
#648=EDGE_CURVE('',#751,#751,#752,.F.);
#649=EDGE_CURVE('',#698,#732,#753,.T.);
#650=EDGE_CURVE('',#700,#730,#754,.T.);
#651=EDGE_CURVE('',#755,#755,#756,.T.);
#652=EDGE_CURVE('',#702,#728,#757,.T.);
#653=EDGE_CURVE('',#708,#735,#758,.T.);
#654=EDGE_CURVE('',#707,#736,#759,.T.);
#655=EDGE_CURVE('',#710,#740,#760,.T.);
#656=EDGE_CURVE('',#712,#738,#761,.T.);
#657=EDGE_CURVE('',#716,#743,#762,.T.);
#658=EDGE_CURVE('',#715,#744,#763,.T.);
#659=EDGE_CURVE('',#718,#748,#764,.T.);
#660=EDGE_CURVE('',#720,#746,#765,.T.);
#661=EDGE_CURVE('',#766,#766,#767,.T.);
#662=EDGE_CURVE('',#768,#768,#769,.T.);
#663=EDGE_CURVE('',#770,#770,#771,.T.);
#664=EDGE_CURVE('',#772,#772,#773,.T.);
#665=EDGE_CURVE('',#774,#774,#775,.T.);
#666=EDGE_CURVE('',#776,#776,#777,.T.);
#667=EDGE_CURVE('',#778,#778,#779,.T.);
#668=EDGE_CURVE('',#780,#780,#781,.F.);
#669=EDGE_CURVE('',#782,#782,#783,.T.);
#670=VERTEX_POINT('',#784);
#671=VERTEX_POINT('',#785);
#672=LINE('',#786,#787);
#673=VERTEX_POINT('',#789);
#674=LINE('',#790,#791);
#675=VERTEX_POINT('',#793);
#676=LINE('',#794,#795);
#677=LINE('',#797,#798);
#678=VERTEX_POINT('',#800);
#679=VERTEX_POINT('',#801);
#680=LINE('',#802,#803);
#681=VERTEX_POINT('',#805);
#682=LINE('',#806,#807);
#683=VERTEX_POINT('',#809);
#684=LINE('',#810,#811);
#685=LINE('',#813,#814);
#686=VERTEX_POINT('',#816);
#687=LINE('',#817,#818);
#688=VERTEX_POINT('',#820);
#689=LINE('',#821,#822);
#690=LINE('',#824,#825);
#691=VERTEX_POINT('',#827);
#692=LINE('',#828,#829);
#693=LINE('',#831,#832);
#694=VERTEX_POINT('',#834);
#695=LINE('',#835,#836);
#696=LINE('',#838,#839);
#697=LINE('',#841,#842);
#698=VERTEX_POINT('',#844);
#699=LINE('',#845,#846);
#700=VERTEX_POINT('',#848);
#701=LINE('',#849,#850);
#702=VERTEX_POINT('',#852);
#703=LINE('',#853,#854);
#704=VERTEX_POINT('',#856);
#705=LINE('',#857,#858);
#706=LINE('',#860,#861);
#707=VERTEX_POINT('',#863);
#708=VERTEX_POINT('',#864);
#709=LINE('',#865,#866);
#710=VERTEX_POINT('',#868);
#711=CIRCLE('',#869,1.6);
#712=VERTEX_POINT('',#873);
#713=LINE('',#874,#875);
#714=CIRCLE('',#877,1.6);
#715=VERTEX_POINT('',#881);
#716=VERTEX_POINT('',#882);
#717=CIRCLE('',#883,1.6);
#718=VERTEX_POINT('',#887);
#719=LINE('',#888,#889);
#720=VERTEX_POINT('',#891);
#721=CIRCLE('',#892,1.6);
#722=LINE('',#896,#897);
#723=VERTEX_POINT('',#899);
#724=CIRCLE('',#900,1.5);
#725=VERTEX_POINT('',#904);
#726=LINE('',#905,#906);
#727=LINE('',#908,#909);
#728=VERTEX_POINT('',#911);
#729=LINE('',#912,#913);
#730=VERTEX_POINT('',#915);
#731=LINE('',#916,#917);
#732=VERTEX_POINT('',#919);
#733=LINE('',#920,#921);
#734=LINE('',#923,#924);
#735=VERTEX_POINT('',#926);
#736=VERTEX_POINT('',#927);
#737=LINE('',#928,#929);
#738=VERTEX_POINT('',#931);
#739=CIRCLE('',#932,1.6);
#740=VERTEX_POINT('',#936);
#741=LINE('',#937,#938);
#742=CIRCLE('',#940,1.6);
#743=VERTEX_POINT('',#944);
#744=VERTEX_POINT('',#945);
#745=CIRCLE('',#946,1.6);
#746=VERTEX_POINT('',#950);
#747=LINE('',#951,#952);
#748=VERTEX_POINT('',#954);
#749=CIRCLE('',#955,1.6);
#750=LINE('',#959,#960);
#751=VERTEX_POINT('',#962);
#752=CIRCLE('',#963,1.5);
#753=LINE('',#967,#968);
#754=LINE('',#970,#971);
#755=VERTEX_POINT('',#973);
#756=(BOUNDED_CURVE()B_SPLINE_CURVE(3,
(#974,#975,#976,#977,#978,#979,#980),
.UNSPECIFIED.,.T.,.F.)B_SPLINE_CURVE_WITH_KNOTS((4,3,4),
(0.,0.5,1.),
.UNSPECIFIED.)CURVE()GEOMETRIC_REPRESENTATION_ITEM()RATIONAL_B_SPLINE_CURVE((1.,
0.333333333333333,0.333333333333333,1.,0.333333333333333,0.333333333333333,1.))
REPRESENTATION_ITEM(''));
#757=LINE('',#981,#982);
#758=LINE('',#984,#985);
#759=LINE('',#987,#988);
#760=LINE('',#990,#991);
#761=LINE('',#993,#994);
#762=LINE('',#996,#997);
#763=LINE('',#999,#1000);
#764=LINE('',#1002,#1003);
#765=LINE('',#1005,#1006);
#766=VERTEX_POINT('',#1008);
#767=CIRCLE('',#1009,4.);
#768=VERTEX_POINT('',#1013);
#769=CIRCLE('',#1014,3.75);
#770=VERTEX_POINT('',#1018);
#771=CIRCLE('',#1019,3.5);
#772=VERTEX_POINT('',#1023);
#773=CIRCLE('',#1024,3.5);
#774=VERTEX_POINT('',#1028);
#775=CIRCLE('',#1029,3.75);
#776=VERTEX_POINT('',#1033);
#777=CIRCLE('',#1034,4.);
#778=VERTEX_POINT('',#1038);
#779=CIRCLE('',#1039,3.5);
#780=VERTEX_POINT('',#1043);
#781=CIRCLE('',#1044,2.5);
#782=VERTEX_POINT('',#1048);
#783=CIRCLE('',#1049,2.5);
#784=CARTESIAN_POINT('',(-34.5,2.51910407091286E-31,-4.11400915376867E-15));
#785=CARTESIAN_POINT('',(-34.5,-2.2655965784226E-15,37.));
#786=CARTESIAN_POINT('',(-34.5,2.51910407091286E-31,-4.11400915376867E-15));
#787=VECTOR('',#788,1.);
#788=DIRECTION('',(-1.9203857723246E-16,-6.12323399573677E-17,1.));
#789=CARTESIAN_POINT('',(-34.5,12.4,37.));
#790=CARTESIAN_POINT('',(-34.5,-2.2655965784226E-15,37.));
#791=VECTOR('',#792,1.);
#792=DIRECTION('',(0.,1.,5.73018335290403E-16));
#793=CARTESIAN_POINT('',(-34.5,12.4,-3.35472813829731E-15));
#794=CARTESIAN_POINT('',(-34.5,12.4,-3.35472813829731E-15));
#795=VECTOR('',#796,1.);
#796=DIRECTION('',(-1.9203857723246E-16,-4.80096443081149E-17,1.));
#797=CARTESIAN_POINT('',(-34.5,2.51910407091286E-31,-4.11400915376867E-15));
#798=VECTOR('',#799,1.);
#799=DIRECTION('',(0.,1.,6.12323399573677E-17));
#800=CARTESIAN_POINT('',(-34.5,11.4,36.));
#801=CARTESIAN_POINT('',(-34.5,0.999999999999998,36.));
#802=CARTESIAN_POINT('',(-34.5,0.999999999999998,36.));
#803=VECTOR('',#804,1.);
#804=DIRECTION('',(0.,1.,0.));
#805=CARTESIAN_POINT('',(-34.5,1.,0.999999999999996));
#806=CARTESIAN_POINT('',(-34.5,1.,0.999999999999996));
#807=VECTOR('',#808,1.);
#808=DIRECTION('',(-2.03012210217171E-16,-6.02692499082228E-17,1.));
#809=CARTESIAN_POINT('',(-34.5,11.4,0.999999999999997));
#810=CARTESIAN_POINT('',(-34.5,11.4,0.999999999999997));
#811=VECTOR('',#812,1.);
#812=DIRECTION('',(0.,-1.,-5.33761069531325E-17));
#813=CARTESIAN_POINT('',(-34.5,11.4,36.));
#814=VECTOR('',#815,1.);
#815=DIRECTION('',(2.03012210217172E-16,5.07530525542929E-17,-1.));
#816=CARTESIAN_POINT('',(-33.5,0.999999999999998,36.));
#817=CARTESIAN_POINT('',(-33.5,0.999999999999998,36.));
#818=VECTOR('',#819,1.);
#819=DIRECTION('',(-1.,0.,0.));
#820=CARTESIAN_POINT('',(-33.5,1.,0.999999999999996));
#821=CARTESIAN_POINT('',(-33.5,1.,0.999999999999996));
#822=VECTOR('',#823,1.);
#823=DIRECTION('',(-2.03012210217171E-16,-6.02692499082228E-17,1.));
#824=CARTESIAN_POINT('',(-33.5,1.,0.999999999999996));
#825=VECTOR('',#826,1.);
#826=DIRECTION('',(-1.,0.,-1.11022302462516E-16));
#827=CARTESIAN_POINT('',(-33.5,11.4,0.999999999999997));
#828=CARTESIAN_POINT('',(-33.5,11.4,0.999999999999997));
#829=VECTOR('',#830,1.);
#830=DIRECTION('',(0.,-1.,-5.33761069531325E-17));
#831=CARTESIAN_POINT('',(-33.5,11.4,0.999999999999998));
#832=VECTOR('',#833,1.);
#833=DIRECTION('',(-1.,0.,-2.22044604925031E-16));
#834=CARTESIAN_POINT('',(-33.5,11.4,36.));
#835=CARTESIAN_POINT('',(-33.5,11.4,36.));
#836=VECTOR('',#837,1.);
#837=DIRECTION('',(2.03012210217172E-16,5.07530525542929E-17,-1.));
#838=CARTESIAN_POINT('',(-33.5,11.4,36.));
#839=VECTOR('',#840,1.);
#840=DIRECTION('',(-1.,0.,0.));
#841=CARTESIAN_POINT('',(-33.5,0.999999999999998,36.));
#842=VECTOR('',#843,1.);
#843=DIRECTION('',(0.,1.,0.));
#844=CARTESIAN_POINT('',(-15.9,1.19230902721618E-31,-1.94718841064429E-15));
#845=CARTESIAN_POINT('',(-15.9,1.19230902721618E-31,-1.94718841064429E-15));
#846=VECTOR('',#847,1.);
#847=DIRECTION('',(-1.,7.1333066865413E-33,-1.16495738877655E-16));
#848=CARTESIAN_POINT('',(-5.,-6.67432505535308E-16,10.9));
#849=CARTESIAN_POINT('',(-5.,-6.67432505535308E-16,10.9));
#850=VECTOR('',#851,1.);
#851=DIRECTION('',(-0.707106781186547,4.32978028117747E-17,-0.707106781186548));
#852=CARTESIAN_POINT('',(-3.00019954800835E-15,-6.67432505535308E-16,10.9));
#853=CARTESIAN_POINT('',(-3.00019954800835E-15,-6.67432505535308E-16,10.9));
#854=VECTOR('',#855,1.);
#855=DIRECTION('',(-1.,0.,0.));
#856=CARTESIAN_POINT('',(-6.19652769378294E-15,-2.2655965784226E-15,37.));
#857=CARTESIAN_POINT('',(-6.19652769378294E-15,-2.2655965784226E-15,37.));
#858=VECTOR('',#859,1.);
#859=DIRECTION('',(1.22464679914735E-16,6.12323399573677E-17,-1.));
#860=CARTESIAN_POINT('',(-34.5,-2.2655965784226E-15,37.));
#861=VECTOR('',#862,1.);
#862=DIRECTION('',(1.,-1.14327667423335E-32,2.05954416162348E-16));
#863=CARTESIAN_POINT('',(-4.49999999998008,-1.95943557016424E-15,32.000011293517));
#864=CARTESIAN_POINT('',(-4.4999999999507,-2.09414711436354E-15,34.2000177654744));
#865=CARTESIAN_POINT('',(-4.50000000000001,-1.95943557016424E-15,32.000011293517));
#866=VECTOR('',#867,1.);
#867=DIRECTION('',(-4.03716275847996E-16,-6.12323399573676E-17,1.));
#868=CARTESIAN_POINT('',(-1.30000000000001,-2.09414602654197E-15,34.2));
#869=AXIS2_PLACEMENT_3D('',#870,#871,#872);
#870=CARTESIAN_POINT('',(-2.90000000000001,-2.09414602654197E-15,34.2));
#871=DIRECTION('',(9.4039548065783E-38,1.,6.12323399573677E-17));
#872=DIRECTION('',(-0.999999999938357,-6.79888479298978E-22,1.11034214889116E-5));
#873=CARTESIAN_POINT('',(-1.30000000001994,-1.95943557016424E-15,32.000011293517));
#874=CARTESIAN_POINT('',(-1.30000000000001,-2.09414602654197E-15,34.2));
#875=VECTOR('',#876,1.);
#876=DIRECTION('',(1.00929883990178E-16,6.12323399573675E-17,-1.));
#877=AXIS2_PLACEMENT_3D('',#878,#879,#880);
#878=CARTESIAN_POINT('',(-2.90000000000001,-1.95943487863576E-15,32.));
#879=DIRECTION('',(0.,1.,6.12323399573677E-17));
#880=DIRECTION('',(0.999999999975089,-4.32205295085795E-22,7.05844812376455E-6));
#881=CARTESIAN_POINT('',(-29.9,-7.96020419445779E-17,1.3));
#882=CARTESIAN_POINT('',(-29.9,-2.75545529808154E-16,4.5));
#883=AXIS2_PLACEMENT_3D('',#884,#885,#886);
#884=CARTESIAN_POINT('',(-29.9,-1.77573785876366E-16,2.9));
#885=DIRECTION('',(0.,1.,6.12323399573677E-17));
#886=DIRECTION('',(0.,6.12323399573677E-17,-1.));
#887=CARTESIAN_POINT('',(-27.9,-2.75545529808154E-16,4.5));
#888=CARTESIAN_POINT('',(-29.9,-2.75545529808154E-16,4.5));
#889=VECTOR('',#890,1.);
#890=DIRECTION('',(1.,-2.46519032881566E-32,0.));
#891=CARTESIAN_POINT('',(-27.9,-7.96020419445779E-17,1.3));
#892=AXIS2_PLACEMENT_3D('',#893,#894,#895);
#893=CARTESIAN_POINT('',(-27.9,-1.77573785876366E-16,2.9));
#894=DIRECTION('',(0.,1.,6.12323399573677E-17));
#895=DIRECTION('',(0.,-6.12323399573677E-17,1.));
#896=CARTESIAN_POINT('',(-27.9,-7.96020419445779E-17,1.3));
#897=VECTOR('',#898,1.);
#898=DIRECTION('',(-1.,0.,-2.22044604925031E-16));
#899=CARTESIAN_POINT('',(-4.40000000000001,-8.63375993398884E-16,14.1));
#900=AXIS2_PLACEMENT_3D('',#901,#902,#903);
#901=CARTESIAN_POINT('',(-2.90000000000001,-8.63375993398884E-16,14.1));
#902=DIRECTION('',(0.,1.,6.12323399573677E-17));
#903=DIRECTION('',(-1.,7.49879891330929E-33,-1.22464679914735E-16));
#904=CARTESIAN_POINT('',(-6.19652769378294E-15,12.4,37.));
#905=CARTESIAN_POINT('',(-6.65097752569197E-15,-2.2655965784226E-15,37.));
#906=VECTOR('',#907,1.);
#907=DIRECTION('',(-6.36178149371784E-32,1.,0.));
#908=CARTESIAN_POINT('',(-34.5,12.4,37.));
#909=VECTOR('',#910,1.);
#910=DIRECTION('',(1.,0.,0.));
#911=CARTESIAN_POINT('',(-3.00019954800835E-15,12.4,10.9));
#912=CARTESIAN_POINT('',(-6.19652769378294E-15,12.4,37.));
#913=VECTOR('',#914,1.);
#914=DIRECTION('',(1.22464679914735E-16,6.80596490191667E-17,-1.));
#915=CARTESIAN_POINT('',(-5.,12.4,10.9));
#916=CARTESIAN_POINT('',(-3.00019954800835E-15,12.4,10.9));
#917=VECTOR('',#918,1.);
#918=DIRECTION('',(-1.,0.,0.));
#919=CARTESIAN_POINT('',(-15.9,12.4,-1.18790739517293E-15));
#920=CARTESIAN_POINT('',(-5.,12.4,10.9));
#921=VECTOR('',#922,1.);
#922=DIRECTION('',(-0.707106781186547,0.,-0.707106781186548));
#923=CARTESIAN_POINT('',(-15.9,12.4,-1.18790739517293E-15));
#924=VECTOR('',#925,1.);
#925=DIRECTION('',(-1.,0.,-1.16495738877655E-16));
#926=CARTESIAN_POINT('',(-4.4999999999507,12.4,34.2000177654744));
#927=CARTESIAN_POINT('',(-4.49999999998008,12.4,32.000011293517));
#928=CARTESIAN_POINT('',(-4.50000000000001,12.4,32.000011293517));
#929=VECTOR('',#930,1.);
#930=DIRECTION('',(-4.03716275847996E-16,0.,1.));
#931=CARTESIAN_POINT('',(-1.30000000001994,12.4,32.000011293517));
#932=AXIS2_PLACEMENT_3D('',#933,#934,#935);
#933=CARTESIAN_POINT('',(-2.90000000000001,12.4,32.));
#934=DIRECTION('',(0.,1.,6.12323399573677E-17));
#935=DIRECTION('',(0.999999999975089,-4.32205295085795E-22,7.05844812376455E-6));
#936=CARTESIAN_POINT('',(-1.30000000000001,12.4,34.2));
#937=CARTESIAN_POINT('',(-1.30000000000001,12.4,34.2));
#938=VECTOR('',#939,1.);
#939=DIRECTION('',(1.00929883990178E-16,0.,-1.));
#940=AXIS2_PLACEMENT_3D('',#941,#942,#943);
#941=CARTESIAN_POINT('',(-2.90000000000001,12.4,34.2));
#942=DIRECTION('',(9.4039548065783E-38,1.,6.12323399573677E-17));
#943=DIRECTION('',(-0.999999999938357,-6.79888479298978E-22,1.11034214889116E-5));
#944=CARTESIAN_POINT('',(-29.9,12.4,4.5));
#945=CARTESIAN_POINT('',(-29.9,12.4,1.3));
#946=AXIS2_PLACEMENT_3D('',#947,#948,#949);
#947=CARTESIAN_POINT('',(-29.9,12.4,2.9));
#948=DIRECTION('',(0.,1.,6.12323399573677E-17));
#949=DIRECTION('',(0.,6.12323399573677E-17,-1.));
#950=CARTESIAN_POINT('',(-27.9,12.4,1.3));
#951=CARTESIAN_POINT('',(-27.9,12.4,1.3));
#952=VECTOR('',#953,1.);
#953=DIRECTION('',(-1.,0.,0.));
#954=CARTESIAN_POINT('',(-27.9,12.4,4.5));
#955=AXIS2_PLACEMENT_3D('',#956,#957,#958);
#956=CARTESIAN_POINT('',(-27.9,12.4,2.9));
#957=DIRECTION('',(0.,1.,6.12323399573677E-17));
#958=DIRECTION('',(0.,-6.12323399573677E-17,1.));
#959=CARTESIAN_POINT('',(-29.9,12.4,4.5));
#960=VECTOR('',#961,1.);
#961=DIRECTION('',(1.,0.,0.));
#962=CARTESIAN_POINT('',(-4.40000000000001,12.4,14.1));
#963=AXIS2_PLACEMENT_3D('',#964,#965,#966);
#964=CARTESIAN_POINT('',(-2.90000000000001,12.4,14.1));
#965=DIRECTION('',(0.,1.,6.12323399573677E-17));
#966=DIRECTION('',(-1.,7.49879891330929E-33,-1.22464679914735E-16));
#967=CARTESIAN_POINT('',(-15.9,1.82874967801592E-31,-9.73594205322146E-16));
#968=VECTOR('',#969,1.);
#969=DIRECTION('',(0.,1.,4.59242549680257E-17));
#970=CARTESIAN_POINT('',(-5.,-6.67432505535308E-16,10.9));
#971=VECTOR('',#972,1.);
#972=DIRECTION('',(0.,1.,0.));
#973=CARTESIAN_POINT('',(-10.9,2.2,5.));
#974=CARTESIAN_POINT('',(-10.9,2.2,5.));
#975=CARTESIAN_POINT('',(-18.9,2.2,-3.));
#976=CARTESIAN_POINT('',(-18.9,10.2,-3.));
#977=CARTESIAN_POINT('',(-10.9,10.2,5.));
#978=CARTESIAN_POINT('',(-2.90000000000001,10.2,13.));
#979=CARTESIAN_POINT('',(-2.90000000000001,2.2,13.));
#980=CARTESIAN_POINT('',(-10.9,2.2,5.));
#981=CARTESIAN_POINT('',(-3.00019954800835E-15,-6.67432505535307E-16,10.9));
#982=VECTOR('',#983,1.);
#983=DIRECTION('',(0.,1.,0.));
#984=CARTESIAN_POINT('',(-4.4999999999507,-2.09414711436354E-15,34.2000177654744));
#985=VECTOR('',#986,1.);
#986=DIRECTION('',(0.,1.,0.));
#987=CARTESIAN_POINT('',(-4.49999999998008,-1.95943557016424E-15,32.000011293517));
#988=VECTOR('',#989,1.);
#989=DIRECTION('',(0.,1.,0.));
#990=CARTESIAN_POINT('',(-1.30000000000001,-2.09414602654197E-15,34.2));
#991=VECTOR('',#992,1.);
#992=DIRECTION('',(0.,1.,0.));
#993=CARTESIAN_POINT('',(-1.30000000001994,-1.95943557016424E-15,32.000011293517));
#994=VECTOR('',#995,1.);
#995=DIRECTION('',(0.,1.,0.));
#996=CARTESIAN_POINT('',(-29.9,-2.75545529808154E-16,4.5));
#997=VECTOR('',#998,1.);
#998=DIRECTION('',(0.,1.,0.));
#999=CARTESIAN_POINT('',(-29.9,-7.96020419445779E-17,1.3));
#1000=VECTOR('',#1001,1.);
#1001=DIRECTION('',(0.,1.,5.37204689334753E-17));
#1002=CARTESIAN_POINT('',(-27.9,-2.75545529808154E-16,4.5));
#1003=VECTOR('',#1004,1.);
#1004=DIRECTION('',(0.,1.,0.));
#1005=CARTESIAN_POINT('',(-27.9,-7.96020419445779E-17,1.3));
#1006=VECTOR('',#1007,1.);
#1007=DIRECTION('',(0.,1.,7.16272919113004E-17));
#1008=CARTESIAN_POINT('',(-4.,2.2,5.));
#1009=AXIS2_PLACEMENT_3D('',#1010,#1011,#1012);
#1010=CARTESIAN_POINT('',(-4.,6.2,5.));
#1011=DIRECTION('',(1.,0.,1.22464679914735E-16));
#1012=DIRECTION('',(7.49879891330929E-33,-1.,-6.12323399573677E-17));
#1013=CARTESIAN_POINT('',(-4.,9.95,5.));
#1014=AXIS2_PLACEMENT_3D('',#1015,#1016,#1017);
#1015=CARTESIAN_POINT('',(-4.,6.2,5.));
#1016=DIRECTION('',(1.,0.,1.22464679914735E-16));
#1017=DIRECTION('',(-7.49879891330929E-33,1.,6.12323399573677E-17));
#1018=CARTESIAN_POINT('',(-3.75,9.7,5.));
#1019=AXIS2_PLACEMENT_3D('',#1020,#1021,#1022);
#1020=CARTESIAN_POINT('',(-3.75,6.2,5.));
#1021=DIRECTION('',(1.,1.3684555315672E-48,1.22464679914735E-16));
#1022=DIRECTION('',(-1.3684555315672E-48,1.,-1.67587468650927E-64));
#1023=CARTESIAN_POINT('',(-3.25,9.7,5.));
#1024=AXIS2_PLACEMENT_3D('',#1025,#1026,#1027);
#1025=CARTESIAN_POINT('',(-3.25,6.2,5.));
#1026=DIRECTION('',(1.,1.3684555315672E-48,1.22464679914735E-16));
#1027=DIRECTION('',(-1.3684555315672E-48,1.,-1.67587468650927E-64));
#1028=CARTESIAN_POINT('',(-3.,9.95,5.));
#1029=AXIS2_PLACEMENT_3D('',#1030,#1031,#1032);
#1030=CARTESIAN_POINT('',(-3.,6.2,5.));
#1031=DIRECTION('',(1.,0.,1.22464679914735E-16));
#1032=DIRECTION('',(-7.49879891330929E-33,1.,6.12323399573677E-17));
#1033=CARTESIAN_POINT('',(-3.,10.2,5.));
#1034=AXIS2_PLACEMENT_3D('',#1035,#1036,#1037);
#1035=CARTESIAN_POINT('',(-3.,6.2,5.));
#1036=DIRECTION('',(-1.,0.,-1.22464679914735E-16));
#1037=DIRECTION('',(7.49879891330929E-33,1.,-6.12323399573677E-17));
#1038=CARTESIAN_POINT('',(-2.27765793651141E-15,9.7,5.));
#1039=AXIS2_PLACEMENT_3D('',#1040,#1041,#1042);
#1040=CARTESIAN_POINT('',(-2.27765793651141E-15,6.2,5.));
#1041=DIRECTION('',(-1.,0.,-1.22464679914735E-16));
#1042=DIRECTION('',(-7.49879891330929E-33,1.,6.12323399573677E-17));
#1043=CARTESIAN_POINT('',(-2.27765793651141E-15,8.7,5.));
#1044=AXIS2_PLACEMENT_3D('',#1045,#1046,#1047);
#1045=CARTESIAN_POINT('',(-2.27765793651141E-15,6.2,5.));
#1046=DIRECTION('',(1.,0.,1.22464679914735E-16));
#1047=DIRECTION('',(-7.49879891330929E-33,1.,6.12323399573677E-17));
#1048=CARTESIAN_POINT('',(-5.,8.7,5.));
#1049=AXIS2_PLACEMENT_3D('',#1050,#1051,#1052);
#1050=CARTESIAN_POINT('',(-5.,6.2,5.));
#1051=DIRECTION('',(1.,0.,1.22464679914735E-16));
#1052=DIRECTION('',(-7.49879891330929E-33,1.,6.12323399573677E-17));
ENDSEC;
END-ISO-10303-21;
